<svg width="213" height="224" viewBox="0 0 213 224" fill="none" xmlns="http://www.w3.org/2000/svg">
<path d="M35.0094 146.039C40.4434 160.332 49.9937 172.693 62.4527 181.558C74.9117 190.423 89.7198 195.395 105.004 195.844C120.289 196.294 135.364 192.201 148.322 184.083C161.28 175.964 171.54 164.186 177.805 150.237C184.069 136.288 186.056 120.794 183.515 105.716C180.974 90.6373 174.019 76.6509 163.528 65.5253C153.038 54.3997 139.485 46.6346 124.582 43.212C109.678 39.7894 94.0948 40.863 79.8017 46.297C60.6353 53.5837 45.1485 68.1858 36.7484 86.8911C28.3482 105.596 27.7226 126.872 35.0094 146.039ZM119.358 86.677C152.255 99.1315 173.507 123.507 166.844 141.126C160.181 158.745 128.084 162.884 95.1948 150.451C62.3058 138.018 41.0229 113.593 47.7009 95.9805C54.3788 78.368 86.4404 74.1684 119.338 86.6228L119.358 86.677Z" fill="#0012BC"/>
<path d="M32.5199 132.262C37.9539 146.555 47.5042 158.916 59.9632 167.781C72.4222 176.646 87.2303 181.618 102.515 182.067C117.799 182.517 132.874 178.424 145.832 170.306C158.791 162.188 169.051 150.409 175.315 136.46C181.579 122.511 183.567 107.018 181.026 91.939C178.484 76.8604 171.529 62.874 161.039 51.7484C150.549 40.6229 136.995 32.8578 122.092 29.4352C107.189 26.0126 91.6053 27.0861 77.3122 32.5201C58.1458 39.8069 42.659 54.409 34.2589 73.1142C25.8587 91.8194 25.2331 113.096 32.5199 132.262ZM116.869 72.9002C149.766 85.3546 171.017 109.73 164.354 127.349C157.691 144.968 125.594 149.107 92.7053 136.674C59.8163 124.241 38.5334 99.8161 45.2114 82.2036C51.8893 64.5912 83.9509 60.3915 116.848 72.846L116.869 72.9002Z" fill="#04D1FF"/>
</svg>
