<svg width="661" height="481" viewBox="0 0 661 481" fill="none" xmlns="http://www.w3.org/2000/svg">
<path d="M35.0094 403.039C40.4434 417.332 49.9937 429.693 62.4527 438.558C74.9117 447.423 89.7198 452.395 105.004 452.844C120.289 453.294 135.364 449.201 148.322 441.083C161.28 432.964 171.54 421.186 177.805 407.237C184.069 393.288 186.056 377.794 183.515 362.716C180.974 347.637 174.019 333.651 163.528 322.525C153.038 311.4 139.485 303.635 124.581 300.212C109.678 296.789 94.0948 297.863 79.8017 303.297C60.6353 310.584 45.1485 325.186 36.7484 343.891C28.3482 362.596 27.7226 383.872 35.0094 403.039ZM119.358 343.677C152.255 356.131 173.507 380.507 166.844 398.126C160.181 415.745 128.084 419.884 95.1948 407.451C62.3058 395.018 41.0229 370.593 47.7009 352.98C54.3788 335.368 86.4404 331.168 119.338 343.623L119.358 343.677Z" fill="#0012BC"/>
<path d="M32.5199 389.262C37.9539 403.555 47.5042 415.916 59.9632 424.781C72.4222 433.646 87.2303 438.618 102.515 439.067C117.799 439.517 132.874 435.424 145.832 427.306C158.791 419.188 169.051 407.409 175.315 393.46C181.579 379.511 183.567 364.018 181.026 348.939C178.484 333.86 171.529 319.874 161.039 308.748C150.549 297.623 136.995 289.858 122.092 286.435C107.189 283.013 91.6053 284.086 77.3122 289.52C58.1458 296.807 42.659 311.409 34.2588 330.114C25.8587 348.819 25.2331 370.096 32.5199 389.262ZM116.869 329.9C149.766 342.355 171.017 366.73 164.354 384.349C157.691 401.968 125.594 406.107 92.7053 393.674C59.8163 381.241 38.5334 356.816 45.2114 339.204C51.8893 321.591 83.9509 317.392 116.848 329.846L116.869 329.9Z" fill="#04D1FF"/>
<path d="M194.543 167.596C193.976 182.877 197.954 197.983 205.972 211.003C213.99 224.023 225.69 234.373 239.59 240.744C253.491 247.116 268.969 249.222 284.066 246.796C299.164 244.371 313.203 237.523 324.409 227.119C335.615 216.714 343.484 203.221 347.021 188.344C350.558 173.468 349.604 157.876 344.279 143.542C338.955 129.208 329.5 116.774 317.109 107.813C304.719 98.8527 289.949 93.7675 274.669 93.2009C254.178 92.4411 234.224 99.8522 219.198 113.804C204.172 127.756 195.303 147.106 194.543 167.596ZM295.358 145.805C320.799 170.097 330.87 200.827 317.866 214.456C304.863 228.085 273.691 219.386 248.249 195.118C222.807 170.849 212.727 140.06 225.742 126.444C238.756 112.827 269.919 121.456 295.36 145.747L295.358 145.805Z" fill="#0012BC"/>
<path d="M197.62 153.939C197.053 169.219 201.031 184.325 209.049 197.345C217.068 210.365 228.767 220.716 242.667 227.087C256.568 233.458 272.046 235.564 287.143 233.139C302.241 230.713 316.28 223.865 327.486 213.461C338.692 203.057 346.561 189.563 350.098 174.686C353.635 159.81 352.681 144.219 347.356 129.884C342.032 115.55 332.577 103.116 320.186 94.1556C307.796 85.195 293.026 80.1098 277.746 79.5432C257.255 78.7833 237.302 86.1945 222.275 100.146C207.249 114.098 198.38 133.448 197.62 153.939ZM298.435 132.147C323.876 156.439 333.947 187.17 320.943 200.798C307.94 214.427 276.768 205.728 251.326 181.46C225.884 157.192 215.804 126.403 228.819 112.786C241.833 99.1691 272.996 107.798 298.437 132.089L298.435 132.147Z" fill="#04D1FF"/>
<path d="M489.604 118.893C491.728 134.036 498.295 148.209 508.474 159.62C518.653 171.031 531.987 179.167 546.79 183C561.594 186.832 577.201 186.189 591.638 181.152C606.076 176.114 618.695 166.908 627.901 154.699C637.107 142.489 642.485 127.824 643.356 112.558C644.227 97.2912 640.552 82.1094 632.794 68.932C625.037 55.7546 613.546 45.1735 599.775 38.5266C586.004 31.8798 570.572 29.4657 555.429 31.5898C535.123 34.4381 516.78 45.2363 504.435 61.6089C492.091 77.9815 486.756 98.5874 489.604 118.893ZM585.03 79.7462C614.339 99.1955 629.647 127.682 619.238 143.381C608.828 159.081 576.613 155.988 547.307 136.562C518 117.135 502.673 88.5933 513.096 72.9037C523.518 57.2141 555.712 60.2396 585.022 79.6888L585.03 79.7462Z" fill="#0012BC"/>
<path d="M490.237 104.908C492.361 120.051 498.927 134.224 509.106 145.635C519.286 157.045 532.62 165.182 547.423 169.014C562.226 172.847 577.833 172.204 592.271 167.166C606.708 162.128 619.328 152.923 628.534 140.713C637.739 128.504 643.118 113.838 643.989 98.572C644.86 83.3056 641.184 68.1238 633.427 54.9464C625.669 41.769 614.179 31.1879 600.408 24.541C586.637 17.8942 571.204 15.4801 556.061 17.6042C535.755 20.4525 517.412 31.2507 505.068 47.6233C492.723 63.9959 487.388 84.6018 490.237 104.908ZM585.662 65.7606C614.972 85.2099 630.279 113.696 619.87 129.395C609.46 145.095 577.246 142.002 547.939 122.576C518.633 103.15 503.305 74.6077 513.728 58.9181C524.151 43.2285 556.344 46.254 585.654 65.7032L585.662 65.7606Z" fill="#04D1FF"/>
</svg>
