<svg width="403" height="842" viewBox="0 0 403 842" fill="none" xmlns="http://www.w3.org/2000/svg">
<path d="M102.601 813.897C87.6639 813.88 73.0673 809.434 60.6571 801.121C48.2468 792.808 38.5803 781.002 32.8799 767.195C27.1795 753.389 25.7013 738.202 28.6321 723.555C31.563 708.908 38.7713 695.459 49.3455 684.909C59.9197 674.359 73.3849 667.182 88.0383 664.284C102.692 661.387 117.875 662.9 131.669 668.632C145.462 674.364 157.246 684.058 165.531 696.487C173.815 708.916 178.228 723.523 178.211 738.46C178.188 758.49 170.209 777.691 156.029 791.838C141.85 805.985 122.631 813.92 102.601 813.897ZM127.634 716.301C104.872 690.561 75.2505 679.584 61.4617 691.768C47.673 703.953 55.001 734.705 77.7407 760.446C100.48 786.186 130.158 797.174 143.936 784.979C157.713 772.783 150.453 742.042 127.691 716.301L127.634 716.301Z" fill="#0012BC"/>
<path d="M116.05 811.402C101.113 811.385 86.5161 806.939 74.1058 798.626C61.6955 790.314 52.029 778.507 46.3286 764.701C40.6282 750.894 39.15 735.707 42.0808 721.06C45.0117 706.414 52.22 692.965 62.7942 682.415C73.3684 671.865 86.8336 664.687 101.487 661.79C116.141 658.893 131.324 660.406 145.118 666.138C158.911 671.87 170.695 681.563 178.98 693.992C187.264 706.422 191.677 721.028 191.66 735.965C191.637 755.995 183.658 775.196 169.478 789.343C155.299 803.49 136.08 811.425 116.05 811.402ZM141.083 713.807C118.321 688.066 88.6992 677.089 74.9105 689.274C61.1217 701.458 68.4497 732.211 91.1894 757.951C113.929 783.692 143.607 794.68 157.385 782.484C171.162 770.288 163.902 739.547 141.14 713.807L141.083 713.807Z" fill="#04D1FF"/>
<path d="M149.541 194.354C134.369 196.261 118.973 193.627 105.298 186.785C91.6234 179.942 80.285 169.198 72.7166 155.911C65.1482 142.624 61.6898 127.391 62.7786 112.139C63.8675 96.8864 69.4548 82.2995 78.8339 70.2225C88.213 58.1456 100.963 49.1211 115.471 44.2903C129.979 39.4594 145.594 39.0392 160.34 43.0827C175.087 47.1263 188.304 55.452 198.319 67.007C208.334 78.562 214.698 92.8273 216.606 107.999C219.164 128.344 213.535 148.871 200.958 165.066C188.381 181.261 169.886 191.796 149.541 194.354ZM162.386 92.0135C135.953 68.806 104.456 61.4759 92.0226 75.6269C79.5896 89.7779 90.9948 120.064 117.406 143.275C143.816 166.485 175.372 173.82 187.792 159.659C200.212 145.498 188.878 115.214 162.444 92.0063L162.386 92.0135Z" fill="#0012BC"/>
<path d="M162.876 190.088C147.704 191.996 132.307 189.362 118.633 182.519C104.958 175.676 93.6195 164.932 86.0511 151.645C78.4827 138.358 75.0242 123.125 76.1131 107.873C77.202 92.6207 82.7893 78.0337 92.1684 65.9568C101.547 53.8798 114.297 44.8553 128.805 40.0245C143.313 35.1937 158.928 34.7734 173.675 38.817C188.422 42.8605 201.638 51.1862 211.654 62.7412C221.669 74.2962 228.032 88.5615 229.94 103.733C232.498 124.078 226.87 144.605 214.293 160.8C201.716 176.995 183.22 187.53 162.876 190.088ZM175.721 87.7478C149.287 64.5402 117.79 57.2102 105.357 71.3612C92.9241 85.5122 104.329 115.799 130.74 139.009C157.151 162.22 188.707 169.554 201.127 155.393C213.547 141.232 202.212 110.948 175.778 87.7405L175.721 87.7478Z" fill="#04D1FF"/>
<path d="M291.019 515.183C276.66 514.633 262.788 509.838 251.154 501.404C239.521 492.97 230.65 481.276 225.663 467.8C220.676 454.325 219.797 439.673 223.137 425.698C226.477 411.723 233.887 399.052 244.428 389.287C254.97 379.523 268.17 373.104 282.359 370.842C296.549 368.58 311.091 370.576 324.146 376.578C337.201 382.581 348.183 392.32 355.703 404.563C363.223 416.807 366.944 431.006 366.394 445.364C365.657 464.618 357.302 482.791 343.166 495.884C329.031 508.978 310.273 515.92 291.019 515.183ZM318.566 422.258C297.603 396.702 269.52 385.093 255.831 396.313C242.141 407.534 248.088 437.358 269.028 462.913C289.969 488.469 318.106 500.091 331.786 488.859C345.465 477.627 339.583 447.817 318.62 422.26L318.566 422.258Z" fill="#0012BC"/>
<path d="M304.034 513.267C289.676 512.717 275.803 507.922 264.17 499.488C252.537 491.054 243.666 479.36 238.679 465.884C233.692 452.409 232.813 437.757 236.153 423.782C239.493 409.807 246.902 397.136 257.444 387.371C267.985 377.607 281.185 371.188 295.375 368.926C309.565 366.664 324.106 368.66 337.161 374.662C350.216 380.665 361.198 390.403 368.718 402.647C376.239 414.891 379.959 429.09 379.41 443.448C378.673 462.702 370.317 480.875 356.182 493.968C342.046 507.062 323.288 514.003 304.034 513.267ZM331.582 420.342C310.619 394.786 282.536 383.177 268.846 394.397C255.156 405.618 261.103 435.442 282.044 460.997C302.985 486.553 331.122 498.175 344.801 486.943C358.481 475.711 352.599 445.901 331.636 420.344L331.582 420.342Z" fill="#04D1FF"/>
</svg>
