<svg width="685" height="896" viewBox="0 0 685 896" fill="none" xmlns="http://www.w3.org/2000/svg">
<path d="M441 895.429C427.264 895.429 413.069 894.743 399.195 893.415C390.907 892.636 382.528 891.583 374.332 890.347C373.671 890.234 373.08 889.872 372.679 889.335C372.278 888.798 372.1 888.127 372.18 887.462C372.23 887.128 372.346 886.807 372.52 886.518C372.695 886.229 372.925 885.977 373.198 885.777C373.47 885.577 373.779 885.433 374.107 885.353C374.435 885.273 374.776 885.258 375.11 885.31C383.215 886.546 391.457 887.599 399.699 888.378C416.605 889.993 433.592 890.605 450.57 890.21C451.185 890.292 451.75 890.595 452.158 891.063C452.567 891.53 452.792 892.13 452.792 892.751C452.792 893.372 452.567 893.971 452.158 894.439C451.75 894.906 451.185 895.209 450.57 895.292C447.456 895.384 444.251 895.429 441 895.429ZM465.864 894.697C465.248 894.614 464.684 894.311 464.275 893.844C463.866 893.376 463.641 892.776 463.641 892.156C463.641 891.535 463.866 890.935 464.275 890.468C464.684 890 465.248 889.697 465.864 889.614C474.243 889.156 482.714 888.424 491.002 887.416C491.333 887.378 491.668 887.406 491.988 887.499C492.308 887.591 492.607 887.746 492.867 887.955C493.127 888.164 493.342 888.422 493.502 888.715C493.661 889.007 493.76 889.329 493.795 889.66C493.873 890.327 493.686 890.998 493.275 891.528C492.865 892.059 492.262 892.408 491.597 892.499C483.217 893.461 474.655 894.193 466.138 894.697H465.864ZM325.063 879.815H324.376L314.669 876.885C314.35 876.789 314.054 876.631 313.796 876.42C313.538 876.209 313.325 875.95 313.167 875.656C313.01 875.363 312.912 875.041 312.879 874.71C312.846 874.379 312.878 874.044 312.975 873.726C313.071 873.407 313.229 873.11 313.44 872.853C313.651 872.595 313.91 872.381 314.204 872.224C314.497 872.067 314.818 871.969 315.15 871.936C315.481 871.903 315.815 871.935 316.134 872.031L325.841 874.824C326.503 874.916 327.102 875.266 327.505 875.798C327.909 876.331 328.085 877.002 327.993 877.663C327.902 878.325 327.552 878.924 327.02 879.327C326.487 879.731 325.816 879.906 325.154 879.815H325.063ZM565.637 877.022C565.023 877.038 564.424 876.828 563.953 876.432C563.483 876.036 563.174 875.482 563.084 874.874C562.994 874.266 563.129 873.646 563.464 873.131C563.8 872.615 564.312 872.241 564.905 872.077C568.11 871.116 571.315 870.108 574.475 869.055C575.112 868.843 575.808 868.892 576.409 869.193C577.01 869.493 577.467 870.02 577.68 870.658C577.892 871.295 577.843 871.991 577.542 872.592C577.242 873.193 576.715 873.65 576.077 873.863C572.872 874.916 569.621 875.969 566.37 876.931C566.133 877.003 565.885 877.034 565.637 877.022ZM622.461 855.364C621.977 855.376 621.5 855.243 621.092 854.982C620.684 854.721 620.364 854.344 620.172 853.899C620.033 853.598 619.955 853.273 619.943 852.943C619.93 852.612 619.982 852.282 620.097 851.971C620.212 851.661 620.387 851.376 620.612 851.133C620.837 850.891 621.107 850.695 621.408 850.556C644.308 839.886 666.245 827.263 686.978 812.826C687.251 812.635 687.559 812.5 687.884 812.428C688.21 812.357 688.547 812.351 688.874 812.41C689.202 812.47 689.515 812.594 689.795 812.776C690.075 812.957 690.315 813.192 690.503 813.467C690.878 814.023 691.021 814.702 690.901 815.361C690.781 816.02 690.409 816.606 689.862 816.993C668.903 831.62 646.702 844.383 623.514 855.135C623.189 855.302 622.826 855.381 622.461 855.364ZM244.658 848.725C244.26 848.722 243.869 848.628 243.513 848.45C235.912 844.604 228.357 840.483 221.077 836.225C220.776 836.059 220.511 835.836 220.296 835.568C220.082 835.3 219.922 834.993 219.826 834.664C219.731 834.334 219.701 833.989 219.739 833.648C219.776 833.307 219.881 832.977 220.046 832.676C220.212 832.375 220.435 832.11 220.702 831.896C220.97 831.681 221.278 831.521 221.607 831.426C221.937 831.33 222.282 831.3 222.623 831.338C222.964 831.376 223.294 831.48 223.595 831.646C230.83 835.858 238.293 839.888 245.803 843.688C246.334 843.93 246.764 844.349 247.02 844.874C247.277 845.398 247.343 845.995 247.208 846.563C247.072 847.131 246.744 847.634 246.279 847.986C245.814 848.339 245.241 848.519 244.658 848.496V848.725ZM209.355 828.669C208.866 828.674 208.387 828.53 207.981 828.257C186.387 814.594 166.025 799.074 147.128 781.873C146.831 781.663 146.582 781.392 146.398 781.079C146.214 780.765 146.098 780.416 146.059 780.054C146.02 779.693 146.059 779.327 146.172 778.981C146.286 778.635 146.471 778.318 146.717 778.049C146.962 777.781 147.262 777.568 147.596 777.424C147.93 777.281 148.291 777.21 148.655 777.216C149.018 777.223 149.377 777.307 149.705 777.462C150.034 777.618 150.326 777.841 150.562 778.119C169.237 795.095 189.353 810.415 210.682 823.907C210.966 824.081 211.213 824.309 211.408 824.578C211.603 824.847 211.743 825.152 211.819 825.476C211.896 825.799 211.908 826.135 211.854 826.463C211.801 826.791 211.682 827.105 211.507 827.387C211.288 827.767 210.975 828.085 210.598 828.309C210.221 828.534 209.793 828.658 209.355 828.669ZM700.806 808.522C700.409 808.519 700.018 808.427 699.661 808.253C699.305 808.078 698.992 807.826 698.745 807.515C698.354 806.969 698.187 806.293 698.281 805.628C698.375 804.963 698.722 804.36 699.249 803.943C705.98 798.907 712.619 793.595 718.984 788.192C719.236 787.97 719.53 787.802 719.849 787.698C720.168 787.594 720.505 787.556 720.839 787.586C721.173 787.615 721.497 787.713 721.792 787.872C722.088 788.032 722.347 788.25 722.556 788.513C722.774 788.764 722.94 789.057 723.044 789.373C723.149 789.69 723.19 790.023 723.164 790.356C723.138 790.688 723.047 791.012 722.896 791.308C722.744 791.605 722.535 791.869 722.281 792.084C715.825 797.533 709.094 802.89 702.317 808.019C701.863 808.343 701.319 808.519 700.76 808.522H700.806ZM113.198 746.204C112.836 746.195 112.478 746.114 112.148 745.964C111.818 745.815 111.521 745.6 111.275 745.334C109.031 742.77 106.696 740.16 104.681 737.55C104.466 737.295 104.303 737 104.202 736.682C104.101 736.364 104.065 736.029 104.095 735.697C104.125 735.365 104.22 735.042 104.376 734.746C104.532 734.451 104.744 734.19 105.002 733.978C105.254 733.757 105.548 733.589 105.867 733.484C106.186 733.38 106.522 733.342 106.856 733.372C107.191 733.402 107.515 733.499 107.81 733.659C108.105 733.818 108.365 734.036 108.573 734.299C110.726 736.863 112.923 739.473 115.121 741.991C115.433 742.362 115.633 742.814 115.698 743.294C115.763 743.775 115.691 744.264 115.49 744.705C115.289 745.146 114.966 745.52 114.561 745.786C114.155 746.051 113.683 746.196 113.198 746.204ZM773.976 738.603C773.388 738.605 772.818 738.394 772.374 738.007C772.113 737.799 771.896 737.54 771.736 737.247C771.577 736.953 771.477 736.631 771.442 736.298C771.408 735.966 771.441 735.63 771.538 735.31C771.635 734.991 771.794 734.693 772.008 734.436C774.16 731.872 776.312 729.216 778.372 726.606C778.819 726.173 779.408 725.918 780.029 725.887C780.651 725.856 781.262 726.053 781.749 726.439C782.237 726.826 782.567 727.376 782.678 727.988C782.79 728.6 782.675 729.232 782.356 729.766C780.25 732.421 778.097 735.077 775.945 737.687C775.718 737.955 775.438 738.175 775.123 738.332C774.808 738.489 774.465 738.581 774.114 738.603H773.976ZM809.509 689.105C809.039 689.119 808.576 688.992 808.181 688.739C807.897 688.565 807.65 688.338 807.455 688.068C807.26 687.799 807.12 687.494 807.044 687.171C806.967 686.847 806.955 686.511 807.009 686.183C807.063 685.855 807.181 685.541 807.357 685.259C820.611 663.784 831.949 641.184 841.24 617.72C841.495 617.099 841.982 616.603 842.599 616.338C843.215 616.072 843.911 616.059 844.537 616.301C845.166 616.547 845.673 617.031 845.948 617.648C846.222 618.265 846.242 618.966 846.002 619.598C836.622 643.379 825.161 666.286 811.752 688.052C811.516 688.389 811.2 688.661 810.832 688.845C810.465 689.029 810.057 689.118 809.646 689.105H809.509ZM63.4257 675.826C62.9726 675.826 62.5274 675.707 62.134 675.482C61.7406 675.258 61.4125 674.934 61.182 674.544C57.0152 667.218 52.9858 659.617 49.2311 652.016C49.015 651.421 49.0263 650.768 49.2629 650.181C49.4995 649.594 49.9446 649.116 50.5128 648.837C51.0809 648.559 51.7319 648.501 52.3405 648.673C52.9492 648.846 53.4725 649.237 53.81 649.772C57.5189 657.282 61.5025 664.791 65.6235 672.026C65.9544 672.615 66.0391 673.312 65.859 673.964C65.6789 674.615 65.2486 675.17 64.6619 675.506C64.3257 675.697 63.9494 675.807 63.563 675.826H63.4257ZM45.1101 639.653C44.6283 639.654 44.1565 639.516 43.7507 639.256C43.3449 638.996 43.0222 638.626 42.8207 638.188C32.318 614.895 23.9055 590.715 17.6826 565.933C17.5984 565.611 17.5785 565.276 17.6238 564.947C17.6691 564.617 17.7789 564.3 17.9468 564.013C18.1148 563.726 18.3376 563.475 18.6026 563.274C18.8676 563.073 19.1696 562.927 19.4913 562.842C19.813 562.758 20.1481 562.738 20.4775 562.784C20.8069 562.829 21.1242 562.939 21.4112 563.107C21.6982 563.274 21.9493 563.497 22.1502 563.762C22.3511 564.027 22.4978 564.329 22.582 564.651C28.7547 589.146 37.0747 613.048 47.4453 636.082C47.7118 636.703 47.7271 637.403 47.488 638.034C47.2489 638.666 46.774 639.181 46.1633 639.47C45.8422 639.595 45.5003 639.657 45.1559 639.653H45.1101ZM848.979 606.823C848.693 606.891 848.395 606.891 848.109 606.823C847.796 606.714 847.507 606.546 847.26 606.326C847.012 606.107 846.81 605.84 846.666 605.543C846.521 605.245 846.437 604.922 846.417 604.591C846.398 604.261 846.443 603.93 846.552 603.617C849.345 595.696 851.955 587.591 854.244 579.578C854.334 579.254 854.487 578.951 854.695 578.687C854.904 578.424 855.163 578.204 855.457 578.042C855.751 577.88 856.075 577.778 856.41 577.743C856.744 577.708 857.082 577.741 857.404 577.838C857.728 577.928 858.031 578.081 858.294 578.289C858.558 578.498 858.778 578.757 858.94 579.051C859.102 579.345 859.204 579.669 859.239 580.004C859.273 580.338 859.241 580.676 859.144 580.998C856.808 589.102 854.153 597.299 851.359 605.312C851.152 605.758 850.823 606.137 850.41 606.404C849.997 606.671 849.516 606.816 849.024 606.823H848.979ZM10.6769 517.992C10.054 517.996 9.45178 517.769 8.98665 517.354C8.52152 516.94 8.22648 516.368 8.15853 515.749C7.70065 512.406 7.33436 509.018 6.96805 505.629C6.89519 504.961 7.09061 504.292 7.51138 503.768C7.93215 503.244 8.54378 502.909 9.21169 502.836C9.87961 502.763 10.5491 502.959 11.0729 503.38C11.5967 503.8 11.9319 504.412 12.0048 505.08C12.3711 508.422 12.7374 511.765 13.1953 515.108C13.2735 515.774 13.0871 516.445 12.6761 516.976C12.2652 517.507 11.6625 517.855 10.9975 517.946L10.6769 517.992ZM871.507 507.964H871.232C870.567 507.884 869.961 507.547 869.541 507.025C869.122 506.503 868.924 505.838 868.988 505.171C868.988 503.569 869.309 501.966 869.492 500.592C869.675 499.219 869.812 497.067 869.95 495.327C869.978 494.996 870.073 494.673 870.226 494.379C870.38 494.084 870.591 493.823 870.847 493.61C871.102 493.397 871.397 493.237 871.715 493.139C872.032 493.04 872.366 493.006 872.697 493.037C873.028 493.066 873.351 493.16 873.645 493.314C873.94 493.468 874.201 493.679 874.414 493.934C874.627 494.189 874.787 494.485 874.885 494.802C874.984 495.12 875.018 495.454 874.987 495.785C874.987 497.525 874.712 499.31 874.529 501.05C874.345 502.79 874.208 504.301 874.025 505.95C873.875 506.535 873.519 507.046 873.023 507.391C872.527 507.735 871.924 507.89 871.323 507.827L871.507 507.964ZM873.75 447.111C873.086 447.112 872.447 446.854 871.969 446.393C871.49 445.932 871.21 445.303 871.186 444.639C870.365 419.401 867.3 394.286 862.028 369.591C861.962 368.96 862.132 368.327 862.505 367.814C862.879 367.302 863.429 366.945 864.049 366.815C864.67 366.684 865.317 366.787 865.865 367.105C866.414 367.424 866.825 367.934 867.019 368.538C872.312 393.538 875.377 418.959 876.177 444.501C876.19 445.166 875.944 445.81 875.491 446.297C875.039 446.784 874.414 447.076 873.75 447.111ZM8.34169 431.818C8.01067 431.794 7.68748 431.706 7.39072 431.558C7.09396 431.409 6.8295 431.203 6.61249 430.952C6.39548 430.701 6.23021 430.41 6.12621 430.095C6.02221 429.78 5.98151 429.447 6.00645 429.116C6.00645 425.499 6.55593 421.882 6.87645 418.264C7.33434 413.38 7.88381 408.526 8.52485 403.703C8.56435 403.372 8.66951 403.051 8.83416 402.76C8.99881 402.469 9.21968 402.214 9.4839 402.01C9.74812 401.805 10.0504 401.655 10.3731 401.569C10.6959 401.482 11.0326 401.461 11.3638 401.505C11.6956 401.545 12.0162 401.65 12.307 401.815C12.5977 401.979 12.8529 402.2 13.0574 402.465C13.262 402.729 13.4119 403.031 13.4985 403.354C13.585 403.677 13.6065 404.013 13.5616 404.344C12.9206 408.923 12.4169 413.914 11.959 418.768C11.5927 422.339 11.318 425.911 11.0433 429.437C11.0266 429.78 10.9398 430.117 10.7881 430.425C10.6365 430.734 10.4233 431.008 10.1616 431.231C9.8999 431.454 9.59528 431.621 9.26654 431.722C8.9378 431.823 8.5919 431.856 8.25013 431.818H8.34169ZM12.9206 391.478H12.4627C12.1346 391.428 11.8196 391.313 11.5359 391.141C11.2522 390.968 11.0054 390.742 10.8097 390.473C10.6139 390.205 10.4731 389.901 10.3953 389.578C10.3175 389.256 10.3043 388.921 10.3564 388.593C14.5109 363.379 20.8538 338.574 29.313 314.461C29.6481 314.034 30.1102 313.724 30.6326 313.577C31.155 313.429 31.7107 313.451 32.2199 313.639C32.729 313.828 33.1652 314.173 33.4657 314.625C33.7662 315.077 33.9154 315.613 33.8919 316.155C25.5091 339.978 19.2423 364.494 15.1642 389.417C15.0622 389.949 14.7946 390.434 14.3998 390.804C14.005 391.174 13.5033 391.41 12.9664 391.478H12.9206ZM860.884 356.724C860.321 356.728 859.773 356.539 859.332 356.189C858.891 355.84 858.582 355.35 858.457 354.801C856.396 346.696 854.107 338.546 851.589 330.533C851.489 330.217 851.453 329.885 851.482 329.555C851.511 329.226 851.605 328.905 851.758 328.611C851.911 328.318 852.12 328.058 852.374 327.845C852.628 327.633 852.921 327.472 853.237 327.373C853.881 327.171 854.578 327.231 855.178 327.539C855.778 327.848 856.232 328.381 856.442 329.022C858.961 337.126 861.296 345.368 863.356 353.565C863.445 353.886 863.468 354.223 863.423 354.554C863.378 354.885 863.267 355.203 863.096 355.49C862.924 355.776 862.697 356.025 862.427 356.222C862.157 356.418 861.85 356.558 861.525 356.632C861.32 356.708 861.101 356.739 860.884 356.724ZM51.4748 270.962C51.0919 270.958 50.7153 270.864 50.3758 270.687C50.0729 270.546 49.8017 270.344 49.5788 270.095C49.3558 269.846 49.1857 269.554 49.0787 269.238C48.9717 268.921 48.93 268.586 48.9562 268.252C48.9824 267.919 49.0759 267.595 49.2311 267.298C50.7421 264.231 52.2532 261.209 53.81 258.141C53.9601 257.84 54.1689 257.573 54.424 257.354C54.6791 257.135 54.9754 256.97 55.2955 256.867C55.6155 256.765 55.9528 256.728 56.2874 256.758C56.6221 256.788 56.9474 256.884 57.2441 257.042C57.8345 257.362 58.2756 257.901 58.4725 258.544C58.6694 259.186 58.6065 259.88 58.2973 260.476C56.7405 263.452 55.2294 266.474 53.7184 269.634C53.5012 270.039 53.1773 270.377 52.7818 270.611C52.3863 270.845 51.9343 270.966 51.4748 270.962ZM824.939 262.079C824.472 262.091 824.01 261.974 823.606 261.74C823.202 261.505 822.871 261.163 822.65 260.751C821.093 257.729 819.536 254.798 818.071 251.868C817.744 251.272 817.666 250.572 817.855 249.919C818.044 249.267 818.484 248.716 819.078 248.388C819.37 248.227 819.69 248.125 820.021 248.089C820.351 248.052 820.686 248.082 821.006 248.175C821.325 248.269 821.622 248.425 821.881 248.634C822.14 248.844 822.354 249.102 822.513 249.395C824.161 252.371 825.764 255.348 827.366 258.553C827.672 259.155 827.728 259.853 827.522 260.496C827.317 261.139 826.866 261.674 826.267 261.987C825.84 262.132 825.383 262.163 824.939 262.079ZM792.887 210.246C792.478 210.255 792.074 210.159 791.713 209.966C791.352 209.774 791.047 209.491 790.827 209.147C776.115 188.616 759.645 169.404 741.604 151.727C741.171 151.243 740.939 150.613 740.953 149.963C740.967 149.314 741.227 148.695 741.681 148.23C742.134 147.765 742.747 147.489 743.395 147.458C744.044 147.428 744.68 147.644 745.175 148.064C763.425 165.964 780.079 185.422 794.948 206.216C795.141 206.486 795.28 206.792 795.355 207.116C795.43 207.44 795.44 207.775 795.384 208.103C795.329 208.431 795.209 208.744 795.032 209.026C794.855 209.307 794.624 209.55 794.352 209.742C793.974 210.007 793.531 210.165 793.07 210.2L792.887 210.246ZM96.8973 197.791C96.3307 197.792 95.7811 197.598 95.3405 197.242C94.8102 196.826 94.4648 196.218 94.3792 195.55C94.2935 194.881 94.4743 194.206 94.8826 193.67C100.057 186.985 105.506 180.346 111.046 173.935C111.496 173.429 112.124 173.118 112.799 173.066C113.474 173.015 114.142 173.228 114.663 173.66C114.899 173.894 115.085 174.173 115.213 174.479C115.34 174.786 115.406 175.114 115.406 175.446C115.406 175.778 115.34 176.107 115.213 176.413C115.085 176.72 114.899 176.998 114.663 177.232C109.169 183.597 103.811 190.144 98.683 196.784C98.2937 197.308 97.7218 197.668 97.0804 197.791H96.8973ZM123.18 166.792C122.535 166.786 121.915 166.541 121.44 166.105C121.205 165.871 121.018 165.593 120.891 165.286C120.763 164.98 120.697 164.651 120.697 164.319C120.697 163.987 120.763 163.659 120.891 163.352C121.018 163.046 121.205 162.768 121.44 162.534C138.864 143.841 157.894 126.711 178.31 111.342C178.572 111.137 178.873 110.988 179.194 110.902C179.515 110.817 179.851 110.797 180.18 110.844C180.509 110.891 180.825 111.004 181.11 111.176C181.394 111.348 181.641 111.576 181.836 111.845C182.042 112.105 182.195 112.403 182.284 112.723C182.373 113.042 182.397 113.376 182.354 113.705C182.312 114.034 182.203 114.351 182.035 114.638C181.868 114.924 181.644 115.173 181.378 115.371C161.197 130.566 142.382 147.496 125.149 165.968C124.922 166.218 124.647 166.42 124.34 166.561C124.033 166.703 123.701 166.781 123.363 166.792H123.18ZM732.171 141.975C731.54 141.966 730.936 141.721 730.477 141.288C724.296 135.656 717.839 130.115 711.337 124.804C711.079 124.593 710.864 124.334 710.706 124.041C710.548 123.747 710.449 123.425 710.415 123.094C710.381 122.762 710.412 122.427 710.508 122.108C710.603 121.788 710.76 121.491 710.971 121.232C711.181 120.974 711.441 120.759 711.734 120.601C712.028 120.442 712.349 120.343 712.681 120.309C713.013 120.275 713.348 120.307 713.667 120.402C713.986 120.498 714.284 120.655 714.542 120.866C721.136 126.223 727.638 131.855 733.911 137.533C734.389 138.013 734.658 138.664 734.658 139.342C734.658 140.019 734.389 140.67 733.911 141.15C733.543 141.576 733.044 141.866 732.492 141.975H732.171ZM222.175 87.7605C221.732 87.7706 221.294 87.6612 220.907 87.4436C220.52 87.2261 220.199 86.9085 219.978 86.5242C219.643 85.9401 219.551 85.2477 219.723 84.5966C219.894 83.9455 220.314 83.3879 220.893 83.0442L229.776 78.0075C230.077 77.8482 230.406 77.7496 230.745 77.7174C231.084 77.6853 231.425 77.7201 231.751 77.8201C232.076 77.92 232.378 78.083 232.641 78.2998C232.903 78.5166 233.12 78.7829 233.279 79.0836C233.439 79.3842 233.537 79.7132 233.569 80.052C233.601 80.3907 233.567 80.7325 233.467 81.0578C233.367 81.3831 233.204 81.6855 232.987 81.9477C232.77 82.21 232.504 82.427 232.203 82.5864C229.273 84.189 226.342 85.8832 223.458 87.5774C223.052 87.7433 222.611 87.8062 222.175 87.7605ZM650.209 82.8153C649.776 82.8186 649.35 82.7081 648.973 82.4948C645.92 80.8464 642.944 79.2438 640.044 77.687C639.437 77.3712 638.98 76.8272 638.774 76.1746C638.568 75.522 638.63 74.8142 638.945 74.207C639.261 73.5998 639.805 73.1429 640.458 72.9368C641.11 72.7307 641.818 72.7923 642.425 73.1081C645.447 74.6649 648.469 76.3133 651.583 77.9617C651.986 78.2708 652.289 78.6929 652.452 79.1743C652.615 79.6557 652.631 80.1746 652.499 80.6653C652.366 81.156 652.091 81.5962 651.708 81.93C651.325 82.2639 650.851 82.4764 650.347 82.5406L650.209 82.8153ZM594.942 57.1278C594.639 57.1758 594.33 57.1758 594.026 57.1278C570.432 48.1276 546.083 41.2473 521.268 36.5686C520.609 36.4356 520.029 36.0492 519.652 35.4925C519.275 34.9359 519.132 34.2535 519.253 33.5923C519.308 33.265 519.428 32.9522 519.607 32.6723C519.785 32.3924 520.018 32.1513 520.291 31.9633C520.565 31.7753 520.873 31.6443 521.198 31.578C521.523 31.5117 521.859 31.5116 522.184 31.5777C547.291 36.3267 571.929 43.283 595.812 52.3657C596.442 52.6123 596.952 53.0938 597.234 53.7088C597.516 54.3239 597.548 55.0243 597.323 55.6625C597.111 56.111 596.773 56.4881 596.35 56.7482C595.927 57.0083 595.438 57.1402 594.942 57.1278ZM300.52 51.9078C299.99 51.9109 299.472 51.7497 299.038 51.4463C298.603 51.1429 298.273 50.7122 298.093 50.2137C297.887 49.5697 297.939 48.871 298.238 48.2646C298.537 47.6582 299.06 47.1915 299.696 46.9627C307.709 44.2154 315.905 41.697 324.056 39.4533C324.673 39.361 325.304 39.4974 325.828 39.8368C326.352 40.1763 326.735 40.6956 326.904 41.2971C327.072 41.8986 327.015 42.541 326.744 43.1036C326.473 43.6662 326.005 44.1104 325.429 44.3527C317.37 46.5506 309.266 48.9316 301.344 51.7705L300.52 51.9078ZM339.486 40.5981C338.847 40.6328 338.219 40.423 337.729 40.0114C337.239 39.5997 336.925 39.017 336.849 38.3816C336.773 37.7462 336.942 37.1058 337.321 36.5905C337.701 36.0752 338.262 35.7235 338.891 35.607C363.739 29.6449 389.069 25.906 414.58 24.4345C415.248 24.392 415.905 24.6166 416.408 25.0589C416.91 25.5011 417.216 26.1248 417.259 26.7927C417.301 27.4606 417.077 28.1181 416.634 28.6204C416.192 29.1228 415.568 29.4288 414.901 29.4713C389.679 31.0518 364.644 34.8362 340.082 40.7812L339.486 40.5981ZM506.707 33.8671H506.341C498.053 32.585 489.628 31.5318 481.294 30.7534C480.67 30.6339 480.112 30.2864 479.729 29.7785C479.346 29.2705 479.165 28.6384 479.222 28.0049C479.279 27.3713 479.57 26.7816 480.037 26.3503C480.505 25.9189 481.116 25.6768 481.752 25.6709C490.177 26.4951 498.74 27.5482 507.119 28.8303C507.787 28.8849 508.406 29.2027 508.84 29.7136C509.273 30.2246 509.486 30.8868 509.432 31.5547C509.377 32.2227 509.059 32.8415 508.548 33.2752C508.037 33.7088 507.375 33.9217 506.707 33.8671ZM475.617 30.2497L465.543 29.5629C464.927 29.4531 464.372 29.1217 463.983 28.6312C463.595 28.1408 463.399 27.525 463.433 26.9001C463.466 26.2752 463.728 25.6842 464.167 25.2385C464.606 24.7928 465.193 24.5231 465.818 24.4804C469.206 24.4804 472.64 24.9383 476.029 25.213C476.644 25.2958 477.208 25.599 477.617 26.0663C478.026 26.5337 478.251 27.1334 478.251 27.7543C478.251 28.3751 478.026 28.9749 477.617 29.4422C477.208 29.9096 476.644 30.2128 476.029 30.2956L475.617 30.2497Z" fill="#04D1FF"/>
<path d="M38.1048 462.405C38.1048 449.034 38.6543 435.847 39.7532 422.843C48.8552 323.383 94.6244 230.863 168.16 163.277C241.695 95.6915 337.739 57.8719 437.612 57.1736C440.085 57.1736 442.557 57.1736 444.938 57.1736C494.055 57.6529 542.665 67.1514 588.349 85.1963C656.448 112.128 715.913 157.121 760.344 215.333C804.776 273.545 832.491 342.772 840.508 415.563C841.973 429.116 842.767 442.853 842.889 456.773C843.265 509.616 833.229 562.015 813.354 610.979C793.479 659.944 764.154 704.514 727.055 742.145C689.955 779.776 645.806 809.732 597.13 830.301C548.453 850.87 496.202 861.651 443.359 862.027C390.516 862.402 338.116 852.366 289.152 832.491C240.188 812.617 195.618 783.292 157.986 746.192C81.9865 671.266 38.8638 569.217 38.1048 462.496V462.405Z" fill="#04D1FF"/>
<g opacity="0.6">
<path d="M38.1028 462.405C38.1028 449.034 38.6523 435.847 39.7512 422.843C48.8532 323.383 94.6225 230.863 168.158 163.277C241.693 95.6915 337.737 57.8719 437.61 57.1736C440.083 57.1736 442.555 57.1736 444.936 57.1736C494.053 57.6529 542.663 67.1514 588.347 85.1963C656.446 112.128 715.911 157.121 760.342 215.333C804.774 273.545 832.489 342.772 840.506 415.563C841.971 429.116 842.765 442.853 842.887 456.773C843.263 509.616 833.227 562.015 813.352 610.979C793.477 659.944 764.153 704.514 727.053 742.145C689.953 779.776 645.804 809.732 597.128 830.301C548.451 850.87 496.2 861.651 443.357 862.027C390.514 862.402 338.114 852.366 289.15 832.492C240.186 812.617 195.616 783.292 157.984 746.192C81.9845 671.266 38.8618 569.217 38.1028 462.496V462.405Z" fill="white"/>
</g>
<path opacity="0.4" d="M319.935 752.66C312.38 753.393 308.946 762.688 307.435 770.289C305.145 781.644 302.856 793.183 300.566 804.356C314.303 810.858 313.25 827.754 306.794 839.201C228.685 811.666 160.971 760.707 112.887 693.276C64.8024 625.845 38.688 545.223 38.1048 462.405C38.1048 449.034 38.6543 435.847 39.7532 422.843C40.0736 422.633 40.4104 422.449 40.7605 422.294C51.7498 417.074 60.4039 426.461 68.6459 431.772C70.5233 432.963 94.654 444.684 94.9745 441.433C93.9416 451.973 94.4972 462.608 96.6229 472.982C96.7147 473.786 97.0877 474.532 97.676 475.088C99.2328 476.141 101.019 473.989 101.614 472.158C103.079 467.579 103.674 462.634 105.414 458.101C106.148 455.771 107.386 453.633 109.04 451.836C110.694 450.04 112.723 448.63 114.984 447.707C119.563 446.241 124.737 447.981 129.591 447.294C132.51 446.694 135.258 445.45 137.635 443.651C140.011 441.853 141.956 439.547 143.327 436.9C145.929 431.773 147.839 426.322 149.005 420.691C154.683 433.283 169.107 425.499 177.577 435.71C180.279 439.007 183.576 443.723 187.514 442.12C191.451 440.518 191.68 434.199 195.71 433.695C198.549 433.375 200.609 436.443 201.021 439.236C201 442.069 201.386 444.891 202.166 447.615C202.614 448.495 203.235 449.276 203.991 449.911C204.747 450.547 205.623 451.024 206.567 451.314C207.51 451.605 208.503 451.702 209.485 451.602C210.468 451.501 211.42 451.204 212.285 450.729C215.353 448.897 216.498 445.142 218.421 442.12C220.344 439.098 224.465 436.534 227.35 438.64C228.014 439.168 228.547 439.842 228.907 440.609C231.7 445.967 228.54 452.514 224.786 457.276C221.031 462.038 216.452 466.801 216.04 472.845C216.608 473.211 217.244 473.459 217.91 473.574C218.575 473.689 219.257 473.669 219.915 473.516C220.573 473.362 221.194 473.077 221.739 472.679C222.285 472.28 222.745 471.776 223.092 471.196C223.453 470.345 223.948 469.557 224.557 468.861C226.114 467.533 228.403 468.861 230.097 469.868C234.126 472.458 238.63 474.221 243.347 475.054C248.063 475.887 252.898 475.774 257.571 474.722L259.631 438.091C262.424 438.091 264.21 437.816 265.126 434.931C273.925 444.302 283.202 453.212 292.92 461.626C294.238 462.47 295.262 463.702 295.85 465.152C296.009 466.751 296.009 468.361 295.85 469.96C296.171 475.317 303.359 476.737 308.717 476.599C310.273 477.469 309.358 480.033 307.801 480.903C306.113 481.432 304.473 482.106 302.901 482.918C301.988 483.885 301.372 485.094 301.128 486.402C300.885 487.709 301.023 489.059 301.528 490.29C303.051 494.67 306.227 498.281 310.376 500.351C314.525 502.422 319.32 502.788 323.735 501.371C324.792 501.031 325.73 500.395 326.437 499.54C327.765 497.525 326.437 494.961 326.437 492.488C325.43 482.964 335.595 485.162 340.448 487.909C346.859 491.481 350.43 500.913 351.621 507.69C353.04 515.566 358.993 567.994 376.484 560.759C378.098 559.963 379.391 558.638 380.147 557.004C382.666 552.426 382.482 546.519 384.36 541.436C386.237 536.354 391.961 531.775 396.677 534.385C398.554 535.438 399.745 537.453 401.576 538.643C406.613 541.94 413.756 537.956 419.205 540.475C421.534 541.954 423.725 543.64 425.753 545.512C428.042 547.068 431.66 547.572 433.262 545.512C434.865 543.451 432.942 539.193 434.407 536.354C434.902 535.74 435.537 535.255 436.26 534.939C436.982 534.623 437.77 534.487 438.557 534.54C439.343 534.594 440.105 534.837 440.778 535.249C441.45 535.66 442.014 536.228 442.42 536.903C443.122 538.394 443.367 540.06 443.122 541.69C442.878 543.321 442.155 544.841 441.046 546.061C439.827 547.242 438.888 548.682 438.299 550.273C437.658 553.25 440.497 555.722 442.878 557.462L454.829 565.75C454.534 567.114 453.842 568.359 452.839 569.329C451.837 570.299 450.569 570.95 449.197 571.199C446.541 571.932 443.702 571.932 441.046 572.802C428.271 577.06 428.317 596.017 411.558 592.308C411.744 591.062 411.635 589.791 411.24 588.595C410.846 587.399 410.176 586.313 409.286 585.422C408.396 584.532 407.309 583.863 406.113 583.468C404.918 583.073 403.646 582.965 402.401 583.15C396.265 584.661 392.281 593.407 386.191 591.667C384.085 591.071 382.482 589.24 380.33 588.736C374.424 587.317 371.539 596.383 369.845 600.275C364.35 613.096 372.913 614.653 372.592 626.1C372.592 631.32 368.517 635.761 367.555 640.935C366.594 646.11 368.334 650.551 367.555 655.359C365.815 668.5 348.416 660.533 340.723 658.976C344.89 666.44 338.663 675.506 331.886 680.68C321.446 688.602 323.232 687.915 321.904 699.362C321.813 700.886 321.303 702.355 320.431 703.607C319.558 704.859 318.357 705.846 316.959 706.459C311.968 708.245 307.114 703.3 301.848 702.796C299.33 702.521 296.766 703.345 294.247 702.796C287.654 701.651 285.364 693.638 281.106 688.51C279.199 686.284 276.786 684.549 274.069 683.449C271.352 682.35 268.41 681.918 265.492 682.191C265.057 685.581 265.057 689.012 265.492 692.402L276.573 699.225C279.985 700.986 282.946 703.508 285.227 706.597C286.064 708.576 287.225 710.402 288.661 712C291.912 714.747 296.812 713.099 301.024 712.824C311.372 712.137 328.177 718.593 338.113 721.982C348.049 725.37 352.399 732.971 362.198 736.313C362.595 736.519 362.942 736.807 363.218 737.159C363.493 737.511 363.69 737.917 363.794 738.352C363.898 738.786 363.908 739.238 363.822 739.676C363.736 740.115 363.557 740.529 363.297 740.892C362.146 742.284 360.509 743.184 358.718 743.411C354.517 744.131 350.197 743.422 346.447 741.396C351.3 744.052 337.289 755.774 334.542 756.369C330.329 757.331 324.651 754.125 320.347 753.942C309.724 753.393 303.588 755.499 310.548 767.038C313.204 771.617 316.318 777.111 313.387 781.37C311.929 780.914 310.359 780.975 308.941 781.543C307.524 782.11 306.345 783.148 305.603 784.483C304.201 787.22 303.734 790.34 304.275 793.366C304.349 795.438 305.124 797.424 306.473 798.998C307.388 799.604 308.22 800.327 308.946 801.15C310.915 804.127 306.885 807.378 303.543 808.66" fill="#04D1FF"/>
<path opacity="0.4" d="M672.051 291.703C668.754 289.23 664.037 291.245 660.603 293.534C657.169 295.824 653.094 298.48 649.202 297.06C649.202 292.481 649.202 287.49 648.973 282.682C649.035 282.235 649.002 281.779 648.876 281.345C648.75 280.911 648.533 280.508 648.24 280.164C647.877 279.894 647.461 279.702 647.02 279.599C646.579 279.497 646.122 279.487 645.676 279.569L636.518 279.981C633.909 282.82 641.097 286.3 640.09 289.963C639.632 291.611 637.8 292.298 636.289 293.122C623.606 299.945 631.711 314.094 637.388 321.786C644.074 330.715 643.661 342.941 642.929 353.838C643.05 355.83 642.777 357.826 642.124 359.712C641.472 361.598 640.454 363.336 639.128 364.828C636.152 367.392 631.802 367.209 628.002 368.353C621.408 370.231 616.738 376.092 610.602 379.114C589.081 389.691 574.887 366.659 581.892 348.527C585.555 339.369 587.112 340.926 585.006 330.852C584.136 326.686 585.51 321.695 581.16 318.856C580.046 318.184 578.779 317.806 577.479 317.756C576.179 317.707 574.888 317.988 573.726 318.574C572.564 319.159 571.569 320.03 570.836 321.104C570.102 322.178 569.652 323.421 569.529 324.717C568.397 329.997 568.618 335.478 570.17 340.651C563.806 338.316 556.205 339.827 549.245 339.827C549.317 341.387 548.989 342.939 548.292 344.337C547.595 345.734 546.553 346.93 545.263 347.811C543.974 348.692 542.481 349.228 540.926 349.37C539.371 349.511 537.805 349.252 536.378 348.618C536.378 345.459 535.691 341.155 532.578 341.155C531.658 341.23 530.773 341.546 530.014 342.071C526.717 344.039 523.786 346.649 520.306 348.252C514.949 350.725 499.61 349.534 497.412 356.769C496.954 358.005 496.954 359.424 496.496 360.661C495.864 361.937 494.798 362.946 493.489 363.508C492.18 364.071 490.714 364.149 489.353 363.729C488.007 363.25 486.813 362.421 485.895 361.326C484.978 360.231 484.369 358.91 484.133 357.501C483.767 355.624 484.133 353.655 483.492 351.824C480.928 342.116 470.9 349.717 466.459 347.245C461.847 341.16 458.088 334.474 455.286 327.372C453.263 330.196 450.615 332.516 447.55 334.152C444.485 335.788 441.084 336.696 437.612 336.805C429.874 336.438 426.577 330.257 424.837 322.748C423.097 315.238 422.914 305.348 421.174 299.853C420.473 298.412 420.148 296.816 420.228 295.216C420.308 293.615 420.791 292.06 421.632 290.695C424.333 287.765 430.148 288.864 432.163 285.384C432.678 284.212 432.973 282.954 433.033 281.675C433.824 277.996 436.042 274.782 439.202 272.738C442.362 270.695 446.204 269.989 449.883 270.777C452.264 269.221 452.31 265.832 452.447 262.993C452.585 260.154 453.775 256.629 456.614 256.445C459.453 256.262 461.193 260.475 461.193 263.726C461.115 267.062 460.591 270.373 459.636 273.57C458.588 275.845 458.283 278.393 458.766 280.851C459.559 282.581 460.871 284.022 462.521 284.972C466.025 287.906 470.37 289.653 474.93 289.963C477.199 290.066 479.426 289.322 481.178 287.875C482.93 286.428 484.081 284.381 484.408 282.133C484.293 280.915 484.293 279.688 484.408 278.47C485.141 275.448 488.987 274.395 492.101 274.807C495.071 275.677 498.166 276.049 501.258 275.906C504.326 275.31 506.89 271.327 504.692 269.037C508.813 267.618 514.72 266.885 516.323 270.915C516.688 272.272 516.828 273.679 516.735 275.081C516.735 283.736 527.633 296.19 535.05 287.17C539.629 281.217 531.57 270.411 540.225 265.512C544.346 263.176 549.978 265.237 553.961 262.856C555.243 261.345 553.045 259.284 551.122 258.781C548.087 257.999 544.901 258.009 541.871 258.811C538.84 259.613 536.066 261.179 533.814 263.36C531.342 258.323 535.142 250.905 530.884 247.288C526.625 243.67 518.521 247.929 515.361 243.396C514.558 242.007 514.162 240.42 514.217 238.817C513.621 230.987 516.048 216.701 505.059 215.373C503.712 215.374 502.371 215.189 501.075 214.823C497.275 213.358 497.32 208.047 498.007 204.017C502.174 202.231 506.616 205.299 510.599 207.406C514.583 209.512 520.902 209.878 522.23 205.574C523.237 202.506 520.81 198.66 522.871 196.142C523.786 194.997 525.481 194.539 526.259 193.257C528.182 190.235 523.512 187.167 522.642 183.641C521.497 178.788 527.999 175.674 532.944 176.04C537.889 176.407 543.521 178.055 547.505 175.125C548.787 174.163 549.749 172.835 550.939 171.828C554.952 169.045 559.81 167.749 564.676 168.165C572.46 168.165 554.785 136.112 554.602 134.052C553.274 119.262 568.339 111.158 577.176 102C581.516 96.8561 585.278 91.2516 588.394 85.2869C653.232 111.276 710.266 153.555 753.982 208.036C797.699 262.517 826.618 327.357 837.943 396.285C839.128 402.527 839.862 408.847 840.141 415.195C830.984 412.585 816.652 405.717 807.357 411.303C795.497 418.401 804.06 435.983 790.415 441.203C787.026 441.203 787.988 435.571 786.065 432.824C784.79 431.512 783.22 430.523 781.486 429.939C779.792 429.069 778.189 427.284 778.876 425.36C775.9 423.071 771.824 426.001 769.077 428.566C766.017 431.785 762.139 434.111 757.859 435.297C748.701 437.174 740.505 430.718 732.4 426.368C725.583 423.006 718.471 420.278 711.154 418.217C714.634 418.446 716.42 413.638 715.092 410.342C713.259 407.324 711.008 404.58 708.407 402.191C704.606 397.612 707.537 392.164 704.332 387.264C700.394 381.128 692.793 376.824 692.152 369.59C691.373 360.844 701.31 355.258 709.231 352.007C704.927 342.071 693.205 335.294 693.205 324.533C693.539 320.388 694.79 316.368 696.868 312.766C700.562 305.134 704.255 297.503 707.949 289.871C709.89 286.896 710.672 283.311 710.147 279.798C709.094 275.814 704.973 273.479 701.31 271.647L689.313 265.649C687.724 264.659 685.871 264.18 684.001 264.275C682.093 264.821 680.459 266.063 679.423 267.755C672.886 276.367 669.829 287.122 670.86 297.884C656.695 295.777 642.85 291.901 629.65 286.346C631.115 294.588 627.727 303.608 630.291 311.3" fill="#04D1FF"/>
<path opacity="0.4" d="M339.349 358.877C337.382 360.177 335.723 361.892 334.489 363.901C333.256 365.91 332.476 368.165 332.206 370.507C332.37 373.407 332.691 376.296 333.167 379.161C333.404 380.597 333.233 382.07 332.675 383.413C332.116 384.757 331.192 385.917 330.008 386.762C326.757 388.548 322.865 386.304 319.843 384.152C317.177 382.705 315.139 380.324 314.119 377.467C314.005 375.271 314.005 373.07 314.119 370.873C313.753 366.294 309.907 363.501 306.839 360.388C303.771 357.274 301.161 352.421 303.588 348.803C305.19 346.422 308.167 345.598 310.136 343.263C314.257 337.631 306.747 329.801 310.136 324.672C314.257 318.628 324.376 321.696 329.962 324.672C335.352 328.361 340.01 333.019 343.699 338.409C355.512 352.146 351.3 350.131 339.349 358.877Z" fill="#04D1FF"/>
<path opacity="0.4" d="M188.154 146.096C255.463 87.6696 349.422 57.6321 437.611 57.0369C440.084 57.0369 442.556 57.0369 444.937 57.0369C456.613 70.1325 462.749 94.9958 439.717 99.6662C439.717 102.185 441.137 102.78 442.419 104.795C444.434 107.954 441.091 111.938 437.84 113.357C426.484 117.936 412.748 117.936 414.534 133.092C416.686 151.408 425.34 139.777 434.818 146.371C436.07 147.496 437.178 148.773 438.115 150.171C442.144 154.75 449.241 154.75 455.377 154.384C455.043 153.484 454.897 152.525 454.949 151.566C455 150.607 455.249 149.67 455.678 148.811C456.107 147.952 456.709 147.191 457.445 146.574C458.181 145.957 459.035 145.499 459.956 145.226C461.414 145.143 462.843 144.785 464.169 144.173C466.733 142.296 464.81 137.9 461.879 136.709C458.857 136.015 455.8 135.48 452.721 135.107C449.699 134.237 446.906 130.528 448.738 128.055C449.605 127.019 450.831 126.348 452.172 126.178C454.89 125.593 457.709 125.675 460.388 126.416C463.067 127.158 465.527 128.537 467.557 130.436C468.119 129.003 469.123 127.785 470.424 126.962C471.725 126.138 473.255 125.751 474.792 125.857C476.328 126.046 477.761 126.728 478.876 127.802C479.991 128.875 480.727 130.282 480.973 131.81C481.614 136.389 478.546 142.341 482.53 144.448C480.747 144.007 478.878 144.065 477.126 144.614C475.374 145.163 473.806 146.182 472.594 147.561C463.436 158.596 468.839 185.337 444.205 180.85C440.363 179.709 436.446 178.837 432.483 178.24C430.493 177.97 428.469 178.361 426.723 179.354C424.977 180.347 423.606 181.886 422.821 183.735C417.647 176.271 404.506 177.874 399.927 169.998C398.943 168.088 398.62 165.905 399.01 163.792C399.399 161.679 400.479 159.755 402.079 158.322C402.678 157.933 403.166 157.397 403.498 156.765C404.048 155.391 402.857 154.018 402.628 152.552C402.308 150.08 405.01 147.973 405.33 145.638C405.788 142.158 401.758 139.915 398.324 139.045C394.89 138.175 390.769 136.893 390.082 133.458C390.082 132.268 390.082 131.032 390.082 129.887C389.747 128.723 389.062 127.69 388.12 126.928C387.178 126.166 386.025 125.713 384.817 125.629C382.388 125.476 379.955 125.835 377.674 126.682C376.117 128.009 376.804 130.711 378.223 132.222C379.857 133.505 381.388 134.913 382.802 136.435C383.443 137.396 380.238 158.276 381.84 157.726C374.377 160.291 358.442 160.657 361.647 171.829C362.792 175.767 365.082 179.843 363.616 183.689C368.867 182.224 374.133 180.804 379.414 179.43C380.696 181.125 378.589 183.46 376.529 184.009C374.468 184.559 371.95 184.467 370.622 186.07C369.74 187.289 369.318 188.782 369.432 190.282L368.607 204.797C368.287 210.063 367.6 216.107 363.25 219.084C358.9 222.06 351.299 219.77 347.132 215.42C346.125 214.413 345.026 213.177 343.607 213.177C342.301 213.373 341.111 214.041 340.264 215.054C337.796 217.446 334.792 219.213 331.503 220.209C328.213 221.204 324.733 221.399 321.353 220.778C317.995 220.036 315.02 218.099 312.981 215.328C310.943 212.557 309.981 209.141 310.272 205.713C310.73 203.149 311.829 199.944 309.815 198.25C308.67 197.242 306.655 197.105 306.106 195.685C305.556 194.266 307.754 192.526 309.357 191.335C310.736 190.244 311.707 188.719 312.114 187.008C312.521 185.297 312.34 183.499 311.6 181.903C310.822 180.255 296.261 174.302 294.017 175.401C288.843 177.919 289.759 191.793 289.118 197.151C289.124 199.256 288.302 201.279 286.829 202.783C284.173 204.706 280.418 202.783 278.403 200.173C276.389 197.563 274.878 194.403 271.947 192.984C270.191 192.27 268.301 191.942 266.407 192.022C264.52 191.717 262.59 191.795 260.734 192.251C258.877 192.707 257.131 193.533 255.601 194.678C254.319 195.96 253.586 197.654 252.304 198.936C250.71 200.219 248.79 201.032 246.759 201.283C244.729 201.534 242.669 201.213 240.811 200.356C236.965 198.936 233.485 196.555 229.547 195.502C221.122 193.259 211.506 197.242 203.768 193.259C200.013 191.335 197.357 185.978 200.288 183.002C203.218 180.026 208.392 180.896 209.079 177.324C209.766 173.753 201.341 168.945 199.921 165.968C198.502 162.992 201.295 159.192 198.593 154.796C195.846 151.133 190.535 150.08 188.154 146.096Z" fill="#04D1FF"/>
<path opacity="0.4" d="M682.307 722.44C686.886 719.235 692.426 717.357 694.121 710.809C696.364 701.652 691.556 698.034 682.628 701.331C681.873 701.743 680.997 701.873 680.155 701.697C677.591 700.873 679.422 697.119 681.117 694.966C682.894 692.483 684.022 689.594 684.398 686.563C684.773 683.532 684.385 680.455 683.269 677.612C682.765 676.239 707.857 675.644 710.742 677.155C720.449 682.466 714.13 703.071 725.349 699.591C726.127 691.761 725.715 683.657 725.715 675.689L737.162 675.277C734.323 675.277 736.017 660.762 737.162 659.16C740.963 652.932 752.547 655.588 751.54 643.866C750.212 628.985 721.457 626.009 724.891 643.042C715.774 646.113 706.151 647.403 696.547 646.842C696.319 649.864 696.135 652.932 695.952 656C694.852 656.681 693.605 657.09 692.315 657.194C691.025 657.297 689.729 657.092 688.534 656.595C686.34 652.714 685.327 648.276 685.62 643.826C685.913 639.377 687.499 635.11 690.183 631.549C686.932 626.512 690.916 620.01 694.762 615.385C684.23 607.693 687.252 587.912 699.615 583.974C711.978 580.037 726.219 593.544 722.51 606.045C728.582 606.747 734.274 609.361 738.765 613.508C739.258 605.588 742.209 598.018 747.208 591.855C752.206 585.691 759.002 581.239 766.65 579.121C774.343 577.152 783.5 577.289 788.72 571.291C791.056 568.635 792.246 565.155 794.398 562.362C799.343 556.135 808.135 554.853 816.056 554.395C821.368 554.12 826.725 554.028 832.037 554.12C809.987 645.232 756.86 725.804 681.803 781.965C679.026 782.258 676.219 781.833 673.653 780.729C669.074 778.302 667.746 772.624 666.831 767.588C663.213 747.944 665.228 735.535 681.208 723.493L682.307 722.44Z" fill="#04D1FF"/>
<path opacity="0.7" d="M319.935 752.66C312.38 753.393 308.946 762.688 307.435 770.289C305.145 781.644 302.856 793.183 300.566 804.356C314.303 810.858 313.25 827.754 306.794 839.201C228.685 811.666 160.971 760.707 112.887 693.276C64.8024 625.845 38.688 545.223 38.1048 462.405C38.1048 449.034 38.6543 435.847 39.7532 422.843C40.0736 422.633 40.4104 422.449 40.7605 422.294C51.7498 417.074 60.4039 426.461 68.6459 431.772C70.5233 432.963 94.654 444.684 94.9745 441.433C93.9416 451.973 94.4972 462.608 96.6229 472.982C96.7147 473.786 97.0877 474.532 97.676 475.088C99.2328 476.141 101.019 473.989 101.614 472.158C103.079 467.579 103.674 462.634 105.414 458.101C106.148 455.771 107.386 453.633 109.04 451.836C110.694 450.04 112.723 448.63 114.984 447.707C119.563 446.241 124.737 447.981 129.591 447.294C132.51 446.694 135.258 445.45 137.635 443.651C140.011 441.853 141.956 439.547 143.327 436.9C145.929 431.773 147.839 426.322 149.005 420.691C154.683 433.283 169.107 425.499 177.577 435.71C180.279 439.007 183.576 443.723 187.514 442.12C191.451 440.518 191.68 434.199 195.71 433.695C198.549 433.375 200.609 436.443 201.021 439.236C201 442.069 201.386 444.891 202.166 447.615C202.614 448.495 203.235 449.276 203.991 449.911C204.747 450.547 205.623 451.024 206.567 451.314C207.51 451.605 208.503 451.702 209.485 451.602C210.468 451.501 211.42 451.204 212.285 450.729C215.353 448.897 216.498 445.142 218.421 442.12C220.344 439.098 224.465 436.534 227.35 438.64C228.014 439.168 228.547 439.842 228.907 440.609C231.7 445.967 228.54 452.514 224.786 457.276C221.031 462.038 216.452 466.801 216.04 472.845C216.608 473.211 217.244 473.459 217.91 473.574C218.575 473.689 219.257 473.669 219.915 473.516C220.573 473.362 221.194 473.077 221.739 472.679C222.285 472.28 222.745 471.776 223.092 471.196C223.453 470.345 223.948 469.557 224.557 468.861C226.114 467.533 228.403 468.861 230.097 469.868C234.126 472.458 238.63 474.221 243.347 475.054C248.063 475.887 252.898 475.774 257.571 474.722L259.631 438.091C262.424 438.091 264.21 437.816 265.126 434.931C273.925 444.302 283.202 453.212 292.92 461.626C294.238 462.47 295.262 463.702 295.85 465.152C296.009 466.751 296.009 468.361 295.85 469.96C296.171 475.317 303.359 476.737 308.717 476.599C310.273 477.469 309.358 480.033 307.801 480.903C306.113 481.432 304.473 482.106 302.901 482.918C301.988 483.885 301.372 485.094 301.128 486.402C300.885 487.709 301.023 489.059 301.528 490.29C303.051 494.67 306.227 498.281 310.376 500.351C314.525 502.422 319.32 502.788 323.735 501.371C324.792 501.031 325.73 500.395 326.437 499.54C327.765 497.525 326.437 494.961 326.437 492.488C325.43 482.964 335.595 485.162 340.448 487.909C346.859 491.481 350.43 500.913 351.621 507.69C353.04 515.566 358.993 567.994 376.484 560.759C378.098 559.963 379.391 558.638 380.147 557.004C382.666 552.426 382.482 546.519 384.36 541.436C386.237 536.354 391.961 531.775 396.677 534.385C398.554 535.438 399.745 537.453 401.576 538.643C406.613 541.94 413.756 537.956 419.205 540.475C421.534 541.954 423.725 543.64 425.753 545.512C428.042 547.068 431.66 547.572 433.262 545.512C434.865 543.451 432.942 539.193 434.407 536.354C434.902 535.74 435.537 535.255 436.26 534.939C436.982 534.623 437.77 534.487 438.557 534.54C439.343 534.594 440.105 534.837 440.778 535.249C441.45 535.66 442.014 536.228 442.42 536.903C443.122 538.394 443.367 540.06 443.122 541.69C442.878 543.321 442.155 544.841 441.046 546.061C439.827 547.242 438.888 548.682 438.299 550.273C437.658 553.25 440.497 555.722 442.878 557.462L454.829 565.75C454.534 567.114 453.842 568.359 452.839 569.329C451.837 570.299 450.569 570.95 449.197 571.199C446.541 571.932 443.702 571.932 441.046 572.802C428.271 577.06 428.317 596.017 411.558 592.308C411.744 591.062 411.635 589.791 411.24 588.595C410.846 587.399 410.176 586.313 409.286 585.422C408.396 584.532 407.309 583.863 406.113 583.468C404.918 583.073 403.646 582.965 402.401 583.15C396.265 584.661 392.281 593.407 386.191 591.667C384.085 591.071 382.482 589.24 380.33 588.736C374.424 587.317 371.539 596.383 369.845 600.275C364.35 613.096 372.913 614.653 372.592 626.1C372.592 631.32 368.517 635.761 367.555 640.935C366.594 646.11 368.334 650.551 367.555 655.359C365.815 668.5 348.416 660.533 340.723 658.976C344.89 666.44 338.663 675.506 331.886 680.68C321.446 688.602 323.232 687.915 321.904 699.362C321.813 700.886 321.303 702.355 320.431 703.607C319.558 704.859 318.357 705.846 316.959 706.459C311.968 708.245 307.114 703.3 301.848 702.796C299.33 702.521 296.766 703.345 294.247 702.796C287.654 701.651 285.364 693.638 281.106 688.51C279.199 686.284 276.786 684.549 274.069 683.449C271.352 682.35 268.41 681.918 265.492 682.191C265.057 685.581 265.057 689.012 265.492 692.402L276.573 699.225C279.985 700.986 282.946 703.508 285.227 706.597C286.064 708.576 287.225 710.402 288.661 712C291.912 714.747 296.812 713.099 301.024 712.824C311.372 712.137 328.177 718.593 338.113 721.982C348.049 725.37 352.399 732.971 362.198 736.313C362.595 736.519 362.942 736.807 363.218 737.159C363.493 737.511 363.69 737.917 363.794 738.352C363.898 738.786 363.908 739.238 363.822 739.676C363.736 740.115 363.557 740.529 363.297 740.892C362.146 742.284 360.509 743.184 358.718 743.411C354.517 744.131 350.197 743.422 346.447 741.396C351.3 744.052 337.289 755.774 334.542 756.369C330.329 757.331 324.651 754.125 320.347 753.942C309.724 753.393 303.588 755.499 310.548 767.038C313.204 771.617 316.318 777.111 313.387 781.37C311.929 780.914 310.359 780.975 308.941 781.543C307.524 782.11 306.345 783.148 305.603 784.483C304.201 787.22 303.734 790.34 304.275 793.366C304.349 795.438 305.124 797.424 306.473 798.998C307.388 799.604 308.22 800.327 308.946 801.15C310.915 804.127 306.885 807.378 303.543 808.66" fill="white"/>
<path opacity="0.7" d="M672.051 291.703C668.754 289.23 664.037 291.245 660.603 293.534C657.169 295.824 653.094 298.48 649.202 297.06C649.202 292.481 649.202 287.49 648.973 282.682C649.035 282.235 649.002 281.779 648.876 281.345C648.75 280.911 648.533 280.508 648.24 280.164C647.877 279.894 647.461 279.702 647.02 279.599C646.579 279.497 646.122 279.487 645.676 279.569L636.518 279.981C633.909 282.82 641.097 286.3 640.09 289.963C639.632 291.611 637.8 292.298 636.289 293.122C623.606 299.945 631.711 314.094 637.388 321.786C644.074 330.715 643.661 342.941 642.929 353.838C643.05 355.83 642.777 357.826 642.124 359.712C641.472 361.598 640.454 363.336 639.128 364.828C636.152 367.392 631.802 367.209 628.002 368.353C621.408 370.231 616.738 376.092 610.602 379.114C589.081 389.691 574.887 366.659 581.892 348.527C585.555 339.369 587.112 340.926 585.006 330.852C584.136 326.686 585.51 321.695 581.16 318.856C580.046 318.184 578.779 317.806 577.479 317.756C576.179 317.707 574.888 317.988 573.726 318.574C572.564 319.159 571.569 320.03 570.836 321.104C570.102 322.178 569.652 323.421 569.529 324.717C568.397 329.997 568.618 335.478 570.17 340.651C563.806 338.316 556.205 339.827 549.245 339.827C549.317 341.387 548.989 342.939 548.292 344.337C547.595 345.734 546.553 346.93 545.263 347.811C543.974 348.692 542.481 349.228 540.926 349.37C539.371 349.511 537.805 349.252 536.378 348.618C536.378 345.459 535.691 341.155 532.578 341.155C531.658 341.23 530.773 341.546 530.014 342.071C526.717 344.039 523.786 346.649 520.306 348.252C514.949 350.725 499.61 349.534 497.412 356.769C496.954 358.005 496.954 359.424 496.496 360.661C495.864 361.937 494.798 362.946 493.489 363.508C492.18 364.071 490.714 364.149 489.353 363.729C488.007 363.25 486.813 362.421 485.895 361.326C484.978 360.231 484.369 358.91 484.133 357.501C483.767 355.624 484.133 353.655 483.492 351.824C480.928 342.116 470.9 349.717 466.459 347.245C461.847 341.16 458.088 334.474 455.286 327.372C453.263 330.196 450.615 332.516 447.55 334.152C444.485 335.788 441.084 336.696 437.612 336.805C429.874 336.438 426.577 330.257 424.837 322.748C423.097 315.238 422.914 305.348 421.174 299.853C420.473 298.412 420.148 296.816 420.228 295.216C420.308 293.615 420.791 292.06 421.632 290.695C424.333 287.765 430.148 288.864 432.163 285.384C432.678 284.212 432.973 282.954 433.033 281.675C433.824 277.996 436.042 274.782 439.202 272.738C442.362 270.695 446.204 269.989 449.883 270.777C452.264 269.221 452.31 265.832 452.447 262.993C452.585 260.154 453.775 256.629 456.614 256.445C459.453 256.262 461.193 260.475 461.193 263.726C461.115 267.062 460.591 270.373 459.636 273.57C458.588 275.845 458.283 278.393 458.766 280.851C459.559 282.581 460.871 284.022 462.521 284.972C466.025 287.906 470.37 289.653 474.93 289.963C477.199 290.066 479.426 289.322 481.178 287.875C482.93 286.428 484.081 284.381 484.408 282.133C484.293 280.915 484.293 279.688 484.408 278.47C485.141 275.448 488.987 274.395 492.101 274.807C495.071 275.677 498.166 276.049 501.258 275.906C504.326 275.31 506.89 271.327 504.692 269.037C508.813 267.618 514.72 266.885 516.323 270.915C516.688 272.272 516.828 273.679 516.735 275.081C516.735 283.736 527.633 296.19 535.05 287.17C539.629 281.217 531.57 270.411 540.225 265.512C544.346 263.176 549.978 265.237 553.961 262.856C555.243 261.345 553.045 259.284 551.122 258.781C548.087 257.999 544.901 258.009 541.871 258.811C538.84 259.613 536.066 261.179 533.814 263.36C531.342 258.323 535.142 250.905 530.884 247.288C526.625 243.67 518.521 247.929 515.361 243.396C514.558 242.007 514.162 240.42 514.217 238.817C513.621 230.987 516.048 216.701 505.059 215.373C503.712 215.374 502.371 215.189 501.075 214.823C497.275 213.358 497.32 208.047 498.007 204.017C502.174 202.231 506.616 205.299 510.599 207.406C514.583 209.512 520.902 209.878 522.23 205.574C523.237 202.506 520.81 198.66 522.871 196.142C523.786 194.997 525.481 194.539 526.259 193.257C528.182 190.235 523.512 187.167 522.642 183.641C521.497 178.788 527.999 175.674 532.944 176.04C537.889 176.407 543.521 178.055 547.505 175.125C548.787 174.163 549.749 172.835 550.939 171.828C554.952 169.045 559.81 167.749 564.676 168.165C572.46 168.165 554.785 136.112 554.602 134.052C553.274 119.262 568.339 111.158 577.176 102C581.516 96.8561 585.278 91.2516 588.394 85.2869C653.232 111.276 710.266 153.555 753.982 208.036C797.699 262.517 826.618 327.357 837.943 396.285C839.128 402.527 839.862 408.847 840.141 415.195C830.984 412.585 816.652 405.717 807.357 411.303C795.497 418.401 804.06 435.983 790.415 441.203C787.026 441.203 787.988 435.571 786.065 432.824C784.79 431.512 783.22 430.523 781.486 429.939C779.792 429.069 778.189 427.284 778.876 425.36C775.9 423.071 771.824 426.001 769.077 428.566C766.017 431.785 762.139 434.111 757.859 435.297C748.701 437.174 740.505 430.718 732.4 426.368C725.583 423.006 718.471 420.278 711.154 418.217C714.634 418.446 716.42 413.638 715.092 410.342C713.259 407.324 711.008 404.58 708.407 402.191C704.606 397.612 707.537 392.164 704.332 387.264C700.394 381.128 692.793 376.824 692.152 369.59C691.373 360.844 701.31 355.258 709.231 352.007C704.927 342.071 693.205 335.294 693.205 324.533C693.539 320.388 694.79 316.368 696.868 312.766C700.562 305.134 704.255 297.503 707.949 289.871C709.89 286.896 710.672 283.311 710.147 279.798C709.094 275.814 704.973 273.479 701.31 271.647L689.313 265.649C687.724 264.659 685.871 264.18 684.001 264.275C682.093 264.821 680.459 266.063 679.423 267.755C672.886 276.367 669.829 287.122 670.86 297.884C656.695 295.777 642.85 291.901 629.65 286.346C631.115 294.588 627.727 303.608 630.291 311.3" fill="white"/>
<path opacity="0.7" d="M339.349 358.877C337.382 360.177 335.723 361.892 334.489 363.901C333.256 365.91 332.476 368.165 332.206 370.507C332.37 373.407 332.691 376.296 333.167 379.161C333.404 380.597 333.233 382.07 332.675 383.413C332.116 384.757 331.192 385.917 330.008 386.762C326.757 388.548 322.865 386.304 319.843 384.152C317.177 382.705 315.139 380.324 314.119 377.467C314.005 375.271 314.005 373.07 314.119 370.873C313.753 366.294 309.907 363.501 306.839 360.388C303.771 357.274 301.161 352.421 303.588 348.803C305.19 346.422 308.167 345.598 310.136 343.263C314.257 337.631 306.747 329.801 310.136 324.672C314.257 318.628 324.376 321.696 329.962 324.672C335.352 328.361 340.01 333.019 343.699 338.409C355.512 352.146 351.3 350.131 339.349 358.877Z" fill="white"/>
<path opacity="0.7" d="M188.154 146.096C255.463 87.6696 349.422 57.6321 437.611 57.0369C440.084 57.0369 442.556 57.0369 444.937 57.0369C456.613 70.1325 462.749 94.9958 439.717 99.6662C439.717 102.185 441.137 102.78 442.419 104.795C444.434 107.954 441.091 111.938 437.84 113.357C426.484 117.936 412.748 117.936 414.534 133.092C416.686 151.408 425.34 139.777 434.818 146.371C436.07 147.496 437.178 148.773 438.115 150.171C442.144 154.75 449.241 154.75 455.377 154.384C455.043 153.484 454.897 152.525 454.949 151.566C455 150.607 455.249 149.67 455.678 148.811C456.107 147.952 456.709 147.191 457.445 146.574C458.181 145.957 459.035 145.499 459.956 145.226C461.414 145.143 462.843 144.785 464.169 144.173C466.733 142.296 464.81 137.9 461.879 136.709C458.857 136.015 455.8 135.48 452.721 135.107C449.699 134.237 446.906 130.528 448.738 128.055C449.605 127.019 450.831 126.348 452.172 126.178C454.89 125.593 457.709 125.675 460.388 126.416C463.067 127.158 465.527 128.537 467.557 130.436C468.119 129.003 469.123 127.785 470.424 126.962C471.725 126.138 473.255 125.751 474.792 125.857C476.328 126.046 477.761 126.728 478.876 127.802C479.991 128.875 480.727 130.282 480.973 131.81C481.614 136.389 478.546 142.341 482.53 144.448C480.747 144.007 478.878 144.065 477.126 144.614C475.374 145.163 473.806 146.182 472.594 147.561C463.436 158.596 468.839 185.337 444.205 180.85C440.363 179.709 436.446 178.837 432.483 178.24C430.493 177.97 428.469 178.361 426.723 179.354C424.977 180.347 423.606 181.886 422.821 183.735C417.647 176.271 404.506 177.874 399.927 169.998C398.943 168.088 398.62 165.905 399.01 163.792C399.399 161.679 400.479 159.755 402.079 158.322C402.678 157.933 403.166 157.397 403.498 156.765C404.048 155.391 402.857 154.018 402.628 152.552C402.308 150.08 405.01 147.973 405.33 145.638C405.788 142.158 401.758 139.915 398.324 139.045C394.89 138.175 390.769 136.893 390.082 133.458C390.082 132.268 390.082 131.032 390.082 129.887C389.747 128.723 389.062 127.69 388.12 126.928C387.178 126.166 386.025 125.713 384.817 125.629C382.388 125.476 379.955 125.835 377.674 126.682C376.117 128.009 376.804 130.711 378.223 132.222C379.857 133.505 381.388 134.913 382.802 136.435C383.443 137.396 380.238 158.276 381.84 157.726C374.377 160.291 358.442 160.657 361.647 171.829C362.792 175.767 365.082 179.843 363.616 183.689C368.867 182.224 374.133 180.804 379.414 179.43C380.696 181.125 378.589 183.46 376.529 184.009C374.468 184.559 371.95 184.467 370.622 186.07C369.74 187.289 369.318 188.782 369.432 190.282L368.607 204.797C368.287 210.063 367.6 216.107 363.25 219.084C358.9 222.06 351.299 219.77 347.132 215.42C346.125 214.413 345.026 213.177 343.607 213.177C342.301 213.373 341.111 214.041 340.264 215.054C337.796 217.446 334.792 219.213 331.503 220.209C328.213 221.204 324.733 221.399 321.353 220.778C317.995 220.036 315.02 218.099 312.981 215.328C310.943 212.557 309.981 209.141 310.272 205.713C310.73 203.149 311.829 199.944 309.815 198.25C308.67 197.242 306.655 197.105 306.106 195.685C305.556 194.266 307.754 192.526 309.357 191.335C310.736 190.244 311.707 188.719 312.114 187.008C312.521 185.297 312.34 183.499 311.6 181.903C310.822 180.255 296.261 174.302 294.017 175.401C288.843 177.919 289.759 191.793 289.118 197.151C289.124 199.256 288.302 201.279 286.829 202.783C284.173 204.706 280.418 202.783 278.403 200.173C276.389 197.563 274.878 194.403 271.947 192.984C270.191 192.27 268.301 191.942 266.407 192.022C264.52 191.717 262.59 191.795 260.734 192.251C258.877 192.707 257.131 193.533 255.601 194.678C254.319 195.96 253.586 197.654 252.304 198.936C250.71 200.219 248.79 201.032 246.759 201.283C244.729 201.534 242.669 201.213 240.811 200.356C236.965 198.936 233.485 196.555 229.547 195.502C221.122 193.259 211.506 197.242 203.768 193.259C200.013 191.335 197.357 185.978 200.288 183.002C203.218 180.026 208.392 180.896 209.079 177.324C209.766 173.753 201.341 168.945 199.921 165.968C198.502 162.992 201.295 159.192 198.593 154.796C195.846 151.133 190.535 150.08 188.154 146.096Z" fill="white"/>
<path opacity="0.7" d="M682.307 722.44C686.886 719.235 692.426 717.357 694.121 710.809C696.364 701.652 691.556 698.034 682.628 701.331C681.873 701.743 680.997 701.873 680.155 701.697C677.591 700.873 679.422 697.119 681.117 694.966C682.894 692.483 684.022 689.594 684.398 686.563C684.773 683.532 684.385 680.455 683.269 677.612C682.765 676.239 707.857 675.644 710.742 677.155C720.449 682.466 714.13 703.071 725.349 699.591C726.127 691.761 725.715 683.657 725.715 675.689L737.162 675.277C734.323 675.277 736.017 660.762 737.162 659.16C740.963 652.932 752.547 655.588 751.54 643.866C750.212 628.985 721.457 626.009 724.891 643.042C715.774 646.113 706.151 647.403 696.547 646.842C696.319 649.864 696.135 652.932 695.952 656C694.852 656.681 693.605 657.09 692.315 657.194C691.025 657.297 689.729 657.092 688.534 656.595C686.34 652.714 685.327 648.276 685.62 643.826C685.913 639.377 687.499 635.11 690.183 631.549C686.932 626.512 690.916 620.01 694.762 615.385C684.23 607.693 687.252 587.912 699.615 583.974C711.978 580.037 726.219 593.544 722.51 606.045C728.582 606.747 734.274 609.361 738.765 613.508C739.258 605.588 742.209 598.018 747.208 591.855C752.206 585.691 759.002 581.239 766.65 579.121C774.343 577.152 783.5 577.289 788.72 571.291C791.056 568.635 792.246 565.155 794.398 562.362C799.343 556.135 808.135 554.853 816.056 554.395C821.368 554.12 826.725 554.028 832.037 554.12C809.987 645.232 756.86 725.804 681.803 781.965C679.026 782.258 676.219 781.833 673.653 780.729C669.074 778.302 667.746 772.624 666.831 767.588C663.213 747.944 665.228 735.535 681.208 723.493L682.307 722.44Z" fill="white"/>
<g opacity="0.7">
<path d="M441 895.429C427.264 895.429 413.069 894.743 399.195 893.415C390.907 892.636 382.528 891.583 374.332 890.347C373.671 890.234 373.08 889.872 372.679 889.335C372.278 888.798 372.1 888.127 372.18 887.462C372.23 887.128 372.346 886.807 372.52 886.518C372.695 886.229 372.925 885.977 373.198 885.777C373.47 885.577 373.779 885.433 374.107 885.353C374.435 885.273 374.776 885.258 375.11 885.31C383.215 886.546 391.457 887.599 399.699 888.378C416.605 889.993 433.592 890.605 450.57 890.21C451.185 890.292 451.75 890.595 452.158 891.063C452.567 891.53 452.792 892.13 452.792 892.751C452.792 893.372 452.567 893.971 452.158 894.439C451.75 894.906 451.185 895.209 450.57 895.292C447.456 895.384 444.251 895.429 441 895.429ZM465.864 894.697C465.248 894.614 464.684 894.311 464.275 893.844C463.866 893.376 463.641 892.776 463.641 892.156C463.641 891.535 463.866 890.935 464.275 890.468C464.684 890 465.248 889.697 465.864 889.614C474.243 889.156 482.714 888.424 491.002 887.416C491.333 887.378 491.668 887.406 491.988 887.499C492.308 887.591 492.607 887.746 492.867 887.955C493.127 888.164 493.342 888.422 493.502 888.715C493.661 889.007 493.76 889.329 493.795 889.66C493.873 890.327 493.686 890.998 493.275 891.528C492.865 892.059 492.262 892.408 491.597 892.499C483.217 893.461 474.655 894.193 466.138 894.697H465.864ZM325.063 879.815H324.376L314.669 876.885C314.35 876.789 314.054 876.631 313.796 876.42C313.538 876.209 313.325 875.95 313.167 875.656C313.01 875.363 312.912 875.041 312.879 874.71C312.846 874.379 312.878 874.044 312.975 873.726C313.071 873.407 313.229 873.11 313.44 872.853C313.651 872.595 313.91 872.381 314.204 872.224C314.497 872.067 314.818 871.969 315.15 871.936C315.481 871.903 315.815 871.935 316.134 872.031L325.841 874.824C326.503 874.916 327.102 875.266 327.505 875.798C327.909 876.331 328.085 877.002 327.993 877.663C327.902 878.325 327.552 878.924 327.02 879.327C326.487 879.731 325.816 879.906 325.154 879.815H325.063ZM565.637 877.022C565.023 877.038 564.424 876.828 563.953 876.432C563.483 876.036 563.174 875.482 563.084 874.874C562.994 874.266 563.129 873.646 563.464 873.131C563.8 872.615 564.312 872.241 564.905 872.077C568.11 871.116 571.315 870.108 574.475 869.055C575.112 868.843 575.808 868.892 576.409 869.193C577.01 869.493 577.467 870.02 577.68 870.658C577.892 871.295 577.843 871.991 577.542 872.592C577.242 873.193 576.715 873.65 576.077 873.863C572.872 874.916 569.621 875.969 566.37 876.931C566.133 877.003 565.885 877.034 565.637 877.022ZM622.461 855.364C621.977 855.376 621.5 855.243 621.092 854.982C620.684 854.721 620.364 854.344 620.172 853.899C620.033 853.598 619.955 853.273 619.943 852.943C619.93 852.612 619.982 852.282 620.097 851.971C620.212 851.661 620.387 851.376 620.612 851.133C620.837 850.891 621.107 850.695 621.408 850.556C644.308 839.886 666.245 827.263 686.978 812.826C687.251 812.635 687.559 812.5 687.884 812.428C688.21 812.357 688.547 812.351 688.874 812.41C689.202 812.47 689.515 812.594 689.795 812.776C690.075 812.957 690.315 813.192 690.503 813.467C690.878 814.023 691.021 814.702 690.901 815.361C690.781 816.02 690.409 816.606 689.862 816.993C668.903 831.62 646.702 844.383 623.514 855.135C623.189 855.302 622.826 855.381 622.461 855.364ZM244.658 848.725C244.26 848.722 243.869 848.628 243.513 848.45C235.912 844.604 228.357 840.483 221.077 836.225C220.776 836.059 220.511 835.836 220.296 835.568C220.082 835.3 219.922 834.993 219.826 834.664C219.731 834.334 219.701 833.989 219.739 833.648C219.776 833.307 219.881 832.977 220.046 832.676C220.212 832.375 220.435 832.11 220.702 831.896C220.97 831.681 221.278 831.521 221.607 831.426C221.937 831.33 222.282 831.3 222.623 831.338C222.964 831.376 223.294 831.48 223.595 831.646C230.83 835.858 238.293 839.888 245.803 843.688C246.334 843.93 246.764 844.349 247.02 844.874C247.277 845.398 247.343 845.995 247.208 846.563C247.072 847.131 246.744 847.634 246.279 847.986C245.814 848.339 245.241 848.519 244.658 848.496V848.725ZM209.355 828.669C208.866 828.674 208.387 828.53 207.981 828.257C186.387 814.594 166.025 799.074 147.128 781.873C146.831 781.663 146.582 781.392 146.398 781.079C146.214 780.765 146.098 780.416 146.059 780.054C146.02 779.693 146.059 779.327 146.172 778.981C146.286 778.635 146.471 778.318 146.717 778.049C146.962 777.781 147.262 777.568 147.596 777.424C147.93 777.281 148.291 777.21 148.655 777.216C149.018 777.223 149.377 777.307 149.705 777.462C150.034 777.618 150.326 777.841 150.562 778.119C169.237 795.095 189.353 810.415 210.682 823.907C210.966 824.081 211.213 824.309 211.408 824.578C211.603 824.847 211.743 825.152 211.819 825.476C211.896 825.799 211.908 826.135 211.854 826.463C211.801 826.791 211.682 827.105 211.507 827.387C211.288 827.767 210.975 828.085 210.598 828.309C210.221 828.534 209.793 828.658 209.355 828.669ZM700.806 808.522C700.409 808.519 700.018 808.427 699.661 808.253C699.305 808.078 698.992 807.826 698.745 807.515C698.354 806.969 698.187 806.293 698.281 805.628C698.375 804.963 698.722 804.36 699.249 803.943C705.98 798.907 712.619 793.595 718.984 788.192C719.236 787.97 719.53 787.802 719.849 787.698C720.168 787.594 720.505 787.556 720.839 787.586C721.173 787.615 721.497 787.713 721.792 787.872C722.088 788.032 722.347 788.25 722.556 788.513C722.774 788.764 722.94 789.057 723.044 789.373C723.149 789.69 723.19 790.023 723.164 790.356C723.138 790.688 723.047 791.012 722.896 791.308C722.744 791.605 722.535 791.869 722.281 792.084C715.825 797.533 709.094 802.89 702.317 808.019C701.863 808.343 701.319 808.519 700.76 808.522H700.806ZM113.198 746.204C112.836 746.195 112.478 746.114 112.148 745.964C111.818 745.815 111.521 745.6 111.275 745.334C109.031 742.77 106.696 740.16 104.681 737.55C104.466 737.295 104.303 737 104.202 736.682C104.101 736.364 104.065 736.029 104.095 735.697C104.125 735.365 104.22 735.042 104.376 734.746C104.532 734.451 104.744 734.19 105.002 733.978C105.254 733.757 105.548 733.589 105.867 733.484C106.186 733.38 106.522 733.342 106.856 733.372C107.191 733.402 107.515 733.499 107.81 733.659C108.105 733.818 108.365 734.036 108.573 734.299C110.726 736.863 112.923 739.473 115.121 741.991C115.433 742.362 115.633 742.814 115.698 743.294C115.763 743.775 115.691 744.264 115.49 744.705C115.289 745.146 114.966 745.52 114.561 745.786C114.155 746.051 113.683 746.196 113.198 746.204ZM773.976 738.603C773.388 738.605 772.818 738.394 772.374 738.007C772.113 737.799 771.896 737.54 771.736 737.247C771.577 736.953 771.477 736.631 771.442 736.298C771.408 735.966 771.441 735.63 771.538 735.31C771.635 734.991 771.794 734.693 772.008 734.436C774.16 731.872 776.312 729.216 778.372 726.606C778.819 726.173 779.408 725.918 780.029 725.887C780.651 725.856 781.262 726.053 781.749 726.439C782.237 726.826 782.567 727.376 782.678 727.988C782.79 728.6 782.675 729.232 782.356 729.766C780.25 732.421 778.097 735.077 775.945 737.687C775.718 737.955 775.438 738.175 775.123 738.332C774.808 738.489 774.465 738.581 774.114 738.603H773.976ZM809.509 689.105C809.039 689.119 808.576 688.992 808.181 688.739C807.897 688.565 807.65 688.338 807.455 688.068C807.26 687.799 807.12 687.494 807.044 687.171C806.967 686.847 806.955 686.511 807.009 686.183C807.063 685.855 807.181 685.541 807.357 685.259C820.611 663.784 831.949 641.184 841.24 617.72C841.495 617.099 841.982 616.603 842.599 616.338C843.215 616.072 843.911 616.059 844.537 616.301C845.166 616.547 845.673 617.031 845.948 617.648C846.222 618.265 846.242 618.966 846.002 619.598C836.622 643.379 825.161 666.286 811.752 688.052C811.516 688.389 811.2 688.661 810.832 688.845C810.465 689.029 810.057 689.118 809.646 689.105H809.509ZM63.4257 675.826C62.9726 675.826 62.5274 675.707 62.134 675.482C61.7406 675.258 61.4125 674.934 61.182 674.544C57.0152 667.218 52.9858 659.617 49.2311 652.016C49.015 651.421 49.0263 650.768 49.2629 650.181C49.4995 649.594 49.9446 649.116 50.5128 648.837C51.0809 648.559 51.7319 648.501 52.3405 648.673C52.9492 648.846 53.4725 649.237 53.81 649.772C57.5189 657.282 61.5025 664.791 65.6235 672.026C65.9544 672.615 66.0391 673.312 65.859 673.964C65.6789 674.615 65.2486 675.17 64.6619 675.506C64.3257 675.697 63.9494 675.807 63.563 675.826H63.4257ZM45.1101 639.653C44.6283 639.654 44.1565 639.516 43.7507 639.256C43.3449 638.996 43.0222 638.626 42.8207 638.188C32.318 614.895 23.9055 590.715 17.6826 565.933C17.5984 565.611 17.5785 565.276 17.6238 564.947C17.6691 564.617 17.7789 564.3 17.9468 564.013C18.1148 563.726 18.3376 563.475 18.6026 563.274C18.8676 563.073 19.1696 562.927 19.4913 562.842C19.813 562.758 20.1481 562.738 20.4775 562.784C20.8069 562.829 21.1242 562.939 21.4112 563.107C21.6982 563.274 21.9493 563.497 22.1502 563.762C22.3511 564.027 22.4978 564.329 22.582 564.651C28.7547 589.146 37.0747 613.048 47.4453 636.082C47.7118 636.703 47.7271 637.403 47.488 638.034C47.2489 638.666 46.774 639.181 46.1633 639.47C45.8422 639.595 45.5003 639.657 45.1559 639.653H45.1101ZM848.979 606.823C848.693 606.891 848.395 606.891 848.109 606.823C847.796 606.714 847.507 606.546 847.26 606.326C847.012 606.107 846.81 605.84 846.666 605.543C846.521 605.245 846.437 604.922 846.417 604.591C846.398 604.261 846.443 603.93 846.552 603.617C849.345 595.696 851.955 587.591 854.244 579.578C854.334 579.254 854.487 578.951 854.695 578.687C854.904 578.424 855.163 578.204 855.457 578.042C855.751 577.88 856.075 577.778 856.41 577.743C856.744 577.708 857.082 577.741 857.404 577.838C857.728 577.928 858.031 578.081 858.294 578.289C858.558 578.498 858.778 578.757 858.94 579.051C859.102 579.345 859.204 579.669 859.239 580.004C859.273 580.338 859.241 580.676 859.144 580.998C856.808 589.102 854.153 597.299 851.359 605.312C851.152 605.758 850.823 606.137 850.41 606.404C849.997 606.671 849.516 606.816 849.024 606.823H848.979ZM10.6769 517.992C10.054 517.996 9.45178 517.769 8.98665 517.354C8.52152 516.94 8.22648 516.368 8.15853 515.749C7.70065 512.406 7.33436 509.018 6.96805 505.629C6.89519 504.961 7.09061 504.292 7.51138 503.768C7.93215 503.244 8.54378 502.909 9.21169 502.836C9.87961 502.763 10.5491 502.959 11.0729 503.38C11.5967 503.8 11.9319 504.412 12.0048 505.08C12.3711 508.422 12.7374 511.765 13.1953 515.108C13.2735 515.774 13.0871 516.445 12.6761 516.976C12.2652 517.507 11.6625 517.855 10.9975 517.946L10.6769 517.992ZM871.507 507.964H871.232C870.567 507.884 869.961 507.547 869.541 507.025C869.122 506.503 868.924 505.838 868.988 505.171C868.988 503.569 869.309 501.966 869.492 500.592C869.675 499.219 869.812 497.067 869.95 495.327C869.978 494.996 870.073 494.673 870.226 494.379C870.38 494.084 870.591 493.823 870.847 493.61C871.102 493.397 871.397 493.237 871.715 493.139C872.032 493.04 872.366 493.006 872.697 493.037C873.028 493.066 873.351 493.16 873.645 493.314C873.94 493.468 874.201 493.679 874.414 493.934C874.627 494.189 874.787 494.485 874.885 494.802C874.984 495.12 875.018 495.454 874.987 495.785C874.987 497.525 874.712 499.31 874.529 501.05C874.345 502.79 874.208 504.301 874.025 505.95C873.875 506.535 873.519 507.046 873.023 507.391C872.527 507.735 871.924 507.89 871.323 507.827L871.507 507.964ZM873.75 447.111C873.086 447.112 872.447 446.854 871.969 446.393C871.49 445.932 871.21 445.303 871.186 444.639C870.365 419.401 867.3 394.286 862.028 369.591C861.962 368.96 862.132 368.327 862.505 367.814C862.879 367.302 863.429 366.945 864.049 366.815C864.67 366.684 865.317 366.787 865.865 367.105C866.414 367.424 866.825 367.934 867.019 368.538C872.312 393.538 875.377 418.959 876.177 444.501C876.19 445.166 875.944 445.81 875.491 446.297C875.039 446.784 874.414 447.076 873.75 447.111ZM8.34169 431.818C8.01067 431.794 7.68748 431.706 7.39072 431.558C7.09396 431.409 6.8295 431.203 6.61249 430.952C6.39548 430.701 6.23021 430.41 6.12621 430.095C6.02221 429.78 5.98151 429.447 6.00645 429.116C6.00645 425.499 6.55593 421.882 6.87645 418.264C7.33434 413.38 7.88381 408.526 8.52485 403.703C8.56435 403.372 8.66951 403.051 8.83416 402.76C8.99881 402.469 9.21968 402.214 9.4839 402.01C9.74812 401.805 10.0504 401.655 10.3731 401.569C10.6959 401.482 11.0326 401.461 11.3638 401.505C11.6956 401.545 12.0162 401.65 12.307 401.815C12.5977 401.979 12.8529 402.2 13.0574 402.465C13.262 402.729 13.4119 403.031 13.4985 403.354C13.585 403.677 13.6065 404.013 13.5616 404.344C12.9206 408.923 12.4169 413.914 11.959 418.768C11.5927 422.339 11.318 425.911 11.0433 429.437C11.0266 429.78 10.9398 430.117 10.7881 430.425C10.6365 430.734 10.4233 431.008 10.1616 431.231C9.8999 431.454 9.59528 431.621 9.26654 431.722C8.9378 431.823 8.5919 431.856 8.25013 431.818H8.34169ZM12.9206 391.478H12.4627C12.1346 391.428 11.8196 391.313 11.5359 391.141C11.2522 390.968 11.0054 390.742 10.8097 390.473C10.6139 390.205 10.4731 389.901 10.3953 389.578C10.3175 389.256 10.3043 388.921 10.3564 388.593C14.5109 363.379 20.8538 338.574 29.313 314.461C29.6481 314.034 30.1102 313.724 30.6326 313.577C31.155 313.429 31.7107 313.451 32.2199 313.639C32.729 313.828 33.1652 314.173 33.4657 314.625C33.7662 315.077 33.9154 315.613 33.8919 316.155C25.5091 339.978 19.2423 364.494 15.1642 389.417C15.0622 389.949 14.7946 390.434 14.3998 390.804C14.005 391.174 13.5033 391.41 12.9664 391.478H12.9206ZM860.884 356.724C860.321 356.728 859.773 356.539 859.332 356.189C858.891 355.84 858.582 355.35 858.457 354.801C856.396 346.696 854.107 338.546 851.589 330.533C851.489 330.217 851.453 329.885 851.482 329.555C851.511 329.226 851.605 328.905 851.758 328.611C851.911 328.318 852.12 328.058 852.374 327.845C852.628 327.633 852.921 327.472 853.237 327.373C853.881 327.171 854.578 327.231 855.178 327.539C855.778 327.848 856.232 328.381 856.442 329.022C858.961 337.126 861.296 345.368 863.356 353.565C863.445 353.886 863.468 354.223 863.423 354.554C863.378 354.885 863.267 355.203 863.096 355.49C862.924 355.776 862.697 356.025 862.427 356.222C862.157 356.418 861.85 356.558 861.525 356.632C861.32 356.708 861.101 356.739 860.884 356.724ZM51.4748 270.962C51.0919 270.958 50.7153 270.864 50.3758 270.687C50.0729 270.546 49.8017 270.344 49.5788 270.095C49.3558 269.846 49.1857 269.554 49.0787 269.238C48.9717 268.921 48.93 268.586 48.9562 268.252C48.9824 267.919 49.0759 267.595 49.2311 267.298C50.7421 264.231 52.2532 261.209 53.81 258.141C53.9601 257.84 54.1689 257.573 54.424 257.354C54.6791 257.135 54.9754 256.97 55.2955 256.867C55.6155 256.765 55.9528 256.728 56.2874 256.758C56.6221 256.788 56.9474 256.884 57.2441 257.042C57.8345 257.362 58.2756 257.901 58.4725 258.544C58.6694 259.186 58.6065 259.88 58.2973 260.476C56.7405 263.452 55.2294 266.474 53.7184 269.634C53.5012 270.039 53.1773 270.377 52.7818 270.611C52.3863 270.845 51.9343 270.966 51.4748 270.962ZM824.939 262.079C824.472 262.091 824.01 261.974 823.606 261.74C823.202 261.505 822.871 261.163 822.65 260.751C821.093 257.729 819.536 254.798 818.071 251.868C817.744 251.272 817.666 250.572 817.855 249.919C818.044 249.267 818.484 248.716 819.078 248.388C819.37 248.227 819.69 248.125 820.021 248.089C820.351 248.052 820.686 248.082 821.006 248.175C821.325 248.269 821.622 248.425 821.881 248.634C822.14 248.844 822.354 249.102 822.513 249.395C824.161 252.371 825.764 255.348 827.366 258.553C827.672 259.155 827.728 259.853 827.522 260.496C827.317 261.139 826.866 261.674 826.267 261.987C825.84 262.132 825.383 262.163 824.939 262.079ZM792.887 210.246C792.478 210.255 792.074 210.159 791.713 209.966C791.352 209.774 791.047 209.491 790.827 209.147C776.115 188.616 759.645 169.404 741.604 151.727C741.171 151.243 740.939 150.613 740.953 149.963C740.967 149.314 741.227 148.695 741.681 148.23C742.134 147.765 742.747 147.489 743.395 147.458C744.044 147.428 744.68 147.644 745.175 148.064C763.425 165.964 780.079 185.422 794.948 206.216C795.141 206.486 795.28 206.792 795.355 207.116C795.43 207.44 795.44 207.775 795.384 208.103C795.329 208.431 795.209 208.744 795.032 209.026C794.855 209.307 794.624 209.55 794.352 209.742C793.974 210.007 793.531 210.165 793.07 210.2L792.887 210.246ZM96.8973 197.791C96.3307 197.792 95.7811 197.598 95.3405 197.242C94.8102 196.826 94.4648 196.218 94.3792 195.55C94.2935 194.881 94.4743 194.206 94.8826 193.67C100.057 186.985 105.506 180.346 111.046 173.935C111.496 173.429 112.124 173.118 112.799 173.066C113.474 173.015 114.142 173.228 114.663 173.66C114.899 173.894 115.085 174.173 115.213 174.479C115.34 174.786 115.406 175.114 115.406 175.446C115.406 175.778 115.34 176.107 115.213 176.413C115.085 176.72 114.899 176.998 114.663 177.232C109.169 183.597 103.811 190.144 98.683 196.784C98.2937 197.308 97.7218 197.668 97.0804 197.791H96.8973ZM123.18 166.792C122.535 166.786 121.915 166.541 121.44 166.105C121.205 165.871 121.018 165.593 120.891 165.286C120.763 164.98 120.697 164.651 120.697 164.319C120.697 163.987 120.763 163.659 120.891 163.352C121.018 163.046 121.205 162.768 121.44 162.534C138.864 143.841 157.894 126.711 178.31 111.342C178.572 111.137 178.873 110.988 179.194 110.902C179.515 110.817 179.851 110.797 180.18 110.844C180.509 110.891 180.825 111.004 181.11 111.176C181.394 111.348 181.641 111.576 181.836 111.845C182.042 112.105 182.195 112.403 182.284 112.723C182.373 113.042 182.397 113.376 182.354 113.705C182.312 114.034 182.203 114.351 182.035 114.638C181.868 114.924 181.644 115.173 181.378 115.371C161.197 130.566 142.382 147.496 125.149 165.968C124.922 166.218 124.647 166.42 124.34 166.561C124.033 166.703 123.701 166.781 123.363 166.792H123.18ZM732.171 141.975C731.54 141.966 730.936 141.721 730.477 141.288C724.296 135.656 717.839 130.115 711.337 124.804C711.079 124.593 710.864 124.334 710.706 124.041C710.548 123.747 710.449 123.425 710.415 123.094C710.381 122.762 710.412 122.427 710.508 122.108C710.603 121.788 710.76 121.491 710.971 121.232C711.181 120.974 711.441 120.759 711.734 120.601C712.028 120.442 712.349 120.343 712.681 120.309C713.013 120.275 713.348 120.307 713.667 120.402C713.986 120.498 714.284 120.655 714.542 120.866C721.136 126.223 727.638 131.855 733.911 137.533C734.389 138.013 734.658 138.664 734.658 139.342C734.658 140.019 734.389 140.67 733.911 141.15C733.543 141.576 733.044 141.866 732.492 141.975H732.171ZM222.175 87.7605C221.732 87.7706 221.294 87.6612 220.907 87.4436C220.52 87.2261 220.199 86.9085 219.978 86.5242C219.643 85.9401 219.551 85.2477 219.723 84.5966C219.894 83.9455 220.314 83.3879 220.893 83.0442L229.776 78.0075C230.077 77.8482 230.406 77.7496 230.745 77.7174C231.084 77.6853 231.425 77.7201 231.751 77.8201C232.076 77.92 232.378 78.083 232.641 78.2998C232.903 78.5166 233.12 78.7829 233.279 79.0836C233.439 79.3842 233.537 79.7132 233.569 80.052C233.601 80.3907 233.567 80.7325 233.467 81.0578C233.367 81.3831 233.204 81.6855 232.987 81.9477C232.77 82.21 232.504 82.427 232.203 82.5864C229.273 84.189 226.342 85.8832 223.458 87.5774C223.052 87.7433 222.611 87.8062 222.175 87.7605ZM650.209 82.8153C649.776 82.8186 649.35 82.7081 648.973 82.4948C645.92 80.8464 642.944 79.2438 640.044 77.687C639.437 77.3712 638.98 76.8272 638.774 76.1746C638.568 75.522 638.63 74.8142 638.945 74.207C639.261 73.5998 639.805 73.1429 640.458 72.9368C641.11 72.7307 641.818 72.7923 642.425 73.1081C645.447 74.6649 648.469 76.3133 651.583 77.9617C651.986 78.2708 652.289 78.6929 652.452 79.1743C652.615 79.6557 652.631 80.1746 652.499 80.6653C652.366 81.156 652.091 81.5962 651.708 81.93C651.325 82.2639 650.851 82.4764 650.347 82.5406L650.209 82.8153ZM594.942 57.1278C594.639 57.1758 594.33 57.1758 594.026 57.1278C570.432 48.1276 546.083 41.2473 521.268 36.5686C520.609 36.4356 520.029 36.0492 519.652 35.4925C519.275 34.9359 519.132 34.2535 519.253 33.5923C519.308 33.265 519.428 32.9522 519.607 32.6723C519.785 32.3924 520.018 32.1513 520.291 31.9633C520.565 31.7753 520.873 31.6443 521.198 31.578C521.523 31.5117 521.859 31.5116 522.184 31.5777C547.291 36.3267 571.929 43.283 595.812 52.3657C596.442 52.6123 596.952 53.0938 597.234 53.7088C597.516 54.3239 597.548 55.0243 597.323 55.6625C597.111 56.111 596.773 56.4881 596.35 56.7482C595.927 57.0083 595.438 57.1402 594.942 57.1278ZM300.52 51.9078C299.99 51.9109 299.472 51.7497 299.038 51.4463C298.603 51.1429 298.273 50.7122 298.093 50.2137C297.887 49.5697 297.939 48.871 298.238 48.2646C298.537 47.6582 299.06 47.1915 299.696 46.9627C307.709 44.2154 315.905 41.697 324.056 39.4533C324.673 39.361 325.304 39.4974 325.828 39.8368C326.352 40.1763 326.735 40.6956 326.904 41.2971C327.072 41.8986 327.015 42.541 326.744 43.1036C326.473 43.6662 326.005 44.1104 325.429 44.3527C317.37 46.5506 309.266 48.9316 301.344 51.7705L300.52 51.9078ZM339.486 40.5981C338.847 40.6328 338.219 40.423 337.729 40.0114C337.239 39.5997 336.925 39.017 336.849 38.3816C336.773 37.7462 336.942 37.1058 337.321 36.5905C337.701 36.0752 338.262 35.7235 338.891 35.607C363.739 29.6449 389.069 25.906 414.58 24.4345C415.248 24.392 415.905 24.6166 416.408 25.0589C416.91 25.5011 417.216 26.1248 417.259 26.7927C417.301 27.4606 417.077 28.1181 416.634 28.6204C416.192 29.1228 415.568 29.4288 414.901 29.4713C389.679 31.0518 364.644 34.8362 340.082 40.7812L339.486 40.5981ZM506.707 33.8671H506.341C498.053 32.585 489.628 31.5318 481.294 30.7534C480.67 30.6339 480.112 30.2864 479.729 29.7785C479.346 29.2705 479.165 28.6384 479.222 28.0049C479.279 27.3713 479.57 26.7816 480.037 26.3503C480.505 25.9189 481.116 25.6768 481.752 25.6709C490.177 26.4951 498.74 27.5482 507.119 28.8303C507.787 28.8849 508.406 29.2027 508.84 29.7136C509.273 30.2246 509.486 30.8868 509.432 31.5547C509.377 32.2227 509.059 32.8415 508.548 33.2752C508.037 33.7088 507.375 33.9217 506.707 33.8671ZM475.617 30.2497L465.543 29.5629C464.927 29.4531 464.372 29.1217 463.983 28.6312C463.595 28.1408 463.399 27.525 463.433 26.9001C463.466 26.2752 463.728 25.6842 464.167 25.2385C464.606 24.7928 465.193 24.5231 465.818 24.4804C469.206 24.4804 472.64 24.9383 476.029 25.213C476.644 25.2958 477.208 25.599 477.617 26.0663C478.026 26.5337 478.251 27.1334 478.251 27.7543C478.251 28.3751 478.026 28.9749 477.617 29.4422C477.208 29.9096 476.644 30.2128 476.029 30.2956L475.617 30.2497Z" fill="white"/>
</g>
<circle cx="443.501" cy="459.502" r="405.5" fill="#D9D9D9" fill-opacity="0.3"/>
<path d="M35.0102 403.038C40.4442 417.331 49.9946 429.691 62.4536 438.557C74.9126 447.422 89.7207 452.394 105.005 452.843C120.29 453.292 135.364 449.199 148.323 441.081C161.281 432.963 171.541 421.185 177.805 407.236C184.07 393.287 186.057 377.793 183.516 362.715C180.975 347.636 174.019 333.65 163.529 322.524C153.039 311.398 139.486 303.633 124.582 300.211C109.679 296.788 94.0957 297.862 79.8026 303.296C60.6362 310.583 45.1494 325.185 36.7492 343.89C28.349 362.595 27.7235 383.871 35.0102 403.038ZM119.359 343.676C152.256 356.13 173.508 380.506 166.845 398.125C160.182 415.744 128.085 419.883 95.1956 407.45C62.3067 395.017 41.0237 370.592 47.7017 352.979C54.3797 335.367 86.4412 331.167 119.338 343.622L119.359 343.676Z" fill="#0012BC"/>
<path d="M32.5208 389.261C37.9548 403.554 47.5051 415.915 59.9641 424.78C72.4231 433.645 87.2312 438.617 102.516 439.066C117.8 439.516 132.875 435.422 145.833 427.304C158.792 419.186 169.052 407.408 175.316 393.459C181.58 379.51 183.568 364.016 181.026 348.938C178.485 333.859 171.53 319.873 161.04 308.747C150.55 297.622 136.996 289.857 122.093 286.434C107.19 283.011 91.6062 284.085 77.3132 289.519C58.1467 296.806 42.66 311.408 34.2598 330.113C25.8596 348.818 25.234 370.094 32.5208 389.261ZM116.87 329.899C149.767 342.353 171.018 366.729 164.355 384.348C157.692 401.967 125.595 406.106 92.7062 393.673C59.8173 381.24 38.5343 356.815 45.2123 339.202C51.8903 321.59 83.9518 317.39 116.849 329.845L116.87 329.899Z" fill="#04D1FF"/>
<path d="M194.544 167.595C193.977 182.876 197.954 197.981 205.973 211.002C213.991 224.022 225.69 234.372 239.591 240.743C253.492 247.114 268.969 249.22 284.067 246.795C299.165 244.37 313.204 237.522 324.41 227.117C335.616 216.713 343.484 203.219 347.021 188.343C350.558 173.466 349.604 157.875 344.28 143.541C338.956 129.206 329.501 116.773 317.11 107.812C304.719 98.8515 289.95 93.7663 274.669 93.1997C254.179 92.4398 234.225 99.851 219.199 113.803C204.172 127.755 195.304 147.104 194.544 167.595ZM295.359 145.804C320.8 170.095 330.87 200.826 317.867 214.455C304.864 228.084 273.692 219.385 248.25 195.116C222.808 170.848 212.728 140.059 225.742 126.442C238.757 112.826 269.92 121.454 295.361 145.746L295.359 145.804Z" fill="#0012BC"/>
<path d="M197.621 153.938C197.054 169.218 201.032 184.324 209.05 197.344C217.068 210.364 228.767 220.714 242.668 227.086C256.569 233.457 272.047 235.563 287.144 233.137C302.242 230.712 316.281 223.864 327.487 213.46C338.693 203.055 346.562 189.562 350.098 174.685C353.635 159.809 352.681 144.218 347.357 129.883C342.033 115.549 332.578 103.115 320.187 94.1545C307.797 85.1939 293.027 80.1087 277.746 79.5421C257.256 78.7822 237.302 86.1934 222.276 100.145C207.249 114.097 198.381 133.447 197.621 153.938ZM298.436 132.146C323.877 156.438 333.947 187.168 320.944 200.797C307.941 214.426 276.769 205.727 251.327 181.459C225.885 157.191 215.805 126.402 228.819 112.785C241.834 99.168 272.997 107.797 298.438 132.088L298.436 132.146Z" fill="#04D1FF"/>
<path d="M489.605 118.892C491.729 134.035 498.296 148.208 508.475 159.619C518.654 171.03 531.988 179.166 546.791 182.999C561.594 186.831 577.202 186.188 591.639 181.15C606.077 176.113 618.696 166.907 627.902 154.698C637.108 142.488 642.486 127.823 643.357 112.556C644.228 97.2901 640.552 82.1083 632.795 68.9309C625.038 55.7535 613.547 45.1724 599.776 38.5255C586.005 31.8787 570.572 29.4646 555.429 31.5887C535.123 34.437 516.781 45.2352 504.436 61.6078C492.092 77.9804 486.757 98.5863 489.605 118.892ZM585.03 79.7451C614.34 99.1944 629.648 127.681 619.238 143.38C608.829 159.079 576.614 155.987 547.308 136.56C518.001 117.134 502.674 88.5922 513.096 72.9026C523.519 57.213 555.713 60.2385 585.022 79.6877L585.03 79.7451Z" fill="#0012BC"/>
<path d="M490.237 104.907C492.361 120.05 498.928 134.223 509.107 145.633C519.286 157.044 532.62 165.18 547.424 169.013C562.227 172.845 577.834 172.202 592.271 167.165C606.709 162.127 619.329 152.922 628.534 140.712C637.74 128.502 643.118 113.837 643.989 98.5707C644.86 83.3044 641.185 68.1226 633.427 54.9452C625.67 41.7678 614.179 31.1866 600.408 24.5398C586.637 17.8929 571.205 15.4789 556.062 17.603C535.756 20.4513 517.413 31.2495 505.068 47.6221C492.724 63.9947 487.389 84.6006 490.237 104.907ZM585.663 65.7594C614.973 85.2086 630.28 113.695 619.871 129.394C609.461 145.094 577.246 142.001 547.94 122.575C518.633 103.148 503.306 74.6065 513.729 58.9169C524.151 43.2273 556.345 46.2527 585.655 65.702L585.663 65.7594Z" fill="#04D1FF"/>
</svg>
