<svg width="871" height="871" viewBox="0 0 871 871" fill="none" xmlns="http://www.w3.org/2000/svg">
<path d="M435.001 871C421.264 871 407.07 870.313 393.196 868.985C384.908 868.207 376.529 867.154 368.332 865.917C367.672 865.805 367.08 865.442 366.68 864.905C366.279 864.368 366.1 863.698 366.18 863.033C366.231 862.699 366.346 862.378 366.521 862.089C366.696 861.799 366.926 861.548 367.198 861.348C367.47 861.148 367.78 861.003 368.108 860.923C368.436 860.843 368.777 860.829 369.111 860.881C377.215 862.117 385.457 863.17 393.699 863.948C410.605 865.564 427.592 866.175 444.571 865.78C445.186 865.863 445.75 866.166 446.159 866.633C446.568 867.101 446.793 867.701 446.793 868.321C446.793 868.942 446.568 869.542 446.159 870.009C445.75 870.477 445.186 870.78 444.571 870.863C441.457 870.954 438.252 871 435.001 871ZM459.864 870.267C459.249 870.185 458.685 869.881 458.276 869.414C457.867 868.947 457.642 868.347 457.642 867.726C457.642 867.105 457.867 866.506 458.276 866.038C458.685 865.571 459.249 865.268 459.864 865.185C468.244 864.727 476.714 863.994 485.002 862.987C485.333 862.949 485.669 862.977 485.989 863.069C486.309 863.162 486.608 863.317 486.867 863.525C487.127 863.734 487.343 863.992 487.502 864.285C487.662 864.578 487.761 864.899 487.795 865.231C487.874 865.897 487.687 866.568 487.276 867.099C486.865 867.63 486.263 867.978 485.597 868.07C477.218 869.031 468.656 869.764 460.139 870.267H459.864ZM319.064 855.386H318.377L308.67 852.456C308.351 852.359 308.054 852.201 307.797 851.99C307.539 851.78 307.325 851.52 307.168 851.227C307.011 850.933 306.913 850.612 306.88 850.281C306.847 849.949 306.879 849.615 306.975 849.296C307.072 848.977 307.23 848.681 307.44 848.423C307.651 848.166 307.911 847.952 308.204 847.795C308.498 847.637 308.819 847.539 309.15 847.506C309.482 847.473 309.816 847.506 310.135 847.602L319.842 850.395C320.504 850.486 321.102 850.836 321.506 851.369C321.91 851.901 322.085 852.572 321.994 853.234C321.903 853.896 321.553 854.494 321.02 854.898C320.488 855.301 319.817 855.477 319.155 855.386H319.064ZM559.638 852.593C559.023 852.608 558.425 852.398 557.954 852.002C557.484 851.607 557.174 851.052 557.084 850.444C556.994 849.836 557.13 849.216 557.465 848.701C557.801 848.186 558.313 847.811 558.905 847.648C562.111 846.686 565.316 845.679 568.475 844.626C569.113 844.413 569.809 844.463 570.41 844.763C571.011 845.064 571.468 845.591 571.68 846.228C571.893 846.866 571.844 847.562 571.543 848.163C571.242 848.764 570.715 849.221 570.078 849.433C566.873 850.487 563.622 851.54 560.371 852.501C560.134 852.574 559.886 852.605 559.638 852.593ZM616.462 830.935C615.978 830.947 615.501 830.814 615.093 830.553C614.685 830.292 614.364 829.914 614.172 829.469C614.034 829.169 613.956 828.844 613.943 828.513C613.93 828.183 613.983 827.852 614.098 827.542C614.213 827.232 614.387 826.947 614.612 826.704C614.837 826.461 615.108 826.265 615.409 826.127C638.308 815.457 660.246 802.833 680.978 788.397C681.251 788.205 681.559 788.07 681.885 787.999C682.211 787.927 682.547 787.921 682.875 787.981C683.203 788.041 683.516 788.165 683.796 788.346C684.075 788.528 684.316 788.763 684.504 789.038C684.879 789.593 685.022 790.273 684.902 790.931C684.782 791.59 684.409 792.176 683.863 792.564C662.903 807.191 640.702 819.954 617.515 830.706C617.19 830.872 616.827 830.951 616.462 830.935ZM238.658 824.295C238.261 824.292 237.869 824.198 237.514 824.021C229.913 820.174 222.358 816.053 215.077 811.795C214.777 811.63 214.511 811.407 214.297 811.139C214.082 810.871 213.923 810.564 213.827 810.234C213.731 809.905 213.702 809.56 213.739 809.218C213.777 808.877 213.882 808.547 214.047 808.246C214.212 807.946 214.435 807.681 214.703 807.466C214.971 807.252 215.278 807.092 215.608 806.996C215.937 806.901 216.283 806.871 216.624 806.909C216.965 806.946 217.295 807.051 217.596 807.216C224.83 811.429 232.294 815.458 239.803 819.259C240.334 819.501 240.765 819.92 241.021 820.444C241.277 820.969 241.343 821.566 241.208 822.133C241.073 822.701 240.745 823.204 240.28 823.557C239.815 823.91 239.242 824.09 238.658 824.066V824.295ZM203.355 804.24C202.866 804.244 202.387 804.1 201.982 803.828C180.387 790.165 160.026 774.645 141.128 757.444C140.831 757.234 140.583 756.963 140.398 756.649C140.214 756.335 140.099 755.986 140.06 755.625C140.021 755.263 140.06 754.897 140.173 754.552C140.286 754.206 140.472 753.888 140.717 753.62C140.963 753.352 141.263 753.139 141.597 752.995C141.931 752.851 142.292 752.78 142.655 752.787C143.019 752.793 143.377 752.877 143.706 753.033C144.035 753.188 144.327 753.412 144.562 753.689C163.238 770.665 183.354 785.986 204.683 799.478C204.967 799.651 205.213 799.879 205.408 800.148C205.604 800.418 205.744 800.723 205.82 801.046C205.897 801.37 205.909 801.705 205.855 802.033C205.801 802.361 205.683 802.676 205.507 802.958C205.288 803.338 204.975 803.655 204.598 803.88C204.222 804.104 203.794 804.228 203.355 804.24ZM694.807 784.093C694.41 784.09 694.019 783.997 693.662 783.823C693.305 783.649 692.992 783.397 692.746 783.086C692.354 782.54 692.188 781.864 692.282 781.199C692.376 780.533 692.722 779.93 693.25 779.514C699.981 774.477 706.62 769.166 712.985 763.763C713.237 763.541 713.531 763.373 713.85 763.269C714.168 763.164 714.505 763.126 714.839 763.156C715.173 763.186 715.498 763.284 715.793 763.443C716.088 763.602 716.348 763.82 716.556 764.083C716.774 764.335 716.941 764.627 717.045 764.944C717.15 765.26 717.19 765.594 717.165 765.926C717.139 766.258 717.048 766.582 716.896 766.879C716.745 767.176 716.536 767.439 716.281 767.655C709.825 773.103 703.094 778.461 696.318 783.589C695.863 783.914 695.319 784.09 694.761 784.093H694.807ZM107.199 721.774C106.836 721.766 106.479 721.684 106.149 721.535C105.818 721.385 105.521 721.171 105.276 720.904C103.032 718.34 100.697 715.73 98.682 713.12C98.4664 712.866 98.3035 712.571 98.2028 712.253C98.1021 711.935 98.0656 711.6 98.0954 711.267C98.1252 710.935 98.2208 710.612 98.3765 710.317C98.5322 710.022 98.7451 709.761 99.0026 709.549C99.2544 709.327 99.5487 709.159 99.8675 709.055C100.186 708.95 100.523 708.912 100.857 708.942C101.191 708.972 101.516 709.07 101.811 709.229C102.106 709.389 102.366 709.606 102.574 709.869C104.726 712.433 106.924 715.043 109.122 717.562C109.434 717.933 109.634 718.385 109.699 718.865C109.764 719.345 109.692 719.834 109.491 720.275C109.289 720.716 108.967 721.091 108.562 721.356C108.156 721.622 107.683 721.767 107.199 721.774ZM767.977 714.173C767.388 714.176 766.819 713.964 766.374 713.578C766.114 713.369 765.897 713.111 765.737 712.817C765.577 712.524 765.477 712.201 765.443 711.869C765.409 711.537 765.441 711.201 765.538 710.881C765.635 710.561 765.795 710.264 766.008 710.006C768.16 707.442 770.312 704.787 772.373 702.177C772.82 701.744 773.409 701.488 774.03 701.458C774.651 701.427 775.263 701.623 775.75 702.01C776.237 702.396 776.567 702.947 776.679 703.559C776.791 704.171 776.676 704.802 776.357 705.336C774.25 707.992 772.098 710.648 769.946 713.258C769.718 713.526 769.439 713.745 769.124 713.903C768.809 714.06 768.466 714.152 768.114 714.173H767.977ZM803.509 664.676C803.04 664.69 802.577 664.562 802.181 664.309C801.898 664.136 801.651 663.908 801.456 663.639C801.261 663.37 801.121 663.065 801.044 662.741C800.968 662.418 800.956 662.082 801.01 661.754C801.063 661.426 801.181 661.112 801.357 660.829C814.612 639.354 825.95 616.754 835.241 593.291C835.495 592.67 835.983 592.174 836.6 591.908C837.216 591.643 837.912 591.63 838.538 591.871C839.167 592.117 839.674 592.601 839.948 593.218C840.223 593.836 840.242 594.536 840.003 595.168C830.623 618.95 819.162 641.857 805.753 663.622C805.517 663.959 805.201 664.232 804.833 664.416C804.465 664.6 804.058 664.689 803.647 664.676H803.509ZM57.4263 651.397C56.9732 651.396 56.5281 651.278 56.1347 651.053C55.7413 650.828 55.4132 650.505 55.1827 650.115C51.0159 642.789 46.9865 635.188 43.2318 627.587C43.0156 626.992 43.027 626.338 43.2636 625.752C43.5002 625.165 43.9453 624.686 44.5134 624.408C45.0816 624.13 45.7325 624.071 46.3412 624.244C46.9499 624.416 47.4732 624.808 47.8107 625.343C51.5196 632.852 55.5032 640.362 59.6242 647.596C59.9551 648.186 60.0397 648.883 59.8596 649.534C59.6795 650.186 59.2493 650.74 58.6626 651.076C58.3264 651.268 57.95 651.377 57.5637 651.397H57.4263ZM39.1108 615.224C38.629 615.224 38.1572 615.086 37.7514 614.826C37.3456 614.567 37.0228 614.196 36.8214 613.758C26.3187 590.466 17.9062 566.286 11.6833 541.504C11.5991 541.182 11.5791 540.847 11.6245 540.517C11.6698 540.188 11.7795 539.871 11.9475 539.584C12.1154 539.297 12.3383 539.046 12.6033 538.845C12.8683 538.644 13.1703 538.497 13.492 538.413C13.8137 538.329 14.1488 538.309 14.4782 538.354C14.8076 538.399 15.1249 538.509 15.4119 538.677C15.6989 538.845 15.95 539.068 16.1509 539.333C16.3518 539.598 16.4985 539.9 16.5827 540.222C22.7554 564.716 31.0754 588.619 41.446 611.652C41.7125 612.273 41.7277 612.973 41.4886 613.605C41.2495 614.237 40.7747 614.752 40.1639 615.041C39.8429 615.165 39.501 615.227 39.1566 615.224H39.1108ZM842.979 582.393C842.693 582.461 842.395 582.461 842.109 582.393C841.796 582.285 841.508 582.116 841.26 581.897C841.013 581.677 840.811 581.411 840.667 581.113C840.522 580.815 840.437 580.492 840.418 580.162C840.398 579.832 840.444 579.501 840.552 579.188C843.346 571.266 845.955 563.162 848.245 555.149C848.334 554.825 848.488 554.522 848.696 554.258C848.904 553.994 849.163 553.775 849.458 553.613C849.752 553.45 850.076 553.349 850.41 553.314C850.745 553.279 851.083 553.311 851.404 553.409C851.728 553.498 852.031 553.652 852.295 553.86C852.559 554.068 852.778 554.327 852.941 554.622C853.103 554.916 853.204 555.24 853.239 555.574C853.274 555.909 853.242 556.247 853.144 556.568C850.809 564.673 848.153 572.869 845.36 580.882C845.153 581.329 844.824 581.707 844.411 581.975C843.997 582.242 843.517 582.387 843.025 582.393H842.979ZM4.6776 493.563C4.05467 493.567 3.45245 493.339 2.98732 492.925C2.52219 492.51 2.22715 491.938 2.15921 491.319C1.70132 487.977 1.33503 484.588 0.968722 481.2C0.895858 480.532 1.09129 479.862 1.51205 479.339C1.93282 478.815 2.54445 478.48 3.21236 478.407C3.88028 478.334 4.54977 478.529 5.07358 478.95C5.59739 479.371 5.93262 479.982 6.00548 480.65C6.37179 483.993 6.73811 487.336 7.196 490.678C7.27417 491.345 7.08775 492.016 6.67681 492.546C6.26587 493.077 5.66316 493.426 4.99812 493.517L4.6776 493.563ZM865.507 483.535H865.232C864.568 483.454 863.961 483.117 863.542 482.595C863.123 482.073 862.924 481.408 862.989 480.742C862.989 479.139 863.309 477.537 863.493 476.163C863.676 474.789 863.813 472.637 863.95 470.897C863.979 470.566 864.073 470.244 864.227 469.949C864.381 469.654 864.592 469.393 864.847 469.18C865.103 468.967 865.398 468.807 865.715 468.709C866.033 468.611 866.367 468.576 866.698 468.608C867.029 468.637 867.351 468.731 867.646 468.885C867.941 469.038 868.202 469.249 868.415 469.505C868.628 469.76 868.788 470.055 868.886 470.373C868.984 470.69 869.019 471.024 868.987 471.355C868.987 473.095 868.712 474.881 868.529 476.621C868.346 478.361 868.209 479.872 868.026 481.52C867.875 482.105 867.52 482.616 867.024 482.961C866.528 483.306 865.925 483.461 865.324 483.398L865.507 483.535ZM867.751 422.682C867.086 422.682 866.448 422.425 865.969 421.963C865.491 421.502 865.211 420.873 865.187 420.209C864.365 394.971 861.301 369.856 856.029 345.161C855.963 344.531 856.133 343.898 856.506 343.385C856.879 342.872 857.429 342.516 858.05 342.385C858.67 342.254 859.317 342.358 859.866 342.676C860.414 342.994 860.826 343.504 861.02 344.108C866.313 369.109 869.377 394.53 870.178 420.072C870.191 420.737 869.945 421.38 869.492 421.867C869.039 422.354 868.415 422.646 867.751 422.682ZM2.34236 407.388C2.01134 407.365 1.68815 407.277 1.39139 407.128C1.09463 406.98 0.83017 406.774 0.613162 406.523C0.396154 406.272 0.23088 405.98 0.12688 405.665C0.0228793 405.35 -0.0178197 405.018 0.00712576 404.687C0.00712576 401.069 0.556603 397.452 0.877124 393.835C1.33501 388.951 1.88448 384.097 2.52552 379.274C2.56503 378.942 2.67018 378.622 2.83483 378.331C2.99948 378.04 3.22035 377.785 3.48457 377.58C3.74879 377.376 4.05107 377.226 4.37382 377.139C4.69656 377.053 5.03332 377.031 5.36444 377.076C5.69625 377.116 6.01686 377.221 6.30763 377.385C6.5984 377.55 6.85352 377.771 7.05808 378.035C7.26264 378.299 7.41256 378.602 7.49913 378.924C7.58569 379.247 7.60716 379.584 7.56229 379.915C6.92124 384.494 6.41757 389.485 5.95969 394.338C5.59338 397.91 5.31866 401.482 5.04392 405.007C5.02726 405.351 4.94043 405.687 4.7888 405.996C4.63717 406.304 4.42394 406.579 4.16226 406.802C3.90057 407.025 3.59595 407.192 3.26721 407.293C2.93847 407.394 2.59257 407.426 2.2508 407.388H2.34236ZM6.92125 367.048H6.46337C6.13524 366.998 5.82029 366.884 5.5366 366.711C5.25291 366.539 5.0061 366.312 4.81035 366.044C4.61461 365.776 4.47379 365.472 4.396 365.149C4.31821 364.826 4.30498 364.491 4.35708 364.164C8.51162 338.949 14.8544 314.145 23.3137 290.032C23.6488 289.604 24.1109 289.295 24.6333 289.147C25.1556 288.999 25.7114 289.021 26.2206 289.21C26.7297 289.398 27.1659 289.743 27.4664 290.195C27.7668 290.647 27.916 291.183 27.8925 291.726C19.5098 315.549 13.243 340.064 9.16489 364.988C9.06283 365.519 8.79528 366.005 8.4005 366.375C8.00571 366.745 7.50395 366.981 6.96705 367.048H6.92125ZM854.884 332.295C854.321 332.298 853.774 332.11 853.333 331.76C852.891 331.41 852.583 330.92 852.458 330.371C850.397 322.267 848.108 314.116 845.589 306.103C845.49 305.788 845.454 305.456 845.483 305.126C845.512 304.796 845.605 304.475 845.758 304.182C845.912 303.889 846.121 303.628 846.375 303.416C846.629 303.203 846.922 303.043 847.238 302.944C847.881 302.742 848.579 302.801 849.179 303.11C849.779 303.419 850.233 303.951 850.443 304.592C852.961 312.697 855.296 320.939 857.357 329.135C857.446 329.457 857.468 329.794 857.424 330.124C857.379 330.455 857.267 330.774 857.096 331.06C856.925 331.347 856.698 331.596 856.428 331.792C856.158 331.989 855.851 332.128 855.525 332.203C855.32 332.278 855.102 332.309 854.884 332.295ZM45.4755 246.532C45.0926 246.529 44.716 246.434 44.3765 246.257C44.0735 246.116 43.8024 245.915 43.5794 245.666C43.3565 245.417 43.1864 245.125 43.0794 244.808C42.9724 244.491 42.9307 244.156 42.9569 243.823C42.9831 243.49 43.0766 243.165 43.2318 242.869C44.7428 239.801 46.2538 236.779 47.8107 233.711C47.9608 233.411 48.1695 233.143 48.4247 232.924C48.6798 232.706 48.9761 232.54 49.2961 232.438C49.6161 232.336 49.9534 232.298 50.2881 232.328C50.6228 232.358 50.9481 232.455 51.2448 232.612C51.8352 232.933 52.2762 233.472 52.4732 234.114C52.6701 234.756 52.6072 235.45 52.2979 236.046C50.7411 239.023 49.2301 242.045 47.7191 245.204C47.5018 245.609 47.178 245.947 46.7825 246.181C46.387 246.415 45.935 246.537 45.4755 246.532ZM818.94 237.649C818.473 237.662 818.011 237.545 817.607 237.31C817.203 237.076 816.871 236.733 816.651 236.321C815.094 233.299 813.537 230.369 812.072 227.438C811.745 226.843 811.667 226.142 811.856 225.49C812.045 224.837 812.485 224.287 813.079 223.958C813.37 223.797 813.691 223.696 814.021 223.659C814.352 223.623 814.687 223.652 815.006 223.746C815.326 223.839 815.623 223.995 815.882 224.205C816.14 224.414 816.355 224.673 816.513 224.966C818.162 227.942 819.764 230.918 821.367 234.123C821.673 234.725 821.729 235.423 821.523 236.066C821.317 236.709 820.866 237.245 820.268 237.558C819.841 237.702 819.383 237.734 818.94 237.649ZM786.888 185.816C786.479 185.825 786.075 185.729 785.714 185.537C785.353 185.344 785.047 185.062 784.827 184.717C770.115 164.187 753.646 144.974 735.604 127.298C735.172 126.814 734.939 126.183 734.954 125.534C734.968 124.885 735.228 124.265 735.681 123.8C736.135 123.335 736.747 123.06 737.396 123.029C738.045 122.998 738.681 123.215 739.176 123.635C757.426 141.535 774.08 160.992 788.948 181.787C789.142 182.057 789.28 182.363 789.355 182.687C789.43 183.01 789.44 183.346 789.385 183.674C789.33 184.001 789.21 184.315 789.033 184.596C788.856 184.877 788.625 185.121 788.353 185.312C787.975 185.578 787.532 185.736 787.071 185.77L786.888 185.816ZM90.8979 173.362C90.3314 173.362 89.7818 173.168 89.3411 172.812C88.8109 172.396 88.4655 171.789 88.3798 171.12C88.2941 170.452 88.475 169.777 88.8832 169.241C94.0574 162.555 99.5062 155.916 105.047 149.506C105.496 149 106.125 148.688 106.8 148.637C107.475 148.586 108.143 148.799 108.664 149.231C108.899 149.465 109.086 149.743 109.214 150.05C109.341 150.356 109.407 150.685 109.407 151.017C109.407 151.349 109.341 151.677 109.214 151.984C109.086 152.29 108.899 152.568 108.664 152.802C103.169 159.167 97.8121 165.715 92.6837 172.354C92.2944 172.879 91.7225 173.238 91.0811 173.362H90.8979ZM117.181 142.363C116.536 142.356 115.916 142.112 115.441 141.676C115.205 141.442 115.019 141.163 114.891 140.857C114.764 140.551 114.698 140.222 114.698 139.89C114.698 139.558 114.764 139.229 114.891 138.923C115.019 138.617 115.205 138.338 115.441 138.104C132.865 119.411 151.894 102.282 172.31 86.9123C172.573 86.7079 172.873 86.5584 173.195 86.4729C173.516 86.3874 173.851 86.3676 174.18 86.4146C174.51 86.4616 174.826 86.5745 175.11 86.7466C175.395 86.9187 175.642 87.1463 175.836 87.416C176.043 87.6754 176.195 87.9737 176.285 88.2933C176.374 88.6128 176.398 88.947 176.355 89.276C176.312 89.6049 176.204 89.922 176.036 90.2081C175.868 90.4943 175.645 90.7438 175.378 90.9417C155.197 106.137 136.383 123.067 119.15 141.538C118.922 141.789 118.647 141.99 118.341 142.132C118.034 142.274 117.702 142.352 117.364 142.363H117.181ZM726.172 117.545C725.541 117.536 724.936 117.291 724.478 116.858C718.296 111.226 711.84 105.686 705.338 100.374C705.079 100.164 704.865 99.9045 704.707 99.6111C704.548 99.3177 704.449 98.9959 704.415 98.6643C704.381 98.3326 704.413 97.9976 704.508 97.6782C704.604 97.3588 704.761 97.0613 704.972 96.8027C705.182 96.5442 705.442 96.3295 705.735 96.1712C706.028 96.0128 706.35 95.9139 706.682 95.8798C707.013 95.8458 707.348 95.8775 707.668 95.973C707.987 96.0685 708.285 96.226 708.543 96.4364C715.137 101.794 721.639 107.426 727.912 113.104C728.39 113.584 728.658 114.234 728.658 114.912C728.658 115.59 728.39 116.24 727.912 116.721C727.544 117.146 727.044 117.437 726.492 117.545H726.172ZM216.176 63.331C215.733 63.3411 215.294 63.2317 214.908 63.0142C214.521 62.7967 214.2 62.4791 213.978 62.0948C213.644 61.5107 213.552 60.8183 213.723 60.1672C213.895 59.5161 214.315 58.9585 214.894 58.6148L223.777 53.5781C224.078 53.4187 224.407 53.3201 224.746 53.288C225.084 53.2558 225.426 53.2907 225.751 53.3906C226.077 53.4905 226.379 53.6535 226.641 53.8703C226.904 54.0871 227.121 54.3535 227.28 54.6541C227.439 54.9548 227.538 55.2838 227.57 55.6226C227.602 55.9613 227.567 56.3031 227.467 56.6284C227.367 56.9536 227.204 57.256 226.988 57.5183C226.771 57.7806 226.505 57.9976 226.204 58.157C223.273 59.7596 220.343 61.4537 217.458 63.1479C217.053 63.3138 216.612 63.3767 216.176 63.331ZM644.21 58.3858C643.777 58.3891 643.351 58.2786 642.974 58.0654C639.921 56.417 636.945 54.8143 634.045 53.2575C633.438 52.9418 632.981 52.3978 632.775 51.7451C632.569 51.0925 632.63 50.3848 632.946 49.7776C633.262 49.1704 633.806 48.7135 634.458 48.5074C635.111 48.3013 635.819 48.3629 636.426 48.6786C639.448 50.2355 642.47 51.8838 645.584 53.5322C645.987 53.8414 646.289 54.2635 646.452 54.7449C646.615 55.2262 646.632 55.7452 646.499 56.2359C646.367 56.7265 646.092 57.1667 645.708 57.5006C645.325 57.8345 644.851 58.047 644.347 58.1111L644.21 58.3858ZM588.943 32.6984C588.64 32.7464 588.33 32.7464 588.027 32.6984C564.433 23.6981 540.084 16.8178 515.269 12.1392C514.61 12.0062 514.029 11.6197 513.653 11.0631C513.276 10.5064 513.133 9.82402 513.254 9.16286C513.309 8.83558 513.429 8.52271 513.607 8.24284C513.786 7.96296 514.018 7.72181 514.292 7.53381C514.565 7.34582 514.874 7.21482 515.199 7.14856C515.524 7.0823 515.859 7.0822 516.184 7.14821C541.291 11.8972 565.93 18.8536 589.813 27.9363C590.443 28.1828 590.953 28.6643 591.234 29.2794C591.516 29.8944 591.548 30.5949 591.324 31.2331C591.111 31.6815 590.773 32.0587 590.351 32.3188C589.928 32.5789 589.439 32.7107 588.943 32.6984ZM294.521 27.4784C293.991 27.4814 293.473 27.3202 293.038 27.0168C292.604 26.7134 292.274 26.2828 292.094 25.7842C291.888 25.1403 291.94 24.4416 292.239 23.8352C292.538 23.2288 293.06 22.7621 293.697 22.5333C301.71 19.7859 309.906 17.2675 318.056 15.0239C318.674 14.9316 319.304 15.0679 319.829 15.4074C320.353 15.7469 320.736 16.2661 320.904 16.8676C321.073 17.4691 321.016 18.1115 320.745 18.6742C320.473 19.2368 320.006 19.6809 319.43 19.9233C311.371 22.1211 303.266 24.5021 295.345 27.341L294.521 27.4784ZM333.487 16.1686C332.848 16.2034 332.22 15.9936 331.73 15.5819C331.24 15.1703 330.925 14.5876 330.85 13.9522C330.774 13.3168 330.943 12.6764 331.322 12.161C331.701 11.6457 332.263 11.294 332.892 11.1776C357.74 5.21542 383.07 1.47651 408.581 0.00509766C409.249 -0.0374062 409.906 0.187206 410.408 0.62944C410.911 1.07167 411.217 1.69537 411.259 2.36329C411.302 3.03121 411.077 3.68863 410.635 4.19097C410.193 4.69331 409.569 4.99939 408.901 5.0419C383.679 6.62234 358.644 10.4067 334.082 16.3517L333.487 16.1686ZM500.708 9.43765H500.342C492.054 8.15557 483.629 7.10239 475.295 6.32398C474.67 6.20445 474.112 5.85698 473.729 5.34904C473.346 4.84109 473.166 4.20897 473.223 3.57543C473.28 2.9419 473.571 2.35214 474.038 1.92081C474.506 1.48949 475.117 1.24735 475.753 1.24142C484.178 2.06561 492.741 3.11877 501.12 4.40085C501.788 4.4555 502.407 4.77327 502.84 5.2842C503.274 5.79513 503.487 6.45738 503.432 7.1253C503.378 7.79321 503.06 8.41208 502.549 8.84573C502.038 9.27938 501.376 9.4923 500.708 9.43765ZM469.617 5.8203L459.544 5.13349C458.928 5.02366 458.373 4.69227 457.984 4.2018C457.595 3.71133 457.399 3.09561 457.433 2.47068C457.467 1.84575 457.728 1.25478 458.168 0.809071C458.607 0.363359 459.194 0.0937056 459.818 0.0509312C463.207 0.0509312 466.641 0.508836 470.029 0.783569C470.645 0.866347 471.209 1.16952 471.618 1.63687C472.026 2.10422 472.252 2.70397 472.252 3.32481C472.252 3.94565 472.026 4.54541 471.618 5.01276C471.209 5.48011 470.645 5.78335 470.029 5.86613L469.617 5.8203Z" fill="#04D1FF"/>
<path d="M32.1055 437.975C32.1055 424.605 32.6549 411.418 33.7539 398.414C42.8559 298.953 88.6251 206.433 162.16 138.848C235.695 71.262 331.739 33.4424 431.613 32.7441C434.085 32.7441 436.558 32.7441 438.939 32.7441C488.055 33.2234 536.666 42.722 582.35 60.7669C650.448 87.6989 709.913 132.692 754.345 190.904C798.776 249.116 826.492 318.342 834.509 391.133C835.974 404.687 836.767 418.423 836.89 432.343C837.265 485.186 827.229 537.586 807.354 586.55C787.48 635.514 758.155 680.084 721.055 717.716C683.956 755.347 639.807 785.302 591.13 805.872C542.454 826.441 490.202 837.221 437.359 837.597C384.516 837.973 332.117 827.937 283.153 808.062C234.188 788.187 189.618 758.863 151.987 721.763C75.9871 646.836 32.8645 544.788 32.1055 438.067V437.975Z" fill="#04D1FF"/>
<g opacity="0.6">
<path d="M32.1035 437.975C32.1035 424.605 32.653 411.418 33.7519 398.414C42.8539 298.953 88.6232 206.433 162.158 138.848C235.693 71.2621 331.737 33.4424 431.611 32.7441C434.084 32.7441 436.556 32.7441 438.937 32.7441C488.053 33.2234 536.664 42.722 582.348 60.7669C650.447 87.6989 709.912 132.692 754.343 190.904C798.774 249.116 826.49 318.342 834.507 391.133C835.972 404.687 836.765 418.423 836.888 432.343C837.263 485.186 827.227 537.586 807.353 586.55C787.478 635.514 758.153 680.084 721.053 717.716C683.954 755.347 639.805 785.302 591.128 805.872C542.452 826.441 490.2 837.221 437.357 837.597C384.514 837.973 332.115 827.937 283.151 808.062C234.186 788.187 189.616 758.863 151.985 721.763C75.9852 646.836 32.8625 544.788 32.1035 438.067V437.975Z" fill="white"/>
</g>
<path opacity="0.4" d="M313.936 728.231C306.38 728.963 302.946 738.258 301.435 745.859C299.146 757.215 296.856 768.754 294.567 779.926C308.304 786.428 307.25 803.324 300.794 814.772C222.686 787.236 154.972 736.278 106.888 668.846C58.8031 601.415 32.6886 520.793 32.1055 437.975C32.1055 424.605 32.6549 411.418 33.7539 398.414C34.0743 398.204 34.4111 398.02 34.7612 397.864C45.7505 392.644 54.4046 402.031 62.6466 407.343C64.5239 408.533 88.6546 420.255 88.9752 417.004C87.9422 427.543 88.4979 438.178 90.6236 448.553C90.7154 449.357 91.0884 450.103 91.6767 450.659C93.2335 451.712 95.0193 449.56 95.6145 447.728C97.0798 443.149 97.675 438.204 99.415 433.671C100.149 431.342 101.387 429.203 103.041 427.407C104.695 425.61 106.724 424.2 108.985 423.277C113.564 421.812 118.738 423.552 123.592 422.865C126.511 422.265 129.259 421.02 131.636 419.222C134.012 417.424 135.957 415.117 137.328 412.471C139.93 407.343 141.839 401.892 143.006 396.262C148.684 408.854 163.107 401.07 171.578 411.28C174.28 414.577 177.576 419.293 181.514 417.691C185.452 416.088 185.681 409.769 189.711 409.266C192.549 408.945 194.61 412.013 195.022 414.806C195.001 417.64 195.386 420.462 196.167 423.186C196.615 424.065 197.236 424.846 197.992 425.482C198.747 426.117 199.623 426.594 200.567 426.885C201.511 427.175 202.504 427.273 203.486 427.172C204.469 427.072 205.421 426.775 206.286 426.299C209.354 424.468 210.499 420.713 212.422 417.691C214.345 414.669 218.466 412.105 221.351 414.211C222.014 414.738 222.547 415.412 222.907 416.18C225.701 421.537 222.541 428.085 218.786 432.847C215.032 437.609 210.453 442.371 210.041 448.415C210.609 448.781 211.244 449.029 211.91 449.145C212.576 449.26 213.258 449.24 213.916 449.086C214.574 448.932 215.194 448.648 215.74 448.249C216.286 447.851 216.745 447.347 217.092 446.767C217.454 445.916 217.949 445.128 218.558 444.432C220.114 443.104 222.404 444.432 224.098 445.439C228.127 448.029 232.631 449.791 237.347 450.625C242.064 451.458 246.899 451.345 251.571 450.293L253.632 413.661C256.425 413.661 258.211 413.387 259.126 410.502C267.925 419.873 277.202 428.783 286.92 437.197C288.239 438.04 289.263 439.272 289.851 440.723C290.01 442.321 290.01 443.932 289.851 445.53C290.171 450.888 297.36 452.307 302.717 452.17C304.274 453.04 303.358 455.604 301.802 456.474C300.113 457.003 298.474 457.677 296.902 458.489C295.988 459.455 295.373 460.665 295.129 461.972C294.885 463.28 295.024 464.63 295.529 465.861C297.052 470.241 300.227 473.851 304.377 475.922C308.526 477.992 313.32 478.358 317.736 476.942C318.793 476.601 319.73 475.966 320.438 475.11C321.766 473.095 320.438 470.531 320.438 468.059C319.43 458.534 329.595 460.732 334.449 463.48C340.859 467.051 344.431 476.484 345.622 483.26C347.041 491.136 352.993 543.564 370.485 536.33C372.099 535.533 373.392 534.208 374.148 532.575C376.666 527.996 376.483 522.089 378.36 517.007C380.238 511.924 385.961 507.345 390.678 509.955C392.555 511.009 393.746 513.023 395.577 514.214C400.614 517.51 407.757 513.527 413.206 516.045C415.535 517.525 417.726 519.211 419.754 521.082C422.043 522.639 425.66 523.143 427.263 521.082C428.866 519.022 426.942 514.763 428.408 511.924C428.902 511.31 429.538 510.825 430.26 510.509C430.983 510.194 431.771 510.057 432.557 510.111C433.344 510.165 434.106 510.408 434.778 510.819C435.451 511.231 436.014 511.798 436.421 512.474C437.123 513.965 437.367 515.631 437.123 517.261C436.878 518.891 436.156 520.412 435.047 521.632C433.828 522.813 432.889 524.252 432.3 525.844C431.659 528.82 434.498 531.293 436.879 533.033L448.829 541.321C448.535 542.684 447.843 543.93 446.84 544.899C445.838 545.869 444.57 546.52 443.197 546.77C440.542 547.502 437.703 547.502 435.047 548.372C422.272 552.631 422.318 571.587 405.559 567.878C405.744 566.633 405.636 565.361 405.241 564.166C404.846 562.97 404.177 561.883 403.287 560.993C402.396 560.103 401.31 559.433 400.114 559.039C398.918 558.644 397.647 558.535 396.401 558.721C390.266 560.232 386.282 568.977 380.192 567.237C378.086 566.642 376.483 564.81 374.331 564.307C368.424 562.887 365.54 571.953 363.845 575.845C358.351 588.666 366.913 590.223 366.593 601.67C366.593 606.89 362.518 611.332 361.556 616.506C360.594 621.68 362.334 626.122 361.556 630.929C359.816 644.071 342.416 636.104 334.724 634.547C338.891 642.01 332.663 651.077 325.886 656.251C315.447 664.172 317.232 663.485 315.905 674.932C315.814 676.456 315.304 677.925 314.431 679.177C313.559 680.43 312.357 681.417 310.959 682.03C305.968 683.816 301.115 678.87 295.849 678.367C293.331 678.092 290.766 678.916 288.248 678.367C281.654 677.222 279.365 669.209 275.107 664.08C273.2 661.855 270.786 660.119 268.069 659.02C265.352 657.92 262.411 657.489 259.493 657.762C259.058 661.151 259.058 664.583 259.493 667.973L270.574 674.795C273.985 676.557 276.946 679.079 279.228 682.167C280.065 684.146 281.225 685.972 282.662 687.57C285.913 690.318 290.812 688.669 295.025 688.394C305.373 687.708 322.178 694.164 332.114 697.552C342.05 700.94 346.4 708.541 356.199 711.884C356.595 712.089 356.943 712.378 357.219 712.729C357.494 713.081 357.69 713.488 357.795 713.922C357.899 714.357 357.908 714.808 357.823 715.247C357.737 715.685 357.558 716.1 357.298 716.463C356.147 717.854 354.51 718.755 352.719 718.981C348.518 719.702 344.197 718.992 340.447 716.967C345.301 719.622 331.29 731.344 328.542 731.94C324.33 732.901 318.652 729.696 314.348 729.513C303.725 728.963 297.589 731.07 304.549 742.608C307.205 747.187 310.318 752.682 307.388 756.94C305.93 756.485 304.36 756.546 302.942 757.113C301.524 757.68 300.345 758.719 299.604 760.054C298.202 762.79 297.735 765.91 298.276 768.937C298.35 771.009 299.125 772.995 300.474 774.569C301.389 775.174 302.221 775.898 302.946 776.721C304.915 779.697 300.886 782.948 297.543 784.23" fill="#04D1FF"/>
<path opacity="0.4" d="M666.051 267.273C662.754 264.801 658.038 266.816 654.604 269.105C651.17 271.394 647.095 274.05 643.203 272.631C643.203 268.052 643.203 263.061 642.974 258.253C643.036 257.805 643.003 257.349 642.877 256.915C642.75 256.481 642.534 256.079 642.241 255.735C641.877 255.465 641.462 255.272 641.021 255.17C640.58 255.068 640.122 255.057 639.677 255.139L630.519 255.551C627.909 258.39 635.098 261.87 634.091 265.533C633.633 267.182 631.801 267.869 630.29 268.693C617.607 275.515 625.711 289.664 631.389 297.357C638.074 306.285 637.662 318.511 636.93 329.409C637.051 331.401 636.777 333.397 636.125 335.282C635.473 337.168 634.455 338.907 633.129 340.398C630.153 342.962 625.803 342.779 622.002 343.924C615.409 345.801 610.738 351.662 604.603 354.684C583.082 365.261 568.887 342.23 575.893 324.097C579.556 314.94 581.113 316.496 579.007 306.423C578.137 302.256 579.51 297.265 575.16 294.426C574.046 293.754 572.78 293.376 571.48 293.327C570.18 293.277 568.888 293.559 567.726 294.144C566.564 294.73 565.57 295.6 564.836 296.675C564.102 297.749 563.653 298.992 563.53 300.287C562.398 305.568 562.618 311.049 564.171 316.222C557.806 313.886 550.206 315.397 543.246 315.397C543.318 316.957 542.99 318.51 542.293 319.907C541.596 321.304 540.553 322.5 539.264 323.381C537.975 324.262 536.482 324.799 534.926 324.94C533.371 325.082 531.806 324.823 530.379 324.189C530.379 321.029 529.692 316.725 526.578 316.725C525.658 316.801 524.774 317.116 524.014 317.641C520.718 319.61 517.787 322.22 514.307 323.823C508.95 326.295 493.611 325.105 491.413 332.339C490.955 333.576 490.955 334.995 490.497 336.231C489.864 337.508 488.798 338.517 487.49 339.079C486.181 339.641 484.715 339.719 483.354 339.299C482.008 338.821 480.814 337.991 479.896 336.896C478.978 335.801 478.37 334.481 478.134 333.072C477.768 331.195 478.134 329.226 477.493 327.394C474.929 317.687 464.901 325.288 460.459 322.815C455.848 316.731 452.089 310.045 449.287 302.943C447.263 305.767 444.616 308.087 441.551 309.723C438.486 311.358 435.085 312.266 431.613 312.375C423.874 312.009 420.577 305.828 418.837 298.318C417.097 290.809 416.914 280.918 415.174 275.424C414.474 273.982 414.149 272.387 414.229 270.786C414.309 269.185 414.791 267.631 415.632 266.266C418.334 263.336 424.149 264.434 426.164 260.955C426.679 259.782 426.974 258.525 427.034 257.246C427.824 253.567 430.043 250.352 433.203 248.309C436.363 246.265 440.204 245.56 443.884 246.348C446.265 244.791 446.311 241.403 446.448 238.564C446.585 235.725 447.776 232.199 450.615 232.016C453.454 231.833 455.194 236.045 455.194 239.296C455.116 242.633 454.592 245.943 453.637 249.141C452.588 251.416 452.284 253.964 452.767 256.421C453.56 258.152 454.872 259.592 456.522 260.542C460.026 263.476 464.37 265.224 468.93 265.533C471.2 265.637 473.427 264.892 475.179 263.445C476.93 261.998 478.082 259.952 478.409 257.704C478.294 256.485 478.294 255.259 478.409 254.04C479.141 251.018 482.988 249.965 486.101 250.377C489.072 251.248 492.167 251.619 495.259 251.476C498.327 250.881 500.891 246.897 498.693 244.608C502.814 243.189 508.721 242.456 510.323 246.485C510.689 247.842 510.828 249.25 510.736 250.652C510.736 259.306 521.633 271.761 529.051 262.74C533.63 256.788 525.571 245.982 534.225 241.082C538.346 238.747 543.978 240.807 547.962 238.426C549.244 236.915 547.046 234.855 545.123 234.351C542.087 233.57 538.902 233.58 535.871 234.382C532.841 235.183 530.067 236.75 527.815 238.93C525.342 233.893 529.143 226.476 524.884 222.858C520.626 219.241 512.521 223.499 509.362 218.966C508.559 217.577 508.162 215.991 508.217 214.387C507.622 206.557 510.049 192.271 499.059 190.943C497.713 190.944 496.372 190.759 495.076 190.394C491.275 188.929 491.321 183.617 492.008 179.588C496.175 177.802 500.616 180.87 504.6 182.976C508.583 185.082 514.902 185.449 516.23 181.145C517.238 178.077 514.811 174.23 516.871 171.712C517.787 170.567 519.481 170.11 520.26 168.827C522.183 165.805 517.512 162.738 516.642 159.212C515.498 154.358 522 151.245 526.945 151.611C531.89 151.977 537.522 153.626 541.506 150.695C542.788 149.733 543.749 148.406 544.94 147.398C548.953 144.615 553.811 143.32 558.676 143.735C566.461 143.735 548.786 111.683 548.603 109.622C547.275 94.8327 562.34 86.7281 571.177 77.5703C575.517 72.4267 579.279 66.8222 582.395 60.8574C647.232 86.8466 704.267 129.126 747.983 183.607C791.699 238.088 820.619 302.927 831.944 371.855C833.128 378.098 833.863 384.418 834.142 390.766C824.984 388.156 810.652 381.288 801.357 386.874C789.498 393.971 798.06 411.554 784.415 416.774C781.027 416.774 781.989 411.142 780.065 408.395C778.791 407.082 777.221 406.093 775.487 405.51C773.792 404.64 772.19 402.854 772.877 400.931C769.9 398.642 765.825 401.572 763.078 404.136C760.018 407.355 756.14 409.682 751.86 410.867C742.702 412.744 734.506 406.288 726.401 401.938C719.584 398.577 712.472 395.848 705.155 393.788C708.635 394.017 710.421 389.209 709.093 385.912C707.259 382.894 705.009 380.15 702.408 377.762C698.607 373.183 701.538 367.734 698.332 362.835C694.395 356.699 686.794 352.395 686.153 345.16C685.374 336.415 695.31 330.828 703.232 327.577C698.928 317.641 687.206 310.864 687.206 300.104C687.54 295.958 688.791 291.939 690.869 288.336C694.562 280.705 698.256 273.073 701.95 265.442C703.89 262.466 704.672 258.882 704.148 255.368C703.094 251.385 698.973 249.049 695.31 247.218L683.314 241.22C681.725 240.23 679.871 239.75 678.002 239.846C676.094 240.391 674.46 241.633 673.423 243.326C666.886 251.937 663.83 262.693 664.861 273.455C650.695 271.348 636.851 267.471 623.651 261.916C625.116 270.158 621.728 279.179 624.292 286.871" fill="#04D1FF"/>
<path opacity="0.4" d="M333.349 334.447C331.383 335.748 329.724 337.462 328.49 339.471C327.256 341.481 326.477 343.735 326.206 346.078C326.371 348.978 326.692 351.866 327.168 354.732C327.404 356.167 327.234 357.64 326.675 358.984C326.117 360.327 325.193 361.488 324.009 362.333C320.758 364.118 316.866 361.875 313.843 359.723C311.177 358.275 309.139 355.895 308.12 353.038C308.006 350.841 308.006 348.64 308.12 346.444C307.754 341.865 303.907 339.072 300.839 335.958C297.772 332.845 295.162 327.991 297.588 324.374C299.191 321.993 302.167 321.168 304.136 318.833C308.257 313.201 300.748 305.371 304.136 300.243C308.257 294.199 318.377 297.267 323.963 300.243C329.353 303.932 334.01 308.59 337.699 313.98C349.513 327.716 345.3 325.702 333.349 334.447Z" fill="#04D1FF"/>
<path opacity="0.4" d="M182.154 121.667C249.464 63.2401 343.423 33.2027 431.612 32.6074C434.084 32.6074 436.557 32.6074 438.938 32.6074C450.614 45.703 456.75 70.5663 433.718 75.2368C433.718 77.7552 435.138 78.3504 436.42 80.3651C438.434 83.5246 435.092 87.5082 431.841 88.9277C420.485 93.5066 406.748 93.5066 408.534 108.663C410.686 126.978 419.34 115.348 428.819 121.941C430.071 123.066 431.179 124.343 432.116 125.742C436.145 130.321 443.242 130.321 449.378 129.954C449.043 129.054 448.898 128.095 448.949 127.137C449.001 126.178 449.249 125.24 449.679 124.381C450.108 123.523 450.709 122.761 451.445 122.145C452.181 121.528 453.036 121.069 453.957 120.797C455.415 120.713 456.844 120.356 458.169 119.744C460.733 117.866 458.81 113.47 455.88 112.28C452.858 111.585 449.801 111.05 446.722 110.677C443.7 109.807 440.907 106.098 442.738 103.626C443.605 102.589 444.832 101.919 446.173 101.749C448.89 101.163 451.709 101.245 454.389 101.987C457.068 102.728 459.528 104.108 461.558 106.007C462.119 104.573 463.124 103.356 464.425 102.532C465.726 101.709 467.256 101.322 468.792 101.428C470.328 101.617 471.762 102.299 472.877 103.373C473.991 104.446 474.727 105.853 474.974 107.381C475.615 111.959 472.547 117.912 476.531 120.018C474.748 119.578 472.879 119.635 471.127 120.184C469.375 120.733 467.807 121.753 466.594 123.132C457.437 134.167 462.84 160.908 438.205 156.42C434.363 155.28 430.446 154.408 426.483 153.81C424.493 153.54 422.47 153.932 420.724 154.924C418.978 155.917 417.607 157.457 416.822 159.305C411.648 151.842 398.506 153.444 393.928 145.568C392.944 143.658 392.621 141.476 393.01 139.363C393.4 137.25 394.479 135.326 396.08 133.892C396.678 133.503 397.167 132.967 397.499 132.335C398.049 130.962 396.858 129.588 396.629 128.123C396.309 125.65 399.01 123.544 399.331 121.209C399.789 117.729 395.759 115.485 392.325 114.615C388.891 113.745 384.77 112.463 384.083 109.029C384.083 107.838 384.083 106.602 384.083 105.457C383.748 104.293 383.063 103.26 382.121 102.499C381.179 101.737 380.026 101.283 378.817 101.199C376.389 101.047 373.955 101.406 371.674 102.252C370.117 103.58 370.804 106.282 372.224 107.793C373.858 109.075 375.389 110.484 376.803 112.005C377.444 112.967 374.238 133.846 375.841 133.297C368.377 135.861 352.443 136.227 355.648 147.4C356.793 151.338 359.082 155.413 357.617 159.259C362.868 157.794 368.133 156.375 373.414 155.001C374.696 156.695 372.59 159.03 370.529 159.58C368.469 160.129 365.951 160.038 364.623 161.64C363.74 162.86 363.319 164.352 363.432 165.853L362.608 180.368C362.288 185.634 361.601 191.678 357.251 194.654C352.901 197.63 345.3 195.341 341.133 190.991C340.126 189.984 339.027 188.747 337.607 188.747C336.301 188.943 335.112 189.611 334.265 190.625C331.797 193.016 328.793 194.784 325.503 195.779C322.214 196.775 318.734 196.97 315.354 196.348C311.995 195.606 309.02 193.67 306.982 190.899C304.944 188.128 303.981 184.711 304.273 181.284C304.731 178.72 305.83 175.514 303.815 173.82C302.67 172.813 300.656 172.675 300.106 171.256C299.557 169.837 301.755 168.097 303.357 166.906C304.736 165.814 305.708 164.29 306.115 162.579C306.522 160.868 306.341 159.069 305.601 157.474C304.823 155.825 290.262 149.873 288.018 150.971C282.844 153.49 283.76 167.364 283.119 172.721C283.125 174.826 282.303 176.85 280.829 178.353C278.173 180.276 274.419 178.353 272.404 175.743C270.389 173.133 268.878 169.974 265.948 168.554C264.191 167.841 262.302 167.513 260.407 167.593C258.52 167.287 256.591 167.365 254.734 167.822C252.878 168.278 251.132 169.103 249.601 170.249C248.319 171.531 247.587 173.225 246.304 174.507C244.711 175.79 242.791 176.603 240.76 176.853C238.73 177.104 236.669 176.783 234.811 175.926C230.965 174.507 227.485 172.126 223.547 171.073C215.122 168.829 205.507 172.813 197.768 168.829C194.014 166.906 191.358 161.549 194.288 158.572C197.219 155.596 202.393 156.466 203.08 152.895C203.767 149.323 195.342 144.515 193.922 141.539C192.503 138.563 195.296 134.762 192.594 130.367C189.847 126.703 184.535 125.65 182.154 121.667Z" fill="#04D1FF"/>
<path opacity="0.4" d="M676.308 698.01C680.887 694.805 686.427 692.928 688.121 686.38C690.365 677.222 685.557 673.605 676.628 676.902C675.874 677.314 674.997 677.444 674.156 677.268C671.592 676.444 673.423 672.689 675.117 670.537C676.895 668.053 678.022 665.164 678.398 662.133C678.774 659.102 678.386 656.026 677.269 653.183C676.766 651.809 701.858 651.214 704.743 652.725C714.45 658.037 708.131 678.642 719.349 675.162C720.128 667.332 719.716 659.227 719.716 651.26L731.163 650.848C728.324 650.848 730.018 636.333 731.163 634.73C734.963 628.503 746.548 631.159 745.541 619.437C744.213 604.555 715.457 601.579 718.891 618.613C709.774 621.683 700.152 622.973 690.548 622.413C690.319 625.435 690.136 628.503 689.953 631.571C688.852 632.252 687.606 632.661 686.316 632.764C685.026 632.868 683.73 632.663 682.535 632.166C680.341 628.284 679.328 623.846 679.621 619.397C679.914 614.947 681.5 610.68 684.184 607.119C680.933 602.083 684.916 595.581 688.762 590.956C678.231 583.264 681.253 563.483 693.616 559.545C705.979 555.607 720.219 569.115 716.51 581.615C722.583 582.318 728.275 584.931 732.765 589.079C733.259 581.158 736.21 573.589 741.208 567.425C746.207 561.261 753.003 556.81 760.651 554.691C768.343 552.722 777.501 552.86 782.721 546.861C785.056 544.206 786.247 540.726 788.399 537.933C793.344 531.705 802.136 530.423 810.057 529.965C815.368 529.691 820.726 529.599 826.037 529.691C803.987 620.802 750.861 701.375 675.804 757.536C673.026 757.829 670.22 757.403 667.654 756.3C663.075 753.873 661.747 748.195 660.831 743.158C657.214 723.515 659.229 711.106 675.209 699.064L676.308 698.01Z" fill="#04D1FF"/>
<path opacity="0.7" d="M313.936 728.231C306.38 728.963 302.946 738.258 301.435 745.859C299.146 757.215 296.856 768.754 294.567 779.926C308.304 786.428 307.25 803.324 300.794 814.772C222.686 787.236 154.972 736.278 106.888 668.846C58.8031 601.415 32.6886 520.793 32.1055 437.975C32.1055 424.605 32.6549 411.418 33.7539 398.414C34.0743 398.204 34.4111 398.02 34.7612 397.864C45.7505 392.644 54.4046 402.031 62.6466 407.343C64.5239 408.533 88.6546 420.255 88.9752 417.004C87.9422 427.543 88.4979 438.178 90.6236 448.553C90.7154 449.357 91.0884 450.103 91.6767 450.659C93.2335 451.712 95.0193 449.56 95.6145 447.728C97.0798 443.149 97.675 438.204 99.415 433.671C100.149 431.342 101.387 429.203 103.041 427.407C104.695 425.61 106.724 424.2 108.985 423.277C113.564 421.812 118.738 423.552 123.592 422.865C126.511 422.265 129.259 421.02 131.636 419.222C134.012 417.424 135.957 415.117 137.328 412.471C139.93 407.343 141.839 401.892 143.006 396.262C148.684 408.854 163.107 401.07 171.578 411.28C174.28 414.577 177.576 419.293 181.514 417.691C185.452 416.088 185.681 409.769 189.711 409.266C192.549 408.945 194.61 412.013 195.022 414.806C195.001 417.64 195.386 420.462 196.167 423.186C196.615 424.065 197.236 424.846 197.992 425.482C198.747 426.117 199.623 426.594 200.567 426.885C201.511 427.175 202.504 427.273 203.486 427.172C204.469 427.072 205.421 426.775 206.286 426.299C209.354 424.468 210.499 420.713 212.422 417.691C214.345 414.669 218.466 412.105 221.351 414.211C222.014 414.738 222.547 415.412 222.907 416.18C225.701 421.537 222.541 428.085 218.786 432.847C215.032 437.609 210.453 442.371 210.041 448.415C210.609 448.781 211.244 449.029 211.91 449.145C212.576 449.26 213.258 449.24 213.916 449.086C214.574 448.932 215.194 448.648 215.74 448.249C216.286 447.851 216.745 447.347 217.092 446.767C217.454 445.916 217.949 445.128 218.558 444.432C220.114 443.104 222.404 444.432 224.098 445.439C228.127 448.029 232.631 449.791 237.347 450.625C242.064 451.458 246.899 451.345 251.571 450.293L253.632 413.661C256.425 413.661 258.211 413.387 259.126 410.502C267.925 419.873 277.202 428.783 286.92 437.197C288.239 438.04 289.263 439.272 289.851 440.723C290.01 442.321 290.01 443.932 289.851 445.53C290.171 450.888 297.36 452.307 302.717 452.17C304.274 453.04 303.358 455.604 301.802 456.474C300.113 457.003 298.474 457.677 296.902 458.489C295.988 459.455 295.373 460.665 295.129 461.972C294.885 463.28 295.024 464.63 295.529 465.861C297.052 470.241 300.227 473.851 304.377 475.922C308.526 477.992 313.32 478.358 317.736 476.942C318.793 476.601 319.73 475.966 320.438 475.11C321.766 473.095 320.438 470.531 320.438 468.059C319.43 458.534 329.595 460.732 334.449 463.48C340.859 467.051 344.431 476.484 345.622 483.26C347.041 491.136 352.993 543.564 370.485 536.33C372.099 535.533 373.392 534.208 374.148 532.575C376.666 527.996 376.483 522.089 378.36 517.007C380.238 511.924 385.961 507.345 390.678 509.955C392.555 511.009 393.746 513.023 395.577 514.214C400.614 517.51 407.757 513.527 413.206 516.045C415.535 517.525 417.726 519.211 419.754 521.082C422.043 522.639 425.66 523.143 427.263 521.082C428.866 519.022 426.942 514.763 428.408 511.924C428.902 511.31 429.538 510.825 430.26 510.509C430.983 510.194 431.771 510.057 432.557 510.111C433.344 510.165 434.106 510.408 434.778 510.819C435.451 511.231 436.014 511.798 436.421 512.474C437.123 513.965 437.367 515.631 437.123 517.261C436.878 518.891 436.156 520.412 435.047 521.632C433.828 522.813 432.889 524.252 432.3 525.844C431.659 528.82 434.498 531.293 436.879 533.033L448.829 541.321C448.535 542.684 447.843 543.93 446.84 544.899C445.838 545.869 444.57 546.52 443.197 546.77C440.542 547.502 437.703 547.502 435.047 548.372C422.272 552.631 422.318 571.587 405.559 567.878C405.744 566.633 405.636 565.361 405.241 564.166C404.846 562.97 404.177 561.883 403.287 560.993C402.396 560.103 401.31 559.433 400.114 559.039C398.918 558.644 397.647 558.535 396.401 558.721C390.266 560.232 386.282 568.977 380.192 567.237C378.086 566.642 376.483 564.81 374.331 564.307C368.424 562.887 365.54 571.953 363.845 575.845C358.351 588.666 366.913 590.223 366.593 601.67C366.593 606.89 362.518 611.332 361.556 616.506C360.594 621.68 362.334 626.122 361.556 630.929C359.816 644.071 342.416 636.104 334.724 634.547C338.891 642.01 332.663 651.077 325.886 656.251C315.447 664.172 317.232 663.485 315.905 674.932C315.814 676.456 315.304 677.925 314.431 679.177C313.559 680.43 312.357 681.417 310.959 682.03C305.968 683.816 301.115 678.87 295.849 678.367C293.331 678.092 290.766 678.916 288.248 678.367C281.654 677.222 279.365 669.209 275.107 664.08C273.2 661.855 270.786 660.119 268.069 659.02C265.352 657.92 262.411 657.489 259.493 657.762C259.058 661.151 259.058 664.583 259.493 667.973L270.574 674.795C273.985 676.557 276.946 679.079 279.228 682.167C280.065 684.146 281.225 685.972 282.662 687.57C285.913 690.318 290.812 688.669 295.025 688.394C305.373 687.708 322.178 694.164 332.114 697.552C342.05 700.94 346.4 708.541 356.199 711.884C356.595 712.089 356.943 712.378 357.219 712.729C357.494 713.081 357.69 713.488 357.795 713.922C357.899 714.357 357.908 714.808 357.823 715.247C357.737 715.685 357.558 716.1 357.298 716.463C356.147 717.854 354.51 718.755 352.719 718.981C348.518 719.702 344.197 718.992 340.447 716.967C345.301 719.622 331.29 731.344 328.542 731.94C324.33 732.901 318.652 729.696 314.348 729.513C303.725 728.963 297.589 731.07 304.549 742.608C307.205 747.187 310.318 752.682 307.388 756.94C305.93 756.485 304.36 756.546 302.942 757.113C301.524 757.68 300.345 758.719 299.604 760.054C298.202 762.79 297.735 765.91 298.276 768.937C298.35 771.009 299.125 772.995 300.474 774.569C301.389 775.174 302.221 775.898 302.946 776.721C304.915 779.697 300.886 782.948 297.543 784.23" fill="white"/>
<path opacity="0.7" d="M666.051 267.273C662.754 264.801 658.038 266.816 654.604 269.105C651.17 271.394 647.095 274.05 643.203 272.631C643.203 268.052 643.203 263.061 642.974 258.253C643.036 257.805 643.003 257.349 642.877 256.915C642.75 256.481 642.534 256.079 642.241 255.735C641.877 255.465 641.462 255.272 641.021 255.17C640.58 255.068 640.122 255.057 639.677 255.139L630.519 255.551C627.909 258.39 635.098 261.87 634.091 265.533C633.633 267.182 631.801 267.869 630.29 268.693C617.607 275.515 625.711 289.664 631.389 297.357C638.074 306.285 637.662 318.511 636.93 329.409C637.051 331.401 636.777 333.397 636.125 335.282C635.473 337.168 634.455 338.907 633.129 340.398C630.153 342.962 625.803 342.779 622.002 343.924C615.409 345.801 610.738 351.662 604.603 354.684C583.082 365.261 568.887 342.23 575.893 324.097C579.556 314.94 581.113 316.496 579.007 306.423C578.137 302.256 579.51 297.265 575.16 294.426C574.046 293.754 572.78 293.376 571.48 293.327C570.18 293.277 568.888 293.559 567.726 294.144C566.564 294.73 565.57 295.6 564.836 296.675C564.102 297.749 563.653 298.992 563.53 300.287C562.398 305.568 562.618 311.049 564.171 316.222C557.806 313.886 550.206 315.397 543.246 315.397C543.318 316.957 542.99 318.51 542.293 319.907C541.596 321.304 540.553 322.5 539.264 323.381C537.975 324.262 536.482 324.799 534.926 324.94C533.371 325.082 531.806 324.823 530.379 324.189C530.379 321.029 529.692 316.725 526.578 316.725C525.658 316.801 524.774 317.116 524.014 317.641C520.718 319.61 517.787 322.22 514.307 323.823C508.95 326.295 493.611 325.105 491.413 332.339C490.955 333.576 490.955 334.995 490.497 336.231C489.864 337.508 488.798 338.517 487.49 339.079C486.181 339.641 484.715 339.719 483.354 339.299C482.008 338.821 480.814 337.991 479.896 336.896C478.978 335.801 478.37 334.481 478.134 333.072C477.768 331.195 478.134 329.226 477.493 327.394C474.929 317.687 464.901 325.288 460.459 322.815C455.848 316.731 452.089 310.045 449.287 302.943C447.263 305.767 444.616 308.087 441.551 309.723C438.486 311.358 435.085 312.266 431.613 312.375C423.874 312.009 420.577 305.828 418.837 298.318C417.097 290.809 416.914 280.918 415.174 275.424C414.474 273.982 414.149 272.387 414.229 270.786C414.309 269.185 414.791 267.631 415.632 266.266C418.334 263.336 424.149 264.434 426.164 260.955C426.679 259.782 426.974 258.525 427.034 257.246C427.824 253.567 430.043 250.352 433.203 248.309C436.363 246.265 440.204 245.56 443.884 246.348C446.265 244.791 446.311 241.403 446.448 238.564C446.585 235.725 447.776 232.199 450.615 232.016C453.454 231.833 455.194 236.045 455.194 239.296C455.116 242.633 454.592 245.943 453.637 249.141C452.588 251.416 452.284 253.964 452.767 256.421C453.56 258.152 454.872 259.592 456.522 260.542C460.026 263.476 464.37 265.224 468.93 265.533C471.2 265.637 473.427 264.892 475.179 263.445C476.93 261.998 478.082 259.952 478.409 257.704C478.294 256.485 478.294 255.259 478.409 254.04C479.141 251.018 482.988 249.965 486.101 250.377C489.072 251.248 492.167 251.619 495.259 251.476C498.327 250.881 500.891 246.897 498.693 244.608C502.814 243.189 508.721 242.456 510.323 246.485C510.689 247.842 510.828 249.25 510.736 250.652C510.736 259.306 521.633 271.761 529.051 262.74C533.63 256.788 525.571 245.982 534.225 241.082C538.346 238.747 543.978 240.807 547.962 238.426C549.244 236.915 547.046 234.855 545.123 234.351C542.087 233.57 538.902 233.58 535.871 234.382C532.841 235.183 530.067 236.75 527.815 238.93C525.342 233.893 529.143 226.476 524.884 222.858C520.626 219.241 512.521 223.499 509.362 218.966C508.559 217.577 508.162 215.991 508.217 214.387C507.622 206.557 510.049 192.271 499.059 190.943C497.713 190.944 496.372 190.759 495.076 190.394C491.275 188.929 491.321 183.617 492.008 179.588C496.175 177.802 500.616 180.87 504.6 182.976C508.583 185.082 514.902 185.449 516.23 181.145C517.238 178.077 514.811 174.23 516.871 171.712C517.787 170.567 519.481 170.11 520.26 168.827C522.183 165.805 517.512 162.738 516.642 159.212C515.498 154.358 522 151.245 526.945 151.611C531.89 151.977 537.522 153.626 541.506 150.695C542.788 149.733 543.749 148.406 544.94 147.398C548.953 144.615 553.811 143.32 558.676 143.735C566.461 143.735 548.786 111.683 548.603 109.622C547.275 94.8327 562.34 86.7281 571.177 77.5703C575.517 72.4267 579.279 66.8222 582.395 60.8574C647.232 86.8466 704.267 129.126 747.983 183.607C791.699 238.088 820.619 302.927 831.944 371.855C833.128 378.098 833.863 384.418 834.142 390.766C824.984 388.156 810.652 381.288 801.357 386.874C789.498 393.971 798.06 411.554 784.415 416.774C781.027 416.774 781.989 411.142 780.065 408.395C778.791 407.082 777.221 406.093 775.487 405.51C773.792 404.64 772.19 402.854 772.877 400.931C769.9 398.642 765.825 401.572 763.078 404.136C760.018 407.355 756.14 409.682 751.86 410.867C742.702 412.744 734.506 406.288 726.401 401.938C719.584 398.577 712.472 395.848 705.155 393.788C708.635 394.017 710.421 389.209 709.093 385.912C707.259 382.894 705.009 380.15 702.408 377.762C698.607 373.183 701.538 367.734 698.332 362.835C694.395 356.699 686.794 352.395 686.153 345.16C685.374 336.415 695.31 330.828 703.232 327.577C698.928 317.641 687.206 310.864 687.206 300.104C687.54 295.958 688.791 291.939 690.869 288.336C694.562 280.705 698.256 273.073 701.95 265.442C703.89 262.466 704.672 258.882 704.148 255.368C703.094 251.385 698.973 249.049 695.31 247.218L683.314 241.22C681.725 240.23 679.871 239.75 678.002 239.846C676.094 240.391 674.46 241.633 673.423 243.326C666.886 251.937 663.83 262.693 664.861 273.455C650.695 271.348 636.851 267.471 623.651 261.916C625.116 270.158 621.728 279.179 624.292 286.871" fill="white"/>
<path opacity="0.7" d="M333.349 334.447C331.383 335.748 329.724 337.462 328.49 339.471C327.256 341.481 326.477 343.735 326.206 346.078C326.371 348.978 326.692 351.866 327.168 354.732C327.404 356.167 327.234 357.64 326.675 358.984C326.117 360.327 325.193 361.488 324.009 362.333C320.758 364.118 316.866 361.875 313.843 359.723C311.177 358.275 309.139 355.895 308.12 353.038C308.006 350.841 308.006 348.64 308.12 346.444C307.754 341.865 303.907 339.072 300.839 335.958C297.772 332.845 295.162 327.991 297.588 324.374C299.191 321.993 302.167 321.168 304.136 318.833C308.257 313.201 300.748 305.371 304.136 300.243C308.257 294.199 318.377 297.267 323.963 300.243C329.353 303.932 334.01 308.59 337.699 313.98C349.513 327.716 345.3 325.702 333.349 334.447Z" fill="white"/>
<path opacity="0.7" d="M182.154 121.667C249.464 63.2401 343.423 33.2027 431.612 32.6074C434.084 32.6074 436.557 32.6074 438.938 32.6074C450.614 45.703 456.75 70.5663 433.718 75.2368C433.718 77.7552 435.138 78.3504 436.42 80.3651C438.434 83.5246 435.092 87.5082 431.841 88.9277C420.485 93.5066 406.748 93.5066 408.534 108.663C410.686 126.978 419.34 115.348 428.819 121.941C430.071 123.066 431.179 124.343 432.116 125.742C436.145 130.321 443.242 130.321 449.378 129.954C449.043 129.054 448.898 128.095 448.949 127.137C449.001 126.178 449.249 125.24 449.679 124.381C450.108 123.523 450.709 122.761 451.445 122.145C452.181 121.528 453.036 121.069 453.957 120.797C455.415 120.713 456.844 120.356 458.169 119.744C460.733 117.866 458.81 113.47 455.88 112.28C452.858 111.585 449.801 111.05 446.722 110.677C443.7 109.807 440.907 106.098 442.738 103.626C443.605 102.589 444.832 101.919 446.173 101.749C448.89 101.163 451.709 101.245 454.389 101.987C457.068 102.728 459.528 104.108 461.558 106.007C462.119 104.573 463.124 103.356 464.425 102.532C465.726 101.709 467.256 101.322 468.792 101.428C470.328 101.617 471.762 102.299 472.877 103.373C473.991 104.446 474.727 105.853 474.974 107.381C475.615 111.959 472.547 117.912 476.531 120.018C474.748 119.578 472.879 119.635 471.127 120.184C469.375 120.733 467.807 121.753 466.594 123.132C457.437 134.167 462.84 160.908 438.205 156.42C434.363 155.28 430.446 154.408 426.483 153.81C424.493 153.54 422.47 153.932 420.724 154.924C418.978 155.917 417.607 157.457 416.822 159.305C411.648 151.842 398.506 153.444 393.928 145.568C392.944 143.658 392.621 141.476 393.01 139.363C393.4 137.25 394.479 135.326 396.08 133.892C396.678 133.503 397.167 132.967 397.499 132.335C398.049 130.962 396.858 129.588 396.629 128.123C396.309 125.65 399.01 123.544 399.331 121.209C399.789 117.729 395.759 115.485 392.325 114.615C388.891 113.745 384.77 112.463 384.083 109.029C384.083 107.838 384.083 106.602 384.083 105.457C383.748 104.293 383.063 103.26 382.121 102.499C381.179 101.737 380.026 101.283 378.817 101.199C376.389 101.047 373.955 101.406 371.674 102.252C370.117 103.58 370.804 106.282 372.224 107.793C373.858 109.075 375.389 110.484 376.803 112.005C377.444 112.967 374.238 133.846 375.841 133.297C368.377 135.861 352.443 136.227 355.648 147.4C356.793 151.338 359.082 155.413 357.617 159.259C362.868 157.794 368.133 156.375 373.414 155.001C374.696 156.695 372.59 159.03 370.529 159.58C368.469 160.129 365.951 160.038 364.623 161.64C363.74 162.86 363.319 164.352 363.432 165.853L362.608 180.368C362.288 185.634 361.601 191.678 357.251 194.654C352.901 197.63 345.3 195.341 341.133 190.991C340.126 189.984 339.027 188.747 337.607 188.747C336.301 188.943 335.112 189.611 334.265 190.625C331.797 193.016 328.793 194.784 325.503 195.779C322.214 196.775 318.734 196.97 315.354 196.348C311.995 195.606 309.02 193.67 306.982 190.899C304.944 188.128 303.981 184.711 304.273 181.284C304.731 178.72 305.83 175.514 303.815 173.82C302.67 172.813 300.656 172.675 300.106 171.256C299.557 169.837 301.755 168.097 303.357 166.906C304.736 165.814 305.708 164.29 306.115 162.579C306.522 160.868 306.341 159.069 305.601 157.474C304.823 155.825 290.262 149.873 288.018 150.971C282.844 153.49 283.76 167.364 283.119 172.721C283.125 174.826 282.303 176.85 280.829 178.353C278.173 180.276 274.419 178.353 272.404 175.743C270.389 173.133 268.878 169.974 265.948 168.554C264.191 167.841 262.302 167.513 260.407 167.593C258.52 167.287 256.591 167.365 254.734 167.822C252.878 168.278 251.132 169.103 249.601 170.249C248.319 171.531 247.587 173.225 246.304 174.507C244.711 175.79 242.791 176.603 240.76 176.853C238.73 177.104 236.669 176.783 234.811 175.926C230.965 174.507 227.485 172.126 223.547 171.073C215.122 168.829 205.507 172.813 197.768 168.829C194.014 166.906 191.358 161.549 194.288 158.572C197.219 155.596 202.393 156.466 203.08 152.895C203.767 149.323 195.342 144.515 193.922 141.539C192.503 138.563 195.296 134.762 192.594 130.367C189.847 126.703 184.535 125.65 182.154 121.667Z" fill="white"/>
<path opacity="0.7" d="M676.308 698.01C680.887 694.805 686.427 692.928 688.121 686.38C690.365 677.222 685.557 673.605 676.628 676.902C675.874 677.314 674.997 677.444 674.156 677.268C671.592 676.444 673.423 672.689 675.117 670.537C676.895 668.053 678.022 665.164 678.398 662.133C678.774 659.102 678.386 656.026 677.269 653.183C676.766 651.809 701.858 651.214 704.743 652.725C714.45 658.037 708.131 678.642 719.349 675.162C720.128 667.332 719.716 659.227 719.716 651.26L731.163 650.848C728.324 650.848 730.018 636.333 731.163 634.73C734.963 628.503 746.548 631.159 745.541 619.437C744.213 604.555 715.457 601.579 718.891 618.613C709.774 621.683 700.152 622.973 690.548 622.413C690.319 625.435 690.136 628.503 689.953 631.571C688.852 632.252 687.606 632.661 686.316 632.764C685.026 632.868 683.73 632.663 682.535 632.166C680.341 628.284 679.328 623.846 679.621 619.397C679.914 614.947 681.5 610.68 684.184 607.119C680.933 602.083 684.916 595.581 688.762 590.956C678.231 583.264 681.253 563.483 693.616 559.545C705.979 555.607 720.219 569.115 716.51 581.615C722.583 582.318 728.275 584.931 732.765 589.079C733.259 581.158 736.21 573.589 741.208 567.425C746.207 561.261 753.003 556.81 760.651 554.691C768.343 552.722 777.501 552.86 782.721 546.861C785.056 544.206 786.247 540.726 788.399 537.933C793.344 531.705 802.136 530.423 810.057 529.965C815.368 529.691 820.726 529.599 826.037 529.691C803.987 620.802 750.861 701.375 675.804 757.536C673.026 757.829 670.22 757.403 667.654 756.3C663.075 753.873 661.747 748.195 660.831 743.158C657.214 723.515 659.229 711.106 675.209 699.064L676.308 698.01Z" fill="white"/>
<g opacity="0.7">
<path d="M435.001 871C421.264 871 407.07 870.313 393.196 868.985C384.908 868.207 376.529 867.154 368.332 865.917C367.672 865.805 367.08 865.442 366.68 864.905C366.279 864.368 366.1 863.698 366.18 863.033C366.231 862.699 366.346 862.378 366.521 862.089C366.696 861.799 366.926 861.548 367.198 861.348C367.47 861.148 367.78 861.003 368.108 860.923C368.436 860.843 368.777 860.829 369.111 860.881C377.215 862.117 385.457 863.17 393.699 863.948C410.605 865.564 427.592 866.175 444.571 865.78C445.186 865.863 445.75 866.166 446.159 866.633C446.568 867.101 446.793 867.701 446.793 868.321C446.793 868.942 446.568 869.542 446.159 870.009C445.75 870.477 445.186 870.78 444.571 870.863C441.457 870.954 438.252 871 435.001 871ZM459.864 870.267C459.249 870.185 458.685 869.881 458.276 869.414C457.867 868.947 457.642 868.347 457.642 867.726C457.642 867.105 457.867 866.506 458.276 866.038C458.685 865.571 459.249 865.268 459.864 865.185C468.244 864.727 476.714 863.994 485.002 862.987C485.333 862.949 485.669 862.977 485.989 863.069C486.309 863.162 486.608 863.317 486.867 863.525C487.127 863.734 487.343 863.992 487.502 864.285C487.662 864.578 487.761 864.899 487.795 865.231C487.874 865.897 487.687 866.568 487.276 867.099C486.865 867.63 486.263 867.978 485.597 868.07C477.218 869.031 468.656 869.764 460.139 870.267H459.864ZM319.064 855.386H318.377L308.67 852.456C308.351 852.359 308.054 852.201 307.797 851.99C307.539 851.78 307.325 851.52 307.168 851.227C307.011 850.933 306.913 850.612 306.88 850.281C306.847 849.949 306.879 849.615 306.975 849.296C307.072 848.977 307.23 848.681 307.44 848.423C307.651 848.166 307.911 847.952 308.204 847.795C308.498 847.637 308.819 847.539 309.15 847.506C309.482 847.473 309.816 847.506 310.135 847.602L319.842 850.395C320.504 850.486 321.102 850.836 321.506 851.369C321.91 851.901 322.085 852.572 321.994 853.234C321.903 853.896 321.553 854.494 321.02 854.898C320.488 855.301 319.817 855.477 319.155 855.386H319.064ZM559.638 852.593C559.023 852.608 558.425 852.398 557.954 852.002C557.484 851.607 557.174 851.052 557.084 850.444C556.994 849.836 557.13 849.216 557.465 848.701C557.801 848.186 558.313 847.811 558.905 847.648C562.111 846.686 565.316 845.679 568.475 844.626C569.113 844.413 569.809 844.463 570.41 844.763C571.011 845.064 571.468 845.591 571.68 846.228C571.893 846.866 571.844 847.562 571.543 848.163C571.242 848.764 570.715 849.221 570.078 849.433C566.873 850.487 563.622 851.54 560.371 852.501C560.134 852.574 559.886 852.605 559.638 852.593ZM616.462 830.935C615.978 830.947 615.501 830.814 615.093 830.553C614.685 830.292 614.364 829.914 614.172 829.469C614.034 829.169 613.956 828.844 613.943 828.513C613.93 828.183 613.983 827.852 614.098 827.542C614.213 827.232 614.387 826.947 614.612 826.704C614.837 826.461 615.108 826.265 615.409 826.127C638.308 815.457 660.246 802.833 680.978 788.397C681.251 788.205 681.559 788.07 681.885 787.999C682.211 787.927 682.547 787.921 682.875 787.981C683.203 788.041 683.516 788.165 683.796 788.346C684.075 788.528 684.316 788.763 684.504 789.038C684.879 789.593 685.022 790.273 684.902 790.931C684.782 791.59 684.409 792.176 683.863 792.564C662.903 807.191 640.702 819.954 617.515 830.706C617.19 830.872 616.827 830.951 616.462 830.935ZM238.658 824.295C238.261 824.292 237.869 824.198 237.514 824.021C229.913 820.174 222.358 816.053 215.077 811.795C214.777 811.63 214.511 811.407 214.297 811.139C214.082 810.871 213.923 810.564 213.827 810.234C213.731 809.905 213.702 809.56 213.739 809.218C213.777 808.877 213.882 808.547 214.047 808.246C214.212 807.946 214.435 807.681 214.703 807.466C214.971 807.252 215.278 807.092 215.608 806.996C215.937 806.901 216.283 806.871 216.624 806.909C216.965 806.946 217.295 807.051 217.596 807.216C224.83 811.429 232.294 815.458 239.803 819.259C240.334 819.501 240.765 819.92 241.021 820.444C241.277 820.969 241.343 821.566 241.208 822.133C241.073 822.701 240.745 823.204 240.28 823.557C239.815 823.91 239.242 824.09 238.658 824.066V824.295ZM203.355 804.24C202.866 804.244 202.387 804.1 201.982 803.828C180.387 790.165 160.026 774.645 141.128 757.444C140.831 757.234 140.583 756.963 140.398 756.649C140.214 756.335 140.099 755.986 140.06 755.625C140.021 755.263 140.06 754.897 140.173 754.552C140.286 754.206 140.472 753.888 140.717 753.62C140.963 753.352 141.263 753.139 141.597 752.995C141.931 752.851 142.292 752.78 142.655 752.787C143.019 752.793 143.377 752.877 143.706 753.033C144.035 753.188 144.327 753.412 144.562 753.689C163.238 770.665 183.354 785.986 204.683 799.478C204.967 799.651 205.213 799.879 205.408 800.148C205.604 800.418 205.744 800.723 205.82 801.046C205.897 801.37 205.909 801.705 205.855 802.033C205.801 802.361 205.683 802.676 205.507 802.958C205.288 803.338 204.975 803.655 204.598 803.88C204.222 804.104 203.794 804.228 203.355 804.24ZM694.807 784.093C694.41 784.09 694.019 783.997 693.662 783.823C693.305 783.649 692.992 783.397 692.746 783.086C692.354 782.54 692.188 781.864 692.282 781.199C692.376 780.533 692.722 779.93 693.25 779.514C699.981 774.477 706.62 769.166 712.985 763.763C713.237 763.541 713.531 763.373 713.85 763.269C714.168 763.164 714.505 763.126 714.839 763.156C715.173 763.186 715.498 763.284 715.793 763.443C716.088 763.602 716.348 763.82 716.556 764.083C716.774 764.335 716.941 764.627 717.045 764.944C717.15 765.26 717.19 765.594 717.165 765.926C717.139 766.258 717.048 766.582 716.896 766.879C716.745 767.176 716.536 767.439 716.281 767.655C709.825 773.103 703.094 778.461 696.318 783.589C695.863 783.914 695.319 784.09 694.761 784.093H694.807ZM107.199 721.774C106.836 721.766 106.479 721.684 106.149 721.535C105.818 721.385 105.521 721.171 105.276 720.904C103.032 718.34 100.697 715.73 98.682 713.12C98.4664 712.866 98.3035 712.571 98.2028 712.253C98.1021 711.935 98.0656 711.6 98.0954 711.267C98.1252 710.935 98.2208 710.612 98.3765 710.317C98.5322 710.022 98.7451 709.761 99.0026 709.549C99.2544 709.327 99.5487 709.159 99.8675 709.055C100.186 708.95 100.523 708.912 100.857 708.942C101.191 708.972 101.516 709.07 101.811 709.229C102.106 709.389 102.366 709.606 102.574 709.869C104.726 712.433 106.924 715.043 109.122 717.562C109.434 717.933 109.634 718.385 109.699 718.865C109.764 719.345 109.692 719.834 109.491 720.275C109.289 720.716 108.967 721.091 108.562 721.356C108.156 721.622 107.683 721.767 107.199 721.774ZM767.977 714.173C767.388 714.176 766.819 713.964 766.374 713.578C766.114 713.369 765.897 713.111 765.737 712.817C765.577 712.524 765.477 712.201 765.443 711.869C765.409 711.537 765.441 711.201 765.538 710.881C765.635 710.561 765.795 710.264 766.008 710.006C768.16 707.442 770.312 704.787 772.373 702.177C772.82 701.744 773.409 701.488 774.03 701.458C774.651 701.427 775.263 701.623 775.75 702.01C776.237 702.396 776.567 702.947 776.679 703.559C776.791 704.171 776.676 704.802 776.357 705.336C774.25 707.992 772.098 710.648 769.946 713.258C769.718 713.526 769.439 713.745 769.124 713.903C768.809 714.06 768.466 714.152 768.114 714.173H767.977ZM803.509 664.676C803.04 664.69 802.577 664.562 802.181 664.309C801.898 664.136 801.651 663.908 801.456 663.639C801.261 663.37 801.121 663.065 801.044 662.741C800.968 662.418 800.956 662.082 801.01 661.754C801.063 661.426 801.181 661.112 801.357 660.829C814.612 639.354 825.95 616.754 835.241 593.291C835.495 592.67 835.983 592.174 836.6 591.908C837.216 591.643 837.912 591.63 838.538 591.871C839.167 592.117 839.674 592.601 839.948 593.218C840.223 593.836 840.242 594.536 840.003 595.168C830.623 618.95 819.162 641.857 805.753 663.622C805.517 663.959 805.201 664.232 804.833 664.416C804.465 664.6 804.058 664.689 803.647 664.676H803.509ZM57.4263 651.397C56.9732 651.396 56.5281 651.278 56.1347 651.053C55.7413 650.828 55.4132 650.505 55.1827 650.115C51.0159 642.789 46.9865 635.188 43.2318 627.587C43.0156 626.992 43.027 626.338 43.2636 625.752C43.5002 625.165 43.9453 624.686 44.5134 624.408C45.0816 624.13 45.7325 624.071 46.3412 624.244C46.9499 624.416 47.4732 624.808 47.8107 625.343C51.5196 632.852 55.5032 640.362 59.6242 647.596C59.9551 648.186 60.0397 648.883 59.8596 649.534C59.6795 650.186 59.2493 650.74 58.6626 651.076C58.3264 651.268 57.95 651.377 57.5637 651.397H57.4263ZM39.1108 615.224C38.629 615.224 38.1572 615.086 37.7514 614.826C37.3456 614.567 37.0228 614.196 36.8214 613.758C26.3187 590.466 17.9062 566.286 11.6833 541.504C11.5991 541.182 11.5791 540.847 11.6245 540.517C11.6698 540.188 11.7795 539.871 11.9475 539.584C12.1154 539.297 12.3383 539.046 12.6033 538.845C12.8683 538.644 13.1703 538.497 13.492 538.413C13.8137 538.329 14.1488 538.309 14.4782 538.354C14.8076 538.399 15.1249 538.509 15.4119 538.677C15.6989 538.845 15.95 539.068 16.1509 539.333C16.3518 539.598 16.4985 539.9 16.5827 540.222C22.7554 564.716 31.0754 588.619 41.446 611.652C41.7125 612.273 41.7277 612.973 41.4886 613.605C41.2495 614.237 40.7747 614.752 40.1639 615.041C39.8429 615.165 39.501 615.227 39.1566 615.224H39.1108ZM842.979 582.393C842.693 582.461 842.395 582.461 842.109 582.393C841.796 582.285 841.508 582.116 841.26 581.897C841.013 581.677 840.811 581.411 840.667 581.113C840.522 580.815 840.437 580.492 840.418 580.162C840.398 579.832 840.444 579.501 840.552 579.188C843.346 571.266 845.955 563.162 848.245 555.149C848.334 554.825 848.488 554.522 848.696 554.258C848.904 553.994 849.163 553.775 849.458 553.613C849.752 553.45 850.076 553.349 850.41 553.314C850.745 553.279 851.083 553.311 851.404 553.409C851.728 553.498 852.031 553.652 852.295 553.86C852.559 554.068 852.778 554.327 852.941 554.622C853.103 554.916 853.204 555.24 853.239 555.574C853.274 555.909 853.242 556.247 853.144 556.568C850.809 564.673 848.153 572.869 845.36 580.882C845.153 581.329 844.824 581.707 844.411 581.975C843.997 582.242 843.517 582.387 843.025 582.393H842.979ZM4.6776 493.563C4.05467 493.567 3.45245 493.339 2.98732 492.925C2.52219 492.51 2.22715 491.938 2.15921 491.319C1.70132 487.977 1.33503 484.588 0.968722 481.2C0.895858 480.532 1.09129 479.862 1.51205 479.339C1.93282 478.815 2.54445 478.48 3.21236 478.407C3.88028 478.334 4.54977 478.529 5.07358 478.95C5.59739 479.371 5.93262 479.982 6.00548 480.65C6.37179 483.993 6.73811 487.336 7.196 490.678C7.27417 491.345 7.08775 492.016 6.67681 492.546C6.26587 493.077 5.66316 493.426 4.99812 493.517L4.6776 493.563ZM865.507 483.535H865.232C864.568 483.454 863.961 483.117 863.542 482.595C863.123 482.073 862.924 481.408 862.989 480.742C862.989 479.139 863.309 477.537 863.493 476.163C863.676 474.789 863.813 472.637 863.95 470.897C863.979 470.566 864.073 470.244 864.227 469.949C864.381 469.654 864.592 469.393 864.847 469.18C865.103 468.967 865.398 468.807 865.715 468.709C866.033 468.611 866.367 468.576 866.698 468.608C867.029 468.637 867.351 468.731 867.646 468.885C867.941 469.038 868.202 469.249 868.415 469.505C868.628 469.76 868.788 470.055 868.886 470.373C868.984 470.69 869.019 471.024 868.987 471.355C868.987 473.095 868.712 474.881 868.529 476.621C868.346 478.361 868.209 479.872 868.026 481.52C867.875 482.105 867.52 482.616 867.024 482.961C866.528 483.306 865.925 483.461 865.324 483.398L865.507 483.535ZM867.751 422.682C867.086 422.682 866.448 422.425 865.969 421.963C865.491 421.502 865.211 420.873 865.187 420.209C864.365 394.971 861.301 369.856 856.029 345.161C855.963 344.531 856.133 343.898 856.506 343.385C856.879 342.872 857.429 342.516 858.05 342.385C858.67 342.254 859.317 342.358 859.866 342.676C860.414 342.994 860.826 343.504 861.02 344.108C866.313 369.109 869.377 394.53 870.178 420.072C870.191 420.737 869.945 421.38 869.492 421.867C869.039 422.354 868.415 422.646 867.751 422.682ZM2.34236 407.388C2.01134 407.365 1.68815 407.277 1.39139 407.128C1.09463 406.98 0.83017 406.774 0.613162 406.523C0.396154 406.272 0.23088 405.98 0.12688 405.665C0.0228793 405.35 -0.0178197 405.018 0.00712576 404.687C0.00712576 401.069 0.556603 397.452 0.877124 393.835C1.33501 388.951 1.88448 384.097 2.52552 379.274C2.56503 378.942 2.67018 378.622 2.83483 378.331C2.99948 378.04 3.22035 377.785 3.48457 377.58C3.74879 377.376 4.05107 377.226 4.37382 377.139C4.69656 377.053 5.03332 377.031 5.36444 377.076C5.69625 377.116 6.01686 377.221 6.30763 377.385C6.5984 377.55 6.85352 377.771 7.05808 378.035C7.26264 378.299 7.41256 378.602 7.49913 378.924C7.58569 379.247 7.60716 379.584 7.56229 379.915C6.92124 384.494 6.41757 389.485 5.95969 394.338C5.59338 397.91 5.31866 401.482 5.04392 405.007C5.02726 405.351 4.94043 405.687 4.7888 405.996C4.63717 406.304 4.42394 406.579 4.16226 406.802C3.90057 407.025 3.59595 407.192 3.26721 407.293C2.93847 407.394 2.59257 407.426 2.2508 407.388H2.34236ZM6.92125 367.048H6.46337C6.13524 366.998 5.82029 366.884 5.5366 366.711C5.25291 366.539 5.0061 366.312 4.81035 366.044C4.61461 365.776 4.47379 365.472 4.396 365.149C4.31821 364.826 4.30498 364.491 4.35708 364.164C8.51162 338.949 14.8544 314.145 23.3137 290.032C23.6488 289.604 24.1109 289.295 24.6333 289.147C25.1556 288.999 25.7114 289.021 26.2206 289.21C26.7297 289.398 27.1659 289.743 27.4664 290.195C27.7668 290.647 27.916 291.183 27.8925 291.726C19.5098 315.549 13.243 340.064 9.16489 364.988C9.06283 365.519 8.79528 366.005 8.4005 366.375C8.00571 366.745 7.50395 366.981 6.96705 367.048H6.92125ZM854.884 332.295C854.321 332.298 853.774 332.11 853.333 331.76C852.891 331.41 852.583 330.92 852.458 330.371C850.397 322.267 848.108 314.116 845.589 306.103C845.49 305.788 845.454 305.456 845.483 305.126C845.512 304.796 845.605 304.475 845.758 304.182C845.912 303.889 846.121 303.628 846.375 303.416C846.629 303.203 846.922 303.043 847.238 302.944C847.881 302.742 848.579 302.801 849.179 303.11C849.779 303.419 850.233 303.951 850.443 304.592C852.961 312.697 855.296 320.939 857.357 329.135C857.446 329.457 857.468 329.794 857.424 330.124C857.379 330.455 857.267 330.774 857.096 331.06C856.925 331.347 856.698 331.596 856.428 331.792C856.158 331.989 855.851 332.128 855.525 332.203C855.32 332.278 855.102 332.309 854.884 332.295ZM45.4755 246.532C45.0926 246.529 44.716 246.434 44.3765 246.257C44.0735 246.116 43.8024 245.915 43.5794 245.666C43.3565 245.417 43.1864 245.125 43.0794 244.808C42.9724 244.491 42.9307 244.156 42.9569 243.823C42.9831 243.49 43.0766 243.165 43.2318 242.869C44.7428 239.801 46.2538 236.779 47.8107 233.711C47.9608 233.411 48.1695 233.143 48.4247 232.924C48.6798 232.706 48.9761 232.54 49.2961 232.438C49.6161 232.336 49.9534 232.298 50.2881 232.328C50.6228 232.358 50.9481 232.455 51.2448 232.612C51.8352 232.933 52.2762 233.472 52.4732 234.114C52.6701 234.756 52.6072 235.45 52.2979 236.046C50.7411 239.023 49.2301 242.045 47.7191 245.204C47.5018 245.609 47.178 245.947 46.7825 246.181C46.387 246.415 45.935 246.537 45.4755 246.532ZM818.94 237.649C818.473 237.662 818.011 237.545 817.607 237.31C817.203 237.076 816.871 236.733 816.651 236.321C815.094 233.299 813.537 230.369 812.072 227.438C811.745 226.843 811.667 226.142 811.856 225.49C812.045 224.837 812.485 224.287 813.079 223.958C813.37 223.797 813.691 223.696 814.021 223.659C814.352 223.623 814.687 223.652 815.006 223.746C815.326 223.839 815.623 223.995 815.882 224.205C816.14 224.414 816.355 224.673 816.513 224.966C818.162 227.942 819.764 230.918 821.367 234.123C821.673 234.725 821.729 235.423 821.523 236.066C821.317 236.709 820.866 237.245 820.268 237.558C819.841 237.702 819.383 237.734 818.94 237.649ZM786.888 185.816C786.479 185.825 786.075 185.729 785.714 185.537C785.353 185.344 785.047 185.062 784.827 184.717C770.115 164.187 753.646 144.974 735.604 127.298C735.172 126.814 734.939 126.183 734.954 125.534C734.968 124.885 735.228 124.265 735.681 123.8C736.135 123.335 736.747 123.06 737.396 123.029C738.045 122.998 738.681 123.215 739.176 123.635C757.426 141.535 774.08 160.992 788.948 181.787C789.142 182.057 789.28 182.363 789.355 182.687C789.43 183.01 789.44 183.346 789.385 183.674C789.33 184.001 789.21 184.315 789.033 184.596C788.856 184.877 788.625 185.121 788.353 185.312C787.975 185.578 787.532 185.736 787.071 185.77L786.888 185.816ZM90.8979 173.362C90.3314 173.362 89.7818 173.168 89.3411 172.812C88.8109 172.396 88.4655 171.789 88.3798 171.12C88.2941 170.452 88.475 169.777 88.8832 169.241C94.0574 162.555 99.5062 155.916 105.047 149.506C105.496 149 106.125 148.688 106.8 148.637C107.475 148.586 108.143 148.799 108.664 149.231C108.899 149.465 109.086 149.743 109.214 150.05C109.341 150.356 109.407 150.685 109.407 151.017C109.407 151.349 109.341 151.677 109.214 151.984C109.086 152.29 108.899 152.568 108.664 152.802C103.169 159.167 97.8121 165.715 92.6837 172.354C92.2944 172.879 91.7225 173.238 91.0811 173.362H90.8979ZM117.181 142.363C116.536 142.356 115.916 142.112 115.441 141.676C115.205 141.442 115.019 141.163 114.891 140.857C114.764 140.551 114.698 140.222 114.698 139.89C114.698 139.558 114.764 139.229 114.891 138.923C115.019 138.617 115.205 138.338 115.441 138.104C132.865 119.411 151.894 102.282 172.31 86.9123C172.573 86.7079 172.873 86.5584 173.195 86.4729C173.516 86.3874 173.851 86.3676 174.18 86.4146C174.51 86.4616 174.826 86.5745 175.11 86.7466C175.395 86.9187 175.642 87.1463 175.836 87.416C176.043 87.6754 176.195 87.9737 176.285 88.2933C176.374 88.6128 176.398 88.947 176.355 89.276C176.312 89.6049 176.204 89.922 176.036 90.2081C175.868 90.4943 175.645 90.7438 175.378 90.9417C155.197 106.137 136.383 123.067 119.15 141.538C118.922 141.789 118.647 141.99 118.341 142.132C118.034 142.274 117.702 142.352 117.364 142.363H117.181ZM726.172 117.545C725.541 117.536 724.936 117.291 724.478 116.858C718.296 111.226 711.84 105.686 705.338 100.374C705.079 100.164 704.865 99.9045 704.707 99.6111C704.548 99.3177 704.449 98.9959 704.415 98.6643C704.381 98.3326 704.413 97.9976 704.508 97.6782C704.604 97.3588 704.761 97.0613 704.972 96.8027C705.182 96.5442 705.442 96.3295 705.735 96.1712C706.028 96.0128 706.35 95.9139 706.682 95.8798C707.013 95.8458 707.348 95.8775 707.668 95.973C707.987 96.0685 708.285 96.226 708.543 96.4364C715.137 101.794 721.639 107.426 727.912 113.104C728.39 113.584 728.658 114.234 728.658 114.912C728.658 115.59 728.39 116.24 727.912 116.721C727.544 117.146 727.044 117.437 726.492 117.545H726.172ZM216.176 63.331C215.733 63.3411 215.294 63.2317 214.908 63.0142C214.521 62.7967 214.2 62.4791 213.978 62.0948C213.644 61.5107 213.552 60.8183 213.723 60.1672C213.895 59.5161 214.315 58.9585 214.894 58.6148L223.777 53.5781C224.078 53.4187 224.407 53.3201 224.746 53.288C225.084 53.2558 225.426 53.2907 225.751 53.3906C226.077 53.4905 226.379 53.6535 226.641 53.8703C226.904 54.0871 227.121 54.3535 227.28 54.6541C227.439 54.9548 227.538 55.2838 227.57 55.6226C227.602 55.9613 227.567 56.3031 227.467 56.6284C227.367 56.9536 227.204 57.256 226.988 57.5183C226.771 57.7806 226.505 57.9976 226.204 58.157C223.273 59.7596 220.343 61.4537 217.458 63.1479C217.053 63.3138 216.612 63.3767 216.176 63.331ZM644.21 58.3858C643.777 58.3891 643.351 58.2786 642.974 58.0654C639.921 56.417 636.945 54.8143 634.045 53.2575C633.438 52.9418 632.981 52.3978 632.775 51.7451C632.569 51.0925 632.63 50.3848 632.946 49.7776C633.262 49.1704 633.806 48.7135 634.458 48.5074C635.111 48.3013 635.819 48.3629 636.426 48.6786C639.448 50.2355 642.47 51.8838 645.584 53.5322C645.987 53.8414 646.289 54.2635 646.452 54.7449C646.615 55.2262 646.632 55.7452 646.499 56.2359C646.367 56.7265 646.092 57.1667 645.708 57.5006C645.325 57.8345 644.851 58.047 644.347 58.1111L644.21 58.3858ZM588.943 32.6984C588.64 32.7464 588.33 32.7464 588.027 32.6984C564.433 23.6981 540.084 16.8178 515.269 12.1392C514.61 12.0062 514.029 11.6197 513.653 11.0631C513.276 10.5064 513.133 9.82402 513.254 9.16286C513.309 8.83558 513.429 8.52271 513.607 8.24284C513.786 7.96296 514.018 7.72181 514.292 7.53381C514.565 7.34582 514.874 7.21482 515.199 7.14856C515.524 7.0823 515.859 7.0822 516.184 7.14821C541.291 11.8972 565.93 18.8536 589.813 27.9363C590.443 28.1828 590.953 28.6643 591.234 29.2794C591.516 29.8944 591.548 30.5949 591.324 31.2331C591.111 31.6815 590.773 32.0587 590.351 32.3188C589.928 32.5789 589.439 32.7107 588.943 32.6984ZM294.521 27.4784C293.991 27.4814 293.473 27.3202 293.038 27.0168C292.604 26.7134 292.274 26.2828 292.094 25.7842C291.888 25.1403 291.94 24.4416 292.239 23.8352C292.538 23.2288 293.06 22.7621 293.697 22.5333C301.71 19.7859 309.906 17.2675 318.056 15.0239C318.674 14.9316 319.304 15.0679 319.829 15.4074C320.353 15.7469 320.736 16.2661 320.904 16.8676C321.073 17.4691 321.016 18.1115 320.745 18.6742C320.473 19.2368 320.006 19.6809 319.43 19.9233C311.371 22.1211 303.266 24.5021 295.345 27.341L294.521 27.4784ZM333.487 16.1686C332.848 16.2034 332.22 15.9936 331.73 15.5819C331.24 15.1703 330.925 14.5876 330.85 13.9522C330.774 13.3168 330.943 12.6764 331.322 12.161C331.701 11.6457 332.263 11.294 332.892 11.1776C357.74 5.21542 383.07 1.47651 408.581 0.00509766C409.249 -0.0374062 409.906 0.187206 410.408 0.62944C410.911 1.07167 411.217 1.69537 411.259 2.36329C411.302 3.03121 411.077 3.68863 410.635 4.19097C410.193 4.69331 409.569 4.99939 408.901 5.0419C383.679 6.62234 358.644 10.4067 334.082 16.3517L333.487 16.1686ZM500.708 9.43765H500.342C492.054 8.15557 483.629 7.10239 475.295 6.32398C474.67 6.20445 474.112 5.85698 473.729 5.34904C473.346 4.84109 473.166 4.20897 473.223 3.57543C473.28 2.9419 473.571 2.35214 474.038 1.92081C474.506 1.48949 475.117 1.24735 475.753 1.24142C484.178 2.06561 492.741 3.11877 501.12 4.40085C501.788 4.4555 502.407 4.77327 502.84 5.2842C503.274 5.79513 503.487 6.45738 503.432 7.1253C503.378 7.79321 503.06 8.41208 502.549 8.84573C502.038 9.27938 501.376 9.4923 500.708 9.43765ZM469.617 5.8203L459.544 5.13349C458.928 5.02366 458.373 4.69227 457.984 4.2018C457.595 3.71133 457.399 3.09561 457.433 2.47068C457.467 1.84575 457.728 1.25478 458.168 0.809071C458.607 0.363359 459.194 0.0937056 459.818 0.0509312C463.207 0.0509312 466.641 0.508836 470.029 0.783569C470.645 0.866347 471.209 1.16952 471.618 1.63687C472.026 2.10422 472.252 2.70397 472.252 3.32481C472.252 3.94565 472.026 4.54541 471.618 5.01276C471.209 5.48011 470.645 5.78335 470.029 5.86613L469.617 5.8203Z" fill="white"/>
</g>
<circle cx="437.501" cy="435.073" r="405.5" fill="#D9D9D9" fill-opacity="0.3"/>
</svg>
