<svg width="358" height="337" viewBox="0 0 358 337" fill="none" xmlns="http://www.w3.org/2000/svg">
<path d="M91.6702 81.1674V77.0117C91.666 74.16 90.5319 71.4263 88.5162 69.4091C86.5005 67.3919 83.7676 66.2558 80.916 66.2495H77.9815C75.1285 66.2537 72.3936 67.3889 70.3762 69.4063C68.3588 71.4237 67.2236 74.1587 67.2194 77.0117V81.1674H66.236V103.183H92.6536V81.1674H91.6702ZM73.5641 77.0117C73.5662 75.8407 74.0322 74.7183 74.8602 73.8904C75.6882 73.0624 76.8106 72.5963 77.9815 72.5942H80.916C82.0855 72.5984 83.2059 73.0654 84.0322 73.8931C84.8584 74.7209 85.3234 75.8421 85.3255 77.0117V81.1674H73.5641V77.0117Z" stroke="#074687" stroke-miterlimit="10"/>
<path d="M81.6139 90.6844C81.6149 90.3115 81.5196 89.9446 81.3371 89.6193C81.1546 89.2941 80.8912 89.0214 80.5725 88.8279C80.2537 88.6343 79.8903 88.5264 79.5175 88.5146C79.1448 88.5027 78.7753 88.5874 78.4448 88.7603C78.1144 88.9333 77.8343 89.1886 77.6315 89.5017C77.4288 89.8147 77.3104 90.1748 77.2877 90.547C77.265 90.9193 77.3389 91.2911 77.5022 91.6264C77.6654 91.9617 77.9125 92.2492 78.2195 92.4609V98.5359H80.686V92.4609C80.9734 92.2625 81.208 91.997 81.3697 91.6874C81.5314 91.3779 81.6152 91.0336 81.6139 90.6844Z" stroke="#074687" stroke-miterlimit="10"/>
<path d="M37.3915 51.5139L69.8286 32.7258" stroke="#074687" stroke-miterlimit="10"/>
<path d="M121.879 124.613L92.3602 141.712" stroke="#074687" stroke-miterlimit="10"/>
<path d="M90.2506 32.4482L121.903 50.6575" stroke="#074687" stroke-miterlimit="10"/>
<path d="M67.6239 141.259L37.3677 123.851" stroke="#074687" stroke-miterlimit="10"/>
<path d="M27.5096 68.9063L27.5572 106.411" stroke="#074687" stroke-miterlimit="10"/>
<path d="M133.164 106.253L133.109 69.0491" stroke="#074687" stroke-miterlimit="10"/>
<path d="M54.5697 102.414C57.2477 106.733 60.9848 110.296 65.4263 112.765C69.8679 115.235 74.8666 116.528 79.9484 116.523H80.2656" stroke="#074687" stroke-miterlimit="10"/>
<path d="M106.073 72.2611C103.521 67.6327 99.7852 63.7654 95.248 61.055C90.7107 58.3446 85.5347 56.8884 80.2498 56.8356" stroke="#074687" stroke-miterlimit="10"/>
<path d="M80.2498 116.515C85.235 116.461 90.1271 115.158 94.4778 112.723C98.8286 110.289 102.499 106.801 105.153 102.581" stroke="#074687" stroke-miterlimit="10"/>
<path d="M106.073 72.261C108.646 76.935 109.918 82.2136 109.756 87.5466C109.594 92.8795 108.004 98.0713 105.153 102.581" stroke="#074687" stroke-miterlimit="10"/>
<path d="M53.6577 72.5148C51.1684 77.139 49.942 82.3377 50.1021 87.5869C50.2623 92.836 51.8032 97.9503 54.5698 102.414" stroke="#074687" stroke-miterlimit="10"/>
<path d="M53.6577 72.5149C56.2128 67.7713 60.0046 63.8081 64.6308 61.0461C69.2569 58.2841 74.5447 56.8263 79.9326 56.8276H80.2498" stroke="#074687" stroke-miterlimit="10"/>
<path d="M69.8286 32.7258C71.0115 34.2851 72.5391 35.5497 74.2919 36.4206C76.0447 37.2915 77.9753 37.7451 79.9325 37.746H80.2497" stroke="#074687" stroke-miterlimit="10"/>
<path d="M90.2506 32.4482C89.1055 34.042 87.6065 35.3485 85.8712 36.265C84.1359 37.1815 82.2116 37.6831 80.2498 37.7302" stroke="#074687" stroke-miterlimit="10"/>
<path d="M90.2506 32.4482C91.6186 30.5399 92.4302 28.2895 92.5952 25.9473C92.7603 23.6051 92.2723 21.2631 91.1855 19.1818C90.0987 17.1005 88.4557 15.3616 86.4394 14.1585C84.4231 12.9553 82.1126 12.3352 79.7648 12.3671C77.4171 12.3991 75.1242 13.0817 73.1414 14.3392C71.1585 15.5967 69.5634 17.3796 68.5336 19.4897C67.5038 21.5998 67.0796 23.9542 67.3082 26.291C67.5369 28.6278 68.4094 30.8554 69.8287 32.7258" stroke="#074687" stroke-miterlimit="10"/>
<path d="M80.2498 131.711C83.098 131.776 85.8413 132.798 88.0381 134.612C90.2349 136.426 91.7573 138.927 92.3602 141.711" stroke="#074687" stroke-miterlimit="10"/>
<path d="M67.6239 141.259C68.3191 138.523 69.9071 136.097 72.1365 134.364C74.3658 132.632 77.1093 131.693 79.9326 131.695H80.2498" stroke="#074687" stroke-miterlimit="10"/>
<path d="M67.6238 141.259C67.3518 142.295 67.2132 143.361 67.2114 144.432C67.2557 146.185 67.663 147.91 68.4075 149.498C69.152 151.086 70.2177 152.502 71.5371 153.658C72.8566 154.813 74.4013 155.683 76.0736 156.211C77.746 156.739 79.5097 156.915 81.2535 156.728C82.9973 156.54 84.6833 155.993 86.205 155.121C87.7268 154.25 89.0513 153.072 90.0949 151.662C91.1386 150.253 91.8787 148.642 92.2686 146.932C92.6585 145.222 92.6896 143.45 92.3601 141.727" stroke="#074687" stroke-miterlimit="10"/>
<path d="M133.109 69.0491H133.267C135.524 69.0432 137.738 68.4357 139.682 67.2891C141.626 66.1425 143.228 64.4983 144.325 62.5261C145.421 60.5538 145.972 58.3248 145.921 56.0688C145.869 53.8127 145.216 51.6113 144.03 49.6914C142.845 47.7715 141.168 46.2026 139.174 45.1463C137.18 44.09 134.94 43.5847 132.686 43.6823C130.431 43.7799 128.243 44.477 126.348 45.7016C124.453 46.9263 122.918 48.6343 121.903 50.6495" stroke="#074687" stroke-miterlimit="10"/>
<path d="M122.299 62.7599C121.223 60.9379 120.622 58.8744 120.553 56.7594C120.484 54.6444 120.948 52.5459 121.903 50.6574" stroke="#074687" stroke-miterlimit="10"/>
<path d="M133.109 69.0491C130.917 69.0236 128.77 68.4309 126.875 67.3287C124.981 66.2265 123.404 64.6525 122.299 62.7599" stroke="#074687" stroke-miterlimit="10"/>
<path d="M27.5096 68.9063C29.4171 68.6229 31.2348 67.9085 32.8248 66.8174C34.4148 65.7263 35.7352 64.2871 36.6856 62.6093" stroke="#074687" stroke-miterlimit="10"/>
<path d="M37.3915 51.514C36.5132 49.3925 35.0758 47.5491 33.2324 46.1802C31.389 44.8113 29.2087 43.9682 26.9239 43.7408C24.6391 43.5134 22.3354 43.9102 20.2584 44.8889C18.1813 45.8676 16.4087 47.3915 15.1295 49.2982C13.8503 51.205 13.1124 53.4231 12.9945 55.7161C12.8766 58.0092 13.3831 60.2913 14.46 62.3192C15.5368 64.3471 17.1438 66.0448 19.1095 67.2313C21.0752 68.4179 23.3261 69.0489 25.6221 69.057C26.2542 69.0551 26.8853 69.0047 27.5097 68.9064" stroke="#074687" stroke-miterlimit="10"/>
<path d="M37.3915 51.514C38.125 53.2967 38.4426 55.2232 38.3203 57.147C38.198 59.0709 37.639 60.9416 36.6857 62.6172" stroke="#074687" stroke-miterlimit="10"/>
<path d="M133.164 106.253C130.957 106.273 128.792 106.869 126.886 107.982C124.979 109.094 123.395 110.685 122.291 112.597" stroke="#074687" stroke-miterlimit="10"/>
<path d="M133.164 106.253H133.267C135.526 106.259 137.741 106.868 139.686 108.017C141.63 109.166 143.233 110.813 144.328 112.788C145.423 114.763 145.971 116.994 145.916 119.252C145.861 121.51 145.204 123.712 144.014 125.631C142.823 127.55 141.142 129.117 139.144 130.169C137.146 131.222 134.903 131.722 132.647 131.618C130.392 131.514 128.204 130.81 126.311 129.579C124.418 128.347 122.888 126.633 121.879 124.613" stroke="#074687" stroke-miterlimit="10"/>
<path d="M122.291 112.566C121.223 114.38 120.625 116.433 120.553 118.537C120.481 120.641 120.937 122.73 121.879 124.613" stroke="#074687" stroke-miterlimit="10"/>
<path d="M27.5573 106.411C26.9171 106.31 26.2703 106.257 25.6222 106.253C23.3286 106.261 21.0801 106.89 19.1158 108.074C17.1515 109.258 15.5448 110.953 14.4666 112.977C13.3885 115.001 12.8791 117.28 12.9928 119.571C13.1064 121.861 13.8388 124.079 15.112 125.986C16.3852 127.894 18.1517 129.421 20.2236 130.405C22.2954 131.388 24.5952 131.792 26.8783 131.573C29.1613 131.354 31.3424 130.521 33.1894 129.161C35.0365 127.801 36.4804 125.966 37.3678 123.851" stroke="#074687" stroke-miterlimit="10"/>
<path d="M27.5573 106.411C29.482 106.704 31.3136 107.436 32.9102 108.55C34.5069 109.664 35.8258 111.13 36.765 112.835" stroke="#074687" stroke-miterlimit="10"/>
<path d="M37.3678 123.851C38.1029 122.088 38.4306 120.182 38.3262 118.274C38.2218 116.367 37.6882 114.508 36.765 112.835" stroke="#074687" stroke-miterlimit="10"/>
<path d="M80.2498 131.711V116.515" stroke="#074687" stroke-miterlimit="10"/>
<path d="M80.2498 37.7302V56.8356" stroke="#074687" stroke-miterlimit="10"/>
<path d="M122.291 112.566L105.184 102.581" stroke="#074687" stroke-miterlimit="10"/>
<path d="M53.6577 72.5149L36.6857 62.6093" stroke="#074687" stroke-miterlimit="10"/>
<path d="M54.5698 102.414L36.765 112.835" stroke="#074687" stroke-miterlimit="10"/>
<path d="M122.299 62.7599L106.073 72.2611" stroke="#074687" stroke-miterlimit="10"/>
<path d="M133.267 56.3359L132.53 56.7721" stroke="#074687" stroke-miterlimit="10"/>
<path d="M81.1857 199.297V176.956L61.8265 165.782L42.4752 176.956V199.297L61.8265 210.472L81.1857 199.297Z" stroke="#074687" stroke-miterlimit="10"/>
<path d="M100.711 232.861V210.512L81.3601 199.337L62.0088 210.512V232.861L81.3601 244.035L100.711 232.861Z" stroke="#074687" stroke-miterlimit="10"/>
<path d="M81.4157 266.321V243.972L62.0644 232.797L42.7052 243.972V266.321L62.0644 277.496L81.4157 266.321Z" stroke="#074687" stroke-miterlimit="10"/>
<path d="M69.8762 184.713V182.127C69.8741 180.354 69.1693 178.654 67.9162 177.399C66.6631 176.145 64.9638 175.438 63.1905 175.433H61.3585C59.5853 175.438 57.886 176.145 56.6328 177.399C55.3797 178.654 54.6749 180.354 54.6728 182.127V184.713H54.0621V198.401H70.4869V184.713H69.8762ZM58.6224 182.127C58.6224 181.401 58.9104 180.704 59.4233 180.19C59.9362 179.675 60.6321 179.385 61.3585 179.383H63.1905C63.9169 179.385 64.6129 179.675 65.1258 180.19C65.6387 180.704 65.9267 181.401 65.9267 182.127V184.713H58.6224V182.127Z" stroke="#074687" stroke-miterlimit="10"/>
<path d="M63.6268 190.613C63.6272 190.381 63.5675 190.152 63.4536 189.95C63.3396 189.747 63.1752 189.577 62.9764 189.457C62.7775 189.337 62.551 189.27 62.3187 189.263C62.0864 189.256 61.8563 189.309 61.6506 189.418C61.4449 189.526 61.2708 189.685 61.145 189.881C61.0191 190.076 60.946 190.301 60.9325 190.533C60.9191 190.765 60.9659 190.996 61.0683 191.205C61.1708 191.414 61.3254 191.592 61.5172 191.723V195.498H63.0399V191.723C63.221 191.6 63.3691 191.435 63.4714 191.241C63.5737 191.048 63.6271 190.832 63.6268 190.613Z" stroke="#074687" stroke-miterlimit="10"/>
<path d="M88.3869 218.411V215.825C88.3848 214.053 87.6797 212.353 86.4263 211.1C85.173 209.847 83.4737 209.142 81.7012 209.14H79.8771C78.1038 209.142 76.4037 209.846 75.1491 211.1C73.8944 212.353 73.1876 214.052 73.1834 215.825V218.411H72.5728V232.099H88.9975V218.411H88.3869ZM77.133 215.825C77.133 215.097 77.4221 214.4 77.9367 213.885C78.4513 213.37 79.1493 213.081 79.8771 213.081H81.7012C82.4283 213.083 83.125 213.373 83.6392 213.887C84.1534 214.401 84.4431 215.098 84.4452 215.825V218.411H77.133V215.825Z" stroke="#074687" stroke-miterlimit="10"/>
<path d="M82.1532 224.351C82.155 224.118 82.0965 223.889 81.9834 223.686C81.8704 223.482 81.7066 223.311 81.508 223.19C81.3094 223.069 81.0827 223.001 80.8501 222.993C80.6175 222.985 80.3869 223.038 80.1806 223.146C79.9743 223.253 79.7995 223.413 79.6731 223.608C79.5466 223.804 79.4729 224.028 79.4592 224.261C79.4454 224.493 79.492 224.725 79.5944 224.934C79.6968 225.143 79.8516 225.322 80.0436 225.453V229.228H81.5743V225.453C81.7533 225.331 81.8996 225.166 82.0005 224.974C82.1014 224.782 82.1538 224.568 82.1532 224.351Z" stroke="#074687" stroke-miterlimit="10"/>
<path d="M69.7177 251.879V249.301C69.7156 247.528 69.0108 245.828 67.7576 244.573C66.5045 243.319 64.8052 242.612 63.032 242.608H61.2079C59.4333 242.61 57.7319 243.316 56.4771 244.571C55.2222 245.825 54.5163 247.527 54.5142 249.301V251.887H53.9036V265.575H70.3363V251.879H69.7177ZM58.4638 249.301C58.4638 248.574 58.7529 247.876 59.2675 247.361C59.7821 246.846 60.4801 246.557 61.2079 246.557H63.032C63.7597 246.557 64.4577 246.846 64.9723 247.361C65.4869 247.876 65.776 248.574 65.776 249.301V251.887H58.4638V249.301Z" stroke="#074687" stroke-miterlimit="10"/>
<path d="M63.4681 257.811C63.4685 257.579 63.4088 257.35 63.2949 257.148C63.1809 256.945 63.0165 256.775 62.8177 256.655C62.6189 256.535 62.3923 256.468 62.16 256.461C61.9277 256.454 61.6976 256.507 61.4919 256.616C61.2863 256.724 61.1121 256.883 60.9863 257.079C60.8605 257.274 60.7873 257.499 60.7739 257.731C60.7604 257.963 60.8072 258.194 60.9096 258.403C61.0121 258.612 61.1667 258.79 61.3585 258.921V262.697H62.8891V258.921C63.0678 258.797 63.2137 258.63 63.3144 258.437C63.4152 258.244 63.4679 258.029 63.4681 257.811Z" stroke="#074687" stroke-miterlimit="10"/>
<path d="M20.0864 206.792L20.3482 206.332C20.0547 205.975 19.7375 205.634 19.4203 205.317C13.8687 202.787 8.35672 204.524 6.41367 205.317C6.2154 205.515 6.01712 205.729 5.82678 205.943L6.12816 206.554C6.20746 206.522 13.4483 203.001 20.0864 206.792Z" fill="#074687"/>
<path d="M23.346 211.852C23.122 211.147 22.8572 210.456 22.5529 209.782C20.0193 207.764 16.8854 206.648 13.6465 206.61C9.41939 206.61 5.27156 208.791 3.21747 210.06C2.97955 210.588 2.76541 211.135 2.57507 211.701C3.25713 211.217 8.49942 207.625 13.6783 207.625C17.3315 207.707 20.8051 209.226 23.346 211.852Z" fill="#074687"/>
<path d="M3.87574 225.794C3.87574 225.739 1.29822 220.243 4.58952 215.088C5.39672 213.783 6.47026 212.664 7.73991 211.803C9.00955 210.942 10.4467 210.359 11.9573 210.091C14.7965 209.576 17.2313 210.194 18.302 210.987C19.8332 212.234 21.1885 213.683 22.3308 215.294C22.9623 216.172 23.6681 216.995 24.4404 217.752C24.4404 217.205 24.3691 216.674 24.3056 216.166C23.9329 215.73 23.5125 215.23 23.1318 214.699C21.9394 213.013 20.5196 211.5 18.9126 210.202C17.6358 209.251 14.9472 208.545 11.7749 209.116C10.1265 209.407 8.55824 210.043 7.17248 210.982C5.78671 211.921 4.61468 213.141 3.73299 214.564C0.140313 220.211 2.84473 226.016 2.9399 226.254L3.87574 225.794Z" fill="#074687"/>
<path d="M23.227 218.982C22.8066 218.424 22.4199 217.841 22.0691 217.237C20.594 214.858 18.754 211.82 13.3452 211.82C12.229 211.769 11.1156 211.969 10.0864 212.404C9.05727 212.839 8.13839 213.498 7.39703 214.334C5.35087 216.714 5.01777 220.163 5.38259 222.606C5.5487 223.628 5.44919 224.675 5.09363 225.648C4.73807 226.62 4.13842 227.484 3.35229 228.158C3.50034 228.464 3.65895 228.766 3.82815 229.062C4.79047 228.286 5.53263 227.271 5.9807 226.119C6.42877 224.967 6.56709 223.717 6.38188 222.495C6.04878 220.274 6.34222 217.158 8.16632 215.04C8.8103 214.302 9.61267 213.719 10.5135 213.334C11.4144 212.95 12.3905 212.774 13.369 212.819C18.183 212.819 19.7136 215.326 21.1967 217.752C21.5721 218.392 21.9852 219.009 22.4339 219.6C22.9534 220.272 23.6002 220.836 24.3373 221.258C24.3373 220.885 24.4087 220.465 24.4246 220.116C23.9742 219.796 23.5711 219.414 23.227 218.982Z" fill="#074687"/>
<path d="M19.4995 219.053C19.2892 218.612 19.0535 218.183 18.7937 217.768C17.8341 216.325 15.5738 212.946 10.958 214.842C7.33363 216.341 7.67465 220.148 7.98395 223.502C8.07119 224.478 8.15843 225.398 8.15843 226.262C8.15843 228.642 6.44537 230.291 5.27161 231.124C5.49367 231.401 5.71573 231.655 5.94573 231.917C7.25432 230.941 9.18944 229.078 9.18944 226.302C9.18944 225.39 9.1022 224.406 9.01496 223.455C8.71359 220.148 8.42808 217.031 11.3942 215.825C15.2407 214.239 16.9458 216.825 18.0006 218.371C18.183 218.657 18.3972 219.077 18.643 219.561C19.672 221.95 21.3406 224.008 23.465 225.509C23.5681 225.168 23.6632 224.819 23.7505 224.47C21.8841 223.067 20.4184 221.199 19.4995 219.053Z" fill="#074687"/>
<path d="M18.7064 223.415C18.1729 222.807 17.7682 222.098 17.5168 221.329C17.0668 219.981 16.2414 218.79 15.1375 217.895C14.7601 217.57 14.2936 217.366 13.7985 217.309C13.3034 217.252 12.8028 217.346 12.3617 217.578C10.8945 218.371 9.98249 220.568 10.1252 222.82C10.3473 225.644 16.5968 230.632 19.2299 232.615C19.4757 232.385 19.7136 232.131 19.9436 231.877C16.8903 229.577 11.3069 224.954 11.1404 222.741C10.9976 220.909 11.7273 219.069 12.8455 218.474C13.1178 218.328 13.4292 218.272 13.7353 218.313C14.0415 218.354 14.3268 218.491 14.5507 218.704C15.4997 219.496 16.2039 220.541 16.581 221.718C16.8851 222.599 17.3654 223.408 17.9926 224.097C19.4593 225.401 21.0062 226.611 22.6243 227.722C22.767 227.404 22.9098 227.095 23.0367 226.762C21.5249 225.738 20.0787 224.62 18.7064 223.415Z" fill="#074687"/>
<path d="M13.1548 220.568C13.3689 224.065 18.9126 229.125 20.8715 230.815C21.0698 230.545 21.268 230.259 21.4504 229.974C18.9522 227.817 14.3127 223.288 14.1699 220.504L13.1548 220.568Z" fill="#074687"/>
<path d="M14.4872 230.553C13.7417 229.68 13.1469 228.967 12.108 228.967C10.5218 228.967 8.14255 231.592 7.03223 232.932C7.28597 233.152 7.55067 233.358 7.82531 233.551C9.22907 231.877 11.188 229.95 12.0921 229.95C12.6235 229.95 12.9883 230.339 13.6783 231.156C14.6255 232.319 15.7527 233.323 17.0172 234.13C17.3469 233.945 17.6672 233.744 17.9768 233.527C16.6468 232.75 15.4652 231.743 14.4872 230.553Z" fill="#074687"/>
<path d="M15.2962 234.931C14.5666 233.836 13.3611 232.21 12.4966 231.996C11.4656 231.735 10.5536 233.337 9.97461 234.724C10.2998 234.843 10.6249 234.947 10.958 235.034C11.2118 234.252 11.656 233.546 12.2508 232.98C12.6156 233.067 13.4483 234.05 14.2255 235.169C14.5874 235.114 14.9451 235.034 15.2962 234.931Z" fill="#074687"/>
<path d="M30.333 213.438H51.8653" stroke="#074687" stroke-miterlimit="10"/>
<path d="M30.333 217.8H51.8653" stroke="#074687" stroke-miterlimit="10"/>
<path d="M30.333 222.17H51.8653" stroke="#074687" stroke-miterlimit="10"/>
<path d="M30.333 226.54H51.8653" stroke="#074687" stroke-miterlimit="10"/>
<path d="M295.096 43.8925H296.334C296.771 43.8925 297.204 43.9787 297.608 44.1461C298.012 44.3135 298.38 44.5589 298.689 44.8682C298.998 45.1775 299.244 45.5447 299.411 45.9488C299.578 46.3529 299.665 46.7861 299.665 47.2235V86.2433H291.734V47.2235C291.734 46.7834 291.821 46.3476 291.99 45.9414C292.16 45.5352 292.408 45.1666 292.721 44.8569C293.033 44.5471 293.404 44.3025 293.812 44.1369C294.22 43.9714 294.656 43.8884 295.096 43.8925Z" fill="white" stroke="#074687" stroke-miterlimit="10"/>
<path d="M295.842 43.8925H297.079C297.517 43.8925 297.95 43.9787 298.354 44.1461C298.758 44.3135 299.125 44.5589 299.434 44.8682C299.744 45.1775 299.989 45.5447 300.157 45.9488C300.324 46.3529 300.41 46.7861 300.41 47.2235V86.2433H292.479V47.2235C292.479 46.7834 292.566 46.3476 292.736 45.9414C292.905 45.5352 293.153 45.1666 293.466 44.8569C293.779 44.5471 294.15 44.3025 294.557 44.1369C294.965 43.9714 295.402 43.8884 295.842 43.8925Z" fill="#A3A3A3" stroke="#074687" stroke-miterlimit="10"/>
<path d="M275.428 80.6123L289.148 72.3087L292.836 69.3664C292.836 69.3664 294.755 64.7665 293.629 60.6425C292.503 56.5184 291.329 56.6136 291.329 56.6136L278.64 62.4666C278.64 62.4666 282.923 74.688 275.428 80.6123Z" fill="#074687" stroke="#074687" stroke-linecap="round" stroke-linejoin="round"/>
<path d="M268.988 61.7925L275.991 60.0635C272.398 52.9258 264.991 49.2934 259.225 51.9899C254.173 54.3692 252.024 60.7773 253.713 67.2806L268.988 61.7925Z" fill="white" stroke="#074687" stroke-miterlimit="10"/>
<path d="M275.424 80.6118C281.317 77.8588 283.261 69.5629 279.767 62.0824C276.272 54.602 268.662 50.7696 262.769 53.5226C256.876 56.2756 254.931 64.5715 258.426 72.052C261.92 79.5324 269.531 83.3648 275.424 80.6118Z" fill="#4F4F4F" stroke="#074687" stroke-linecap="round" stroke-linejoin="round"/>
<path d="M272.089 66.0989C273.604 69.3426 272.755 72.9432 270.202 74.1408C267.648 75.3383 264.341 73.6729 262.826 70.4291C261.311 67.1854 262.152 63.5769 264.713 62.3873C267.275 61.1976 270.574 62.8314 272.089 66.0989Z" fill="#074687" stroke="#074687" stroke-linecap="round" stroke-linejoin="round"/>
<path d="M303.797 47.6676C300.466 40.5299 293.391 36.7231 287.633 38.7692V38.6741L261.509 51.0303L257.092 53.1399C261.047 52.0348 265.267 52.3745 268.995 54.0981C272.722 55.8217 275.714 58.8166 277.434 62.5459C277.434 62.6252 277.514 62.7125 277.545 62.7918C277.672 63.081 277.856 63.3421 278.085 63.5598C278.314 63.7774 278.584 63.9473 278.879 64.0595C279.174 64.1718 279.489 64.224 279.805 64.2134C280.12 64.2027 280.431 64.1292 280.718 63.9973L289.799 59.9525C289.799 59.9525 292.931 66.5906 289.18 72.2929L298.697 66.4955C298.951 66.4003 299.205 66.2972 299.45 66.1782C305.351 63.4421 307.294 55.1464 303.797 47.6676Z" fill="white" stroke="#074687" stroke-miterlimit="10"/>
<path d="M303.559 43.8925H304.796C305.233 43.8925 305.666 43.9787 306.071 44.1461C306.475 44.3135 306.842 44.5588 307.151 44.8681C307.46 45.1774 307.706 45.5446 307.873 45.9488C308.041 46.3529 308.127 46.786 308.127 47.2235V86.2432H300.251V47.2235C300.251 46.3442 300.599 45.5005 301.219 44.8765C301.838 44.2525 302.679 43.8988 303.559 43.8925Z" fill="white" stroke="#074687" stroke-miterlimit="10"/>
<path d="M304.304 43.8925H305.541C305.979 43.8925 306.412 43.9787 306.816 44.1461C307.22 44.3135 307.587 44.5589 307.897 44.8682C308.206 45.1775 308.451 45.5447 308.619 45.9488C308.786 46.3529 308.872 46.7861 308.872 47.2235V86.2433H300.942V47.2235C300.942 46.7834 301.029 46.3476 301.198 45.9414C301.367 45.5352 301.616 45.1666 301.928 44.8569C302.241 44.5471 302.612 44.3025 303.02 44.1369C303.428 43.9714 303.864 43.8884 304.304 43.8925Z" fill="white" stroke="#074687" stroke-miterlimit="10"/>
<path d="M280.805 85.6722H314.765C315.08 85.6722 315.383 85.7976 315.606 86.0207C315.829 86.2438 315.955 86.5464 315.955 86.8619V88.4956H279.631V86.8619C279.631 86.5491 279.754 86.2489 279.974 86.0262C280.194 85.8036 280.492 85.6764 280.805 85.6722Z" fill="white" stroke="#074687" stroke-miterlimit="10"/>
<path d="M274.294 87.7422H321.268C321.584 87.7422 321.886 87.8675 322.109 88.0906C322.333 88.3137 322.458 88.6163 322.458 88.9318V90.5656H273.104V88.9318C273.104 88.6163 273.23 88.3137 273.453 88.0906C273.676 87.8675 273.978 87.7422 274.294 87.7422Z" fill="white" stroke="#074687" stroke-miterlimit="10"/>
<path d="M216.798 72.3532C230.164 69.1516 238.405 55.7203 235.203 42.3537C232.001 28.9871 218.57 20.7468 205.203 23.9484C191.837 27.15 183.596 40.5813 186.798 53.9479C190 67.3145 203.431 75.5549 216.798 72.3532Z" fill="#04D1FF" stroke="#074687" stroke-miterlimit="10"/>
<path d="M219.204 41.6589C220.28 37.12 217.473 32.568 212.934 31.4917C208.395 30.4154 203.843 33.2224 202.767 37.7613C201.69 42.3002 204.497 46.8523 209.036 47.9286C213.575 49.0049 218.127 46.1979 219.204 41.6589Z" fill="#074687" stroke="#074687" stroke-miterlimit="10"/>
<path d="M224.56 63.8545C224.56 60.2577 223.131 56.8082 220.587 54.2649C218.044 51.7215 214.595 50.2927 210.998 50.2927C207.401 50.2927 203.952 51.7215 201.408 54.2649C198.865 56.8082 197.436 60.2577 197.436 63.8545H224.56Z" fill="#074687" stroke="#074687" stroke-miterlimit="10"/>
<path d="M234.687 52.4579L249.161 58.4933" stroke="#074687" stroke-miterlimit="10"/>
<path d="M286.238 299.527L261.613 259.873L212.116 260.761L235.948 299.583C236.899 301.13 237.263 302.967 236.971 304.759C236.68 306.552 235.754 308.18 234.362 309.346L228.739 309.742H163.262V311.162H279.79C281.149 311.167 282.485 310.806 283.657 310.118C284.829 309.43 285.795 308.44 286.454 307.251C287.113 306.062 287.44 304.718 287.402 303.36C287.364 302.001 286.962 300.678 286.238 299.527Z" fill="#074687" stroke="#074687" stroke-linecap="round" stroke-linejoin="round"/>
<path d="M258.813 260.69L283.438 300.344C284.156 301.494 284.553 302.815 284.588 304.17C284.623 305.525 284.294 306.865 283.636 308.05C282.978 309.235 282.015 310.222 280.846 310.909C279.677 311.596 278.346 311.957 276.99 311.955H226.685C228.035 311.955 229.36 311.594 230.524 310.911C231.688 310.228 232.648 309.247 233.307 308.069C233.965 306.89 234.298 305.558 234.27 304.209C234.242 302.859 233.855 301.542 233.149 300.392L209.316 261.57L258.813 260.69Z" fill="white" stroke="#074687" stroke-linecap="round" stroke-linejoin="round"/>
<path d="M257.425 258.454L207.929 259.334L217.097 274.268H267.243L257.425 258.454Z" fill="#074687" stroke="#074687" stroke-linecap="round" stroke-linejoin="round"/>
<path d="M124.988 268.692H330.754C332.028 268.692 333.062 267.659 333.062 266.384V93.3254C333.062 92.0508 332.028 91.0175 330.754 91.0175L124.988 91.0175C123.713 91.0175 122.68 92.0508 122.68 93.3254L122.68 266.384C122.68 267.659 123.713 268.692 124.988 268.692Z" fill="#074687" stroke="#074687" stroke-linecap="round" stroke-linejoin="round"/>
<path d="M121.911 268.692H317.921C321.89 268.692 325.107 265.475 325.107 261.507V98.2028C325.107 94.2345 321.89 91.0175 317.921 91.0175L121.911 91.0175C117.942 91.0175 114.725 94.2345 114.725 98.2028L114.725 261.507C114.725 265.475 117.942 268.692 121.911 268.692Z" fill="white" stroke="#074687" stroke-linecap="round" stroke-linejoin="round"/>
<path d="M121.593 91.0175H318.278C320.099 91.0196 321.843 91.7442 323.13 93.0319C324.416 94.3197 325.139 96.0655 325.139 97.8856V236.874H114.733V97.8856C114.733 96.0655 115.456 94.3197 116.742 93.0319C118.028 91.7442 119.773 91.0196 121.593 91.0175Z" fill="#074687" stroke="#074687" stroke-linecap="round" stroke-linejoin="round"/>
<path d="M123.568 227.143L316.272 227.143V98.0839L123.568 98.0839L123.568 227.143Z" fill="white" stroke="#074687" stroke-linecap="round" stroke-linejoin="round"/>
<path d="M123.925 158.89H316.375" stroke="#074687" stroke-miterlimit="10"/>
<path d="M132.015 155.234C132.015 155.617 131.901 155.991 131.688 156.31C131.475 156.628 131.172 156.876 130.818 157.022C130.464 157.168 130.075 157.206 129.699 157.131C129.323 157.056 128.979 156.871 128.708 156.599C128.438 156.328 128.254 155.982 128.181 155.606C128.107 155.23 128.146 154.841 128.294 154.488C128.442 154.134 128.691 153.832 129.01 153.621C129.329 153.409 129.704 153.297 130.087 153.298C130.341 153.298 130.592 153.349 130.827 153.446C131.061 153.543 131.274 153.686 131.453 153.866C131.632 154.046 131.774 154.259 131.87 154.494C131.967 154.728 132.016 154.98 132.015 155.234Z" stroke="#074687" stroke-miterlimit="10"/>
<path d="M138.637 157.161C139.701 157.161 140.564 156.298 140.564 155.234C140.564 154.169 139.701 153.306 138.637 153.306C137.572 153.306 136.71 154.169 136.71 155.234C136.71 156.298 137.572 157.161 138.637 157.161Z" stroke="#074687" stroke-miterlimit="10"/>
<path d="M147.186 157.161C148.251 157.161 149.113 156.298 149.113 155.234C149.113 154.169 148.251 153.306 147.186 153.306C146.122 153.306 145.259 154.169 145.259 155.234C145.259 156.298 146.122 157.161 147.186 157.161Z" stroke="#074687" stroke-miterlimit="10"/>
<path d="M157.663 155.234C157.661 155.614 157.547 155.986 157.334 156.302C157.122 156.618 156.82 156.864 156.468 157.008C156.115 157.153 155.728 157.19 155.355 157.115C154.982 157.04 154.639 156.855 154.37 156.586C154.101 156.316 153.919 155.972 153.845 155.599C153.771 155.225 153.81 154.838 153.956 154.486C154.102 154.135 154.349 153.834 154.666 153.623C154.983 153.411 155.355 153.298 155.736 153.298C155.989 153.298 156.241 153.349 156.475 153.446C156.709 153.543 156.922 153.686 157.101 153.866C157.28 154.046 157.422 154.259 157.518 154.494C157.615 154.728 157.664 154.98 157.663 155.234Z" stroke="#074687" stroke-miterlimit="10"/>
<path d="M166.22 155.234C166.22 155.616 166.107 155.99 165.894 156.309C165.681 156.627 165.379 156.875 165.026 157.021C164.672 157.168 164.283 157.206 163.908 157.132C163.532 157.057 163.187 156.873 162.917 156.602C162.646 156.331 162.462 155.987 162.387 155.611C162.312 155.236 162.351 154.847 162.497 154.493C162.644 154.139 162.892 153.837 163.21 153.625C163.528 153.412 163.902 153.298 164.285 153.298C164.54 153.297 164.792 153.347 165.027 153.444C165.262 153.541 165.476 153.683 165.656 153.863C165.836 154.043 165.978 154.257 166.075 154.492C166.172 154.727 166.221 154.979 166.22 155.234Z" stroke="#074687" stroke-miterlimit="10"/>
<path d="M269.646 155.234C269.654 155.619 269.547 155.998 269.338 156.322C269.129 156.646 268.828 156.9 268.474 157.052C268.12 157.204 267.728 157.246 267.35 157.174C266.971 157.102 266.623 156.919 266.349 156.647C266.075 156.376 265.889 156.029 265.814 155.651C265.738 155.273 265.778 154.881 265.927 154.526C266.076 154.17 266.327 153.867 266.649 153.656C266.972 153.444 267.35 153.333 267.735 153.338C268.238 153.342 268.719 153.543 269.076 153.897C269.434 154.251 269.638 154.731 269.646 155.234Z" stroke="#074687" stroke-miterlimit="10"/>
<path d="M278.196 155.234C278.196 155.617 278.082 155.991 277.869 156.31C277.656 156.628 277.353 156.876 276.999 157.022C276.645 157.168 276.256 157.206 275.88 157.131C275.505 157.056 275.16 156.871 274.89 156.599C274.619 156.328 274.436 155.982 274.362 155.606C274.288 155.23 274.327 154.841 274.475 154.488C274.623 154.134 274.872 153.832 275.191 153.621C275.511 153.409 275.886 153.297 276.269 153.298C276.522 153.298 276.774 153.349 277.008 153.446C277.242 153.543 277.455 153.686 277.634 153.866C277.813 154.046 277.955 154.259 278.051 154.494C278.148 154.728 278.197 154.98 278.196 155.234Z" stroke="#074687" stroke-miterlimit="10"/>
<path d="M286.769 155.234C286.767 155.614 286.653 155.986 286.44 156.302C286.228 156.618 285.926 156.864 285.574 157.008C285.222 157.153 284.834 157.19 284.461 157.115C284.088 157.04 283.745 156.855 283.476 156.586C283.208 156.316 283.025 155.972 282.951 155.599C282.877 155.225 282.916 154.838 283.062 154.486C283.208 154.135 283.455 153.834 283.772 153.623C284.089 153.411 284.461 153.298 284.842 153.298C285.096 153.298 285.347 153.349 285.581 153.446C285.816 153.543 286.028 153.686 286.207 153.866C286.386 154.046 286.528 154.259 286.625 154.494C286.721 154.728 286.77 154.98 286.769 155.234Z" stroke="#074687" stroke-miterlimit="10"/>
<path d="M295.303 155.234C295.303 155.616 295.189 155.99 294.977 156.309C294.764 156.627 294.462 156.875 294.108 157.021C293.755 157.168 293.365 157.206 292.99 157.132C292.615 157.057 292.27 156.873 291.999 156.602C291.729 156.331 291.544 155.987 291.47 155.611C291.395 155.236 291.433 154.847 291.58 154.493C291.726 154.139 291.974 153.837 292.293 153.625C292.611 153.412 292.985 153.298 293.368 153.298C293.622 153.297 293.874 153.347 294.109 153.444C294.345 153.541 294.558 153.683 294.738 153.863C294.918 154.043 295.061 154.257 295.158 154.492C295.254 154.727 295.304 154.979 295.303 155.234Z" stroke="#074687" stroke-miterlimit="10"/>
<path d="M301.917 157.161C302.981 157.161 303.844 156.298 303.844 155.234C303.844 154.169 302.981 153.306 301.917 153.306C300.853 153.306 299.99 154.169 299.99 155.234C299.99 156.298 300.853 157.161 301.917 157.161Z" stroke="#074687" stroke-miterlimit="10"/>
<path d="M310.466 157.161C311.531 157.161 312.394 156.298 312.394 155.234C312.394 154.169 311.531 153.306 310.466 153.306C309.402 153.306 308.539 154.169 308.539 155.234C308.539 156.298 309.402 157.161 310.466 157.161Z" stroke="#074687" stroke-miterlimit="10"/>
<path d="M261.66 203.834H167.545C166.231 203.834 165.165 204.899 165.165 206.213V215.73C165.165 217.044 166.231 218.109 167.545 218.109H261.66C262.974 218.109 264.039 217.044 264.039 215.73V206.213C264.039 204.899 262.974 203.834 261.66 203.834Z" fill="#04D1FF" stroke="#074687" stroke-linecap="round" stroke-linejoin="round"/>
<path d="M188.324 210.44L188.03 208.608H189.029L188.744 210.44L190.401 209.608L190.711 210.551L188.887 210.861L190.187 212.161L189.394 212.748L188.538 211.106L187.681 212.748L186.888 212.161L188.181 210.861L186.365 210.551L186.674 209.608L188.324 210.44Z" fill="#074687"/>
<path d="M194.438 210.44L194.153 208.608H195.152L194.859 210.44L196.516 209.608L196.825 210.551L195.009 210.861L196.302 212.161L195.509 212.748L194.652 211.106L193.796 212.748L193.003 212.161L194.303 210.861L192.479 210.551L192.789 209.608L194.438 210.44Z" fill="#074687"/>
<path d="M200.553 210.44L200.267 208.608H201.267L200.981 210.44L202.631 209.608L202.948 210.551L201.124 210.861L202.424 212.161L201.631 212.748L200.775 211.106L199.918 212.748L199.125 212.161L200.426 210.861L198.61 210.551L198.919 209.608L200.553 210.44Z" fill="#074687"/>
<path d="M206.668 210.44L206.374 208.608H207.381L207.088 210.44L208.745 209.608L209.055 210.551L207.231 210.861L208.531 212.161L207.738 212.748L206.882 211.106L206.033 212.748L205.24 212.161L206.541 210.861L204.717 210.551L205.026 209.608L206.668 210.44Z" fill="#074687"/>
<path d="M212.79 210.44L212.505 208.608H213.504L213.21 210.44L214.868 209.608L215.177 210.551L213.361 210.861L214.662 212.161L213.869 212.748L213.012 211.091L212.156 212.732L211.363 212.145L212.663 210.845L210.839 210.535L211.156 209.592L212.79 210.44Z" fill="#074687"/>
<path d="M218.913 210.44L218.619 208.608H219.619L219.357 210.44L221.014 209.608L221.324 210.551L219.5 210.861L220.8 212.161L220.007 212.748L219.151 211.106L218.294 212.748L217.501 212.161L218.794 210.861L216.978 210.551L217.287 209.608L218.913 210.44Z" fill="#074687"/>
<path d="M225.028 210.44L224.742 208.608H225.741L225.448 210.44L227.105 209.608L227.415 210.551L225.599 210.861L226.891 212.161L226.098 212.748L225.242 211.106L224.385 212.748L223.592 212.161L224.893 210.861L223.069 210.551L223.378 209.608L225.028 210.44Z" fill="#074687"/>
<path d="M231.142 210.44L230.857 208.608H231.856L231.57 210.44L233.22 209.608L233.537 210.551L231.713 210.861L233.014 212.161L232.221 212.748L231.364 211.106L230.508 212.748L229.715 212.161L231.015 210.861L229.199 210.551L229.508 209.608L231.142 210.44Z" fill="#074687"/>
<path d="M237.265 210.44L236.971 208.608H237.971L237.685 210.44L239.343 209.608L239.652 210.551L237.828 210.861L239.128 212.161L238.335 212.748L237.479 211.106L236.63 212.748L235.837 212.161L237.138 210.861L235.314 210.551L235.623 209.608L237.265 210.44Z" fill="#074687"/>
<path d="M243.379 210.44L243.094 208.608H244.093L243.8 210.44L245.457 209.608L245.767 210.551L243.95 210.861L245.251 212.161L244.458 212.748L243.602 211.106L242.745 212.748L241.952 212.161L243.253 210.861L241.428 210.551L241.746 209.608L243.379 210.44Z" fill="#074687"/>
<path d="M248.985 185.574C267.466 167.093 267.466 137.129 248.985 118.648C230.504 100.168 200.54 100.168 182.059 118.648C163.579 137.129 163.579 167.093 182.059 185.574C200.54 204.055 230.504 204.055 248.985 185.574Z" fill="#04D1FF" stroke="#074687" stroke-linecap="round" stroke-linejoin="round"/>
<path d="M238.391 174.98C251.022 162.35 251.022 141.872 238.391 129.242C225.761 116.612 205.283 116.612 192.653 129.242C180.023 141.872 180.023 162.35 192.653 174.98C205.283 187.611 225.761 187.611 238.391 174.98Z" fill="#074687" stroke="#074687" stroke-linecap="round" stroke-linejoin="round"/>
<path d="M224.656 182.117C241.226 175.448 249.254 156.61 242.586 140.039C235.918 123.468 217.079 115.441 200.508 122.109C183.938 128.777 175.91 147.616 182.578 164.186C189.246 180.757 208.085 188.785 224.656 182.117Z" fill="white" stroke="#074687" stroke-linecap="round" stroke-linejoin="round"/>
<path d="M228.832 168.211C237.724 159.319 237.724 144.902 228.832 136.01C219.94 127.118 205.523 127.118 196.631 136.01C187.739 144.902 187.739 159.319 196.631 168.211C205.523 177.103 219.94 177.103 228.832 168.211Z" fill="#04D1FF" stroke="#074687" stroke-linecap="round" stroke-linejoin="round"/>
<path d="M189.894 114.461L194.732 122.281" stroke="#074687" stroke-miterlimit="10"/>
<path d="M242.721 116.698L237.146 124.137" stroke="#074687" stroke-miterlimit="10"/>
<path d="M240.302 137.691L220.261 141.632L226.011 152.283L240.302 137.691Z" fill="#074687" stroke="#074687" stroke-miterlimit="10"/>
<path d="M71.2722 303.025H65.1495V305.063H71.2722V303.025Z" fill="white" stroke="#074687" stroke-linecap="round" stroke-linejoin="round"/>
<path d="M79.433 303.025H73.3104V305.063H79.433V303.025Z" fill="white" stroke="#074687" stroke-linecap="round" stroke-linejoin="round"/>
<path d="M87.5859 303.025H81.4633V305.063H87.5859V303.025Z" fill="white" stroke="#074687" stroke-linecap="round" stroke-linejoin="round"/>
<path d="M95.7468 303.025H89.6241V305.063H95.7468V303.025Z" fill="white" stroke="#074687" stroke-linecap="round" stroke-linejoin="round"/>
<path d="M103.908 303.025H97.785V305.063H103.908V303.025Z" fill="white" stroke="#074687" stroke-linecap="round" stroke-linejoin="round"/>
<path d="M112.068 303.025H105.946V305.063H112.068V303.025Z" fill="white" stroke="#074687" stroke-linecap="round" stroke-linejoin="round"/>
<path d="M120.229 303.025H114.107V305.063H120.229V303.025Z" fill="white" stroke="#074687" stroke-linecap="round" stroke-linejoin="round"/>
<path d="M128.39 303.025H122.267V305.063H128.39V303.025Z" fill="white" stroke="#074687" stroke-linecap="round" stroke-linejoin="round"/>
<path d="M136.551 303.025H130.428V305.063H136.551V303.025Z" fill="white" stroke="#074687" stroke-linecap="round" stroke-linejoin="round"/>
<path d="M144.712 303.025H138.589V305.063H144.712V303.025Z" fill="white" stroke="#074687" stroke-linecap="round" stroke-linejoin="round"/>
<path d="M152.873 303.025H146.75V305.063H152.873V303.025Z" fill="white" stroke="#074687" stroke-linecap="round" stroke-linejoin="round"/>
<path d="M161.034 303.025H154.911V305.063H161.034V303.025Z" fill="white" stroke="#074687" stroke-linecap="round" stroke-linejoin="round"/>
<path d="M169.194 303.025H163.072V305.063H169.194V303.025Z" fill="white" stroke="#074687" stroke-linecap="round" stroke-linejoin="round"/>
<path d="M177.355 303.025H171.233V305.063H177.355V303.025Z" fill="white" stroke="#074687" stroke-linecap="round" stroke-linejoin="round"/>
<path d="M185.508 303.025H179.385V305.063H185.508V303.025Z" fill="white" stroke="#074687" stroke-linecap="round" stroke-linejoin="round"/>
<path d="M193.669 303.025H187.546V305.063H193.669V303.025Z" fill="white" stroke="#074687" stroke-linecap="round" stroke-linejoin="round"/>
<path d="M201.83 303.025H195.707V305.063H201.83V303.025Z" fill="white" stroke="#074687" stroke-linecap="round" stroke-linejoin="round"/>
<path d="M209.991 303.025H203.868V305.063H209.991V303.025Z" fill="white" stroke="#074687" stroke-linecap="round" stroke-linejoin="round"/>
<path d="M218.151 303.025H212.029V305.063H218.151V303.025Z" fill="white" stroke="#074687" stroke-linecap="round" stroke-linejoin="round"/>
<path d="M226.312 303.025H220.19V305.063H226.312V303.025Z" fill="white" stroke="#074687" stroke-linecap="round" stroke-linejoin="round"/>
<path d="M234.473 303.025H228.35V305.063H234.473V303.025Z" fill="white" stroke="#074687" stroke-linecap="round" stroke-linejoin="round"/>
<path d="M238.922 305.357H61.9851V311.955H238.922V305.357Z" fill="white" stroke="#074687" stroke-linecap="round" stroke-linejoin="round"/>
<path d="M238.922 305.357H195.763V311.955H238.922V305.357Z" fill="#074687" stroke="#074687" stroke-linecap="round" stroke-linejoin="round"/>
<path d="M357.354 311.955H9.18945" stroke="#074687" stroke-miterlimit="10"/>
</svg>
