<svg width="376" height="355" viewBox="0 0 376 355" fill="none" xmlns="http://www.w3.org/2000/svg">
<path d="M187.876 354.963C291.638 354.963 375.753 306.401 375.753 246.496C375.753 186.591 291.638 138.028 187.876 138.028C84.1151 138.028 0 186.591 0 246.496C0 306.401 84.1151 354.963 187.876 354.963Z" fill="#F5F5F5"/>
<path d="M82.6038 16.7711L75.8491 20.6625C75.8881 20.3677 75.9072 20.0706 75.9062 19.7733V17.8154C75.9062 14.3319 73.4588 12.9206 70.4567 14.6664C69.1543 15.4577 68.0406 16.5241 67.1935 17.7909C66.7041 13.4183 63.2696 11.7867 59.1009 14.1933C54.5896 16.7956 50.943 23.1669 50.943 28.3309V31.2596C50.915 32.426 51.1521 33.5836 51.6364 34.6451L46.032 37.9083C45.1511 38.4817 44.4179 39.2548 43.892 40.1648C43.3661 41.0749 43.0623 42.0961 43.0054 43.1456C43.0054 45.0791 44.3596 45.8622 46.032 44.8996L82.6038 23.7543C83.4847 23.1809 84.2179 22.4078 84.7438 21.4978C85.2696 20.5877 85.5734 19.5665 85.6304 18.5169C85.6304 16.5835 84.2762 15.8004 82.6038 16.7711Z" fill="#EBEBEB"/>
<path d="M111.482 36.4324L106.392 39.3693C106.418 39.1472 106.431 38.9239 106.433 38.7003V37.2237C106.433 34.5969 104.589 33.5364 102.313 34.8498C101.335 35.4485 100.5 36.2531 99.8655 37.2074C99.4902 33.9443 96.896 32.6716 93.7552 34.4908C91.961 35.6596 90.4675 37.2349 89.3959 39.0888C88.3244 40.9428 87.705 43.0232 87.5879 45.1614V47.3722C87.5702 48.2515 87.7485 49.1238 88.11 49.9256L83.8842 52.3729C83.2197 52.807 82.6667 53.3913 82.2699 54.0786C81.8731 54.766 81.6436 55.5371 81.6 56.3295C81.6 57.7898 82.6197 58.3772 83.8842 57.6511L111.482 41.7187C112.147 41.2847 112.7 40.7004 113.097 40.013C113.493 39.3257 113.723 38.5546 113.767 37.7622C113.767 36.2937 112.747 35.7064 111.482 36.4324Z" fill="#EBEBEB"/>
<path d="M68.4495 283.888L76.8766 278.993C76.8766 278.993 78.9406 260.956 77.5619 246.99C75.6366 227.362 62.9593 203.753 47.8345 209.292C32.7098 214.831 54.7606 234.875 59.6553 251.509C64.5501 268.143 68.4495 283.888 68.4495 283.888Z" fill="#04D1FF"/>
<path opacity="0.2" d="M68.4495 283.888L76.8766 278.993C76.8766 278.993 78.9406 260.956 77.5619 246.99C75.6366 227.362 62.9593 203.753 47.8345 209.292C32.7098 214.831 54.7606 234.875 59.6553 251.509C64.5501 268.143 68.4495 283.888 68.4495 283.888Z" fill="black"/>
<path d="M72.8806 281.839C72.8142 281.837 72.7488 281.822 72.6883 281.795C72.6277 281.767 72.5732 281.728 72.5277 281.68C72.4822 281.631 72.4468 281.574 72.4234 281.512C72.3999 281.45 72.389 281.384 72.3912 281.317C73.8678 237.697 52.1596 215.76 51.9393 215.548C51.8822 215.503 51.8353 215.447 51.8015 215.383C51.7677 215.319 51.7478 215.248 51.7432 215.176C51.7386 215.104 51.7494 215.031 51.7748 214.963C51.8002 214.895 51.8397 214.834 51.8907 214.782C51.9416 214.731 52.0029 214.69 52.0705 214.664C52.1381 214.638 52.2105 214.626 52.2829 214.63C52.3553 214.634 52.4261 214.653 52.4906 214.686C52.5551 214.719 52.6119 214.766 52.6572 214.822C52.8775 215.034 74.9038 237.297 73.4109 281.35C73.4088 281.417 73.3934 281.483 73.3655 281.544C73.3376 281.605 73.2978 281.66 73.2484 281.706C73.1991 281.751 73.1411 281.787 73.078 281.809C73.0148 281.832 72.9477 281.843 72.8806 281.839Z" fill="white"/>
<path d="M63.9555 287.372L69.9516 283.913C69.9516 283.913 70.9713 271.537 64.9018 256.494C59.6155 243.441 46.5139 232.551 39.9224 234.827C33.3308 237.103 33.4858 241.785 36.6592 246.688C39.8326 251.591 59.4768 263.281 63.9555 287.372Z" fill="#04D1FF"/>
<path d="M67.1218 286.059C66.9855 286.059 66.8548 286.005 66.7584 285.908C66.662 285.812 66.6079 285.681 66.6079 285.545C66.7302 257.971 40.8371 239.33 40.576 239.143C40.4839 239.059 40.4257 238.945 40.4126 238.821C40.3995 238.697 40.4324 238.573 40.5051 238.472C40.5778 238.372 40.6851 238.301 40.8065 238.274C40.9279 238.247 41.055 238.266 41.1634 238.327C41.4244 238.515 67.75 257.465 67.6276 285.569C67.6234 285.701 67.5682 285.825 67.4738 285.917C67.3794 286.008 67.2532 286.059 67.1218 286.059Z" fill="white"/>
<path d="M225.751 249.04L173.541 279.224L173.418 279.159L153.554 267.681C151.825 266.571 150.452 264.987 149.599 263.118C148.746 261.249 148.448 259.174 148.741 257.141L156.083 218.864L208.293 188.68L200.951 226.957C200.658 228.99 200.956 231.065 201.81 232.934C202.663 234.802 204.036 236.386 205.764 237.497L225.751 249.04Z" fill="#074687"/>
<path d="M156.108 218.864L148.799 256.807L201.026 226.663L207.78 191.568L204.485 190.907L156.108 218.864Z" fill="#074687"/>
<path d="M173.524 279.218L153.546 267.683C151.818 266.571 150.447 264.987 149.594 263.118C148.74 261.25 148.441 259.176 148.732 257.143L156.075 218.866L147.37 213.832L138.951 257.624C137.833 263.416 141.105 270.571 146.212 273.516L173.5 289.269L173.524 279.218Z" fill="#074687"/>
<path d="M225.75 249.043L173.523 279.219V289.277L225.75 259.101V249.043Z" fill="#074687"/>
<path d="M276.846 1.00015C279.245 2.38699 281.194 5.89488 281.194 8.87252V169.143C281.107 170.753 280.641 172.319 279.834 173.716C279.028 175.112 277.903 176.298 276.552 177.178L76.79 292.523C74.2284 293.999 70.1984 294.073 67.8163 292.686C65.4342 291.299 63.46 287.791 63.46 284.813V124.543C63.5481 122.932 64.0143 121.365 64.8207 119.967C65.6271 118.57 66.7511 117.382 68.1018 116.5L267.848 1.1633C270.41 -0.321437 274.44 -0.394855 276.846 1.00015Z" fill="#074687"/>
<path d="M76.2337 292.799C73.6721 293.998 70.0255 293.974 67.7821 292.685C65.3755 291.298 63.4258 287.79 63.4258 284.812V124.542C63.4837 122.926 63.9526 121.351 64.7881 119.966L73.5253 124.999C72.6891 126.381 72.2201 127.953 72.1629 129.568V289.838C72.1384 292.587 73.925 293.819 76.2337 292.799Z" fill="#074687"/>
<path d="M281.192 169.143V8.90595C281.192 5.94463 279.12 4.74542 276.55 6.222L76.788 121.534C75.437 122.414 74.3126 123.6 73.5061 124.997C72.6995 126.393 72.2336 127.959 72.1461 129.569V289.84C72.1461 292.801 74.2264 294 76.788 292.524L276.55 177.179C277.901 176.299 279.026 175.112 279.832 173.716C280.639 172.32 281.105 170.753 281.192 169.143Z" fill="#074687"/>
<path d="M270.996 14.3697L80.2072 124.583C79.1269 125.287 78.2278 126.237 77.5829 127.353C76.938 128.47 76.5654 129.724 76.4954 131.011V273.31C76.4954 275.675 78.1269 276.638 80.2072 275.455L271.004 165.242C272.084 164.537 272.983 163.588 273.628 162.471C274.273 161.354 274.646 160.101 274.716 158.813V16.5152C274.716 14.1494 273.052 13.1868 270.996 14.3697Z" fill="#04D1FF"/>
<path opacity="0.8" d="M270.996 14.3697L80.2072 124.583C79.1269 125.287 78.2278 126.237 77.5829 127.353C76.938 128.47 76.5654 129.724 76.4954 131.011V273.31C76.4954 275.675 78.1269 276.638 80.2072 275.455L271.004 165.242C272.084 164.537 272.983 163.588 273.628 162.471C274.273 161.354 274.646 160.101 274.716 158.813V16.5152C274.716 14.1494 273.052 13.1868 270.996 14.3697Z" fill="white"/>
<path d="M90.0914 257.958C89.0798 257.958 88.4598 257.142 88.4598 255.747V143.054L262.729 42.4508V154.671C262.661 155.867 262.313 157.03 261.714 158.067C261.114 159.104 260.28 159.986 259.278 160.642L91.5191 257.509C91.0902 257.78 90.5982 257.935 90.0914 257.958Z" fill="#F5F5F5"/>
<path d="M262.322 43.168V154.686C262.252 155.814 261.922 156.909 261.355 157.886C260.789 158.864 260.002 159.695 259.059 160.315L91.3158 257.158C90.9477 257.39 90.5266 257.525 90.0921 257.549C88.999 257.549 88.8848 256.293 88.8848 255.747V143.29L262.322 43.168ZM263.137 41.7567L88.069 142.833V255.747C88.069 257.378 88.8848 258.365 90.0921 258.365C90.6712 258.345 91.2344 258.17 91.7237 257.859L259.475 161.009C260.541 160.315 261.428 159.379 262.065 158.278C262.701 157.176 263.069 155.94 263.137 154.67V41.7404V41.7567Z" fill="#E0E0E0"/>
<path d="M88.069 142.817V158.668L263.137 57.5912V41.7404L88.069 142.817Z" fill="#04D1FF"/>
<path d="M197.915 85.5901V89.0001C197.915 89.6936 198.413 89.9791 199.017 89.6365L252.859 58.5549V52.6322L199.017 83.7138C198.701 83.9205 198.437 84.1974 198.246 84.5229C198.055 84.8484 197.942 85.2136 197.915 85.5901Z" fill="#FAFAFA"/>
<path d="M258.611 49.3047C259.214 48.9539 259.704 49.2394 259.704 49.941V53.351C259.682 53.731 259.572 54.1007 259.382 54.4307C259.192 54.7606 258.928 55.0418 258.611 55.2518L252.843 58.5802V52.6331L258.611 49.3047Z" fill="#074687"/>
<path d="M258.176 53.9789L257.54 53.7831C257.603 53.5158 257.636 53.2421 257.638 52.9673C257.667 52.7076 257.628 52.4447 257.525 52.2044C257.422 51.9642 257.259 51.7548 257.051 51.5968C256.909 51.5111 256.747 51.4658 256.581 51.4658C256.416 51.4658 256.254 51.5111 256.112 51.5968C255.703 51.9099 255.373 52.3156 255.15 52.7807C254.928 53.2458 254.818 53.7571 254.832 54.2726C254.803 54.5335 254.841 54.7975 254.944 55.039C255.047 55.2805 255.211 55.4914 255.419 55.6513C255.543 55.7217 255.684 55.7583 255.827 55.7573C256.014 55.7546 256.198 55.701 256.357 55.6023C256.845 55.2663 257.209 54.7789 257.393 54.2155L258.038 54.4113H258.111C258.162 54.4102 258.212 54.3931 258.253 54.3624C258.294 54.3316 258.324 54.2888 258.339 54.2399C258.345 54.1845 258.332 54.1289 258.302 54.0817C258.273 54.0345 258.228 53.9984 258.176 53.9789ZM256.112 55.2189C256.043 55.2598 255.964 55.2814 255.884 55.2814C255.804 55.2814 255.725 55.2598 255.656 55.2189C255.525 55.098 255.424 54.9476 255.363 54.7801C255.302 54.6127 255.282 54.4331 255.305 54.2563C255.298 53.8245 255.389 53.3969 255.571 53.0055C255.754 52.6141 256.022 52.2691 256.357 51.9965C256.443 51.9421 256.541 51.9112 256.643 51.9068C256.699 51.8936 256.758 51.8936 256.814 51.9068C256.943 52.0288 257.042 52.1794 257.103 52.3466C257.164 52.5137 257.185 52.6927 257.165 52.8694C257.183 53.3157 257.097 53.7602 256.915 54.1679C256.732 54.5756 256.458 54.9353 256.112 55.2189Z" fill="#FAFAFA"/>
<path d="M88.069 135.158C88.1362 133.888 88.5023 132.652 89.1373 131.551C89.7724 130.449 90.6586 129.513 91.7237 128.819L259.475 31.9685C261.498 30.8019 263.137 31.7482 263.137 34.0814V41.7417L88.069 142.818V135.158Z" fill="#074687"/>
<path d="M242.538 45.6995C242.04 46.0252 241.625 46.4638 241.327 46.9797C241.029 47.4956 240.857 48.0743 240.825 48.669C240.825 49.7703 241.592 50.2108 242.538 49.6643C243.04 49.3396 243.458 48.9004 243.757 48.3827C244.057 47.8651 244.229 47.2838 244.26 46.6866C244.26 45.6179 243.493 45.1529 242.538 45.6995Z" fill="#04D1FF"/>
<path d="M248.552 42.2387C248.051 42.5625 247.634 43.0005 247.335 43.5166C247.036 44.0328 246.863 44.6124 246.831 45.2082C246.831 46.3013 247.598 46.75 248.552 46.2034C249.052 45.8769 249.468 45.4371 249.765 44.9197C250.063 44.4023 250.234 43.8219 250.265 43.2258C250.265 42.1326 249.499 41.6921 248.552 42.2387Z" fill="#04D1FF"/>
<path d="M254.556 38.7805C254.058 39.1062 253.643 39.5447 253.345 40.0606C253.047 40.5765 252.875 41.1552 252.843 41.7499C252.843 42.8431 253.61 43.2918 254.556 42.7452C255.055 42.4182 255.471 41.9782 255.768 41.4609C256.066 40.9436 256.238 40.3635 256.269 39.7676C256.261 38.6744 255.502 38.2747 254.556 38.7805Z" fill="#04D1FF"/>
<path d="M164.821 146.545L186.391 134.096C187.753 133.281 188.838 133.941 188.838 135.524V160.422C188.793 161.277 188.549 162.111 188.123 162.854C187.698 163.598 187.105 164.232 186.391 164.705L164.821 177.154C163.459 177.97 162.374 177.301 162.374 175.726V150.853C162.413 149.993 162.655 149.154 163.081 148.405C163.506 147.657 164.103 147.019 164.821 146.545Z" fill="#04D1FF"/>
<path d="M170.743 177.561L183.795 170.04C184.774 169.469 185.557 169.877 185.557 170.929C185.513 171.522 185.331 172.097 185.025 172.607C184.719 173.117 184.298 173.548 183.795 173.866L170.743 181.387C169.764 181.95 168.972 181.551 168.972 180.498C169.016 179.904 169.198 179.328 169.506 178.818C169.814 178.308 170.237 177.877 170.743 177.561Z" fill="#074687"/>
<path d="M175.416 145.632C177.709 144.311 179.561 145.379 179.561 148.023C179.483 149.46 179.068 150.858 178.348 152.104C177.628 153.351 176.623 154.409 175.416 155.193C173.132 156.515 171.28 155.446 171.28 152.803C171.358 151.367 171.773 149.969 172.491 148.723C173.21 147.478 174.212 146.419 175.416 145.632Z" fill="#FAFAFA"/>
<path d="M183.583 159.754C183.583 155.422 180.532 153.488 176.779 155.675L174.43 157.037C170.669 159.207 167.626 164.477 167.626 168.817V169.984L183.583 160.782V159.754Z" fill="#FAFAFA"/>
<path d="M204.607 123.555L226.169 111.106C227.539 110.29 228.616 110.951 228.616 112.534V137.432C228.572 138.287 228.328 139.121 227.903 139.865C227.478 140.609 226.884 141.242 226.169 141.714L204.607 154.163C203.245 154.979 202.16 154.31 202.16 152.736V127.838C202.204 126.982 202.448 126.149 202.873 125.405C203.298 124.661 203.892 124.027 204.607 123.555Z" fill="#04D1FF"/>
<path opacity="0.2" d="M204.607 123.555L226.169 111.106C227.539 110.29 228.616 110.951 228.616 112.534V137.432C228.572 138.287 228.328 139.121 227.903 139.865C227.478 140.609 226.884 141.242 226.169 141.714L204.607 154.163C203.245 154.979 202.16 154.31 202.16 152.736V127.838C202.204 126.982 202.448 126.149 202.873 125.405C203.298 124.661 203.892 124.027 204.607 123.555Z" fill="black"/>
<path d="M210.529 154.574L223.581 147.052C224.552 146.489 225.343 146.889 225.343 147.941C225.3 148.535 225.119 149.11 224.813 149.62C224.506 150.13 224.085 150.561 223.581 150.878L210.529 158.4C209.55 158.962 208.758 158.563 208.758 157.51C208.801 156.916 208.984 156.34 209.292 155.83C209.599 155.32 210.023 154.889 210.529 154.574Z" fill="#074687"/>
<path d="M215.202 122.642C217.495 121.32 219.347 122.389 219.347 125.032C219.27 126.469 218.855 127.868 218.134 129.115C217.414 130.361 216.41 131.419 215.202 132.203C212.918 133.524 211.066 132.456 211.066 129.813C211.144 128.377 211.56 126.979 212.278 125.733C212.997 124.488 213.998 123.429 215.202 122.642Z" fill="#FAFAFA"/>
<path d="M223.369 136.763C223.369 132.431 220.318 130.498 216.565 132.684L214.216 134.047C210.455 136.217 207.412 141.487 207.412 145.827V146.993L223.369 137.799V136.763Z" fill="#FAFAFA"/>
<path d="M125.076 169.479L146.645 157.03C148.008 156.214 149.093 156.883 149.093 158.457V183.355C149.05 184.211 148.806 185.045 148.38 185.789C147.955 186.533 147.361 187.166 146.645 187.638L125.076 200.087C123.713 200.903 122.628 200.242 122.628 198.659V173.761C122.673 172.906 122.918 172.073 123.343 171.329C123.768 170.585 124.362 169.952 125.076 169.479Z" fill="#04D1FF"/>
<path opacity="0.5" d="M125.076 169.479L146.645 157.03C148.008 156.214 149.093 156.883 149.093 158.457V183.355C149.05 184.211 148.806 185.045 148.38 185.789C147.955 186.533 147.361 187.166 146.645 187.638L125.076 200.087C123.713 200.903 122.628 200.242 122.628 198.659V173.761C122.673 172.906 122.918 172.073 123.343 171.329C123.768 170.585 124.362 169.952 125.076 169.479Z" fill="white"/>
<path d="M130.997 200.492L144.05 192.971C145.029 192.408 145.812 192.808 145.812 193.86C145.769 194.454 145.587 195.029 145.281 195.539C144.975 196.049 144.553 196.48 144.05 196.797L130.997 204.319C130.018 204.881 129.227 204.482 129.227 203.429C129.27 202.835 129.453 202.259 129.76 201.749C130.068 201.239 130.492 200.808 130.997 200.492Z" fill="#074687"/>
<path d="M135.671 168.562C137.963 167.241 139.815 168.318 139.815 170.953C139.738 172.391 139.322 173.791 138.602 175.038C137.882 176.286 136.878 177.345 135.671 178.132C133.387 179.445 131.535 178.376 131.535 175.733C131.613 174.297 132.028 172.9 132.747 171.654C133.465 170.408 134.467 169.349 135.671 168.562Z" fill="#FAFAFA"/>
<path d="M143.838 182.668C143.838 178.328 140.787 176.403 137.034 178.589L134.709 179.952C130.948 182.122 127.905 187.4 127.905 191.74V192.906L143.862 183.696L143.838 182.668Z" fill="#FAFAFA"/>
<path d="M331.873 117.918L323.209 112.917C314.472 108.022 302.496 108.716 289.223 116.376C276.807 123.53 265.484 135.474 256.951 149.293C247.08 165.201 240.872 183.622 240.872 200.133C240.872 215.535 246.264 226.336 254.985 231.402L263.738 236.419C272.549 242.032 284.949 241.534 298.817 233.572C325.526 218.146 347.177 180.644 347.177 149.807C347.145 133.72 341.271 122.682 331.873 117.918Z" fill="#04D1FF"/>
<path opacity="0.1" d="M263.397 236.217L254.986 231.404C246.265 226.346 240.881 215.529 240.881 200.127C240.881 183.615 247.089 165.211 256.952 149.303L266.48 154.842C256.609 170.75 250.417 189.146 250.417 205.642C250.417 220.367 255.345 230.89 263.397 236.217Z" fill="black"/>
<path opacity="0.4" d="M331.522 117.715C322.907 113.538 311.412 114.598 298.792 121.875C286.36 129.062 275.036 141.014 266.479 154.841L256.95 149.302C265.492 135.434 276.823 123.539 289.231 116.385C302.496 108.717 314.48 107.991 323.225 112.918L331.522 117.715Z" fill="white"/>
<path d="M277.094 233.638C273.577 233.712 270.115 232.766 267.125 230.914L266.986 230.824L266.709 230.669C260.337 226.329 256.829 217.453 256.829 205.632C256.829 190.948 262.32 173.727 271.905 158.316C280.226 144.872 290.889 133.949 301.943 127.561C308.428 123.817 314.775 121.851 320.273 121.851C323.067 121.809 325.834 122.391 328.374 123.556L328.668 123.719L328.815 123.792C336.246 127.553 340.505 137.049 340.505 149.849C340.505 178.572 320.273 213.611 295.4 227.96C288.898 231.664 282.592 233.638 277.094 233.638Z" fill="#FAFAFA"/>
<mask id="mask0_1331_5258" style="mask-type:luminance" maskUnits="userSpaceOnUse" x="256" y="121" width="85" height="113">
<path d="M277.091 233.64C273.574 233.714 270.112 232.768 267.122 230.916L266.983 230.826L266.706 230.671C260.335 226.331 256.827 217.455 256.827 205.634C256.827 190.95 262.317 173.729 271.902 158.319C280.224 144.874 290.886 133.951 301.94 127.563C308.425 123.819 314.772 121.853 320.271 121.853C323.064 121.811 325.832 122.393 328.371 123.558L328.665 123.721L328.812 123.794C336.244 127.555 340.502 137.051 340.502 149.851C340.502 178.575 320.271 213.613 295.397 227.963C288.895 231.666 282.589 233.64 277.091 233.64Z" fill="white"/>
</mask>
<g mask="url(#mask0_1331_5258)">
<path d="M300.905 187.149C288.595 190.413 278.609 183.136 278.609 170.834V162.945C278.609 152.511 287.069 141.791 297.503 138.993L304.299 137.174C314.733 134.376 323.192 140.568 323.192 151.002V158.89C323.16 171.193 313.215 183.845 300.905 187.149Z" fill="#074687"/>
<path d="M331.212 218.248L341.05 249.044L328.748 255.783L321.374 226.814L331.212 218.248Z" fill="#FFA8A7"/>
<path d="M309.675 191.874C316.201 190.243 323.437 191.058 325.917 196.279C328.397 201.5 333.822 220.255 333.822 220.255C330.447 224.804 325.506 227.94 319.954 229.058L309.675 191.874Z" fill="#04D1FF"/>
<path opacity="0.3" d="M309.675 191.874C316.201 190.243 323.437 191.058 325.917 196.279C328.397 201.5 333.822 220.255 333.822 220.255C330.447 224.804 325.506 227.94 319.954 229.058L309.675 191.874Z" fill="black"/>
<path d="M296.116 195.773L290.667 197.495C284.736 200.758 282.599 205.995 280.111 212.742C278.295 217.532 278.128 222.791 279.637 227.687L286.58 249.02C286.58 249.02 283.317 258.956 279.556 268.542C296.973 275.068 318.714 263.37 323.959 253.776C324.188 251.973 323.886 244.223 324.302 235.201C324.759 225.574 325.885 214.545 324.596 209.014C322.189 198.759 317.694 189.728 308.737 192.127L296.116 195.773Z" fill="#F5F5F5"/>
<path d="M290.669 197.494C284.73 200.056 275.985 203.776 272.991 220.899C269.94 238.251 269.352 242.347 269.352 242.347C269.352 242.347 274.549 246.939 284.412 244.239C284.412 244.239 293.108 209.446 290.669 197.494Z" fill="#04D1FF"/>
<path opacity="0.3" d="M290.669 197.494C284.73 200.056 275.985 203.776 272.991 220.899C269.94 238.251 269.352 242.347 269.352 242.347C269.352 242.347 274.549 246.939 284.412 244.239C284.412 244.239 293.108 209.446 290.669 197.494Z" fill="black"/>
<path d="M281.408 220.59C288.383 218.722 294.044 211.551 294.044 204.576V182.142C287.061 184.018 281.408 191.189 281.408 198.164V220.59Z" fill="#074687"/>
<path d="M284.671 243.16C285.772 238.535 286.931 233.273 288.024 227.66C288.024 227.66 287.975 239.261 286.262 248.055L284.671 243.16Z" fill="#E0E0E0"/>
<path d="M315.875 144.474C318.224 145.445 321.137 151.507 320.851 165.922C320.606 178.158 317.196 182.05 315.483 183.371C313.77 184.693 310.466 185.052 307.26 185.297V192.59C307.26 192.59 311.698 197.354 311.412 200.748C311.127 204.141 305.008 206.597 300.856 204.443C298.114 202.869 295.781 200.673 294.044 198.031V180.426C294.044 180.426 291.874 184.35 288.334 182.58C284.793 180.81 284.654 174.12 286.702 171.159C288.75 168.198 293.228 167.765 294.044 170.882C294.044 170.882 299.159 169.731 305.979 163.539C311.45 158.571 314.96 151.808 315.875 144.474Z" fill="#83A3C3"/>
<path d="M309.104 166.013C309.123 166.434 309.012 166.851 308.788 167.208C308.563 167.565 308.235 167.846 307.847 168.011C307.121 168.24 306.493 167.734 306.461 166.869C306.44 166.448 306.548 166.031 306.771 165.674C306.994 165.317 307.322 165.036 307.709 164.87C308.476 164.642 309.063 165.148 309.104 166.013Z" fill="#074687"/>
<path d="M309.457 176.216L312.533 176.526C312.457 177.011 312.217 177.456 311.853 177.785C311.49 178.115 311.024 178.31 310.534 178.337C309.685 178.248 309.204 177.301 309.457 176.216Z" fill="#074687"/>
<path d="M319.956 158.418L317.272 156.99C317.762 155.979 318.757 155.473 319.499 155.872C320.242 156.272 320.438 157.382 319.956 158.418Z" fill="#074687"/>
<path d="M319.335 162.169C319.355 162.589 319.246 163.006 319.021 163.362C318.796 163.719 318.467 163.997 318.078 164.159C317.352 164.396 316.732 163.882 316.691 163.017C316.671 162.597 316.78 162.182 317.003 161.826C317.226 161.47 317.553 161.191 317.94 161.027C318.674 160.79 319.294 161.304 319.335 162.169Z" fill="#074687"/>
<path d="M313.094 162.97L313.306 172.107L317.491 169.488L313.094 162.97Z" fill="#074687"/>
<path d="M307.26 185.299C303.875 185.69 296.916 185.25 295.839 182.362C296.221 183.752 297.09 184.959 298.286 185.764C300.367 187.265 307.26 187.73 307.26 187.73V185.299Z" fill="#074687"/>
</g>
<path d="M286.905 218.662L280.24 214.811H280.167C276.855 212.935 272.311 213.18 267.277 216.117C262.57 218.833 258.304 223.361 255.041 228.598C251.304 234.635 248.947 241.651 248.947 247.883C248.947 253.716 250.994 257.82 254.298 259.737L261.069 263.604C264.406 265.733 269.121 265.545 274.359 262.519C284.482 256.67 292.697 242.45 292.697 230.76C292.697 224.658 290.47 220.465 286.905 218.662Z" fill="#074687"/>
<path d="M260.931 263.511L254.298 259.726C250.986 257.809 248.947 253.706 248.947 247.865C248.947 241.608 251.296 234.624 255.041 228.596L262.122 232.675C258.377 238.711 256.028 245.678 256.028 251.935C256.011 257.499 257.896 261.496 260.931 263.511Z" fill="#074687"/>
<path d="M286.769 218.563C283.505 216.981 279.149 217.381 274.36 220.146C269.572 222.912 265.387 227.398 262.124 232.644L255.042 228.565C258.306 223.32 262.58 218.776 267.279 216.083C272.313 213.179 276.857 212.902 280.169 214.77H280.242L286.769 218.563Z" fill="#074687"/>
<path d="M282.313 234.284L276.202 237.817V228.027C276.202 226.453 275.387 225.661 274.359 226.249C273.331 226.836 272.515 228.582 272.515 230.156V239.946L266.397 243.478C265.891 243.88 265.484 244.393 265.208 244.977C264.932 245.562 264.795 246.201 264.806 246.848C264.806 248.202 265.524 248.887 266.397 248.373L272.515 244.849V254.638C272.515 256.213 273.331 257.004 274.359 256.417C275.387 255.829 276.202 254.075 276.202 252.509V242.72L282.313 239.187C282.82 238.787 283.228 238.274 283.504 237.689C283.78 237.105 283.917 236.464 283.903 235.818C283.903 234.464 283.186 233.779 282.313 234.284Z" fill="#F5F5F5"/>
</svg>
