<svg width="351" height="349" viewBox="0 0 351 349" fill="none" xmlns="http://www.w3.org/2000/svg">
<path d="M319.571 348.299H153.083C150.992 348.309 148.92 347.893 146.994 347.079C145.068 346.264 143.328 345.066 141.879 343.559C140.43 342.051 139.302 340.265 138.564 338.308C137.826 336.351 137.493 334.265 137.585 332.176L149.812 16.1227C150.019 11.8083 151.867 7.73627 154.977 4.73934C158.088 1.7424 162.226 0.047099 166.545 0.000173953H333.033C335.124 -0.00975256 337.195 0.405257 339.121 1.22002C341.047 2.03478 342.788 3.23231 344.237 4.73997C345.686 6.24762 346.814 8.03397 347.552 9.99064C348.29 11.9473 348.623 14.0335 348.53 16.1227L336.304 332.176C336.096 336.49 334.248 340.562 331.138 343.559C328.028 346.556 323.89 348.252 319.571 348.299Z" fill="#0171E5"/>
<path d="M348.419 122.75L347.402 148.869L349 148.931L350.017 122.812L348.419 122.75Z" fill="#0171E5"/>
<path d="M349.25 102.416L348.828 113.209L350.426 113.271L350.848 102.478L349.25 102.416Z" fill="#0171E5"/>
<path opacity="0.8" d="M319.571 348.299H153.083C150.992 348.309 148.92 347.893 146.994 347.079C145.068 346.264 143.328 345.066 141.879 343.559C140.43 342.051 139.302 340.265 138.564 338.308C137.826 336.351 137.493 334.265 137.585 332.176L149.812 16.1227C150.019 11.8083 151.867 7.73627 154.977 4.73934C158.088 1.7424 162.226 0.047099 166.545 0.000173953H333.033C335.124 -0.00975256 337.195 0.405257 339.121 1.22002C341.047 2.03478 342.788 3.23231 344.237 4.73997C345.686 6.24762 346.814 8.03397 347.552 9.99064C348.29 11.9473 348.623 14.0335 348.53 16.1227L336.304 332.176C336.096 336.49 334.248 340.562 331.138 343.559C328.028 346.556 323.89 348.252 319.571 348.299Z" fill="white"/>
<path d="M303.637 341.888H156.805C154.972 341.895 153.156 341.531 151.468 340.816C149.78 340.102 148.254 339.053 146.984 337.732C145.713 336.411 144.723 334.845 144.075 333.131C143.427 331.416 143.133 329.588 143.212 327.757L154.653 31.7657C154.838 27.9825 156.461 24.4129 159.19 21.7864C161.92 19.1599 165.549 17.6749 169.336 17.635H316.169C318.002 17.6253 319.819 17.9883 321.508 18.7019C323.197 19.4156 324.723 20.465 325.994 21.7864C327.266 23.1079 328.255 24.6739 328.903 26.3893C329.55 28.1048 329.842 29.9339 329.762 31.7657L318.32 327.757C318.132 331.539 316.508 335.107 313.779 337.732C311.051 340.358 307.424 341.844 303.637 341.888Z" fill="#0171E5"/>
<path opacity="0.8" d="M237.751 325.126C241.638 321.314 241.816 315.194 238.15 311.457C234.484 307.72 228.362 307.781 224.476 311.593C220.59 315.406 220.411 321.525 224.077 325.262C227.743 328.999 233.865 328.939 237.751 325.126Z" fill="white"/>
<path d="M233.725 251.025C225.971 251.077 218.288 249.549 211.144 246.534C203.999 243.52 197.544 239.082 192.171 233.491C186.798 227.901 182.62 221.274 179.891 214.016C177.163 206.758 175.941 199.02 176.3 191.274L178.263 140.319H178.161C177.586 140.317 177.013 140.268 176.446 140.174L174.468 191.274C174.101 199.256 175.363 207.229 178.176 214.707C180.99 222.185 185.296 229.013 190.834 234.773C196.371 240.533 203.023 245.106 210.384 248.212C217.745 251.319 225.662 252.894 233.652 252.842C250.586 252.767 266.797 245.969 278.72 233.943C278.286 233.504 277.906 233.016 277.586 232.489C271.858 238.319 265.034 242.958 257.507 246.139C249.979 249.32 241.897 250.981 233.725 251.025Z" fill="white"/>
<path d="M240.761 68.851C209.606 68.851 182.9 92.1116 177.695 122.19C178.083 122.168 178.471 122.168 178.858 122.19C179.091 122.19 179.309 122.19 179.542 122.19C184.688 93.1147 210.551 70.6973 240.688 70.6973C248.443 70.6435 256.128 72.17 263.274 75.1836C270.42 78.1972 276.877 82.6347 282.251 88.2256C287.626 93.8166 291.805 100.444 294.535 107.703C297.264 114.962 298.487 122.701 298.127 130.448L295.772 191.303C295.39 200.807 292.797 210.091 288.198 218.417C288.775 218.584 289.328 218.829 289.84 219.144C294.55 210.591 297.203 201.059 297.589 191.303L299.944 130.448C300.318 122.463 299.061 114.487 296.25 107.004C293.439 99.5212 289.133 92.6896 283.595 86.9258C278.057 81.1619 271.403 76.5867 264.038 73.4791C256.674 70.3716 248.754 68.7968 240.761 68.851Z" fill="white"/>
<path d="M240.281 81.2961C250.077 81.2722 259.671 84.0846 267.903 89.3937C268.164 88.8304 268.481 88.2946 268.848 87.7946C260.332 82.3277 250.416 79.4399 240.296 79.4789C228.844 79.5157 217.68 83.068 208.313 89.6554C208.634 90.1696 208.902 90.7151 209.112 91.2837C218.22 84.8132 229.109 81.324 240.281 81.2961Z" fill="white"/>
<path d="M184.019 197.119C183.568 194.005 183.402 190.857 183.525 187.713L185.604 133.923C186.057 122.835 189.904 112.153 196.623 103.321C196.103 103.058 195.615 102.736 195.17 102.361C188.25 111.474 184.292 122.49 183.83 133.923L181.751 187.713C181.624 191.003 181.799 194.298 182.274 197.555C182.84 197.353 183.425 197.207 184.019 197.119Z" fill="white"/>
<path d="M281.961 99.8613C281.52 100.31 281.033 100.71 280.507 101.053C287.713 110.476 291.377 122.131 290.858 133.982L288.779 187.772C288.115 201.87 282.079 215.18 271.912 224.969C261.744 234.758 248.215 240.284 234.102 240.413C222.897 240.465 211.992 236.799 203.093 229.99C202.572 230.394 202.006 230.736 201.406 231.007C210.7 238.328 222.199 242.284 234.029 242.231C248.631 242.098 262.627 236.382 273.147 226.255C283.666 216.127 289.91 202.358 290.596 187.772L292.675 133.982C293.221 121.703 289.428 109.624 281.961 99.8613Z" fill="white"/>
<path d="M191.885 155.308L192.568 137.542C193.143 125.348 198.363 113.837 207.157 105.37C215.951 96.9028 227.652 92.1225 239.86 92.0098C250.136 91.9341 260.106 95.5027 268.001 102.082C275.895 108.662 281.202 117.826 282.979 127.947C283.574 127.842 284.177 127.788 284.782 127.788C282.974 117.214 277.467 107.628 269.243 100.741C261.019 93.8539 250.615 90.1152 239.889 90.1926C227.193 90.305 215.022 95.2745 205.875 104.08C196.729 112.886 191.301 124.86 190.707 137.542L190.053 155.439C190.472 155.387 190.895 155.358 191.318 155.351L191.885 155.308Z" fill="white"/>
<path d="M253.497 225.598C247.555 228.277 241.115 229.669 234.597 229.683C228.678 229.739 222.81 228.587 217.351 226.297C211.892 224.007 206.958 220.628 202.85 216.366C198.741 212.104 195.546 207.049 193.458 201.51C191.37 195.97 190.434 190.064 190.708 184.15L191.129 173.451H190.562C190.144 173.452 189.726 173.423 189.312 173.363L188.89 184.121C188.606 190.26 189.575 196.393 191.738 202.145C193.901 207.898 197.213 213.149 201.472 217.58C205.731 222.01 210.848 225.527 216.511 227.915C222.173 230.303 228.263 231.513 234.408 231.471C241.307 231.463 248.123 229.976 254.398 227.11C254.04 226.642 253.738 226.135 253.497 225.598Z" fill="white"/>
<path d="M284.084 145.989C283.822 145.989 283.56 145.989 283.313 145.989L281.859 184.195C281.362 195.806 276.6 206.826 268.484 215.146C268.848 215.643 269.155 216.18 269.4 216.745C278.06 208.061 283.153 196.448 283.676 184.195L285.13 145.975C284.796 145.96 284.447 145.989 284.084 145.989Z" fill="white"/>
<path d="M255.749 104.338C250.651 102.037 245.119 100.852 239.525 100.863C228.734 100.959 218.389 105.182 210.614 112.665C202.838 120.149 198.223 130.325 197.714 141.104L196.188 180.575C196.105 182.901 196.222 185.231 196.537 187.538C197.066 187.056 197.646 186.632 198.267 186.273C198.033 184.383 197.945 182.478 198.005 180.575L199.532 141.104C200.018 130.812 204.425 121.096 211.849 113.951C219.272 106.806 229.149 102.773 239.453 102.681C244.743 102.688 249.972 103.823 254.79 106.01C255.055 105.423 255.377 104.863 255.749 104.338Z" fill="white"/>
<path d="M269.736 115.199C269.382 115.722 268.978 116.209 268.529 116.653C273.996 123.598 276.787 132.276 276.394 141.106L274.868 180.576C274.39 190.571 270.214 200.031 263.15 207.119C256.087 214.207 246.641 218.415 236.647 218.927C236.458 219.578 236.199 220.206 235.877 220.802C246.496 220.473 256.599 216.146 264.165 208.687C271.731 201.229 276.203 191.189 276.685 180.576L278.211 141.106C278.628 131.727 275.615 122.518 269.736 115.199Z" fill="white"/>
<path d="M231.834 114.195C231.863 113.558 231.95 112.925 232.095 112.305C227.452 113.312 223.067 115.267 219.215 118.047C219.776 118.333 220.294 118.695 220.756 119.123C224.105 116.798 227.864 115.125 231.834 114.195Z" fill="white"/>
<path d="M266.478 185.14C264.432 191.817 260.315 197.67 254.722 201.852C249.129 206.033 242.35 208.327 235.367 208.4C231.295 208.429 227.261 207.627 223.51 206.043C219.759 204.459 216.37 202.127 213.551 199.19C210.731 196.252 208.541 192.77 207.112 188.957C205.684 185.144 205.049 181.08 205.245 177.013L206.495 144.666C206.65 140.843 207.498 137.08 208.995 133.559C208.476 133.139 208.016 132.65 207.629 132.105C205.869 136.054 204.882 140.303 204.721 144.623L203.471 176.969C203.273 181.267 203.953 185.559 205.468 189.586C206.983 193.612 209.302 197.287 212.283 200.389C215.265 203.49 218.847 205.951 222.81 207.624C226.774 209.296 231.036 210.144 235.338 210.116C242.734 210.032 249.912 207.6 255.836 203.171C261.76 198.742 266.123 192.544 268.295 185.474C267.681 185.418 267.072 185.306 266.478 185.14Z" fill="white"/>
<path d="M269.212 144.667L268.95 151.383C269.43 151.297 269.916 151.249 270.404 151.238H270.796L271.043 144.623C271.33 137.756 269.372 130.983 265.466 125.328C261.561 119.673 255.92 115.443 249.396 113.279C249.454 113.927 249.454 114.579 249.396 115.227C255.412 117.372 260.582 121.388 264.149 126.686C267.715 131.984 269.489 138.286 269.212 144.667Z" fill="white"/>
<path d="M238.682 122.19C231.7 122.257 225.008 124.993 219.98 129.838C214.952 134.682 211.968 141.268 211.641 148.242L211.365 155.424C211.973 155.464 212.576 155.556 213.168 155.7L213.459 148.242C213.764 141.744 216.549 135.61 221.242 131.104C225.935 126.598 232.176 124.063 238.682 124.022C241.823 124.005 244.935 124.627 247.828 125.851C250.721 127.074 253.335 128.873 255.511 131.139C257.687 133.405 259.379 136.089 260.485 139.03C261.591 141.97 262.087 145.104 261.943 148.242L260.968 173.451C260.695 179.126 258.532 184.547 254.823 188.852C251.114 193.156 246.072 196.097 240.499 197.206C240.565 197.815 240.565 198.429 240.499 199.038C246.553 197.903 252.047 194.761 256.094 190.118C260.14 185.475 262.503 179.603 262.8 173.451L263.774 148.242C263.931 144.861 263.396 141.483 262.202 138.315C261.009 135.147 259.182 132.255 256.834 129.817C254.486 127.379 251.665 125.445 248.544 124.134C245.423 122.822 242.067 122.161 238.682 122.19Z" fill="white"/>
<path d="M221.701 143.561C222.079 143.538 222.458 143.538 222.835 143.561C224.401 140.863 226.643 138.621 229.341 137.056C232.038 135.49 235.098 134.656 238.216 134.635C240.118 134.635 242.006 134.959 243.799 135.594C244.002 135.014 244.26 134.454 244.57 133.922C242.558 133.185 240.432 132.806 238.289 132.803C234.68 132.84 231.149 133.86 228.075 135.753C225.002 137.646 222.502 140.34 220.844 143.546C221.13 143.537 221.416 143.542 221.701 143.561Z" fill="white"/>
<path d="M253.976 169.89C253.881 171.971 253.418 174.018 252.609 175.938C253.176 176.147 253.709 176.436 254.194 176.795C255.146 174.611 255.688 172.27 255.793 169.89L256.491 151.805C256.546 150.118 256.375 148.431 255.982 146.789C255.434 147.079 254.853 147.303 254.252 147.458C254.586 148.886 254.728 150.353 254.674 151.819L253.976 169.89Z" fill="white"/>
<path d="M240.135 186.522C238.831 186.837 237.494 186.998 236.152 187.001C233.938 187.006 231.746 186.56 229.709 185.693C227.672 184.825 225.832 183.552 224.302 181.952C222.771 180.352 221.581 178.458 220.805 176.385C220.028 174.312 219.68 172.102 219.782 169.89L220.102 161.705C219.492 161.653 218.888 161.541 218.299 161.371L217.965 169.89C217.856 172.342 218.248 174.791 219.115 177.086C219.982 179.382 221.308 181.478 223.01 183.246C224.713 185.013 226.757 186.417 229.019 187.37C231.28 188.323 233.712 188.806 236.166 188.79C237.69 188.784 239.208 188.599 240.688 188.237C240.454 187.683 240.269 187.108 240.135 186.522Z" fill="white"/>
<path d="M237.868 143.531C234.687 143.57 231.643 144.825 229.36 147.04C227.078 149.255 225.731 152.26 225.598 155.438L225.176 166.4C225.137 167.422 225.24 168.444 225.481 169.438C225.944 168.881 226.482 168.391 227.081 167.984C227.008 167.464 226.979 166.939 226.993 166.414L227.415 155.453C227.545 152.772 228.695 150.242 230.631 148.382C232.566 146.522 235.14 145.473 237.824 145.451C239.118 145.447 240.399 145.707 241.589 146.213C242.78 146.719 243.856 147.461 244.751 148.394C245.647 149.328 246.344 150.434 246.8 151.644C247.256 152.855 247.462 154.146 247.405 155.438L246.983 166.4C246.889 168.343 246.257 170.223 245.159 171.83C244.06 173.436 242.538 174.707 240.761 175.5C240.729 176.186 240.632 176.868 240.47 177.536C242.812 176.725 244.858 175.23 246.343 173.245C247.828 171.26 248.684 168.876 248.8 166.4L249.236 155.438C249.318 153.898 249.083 152.358 248.548 150.913C248.012 149.467 247.187 148.146 246.122 147.031C245.057 145.916 243.776 145.03 242.356 144.428C240.937 143.827 239.409 143.521 237.868 143.531Z" fill="white"/>
<path d="M268.441 12.823H217.413C217.036 12.8232 216.662 12.7474 216.314 12.6003C215.966 12.4531 215.651 12.2376 215.388 11.9664C215.125 11.6952 214.919 11.3738 214.782 11.0215C214.646 10.6692 214.581 10.2931 214.593 9.91543C214.637 9.13364 214.978 8.39801 215.545 7.85798C216.112 7.31794 216.863 7.01399 217.646 7.00786H268.66C269.039 7.00572 269.414 7.08002 269.764 7.2263C270.114 7.37259 270.43 7.58787 270.695 7.85928C270.959 8.13068 271.167 8.45264 271.304 8.80593C271.441 9.15921 271.506 9.53656 271.494 9.91543C271.447 10.696 271.105 11.4297 270.539 11.969C269.973 12.5084 269.223 12.8134 268.441 12.823Z" fill="#0171E5"/>
<path opacity="0.2" d="M188.628 63.8503C185.61 64.0868 182.581 64.1547 179.556 64.0539C178.487 63.8248 177.389 63.7562 176.3 63.8503H175.965C167.43 63.2251 158.986 61.6999 150.771 59.3C149.928 59.0528 149.056 58.7621 148.169 58.4568L141.104 241.445L188.323 209.941C190.457 208.54 192.228 206.652 193.492 204.433C194.756 202.215 195.475 199.728 195.591 197.177L200.331 74.841C200.398 73.3179 200.136 71.7982 199.561 70.386C198.987 68.9738 198.114 67.7023 197.003 66.6586C195.891 65.6149 194.568 64.8237 193.122 64.339C191.677 63.8543 190.144 63.6876 188.628 63.8503Z" fill="black"/>
<path d="M177.245 50.1993C174.233 50.4408 171.209 50.5136 168.188 50.4174C167.119 50.1906 166.022 50.1172 164.932 50.1993H164.583C156.052 49.5799 147.611 48.0545 139.403 45.649C129.111 42.4492 119.626 37.0748 111.592 29.8899C109.641 28.0104 107.033 26.9672 104.323 26.9823H91.9952C89.2321 27.0024 86.5728 28.0372 84.5228 29.8899C75.995 37.0532 66.104 42.4141 55.447 45.649C47.1176 48.0438 38.5624 49.5688 29.9185 50.1993H29.5696C28.4744 50.1172 27.3731 50.1906 26.2986 50.4174C23.2827 50.5138 20.2637 50.441 17.256 50.1993C15.7071 50.0809 14.1501 50.274 12.6771 50.7672C11.204 51.2604 9.84464 52.0436 8.67926 53.0708C7.51388 54.098 6.56608 55.3482 5.89181 56.7477C5.21754 58.1471 4.83046 59.6675 4.75342 61.219L0.0140814 183.57C-0.0938815 186.047 0.420335 188.511 1.50977 190.738C2.59921 192.966 4.22915 194.884 6.25082 196.32L74.7969 244.527C77.3219 246.298 80.3338 247.243 83.4179 247.231H95.7314C98.8797 247.22 101.955 246.279 104.57 244.527L176.838 196.32C178.967 194.915 180.734 193.029 181.997 190.814C183.26 188.598 183.983 186.117 184.107 183.57L188.832 61.219C188.894 59.7063 188.632 58.1977 188.064 56.7943C187.496 55.3909 186.635 54.1251 185.538 53.0817C184.44 52.0383 183.133 51.2413 181.703 50.7442C180.273 50.2471 178.753 50.0613 177.245 50.1993Z" fill="#0171E5"/>
<path opacity="0.8" d="M177.245 50.1993C174.233 50.4408 171.209 50.5136 168.188 50.4174C167.119 50.1906 166.022 50.1172 164.932 50.1993H164.583C156.052 49.5799 147.611 48.0545 139.403 45.649C129.111 42.4492 119.626 37.0748 111.592 29.8899C109.641 28.0104 107.033 26.9672 104.323 26.9823H91.9952C89.2321 27.0024 86.5728 28.0372 84.5228 29.8899C75.995 37.0532 66.104 42.4141 55.447 45.649C47.1176 48.0438 38.5624 49.5688 29.9185 50.1993H29.5696C28.4744 50.1172 27.3731 50.1906 26.2986 50.4174C23.2827 50.5138 20.2637 50.441 17.256 50.1993C15.7071 50.0809 14.1501 50.274 12.6771 50.7672C11.204 51.2604 9.84464 52.0436 8.67926 53.0708C7.51388 54.098 6.56608 55.3482 5.89181 56.7477C5.21754 58.1471 4.83046 59.6675 4.75342 61.219L0.0140814 183.57C-0.0938815 186.047 0.420335 188.511 1.50977 190.738C2.59921 192.966 4.22915 194.884 6.25082 196.32L74.7969 244.527C77.3219 246.298 80.3338 247.243 83.4179 247.231H95.7314C98.8797 247.22 101.955 246.279 104.57 244.527L176.838 196.32C178.967 194.915 180.734 193.029 181.997 190.814C183.26 188.598 183.983 186.117 184.107 183.57L188.832 61.219C188.894 59.7063 188.632 58.1977 188.064 56.7943C187.496 55.3909 186.635 54.1251 185.538 53.0817C184.44 52.0383 183.133 51.2413 181.703 50.7442C180.273 50.2471 178.753 50.0613 177.245 50.1993Z" fill="white"/>
<path d="M8.02517 183.338L12.5465 66.3518C12.6467 64.207 13.5642 62.1818 15.1106 60.6922C16.657 59.2025 18.715 58.3614 20.8621 58.3415H23.5226C35.0263 58.1984 46.4567 56.4866 57.4976 53.2532C67.9992 50.0704 77.8464 45.0336 86.5733 38.3809C88.0104 37.2097 89.8076 36.5701 91.6616 36.5701C93.5155 36.5701 95.3127 37.2097 96.7498 38.3809C105.032 45.0757 114.515 50.1283 124.692 53.2677C135.6 56.5175 146.908 58.2301 158.289 58.356H160.746C161.804 58.3468 162.854 58.554 163.83 58.9647C164.806 59.3755 165.688 59.9812 166.422 60.7448C167.155 61.5084 167.725 62.4138 168.097 63.4054C168.468 64.397 168.633 65.4541 168.581 66.5117L164.06 183.353C164 184.669 163.63 185.952 162.981 187.099C162.331 188.246 161.421 189.223 160.324 189.953L88.5068 237.928C87.1742 238.837 85.5986 239.323 83.9856 239.323C82.3725 239.323 80.7969 238.837 79.4643 237.928L11.3398 189.953C10.2747 189.219 9.41241 188.228 8.83292 187.071C8.25344 185.915 7.97559 184.631 8.02517 183.338Z" fill="#0171E5"/>
<path opacity="0.2" d="M27.9844 177.158L31.8224 77.7044C42.1 76.8913 52.2697 75.0454 62.1774 72.1945C72.2845 69.1548 81.9188 64.7217 90.8025 59.0232C99.3119 64.7482 108.619 69.1865 118.424 72.1945C128.186 75.0578 138.217 76.9042 148.358 77.7044L144.505 177.158L84.6966 217.05L27.9844 177.158Z" fill="white"/>
<path opacity="0.2" d="M48.0918 166.764L50.8685 94.9326C56.1894 93.9295 61.5539 92.6647 66.8602 91.1382C74.8124 88.7956 82.5194 85.6894 89.8737 81.863C96.984 85.7023 104.466 88.81 112.204 91.1382C117.457 92.6598 122.705 93.9246 127.948 94.9326L125.172 166.764L85.6286 193.238L48.0918 166.764Z" fill="white"/>
</svg>
