<svg width="501" height="373" viewBox="0 0 501 373" fill="none" xmlns="http://www.w3.org/2000/svg">
<path d="M450.054 343.607H416.922V343.857H450.054V343.607Z" fill="#EBEBEB"/>
<path d="M331.333 346.328H322.64V346.578H331.333V346.328Z" fill="#EBEBEB"/>
<path d="M415.922 334.324H396.725V334.574H415.922V334.324Z" fill="#EBEBEB"/>
<path d="M95.6826 336.005H52.4779V336.255H95.6826V336.005Z" fill="#EBEBEB"/>
<path d="M110.928 336.005H104.596V336.255H110.928V336.005Z" fill="#EBEBEB"/>
<path d="M225.227 340.226H131.515V340.476H225.227V340.226Z" fill="#EBEBEB"/>
<path d="M238.481 282.896H45.3155C43.8006 282.896 42.3477 282.295 41.2765 281.223C40.2053 280.152 39.6035 278.699 39.6035 277.185V5.66193C39.6167 4.15571 40.2243 2.71567 41.2941 1.65527C42.3639 0.594865 43.8092 -5.77456e-05 45.3155 4.20398e-09H238.481C239.231 4.20399e-09 239.974 0.147743 240.667 0.434795C241.36 0.721847 241.99 1.14259 242.52 1.67299C243.051 2.20339 243.471 2.83308 243.758 3.52608C244.046 4.21909 244.193 4.96184 244.193 5.71195V277.185C244.193 277.935 244.046 278.677 243.758 279.37C243.471 280.063 243.051 280.693 242.52 281.223C241.99 281.754 241.36 282.175 240.667 282.462C239.974 282.749 239.231 282.896 238.481 282.896ZM45.3155 0.200069C43.8677 0.202713 42.48 0.779006 41.4563 1.80273C40.4325 2.82646 39.8562 4.21417 39.8536 5.66193V277.185C39.8562 278.632 40.4325 280.02 41.4563 281.044C42.48 282.067 43.8677 282.644 45.3155 282.646H238.481C239.929 282.644 241.317 282.067 242.341 281.044C243.364 280.02 243.941 278.632 243.943 277.185V5.66193C243.941 4.21417 243.364 2.82646 242.341 1.80273C241.317 0.779006 239.929 0.202713 238.481 0.200069H45.3155Z" fill="#EBEBEB"/>
<path d="M454.855 282.896H261.689C260.174 282.896 258.721 282.295 257.65 281.223C256.579 280.152 255.977 278.699 255.977 277.185V5.66193C255.99 4.15571 256.598 2.71567 257.668 1.65527C258.738 0.594865 260.183 -5.77456e-05 261.689 4.20398e-09H454.855C456.37 4.204e-09 457.823 0.601793 458.894 1.67299C459.965 2.74419 460.567 4.19704 460.567 5.71195V277.185C460.567 278.699 459.965 280.152 458.894 281.223C457.823 282.295 456.37 282.896 454.855 282.896ZM261.689 0.200069C260.241 0.202713 258.854 0.779006 257.83 1.80273C256.806 2.82646 256.23 4.21417 256.227 5.66193V277.185C256.23 278.632 256.806 280.02 257.83 281.044C258.854 282.067 260.241 282.644 261.689 282.646H454.855C456.303 282.644 457.691 282.067 458.714 281.044C459.738 280.02 460.314 278.632 460.317 277.185V5.66193C460.314 4.21417 459.738 2.82646 458.714 1.80273C457.691 0.779006 456.303 0.202713 454.855 0.200069H261.689Z" fill="#EBEBEB"/>
<path d="M500.171 327.512H0V327.762H500.171V327.512Z" fill="#EBEBEB"/>
<path d="M169.668 69.3036H96.983V161.405H169.668V69.3036Z" fill="#F0F0F0"/>
<path d="M162.435 78.4668H104.226V152.232H162.435V78.4668Z" fill="#FAFAFA"/>
<path d="M91.3713 161.405H96.9932L96.9932 69.3036H91.3713L91.3713 161.405Z" fill="#E0E0E0"/>
<path d="M141.798 116.49C144.922 119.614 146.677 123.851 146.677 128.269C146.677 132.687 144.922 136.924 141.798 140.048C138.674 143.172 134.437 144.927 130.019 144.927C125.601 144.927 121.364 143.172 118.24 140.048C111.728 133.536 135.286 109.977 141.798 116.49Z" fill="#F5F5F5"/>
<path d="M124.402 115.199C123.185 113.982 122.22 112.537 121.561 110.947C120.903 109.357 120.563 107.652 120.563 105.931C120.563 104.21 120.903 102.505 121.561 100.915C122.22 99.325 123.185 97.8801 124.402 96.663C125.62 95.4459 127.065 94.4804 128.655 93.8217C130.245 93.163 131.949 92.824 133.671 92.824C135.392 92.824 137.096 93.163 138.687 93.8217C140.277 94.4804 141.722 95.4459 142.939 96.663C148.051 101.785 129.524 120.321 124.402 115.199Z" fill="#EBEBEB"/>
<path d="M390.613 198.788H381.98V328.112H390.613V198.788Z" fill="#F0F0F0"/>
<path d="M394.374 198.788H386.862V328.112H394.374V198.788Z" fill="#E6E6E6"/>
<path d="M303.574 198.788H294.941V328.112H303.574V198.788Z" fill="#F0F0F0"/>
<path d="M307.335 198.788H299.822V328.112H307.335V198.788Z" fill="#E6E6E6"/>
<path d="M423.344 198.788H414.712V328.112H423.344V198.788Z" fill="#F0F0F0"/>
<path d="M427.096 198.788H419.583V328.112H427.096V198.788Z" fill="#E6E6E6"/>
<path d="M336.305 198.788H327.672V328.112H336.305V198.788Z" fill="#F0F0F0"/>
<path d="M427.106 190.485H294.951V200.848H427.106V190.485Z" fill="#F0F0F0"/>
<path d="M332.553 190.485H294.951V200.848H332.553V190.485Z" fill="#E0E0E0"/>
<path d="M340.066 198.788H332.553V328.112H340.066V198.788Z" fill="#E6E6E6"/>
<path d="M122.602 191.145H67.323V328.112H122.602V191.145Z" fill="#E6E6E6"/>
<path d="M226.007 191.145H110.538V328.112H226.007V191.145Z" fill="#F5F5F5"/>
<path d="M186.664 199.788H205.52C207.491 199.788 209.442 200.176 211.262 200.93C213.083 201.684 214.737 202.79 216.13 204.183C217.524 205.576 218.629 207.231 219.383 209.051C220.137 210.872 220.525 212.823 220.525 214.793V321.31H171.678V214.773C171.684 210.801 173.264 206.992 176.073 204.183C178.882 201.374 182.691 199.793 186.664 199.788Z" fill="#EBEBEB"/>
<path d="M132.145 199.788H151.051C153.022 199.788 154.973 200.176 156.794 200.93C158.614 201.684 160.268 202.79 161.662 204.183C163.055 205.576 164.16 207.231 164.914 209.051C165.668 210.872 166.057 212.823 166.057 214.793V321.31H117.16V214.773C117.165 210.801 118.746 206.992 121.555 204.183C124.364 201.374 128.172 199.793 132.145 199.788Z" fill="#EBEBEB"/>
<path d="M161.595 259.629C161.536 260.573 161.203 261.48 160.636 262.237C160.068 262.995 159.292 263.57 158.401 263.891C157.511 264.213 156.547 264.267 155.626 264.048C154.706 263.828 153.87 263.344 153.221 262.655C152.572 261.966 152.139 261.102 151.975 260.17C151.81 259.238 151.922 258.278 152.297 257.409C152.671 256.54 153.292 255.799 154.082 255.278C154.872 254.757 155.797 254.479 156.743 254.477C157.4 254.496 158.047 254.645 158.646 254.914C159.246 255.184 159.786 255.569 160.237 256.047C160.687 256.526 161.039 257.088 161.272 257.703C161.505 258.317 161.615 258.972 161.595 259.629Z" fill="#E0E0E0"/>
<path d="M186.574 259.629C186.515 260.574 186.181 261.481 185.613 262.238C185.046 262.996 184.268 263.571 183.378 263.892C182.487 264.214 181.522 264.267 180.601 264.047C179.68 263.826 178.844 263.341 178.196 262.651C177.547 261.961 177.115 261.097 176.952 260.164C176.789 259.231 176.903 258.271 177.278 257.402C177.654 256.533 178.276 255.793 179.068 255.273C179.859 254.754 180.785 254.477 181.732 254.477C183.057 254.519 184.311 255.085 185.219 256.051C186.127 257.017 186.614 258.304 186.574 259.629Z" fill="#E0E0E0"/>
<path d="M250.085 372.137C357.204 372.137 444.041 367.067 444.041 360.813C444.041 354.559 357.204 349.489 250.085 349.489C142.966 349.489 56.1292 354.559 56.1292 360.813C56.1292 367.067 142.966 372.137 250.085 372.137Z" fill="#F5F5F5"/>
<path d="M381.6 205.45H310.266C309.45 205.465 308.64 205.306 307.89 204.983C307.141 204.66 306.469 204.182 305.919 203.579C305.369 202.976 304.953 202.262 304.701 201.486C304.448 200.71 304.364 199.889 304.454 199.078L308.295 155.143C308.471 153.416 309.273 151.813 310.55 150.637C311.828 149.461 313.492 148.793 315.227 148.761H386.562C387.379 148.746 388.19 148.905 388.941 149.229C389.692 149.552 390.365 150.031 390.916 150.635C391.467 151.239 391.883 151.954 392.136 152.731C392.389 153.508 392.473 154.33 392.384 155.143L388.532 199.068C388.359 200.796 387.557 202.4 386.279 203.577C385.002 204.753 383.337 205.42 381.6 205.45Z" fill="#074687"/>
<path d="M339.566 173.559C339.246 176.711 337.781 179.636 335.448 181.78C333.116 183.924 330.079 185.139 326.911 185.193C325.421 185.221 323.943 184.93 322.574 184.341C321.205 183.752 319.977 182.878 318.973 181.777C317.969 180.676 317.211 179.374 316.749 177.957C316.288 176.54 316.134 175.041 316.298 173.559C316.633 170.414 318.103 167.499 320.432 165.36C322.761 163.22 325.79 162.003 328.952 161.935L329.472 155.983C324.688 156.069 320.101 157.904 316.578 161.143C313.056 164.382 310.842 168.799 310.356 173.559C310.11 175.795 310.343 178.057 311.038 180.196C311.734 182.334 312.876 184.301 314.39 185.964C315.904 187.627 317.754 188.949 319.818 189.843C321.882 190.736 324.113 191.18 326.361 191.145C331.147 191.06 335.736 189.223 339.259 185.982C342.781 182.741 344.994 178.322 345.478 173.559H339.566Z" fill="#04D1FF"/>
<path d="M347.599 170.988C347.844 168.753 347.612 166.491 346.916 164.352C346.22 162.213 345.078 160.247 343.564 158.584C342.05 156.92 340.2 155.598 338.136 154.705C336.072 153.812 333.842 153.368 331.593 153.402L331.073 159.404C332.562 159.379 334.04 159.67 335.408 160.26C336.777 160.849 338.003 161.723 339.007 162.824C340.012 163.925 340.77 165.226 341.232 166.643C341.694 168.059 341.849 169.557 341.687 171.038L347.599 170.988Z" fill="#04D1FF"/>
<path opacity="0.7" d="M347.599 170.988C347.844 168.753 347.612 166.491 346.916 164.352C346.22 162.213 345.078 160.247 343.564 158.584C342.05 156.92 340.2 155.598 338.136 154.705C336.072 153.812 333.842 153.368 331.593 153.402L331.073 159.404C332.562 159.379 334.04 159.67 335.408 160.26C336.777 160.849 338.003 161.723 339.007 162.824C340.012 163.925 340.77 165.226 341.232 166.643C341.694 168.059 341.849 169.557 341.687 171.038L347.599 170.988Z" fill="white"/>
<path d="M333.034 173.559C332.887 174.995 332.22 176.326 331.158 177.303C330.097 178.28 328.714 178.834 327.272 178.861C326.593 178.872 325.92 178.739 325.297 178.47C324.674 178.201 324.116 177.802 323.659 177.301C323.202 176.799 322.857 176.206 322.647 175.561C322.436 174.916 322.366 174.234 322.44 173.559C322.587 172.125 323.254 170.794 324.316 169.819C325.378 168.844 326.76 168.292 328.202 168.268L328.432 165.567C326.255 165.607 324.168 166.443 322.567 167.918C320.965 169.393 319.959 171.403 319.739 173.569C319.627 174.587 319.732 175.618 320.049 176.592C320.366 177.566 320.887 178.461 321.577 179.219C322.267 179.976 323.11 180.577 324.051 180.983C324.991 181.389 326.007 181.59 327.031 181.572C329.21 181.534 331.299 180.699 332.903 179.224C334.507 177.749 335.514 175.737 335.734 173.569L333.034 173.559Z" fill="#04D1FF"/>
<path opacity="0.7" d="M333.034 173.559C332.887 174.995 332.22 176.326 331.158 177.303C330.097 178.28 328.714 178.834 327.272 178.861C326.593 178.872 325.92 178.739 325.297 178.47C324.674 178.201 324.116 177.802 323.659 177.301C323.202 176.799 322.857 176.206 322.647 175.561C322.436 174.916 322.366 174.234 322.44 173.559C322.587 172.125 323.254 170.794 324.316 169.819C325.378 168.844 326.76 168.292 328.202 168.268L328.432 165.567C326.255 165.607 324.168 166.443 322.567 167.918C320.965 169.393 319.959 171.403 319.739 173.569C319.627 174.587 319.732 175.618 320.049 176.592C320.366 177.566 320.887 178.461 321.577 179.219C322.267 179.976 323.11 180.577 324.051 180.983C324.991 181.389 326.007 181.59 327.031 181.572C329.21 181.534 331.299 180.699 332.903 179.224C334.507 177.749 335.514 175.737 335.734 173.569L333.034 173.559Z" fill="white"/>
<path d="M336.685 172.389C336.797 171.37 336.691 170.339 336.374 169.364C336.056 168.389 335.535 167.493 334.844 166.736C334.153 165.978 333.308 165.377 332.366 164.972C331.425 164.567 330.407 164.367 329.382 164.386L329.112 167.057C329.79 167.046 330.462 167.179 331.084 167.448C331.706 167.716 332.264 168.114 332.721 168.614C333.178 169.114 333.523 169.706 333.734 170.35C333.945 170.994 334.016 171.675 333.944 172.349L336.685 172.389Z" fill="#04D1FF"/>
<path d="M370.977 155.983L370.456 161.935C371.945 161.908 373.423 162.198 374.791 162.787C376.159 163.375 377.386 164.248 378.391 165.348C379.395 166.448 380.153 167.749 380.615 169.165C381.077 170.581 381.232 172.079 381.07 173.559C380.75 176.709 379.287 179.633 376.957 181.777C374.626 183.921 371.591 185.136 368.426 185.193C366.935 185.222 365.456 184.933 364.086 184.345C362.716 183.756 361.488 182.882 360.484 181.781C359.479 180.679 358.721 179.376 358.26 177.958C357.799 176.541 357.647 175.041 357.812 173.559C358.114 170.401 359.584 167.469 361.934 165.337L358.102 161.135C354.548 164.356 352.323 168.786 351.86 173.559C351.614 175.795 351.847 178.057 352.543 180.196C353.238 182.334 354.381 184.301 355.895 185.964C357.408 187.627 359.259 188.949 361.323 189.843C363.386 190.736 365.617 191.18 367.866 191.145C372.651 191.058 377.238 189.22 380.761 185.979C384.283 182.739 386.496 178.321 386.982 173.559C387.226 171.325 386.993 169.063 386.296 166.926C385.6 164.789 384.457 162.824 382.943 161.161C381.43 159.499 379.58 158.178 377.517 157.285C375.454 156.393 373.224 155.949 370.977 155.983Z" fill="#04D1FF"/>
<path opacity="0.7" d="M370.977 155.983L370.456 161.935C371.945 161.908 373.423 162.198 374.791 162.787C376.159 163.375 377.386 164.248 378.391 165.348C379.395 166.448 380.153 167.749 380.615 169.165C381.077 170.581 381.232 172.079 381.07 173.559C380.75 176.709 379.287 179.633 376.957 181.777C374.626 183.921 371.591 185.136 368.426 185.193C366.935 185.222 365.456 184.933 364.086 184.345C362.716 183.756 361.488 182.882 360.484 181.781C359.479 180.679 358.721 179.376 358.26 177.958C357.799 176.541 357.647 175.041 357.812 173.559C358.114 170.401 359.584 167.469 361.934 165.337L358.102 161.135C354.548 164.356 352.323 168.786 351.86 173.559C351.614 175.795 351.847 178.057 352.543 180.196C353.238 182.334 354.381 184.301 355.895 185.964C357.408 187.627 359.259 188.949 361.323 189.843C363.386 190.736 365.617 191.18 367.866 191.145C372.651 191.058 377.238 189.22 380.761 185.979C384.283 182.739 386.496 178.321 386.982 173.559C387.226 171.325 386.993 169.063 386.296 166.926C385.6 164.789 384.457 162.824 382.943 161.161C381.43 159.499 379.58 158.178 377.517 157.285C375.454 156.393 373.224 155.949 370.977 155.983Z" fill="white"/>
<path d="M356.952 157.874L360.793 162.085C363.105 159.918 366.147 158.7 369.316 158.674L369.836 152.732C365.049 152.772 360.451 154.607 356.952 157.874Z" fill="#04D1FF"/>
<path opacity="0.3" d="M356.952 157.874L360.793 162.085C363.105 159.918 366.147 158.7 369.316 158.674L369.836 152.732C365.049 152.772 360.451 154.607 356.952 157.874Z" fill="black"/>
<path d="M370.186 165.056L369.936 167.897C370.649 167.883 371.356 168.021 372.011 168.302C372.666 168.583 373.253 169.001 373.734 169.528C374.214 170.055 374.576 170.678 374.796 171.356C375.016 172.034 375.088 172.751 375.008 173.459C374.855 174.957 374.161 176.347 373.056 177.369C371.951 178.391 370.511 178.975 369.006 179.011C368.294 179.026 367.588 178.888 366.934 178.607C366.279 178.327 365.693 177.909 365.213 177.384C364.733 176.858 364.37 176.236 364.15 175.56C363.929 174.883 363.856 174.167 363.934 173.459C364.084 171.944 364.798 170.541 365.935 169.528L364.104 167.527C362.398 169.065 361.328 171.184 361.103 173.469C360.985 174.538 361.096 175.62 361.429 176.643C361.762 177.666 362.31 178.606 363.035 179.4C363.76 180.194 364.646 180.825 365.635 181.249C366.623 181.674 367.69 181.883 368.766 181.862C371.051 181.823 373.243 180.947 374.926 179.4C376.609 177.853 377.667 175.743 377.899 173.469C378.019 172.395 377.908 171.307 377.573 170.279C377.238 169.251 376.686 168.306 375.955 167.509C375.225 166.712 374.332 166.081 373.337 165.658C372.341 165.235 371.267 165.03 370.186 165.056Z" fill="#04D1FF"/>
<path d="M363.484 165.917L365.315 167.917C366.425 166.886 367.88 166.305 369.396 166.287L369.636 163.446C367.349 163.471 365.153 164.352 363.484 165.917Z" fill="#04D1FF"/>
<path opacity="0.3" d="M363.484 165.917L365.315 167.917C366.425 166.886 367.88 166.305 369.396 166.287L369.636 163.446C367.349 163.471 365.153 164.352 363.484 165.917Z" fill="black"/>
<path d="M318.289 198.838C318.049 198.842 317.811 198.795 317.591 198.701C317.371 198.606 317.173 198.465 317.011 198.289C316.85 198.112 316.727 197.902 316.653 197.675C316.578 197.447 316.552 197.206 316.578 196.967C316.629 196.466 316.859 196 317.227 195.656C317.595 195.312 318.075 195.114 318.579 195.097C318.818 195.092 319.056 195.139 319.276 195.234C319.497 195.329 319.694 195.469 319.856 195.646C320.018 195.823 320.14 196.032 320.215 196.26C320.289 196.488 320.315 196.729 320.289 196.967C320.237 197.468 320.005 197.932 319.638 198.276C319.27 198.62 318.791 198.819 318.289 198.838Z" fill="white"/>
<path d="M337.475 197.918H323.47C323.348 197.921 323.226 197.899 323.114 197.851C323.001 197.804 322.9 197.732 322.817 197.642C322.735 197.552 322.673 197.445 322.635 197.328C322.598 197.212 322.586 197.089 322.6 196.967C322.6 196.702 322.705 196.448 322.893 196.26C323.081 196.072 323.335 195.967 323.6 195.967H337.605C337.732 195.962 337.859 195.986 337.976 196.036C338.093 196.086 338.197 196.163 338.28 196.259C338.364 196.355 338.425 196.468 338.458 196.591C338.492 196.713 338.498 196.842 338.475 196.967C338.463 197.224 338.352 197.466 338.165 197.643C337.979 197.819 337.732 197.918 337.475 197.918Z" fill="white"/>
<path d="M333.624 201.669H323.16C323.034 201.672 322.908 201.647 322.792 201.596C322.676 201.545 322.573 201.469 322.49 201.374C322.406 201.278 322.345 201.165 322.311 201.043C322.276 200.922 322.269 200.794 322.29 200.669C322.304 200.408 322.414 200.162 322.599 199.977C322.783 199.793 323.03 199.683 323.29 199.668H333.764C333.89 199.665 334.016 199.69 334.132 199.741C334.248 199.792 334.351 199.868 334.434 199.964C334.517 200.059 334.578 200.172 334.613 200.294C334.648 200.416 334.655 200.544 334.634 200.669C334.617 200.93 334.505 201.176 334.319 201.361C334.133 201.545 333.885 201.655 333.624 201.669Z" fill="white"/>
<path d="M358.842 198.838C358.602 198.844 358.363 198.798 358.141 198.704C357.92 198.61 357.721 198.469 357.558 198.292C357.395 198.115 357.272 197.905 357.197 197.677C357.122 197.448 357.096 197.207 357.122 196.967C357.172 196.466 357.403 196 357.771 195.656C358.139 195.312 358.619 195.114 359.122 195.097C359.362 195.092 359.6 195.139 359.82 195.234C360.04 195.329 360.238 195.469 360.4 195.646C360.561 195.823 360.684 196.032 360.758 196.26C360.833 196.488 360.859 196.729 360.833 196.967C360.781 197.466 360.551 197.929 360.185 198.273C359.82 198.616 359.343 198.817 358.842 198.838Z" fill="white"/>
<path d="M378.029 197.918H364.024C363.902 197.92 363.782 197.896 363.67 197.848C363.558 197.8 363.457 197.728 363.375 197.639C363.293 197.549 363.23 197.442 363.192 197.327C363.154 197.211 363.141 197.088 363.154 196.967C363.168 196.707 363.278 196.461 363.463 196.276C363.647 196.091 363.894 195.981 364.154 195.967H378.159C378.286 195.962 378.413 195.986 378.53 196.036C378.646 196.086 378.75 196.163 378.834 196.259C378.918 196.355 378.978 196.468 379.012 196.591C379.046 196.713 379.052 196.842 379.029 196.967C379.016 197.224 378.905 197.466 378.719 197.643C378.533 197.819 378.286 197.918 378.029 197.918Z" fill="white"/>
<path d="M374.178 201.669H363.714C363.587 201.672 363.462 201.647 363.346 201.596C363.23 201.545 363.127 201.469 363.044 201.374C362.96 201.278 362.899 201.165 362.865 201.043C362.83 200.922 362.823 200.794 362.844 200.669C362.858 200.408 362.968 200.162 363.153 199.977C363.337 199.793 363.584 199.683 363.844 199.668H374.318C374.444 199.665 374.57 199.69 374.686 199.741C374.802 199.792 374.905 199.868 374.988 199.964C375.071 200.059 375.132 200.172 375.167 200.294C375.201 200.416 375.209 200.544 375.188 200.669C375.171 200.93 375.059 201.176 374.873 201.361C374.687 201.545 374.439 201.655 374.178 201.669Z" fill="white"/>
<path d="M289.509 229.408H182.642C181.826 229.423 181.016 229.264 180.266 228.941C179.516 228.618 178.843 228.14 178.292 227.537C177.741 226.934 177.325 226.221 177.072 225.445C176.818 224.669 176.732 223.848 176.82 223.036L182.762 155.143C182.938 153.416 183.74 151.813 185.018 150.637C186.295 149.461 187.959 148.793 189.695 148.761H296.571C297.388 148.747 298.198 148.908 298.947 149.232C299.697 149.556 300.369 150.035 300.919 150.639C301.468 151.243 301.883 151.957 302.136 152.733C302.388 153.51 302.473 154.331 302.383 155.143L296.451 223.076C296.264 224.796 295.455 226.388 294.177 227.554C292.898 228.72 291.239 229.379 289.509 229.408Z" fill="#04D1FF"/>
<path opacity="0.7" d="M289.509 229.408H182.642C181.826 229.423 181.016 229.264 180.266 228.941C179.516 228.618 178.843 228.14 178.292 227.537C177.741 226.934 177.325 226.221 177.072 225.445C176.818 224.669 176.732 223.848 176.82 223.036L182.762 155.143C182.938 153.416 183.74 151.813 185.018 150.637C186.295 149.461 187.959 148.793 189.695 148.761H296.571C297.388 148.747 298.198 148.908 298.947 149.232C299.697 149.556 300.369 150.035 300.919 150.639C301.468 151.243 301.883 151.957 302.136 152.733C302.388 153.51 302.473 154.331 302.383 155.143L296.451 223.076C296.264 224.796 295.455 226.388 294.177 227.554C292.898 228.72 291.239 229.379 289.509 229.408Z" fill="white"/>
<path d="M187.104 209.111H184.393L188.024 167.617H190.735L187.104 209.111Z" fill="#04D1FF"/>
<path d="M190.955 209.111H188.234L190.905 178.591H193.626L190.955 209.111Z" fill="#074687"/>
<path d="M197.057 209.111H194.346L196.087 189.164H198.798L197.057 209.111Z" fill="#04D1FF"/>
<path d="M200.899 209.111H198.188L200.268 185.323H202.979L200.899 209.111Z" fill="#074687"/>
<path d="M207.011 209.111H204.29L207.391 173.659H210.112L207.011 209.111Z" fill="#04D1FF"/>
<path d="M210.852 209.111H208.131L210.812 178.591H213.523L210.852 209.111Z" fill="#074687"/>
<path d="M216.954 209.111H214.243L216.914 178.591H219.625L216.954 209.111Z" fill="#04D1FF"/>
<path d="M220.795 209.111H218.084L221.426 170.898H224.137L220.795 209.111Z" fill="#074687"/>
<path d="M226.907 209.111H224.187L226.007 188.364H228.718L226.907 209.111Z" fill="#04D1FF"/>
<path d="M230.749 209.111H228.038L230.709 178.591H233.42L230.749 209.111Z" fill="#074687"/>
<path d="M236.851 209.111H234.14L237.241 173.659H239.952L236.851 209.111Z" fill="#04D1FF"/>
<path d="M240.702 209.111H237.981L241.742 166.097H244.463L240.702 209.111Z" fill="#074687"/>
<path d="M246.804 209.111H244.093L245.074 197.817H247.795L246.804 209.111Z" fill="#04D1FF"/>
<path d="M250.645 209.111H247.935L249.765 188.204H252.476L250.645 209.111Z" fill="#074687"/>
<path d="M256.748 209.111H254.037L255.787 189.164H258.498L256.748 209.111Z" fill="#04D1FF"/>
<path d="M260.599 209.111H257.878L261.309 169.938H264.02L260.599 209.111Z" fill="#074687"/>
<path d="M266.701 209.111H263.99L266.241 183.402H268.952L266.701 209.111Z" fill="#04D1FF"/>
<path d="M270.542 209.111H267.831L272.183 159.364H274.894L270.542 209.111Z" fill="#074687"/>
<path d="M276.654 209.111H273.933L276.854 175.71H279.575L276.654 209.111Z" fill="#04D1FF"/>
<path d="M280.496 209.111H277.785L280.456 178.591H283.167L280.496 209.111Z" fill="#074687"/>
<path d="M286.598 209.111H283.887L287.568 167.057H290.279L286.598 209.111Z" fill="#04D1FF"/>
<path d="M290.439 209.111H287.728L289.899 184.363H292.61L290.439 209.111Z" fill="#074687"/>
<path d="M186.063 220.435C185.722 220.443 185.382 220.378 185.068 220.243C184.753 220.109 184.471 219.91 184.24 219.658C184.009 219.406 183.834 219.108 183.728 218.783C183.621 218.458 183.585 218.114 183.623 217.774C183.702 217.054 184.04 216.386 184.573 215.895C185.106 215.404 185.799 215.123 186.524 215.103C186.866 215.095 187.207 215.161 187.522 215.296C187.837 215.43 188.12 215.631 188.351 215.884C188.582 216.137 188.757 216.437 188.863 216.763C188.968 217.089 189.003 217.434 188.964 217.774C188.883 218.493 188.544 219.158 188.011 219.647C187.478 220.136 186.786 220.416 186.063 220.435Z" fill="#074687"/>
<path d="M213.363 219.125H193.466C193.293 219.129 193.12 219.095 192.961 219.027C192.801 218.959 192.658 218.858 192.54 218.73C192.423 218.602 192.334 218.451 192.28 218.286C192.226 218.121 192.207 217.947 192.226 217.774C192.264 217.406 192.436 217.065 192.709 216.814C192.981 216.564 193.336 216.421 193.706 216.414H213.603C213.777 216.411 213.949 216.446 214.109 216.515C214.269 216.584 214.412 216.687 214.529 216.815C214.646 216.944 214.735 217.096 214.789 217.261C214.843 217.426 214.862 217.601 214.843 217.774C214.804 218.141 214.632 218.481 214.359 218.73C214.086 218.979 213.732 219.119 213.363 219.125Z" fill="#074687"/>
<path d="M207.901 224.466H192.996C192.819 224.47 192.644 224.434 192.483 224.363C192.321 224.292 192.177 224.187 192.06 224.055C191.943 223.923 191.856 223.767 191.805 223.598C191.754 223.429 191.741 223.251 191.765 223.076C191.8 222.708 191.969 222.365 192.24 222.114C192.512 221.863 192.866 221.721 193.236 221.716H208.131C208.305 221.712 208.479 221.745 208.639 221.814C208.8 221.882 208.943 221.984 209.061 222.113C209.179 222.242 209.267 222.395 209.321 222.561C209.374 222.727 209.392 222.903 209.371 223.076C209.342 223.449 209.175 223.797 208.904 224.054C208.632 224.311 208.275 224.458 207.901 224.466Z" fill="#074687"/>
<path opacity="0.3" d="M213.363 219.125H193.466C193.293 219.129 193.12 219.095 192.961 219.027C192.801 218.959 192.658 218.858 192.54 218.73C192.423 218.602 192.334 218.451 192.28 218.286C192.226 218.121 192.207 217.947 192.226 217.774C192.264 217.406 192.436 217.065 192.709 216.814C192.981 216.564 193.336 216.421 193.706 216.414H213.603C213.777 216.411 213.949 216.446 214.109 216.515C214.269 216.584 214.412 216.687 214.529 216.815C214.646 216.944 214.735 217.096 214.789 217.261C214.843 217.426 214.862 217.601 214.843 217.774C214.804 218.141 214.632 218.481 214.359 218.73C214.086 218.979 213.732 219.119 213.363 219.125Z" fill="white"/>
<path opacity="0.3" d="M207.901 224.466H192.996C192.819 224.47 192.644 224.434 192.483 224.363C192.321 224.292 192.177 224.187 192.06 224.055C191.943 223.923 191.856 223.767 191.805 223.598C191.754 223.429 191.741 223.251 191.765 223.076C191.8 222.708 191.969 222.365 192.24 222.114C192.512 221.863 192.866 221.721 193.236 221.716H208.131C208.305 221.712 208.479 221.745 208.639 221.814C208.8 221.882 208.943 221.984 209.061 222.113C209.179 222.242 209.267 222.395 209.321 222.561C209.374 222.727 209.392 222.903 209.371 223.076C209.342 223.449 209.175 223.797 208.904 224.054C208.632 224.311 208.275 224.458 207.901 224.466Z" fill="white"/>
<path d="M225.417 220.435C225.076 220.441 224.737 220.375 224.423 220.24C224.11 220.106 223.828 219.906 223.597 219.654C223.366 219.403 223.192 219.105 223.085 218.781C222.978 218.457 222.941 218.114 222.976 217.774C223.056 217.054 223.393 216.386 223.926 215.895C224.46 215.404 225.152 215.123 225.877 215.103C226.22 215.095 226.56 215.161 226.875 215.296C227.191 215.43 227.473 215.631 227.705 215.884C227.936 216.137 228.11 216.437 228.216 216.763C228.322 217.089 228.357 217.434 228.318 217.774C228.236 218.493 227.898 219.158 227.365 219.647C226.832 220.136 226.14 220.416 225.417 220.435Z" fill="#04D1FF"/>
<path opacity="0.3" d="M225.417 220.435C225.076 220.441 224.737 220.375 224.423 220.24C224.11 220.106 223.828 219.906 223.597 219.654C223.366 219.403 223.192 219.105 223.085 218.781C222.978 218.457 222.941 218.114 222.976 217.774C223.056 217.054 223.393 216.386 223.926 215.895C224.46 215.404 225.152 215.123 225.877 215.103C226.22 215.095 226.56 215.161 226.875 215.296C227.191 215.43 227.473 215.631 227.705 215.884C227.936 216.137 228.11 216.437 228.216 216.763C228.322 217.089 228.357 217.434 228.318 217.774C228.236 218.493 227.898 219.158 227.365 219.647C226.832 220.136 226.14 220.416 225.417 220.435Z" fill="black"/>
<path d="M252.706 219.125H232.81C232.636 219.129 232.464 219.095 232.304 219.027C232.144 218.959 232.001 218.858 231.884 218.73C231.766 218.602 231.678 218.451 231.623 218.286C231.569 218.121 231.551 217.947 231.569 217.774C231.608 217.406 231.78 217.065 232.052 216.814C232.325 216.564 232.68 216.421 233.05 216.414H252.946C253.12 216.411 253.293 216.446 253.453 216.515C253.612 216.584 253.755 216.687 253.873 216.815C253.99 216.944 254.078 217.096 254.133 217.261C254.187 217.426 254.205 217.601 254.187 217.774C254.148 218.141 253.976 218.481 253.703 218.73C253.43 218.979 253.075 219.119 252.706 219.125Z" fill="#074687"/>
<path d="M247.244 224.466H232.349C232.169 224.476 231.99 224.445 231.823 224.377C231.657 224.308 231.508 224.204 231.386 224.071C231.265 223.938 231.174 223.78 231.121 223.608C231.068 223.436 231.053 223.254 231.079 223.076C231.113 222.708 231.282 222.365 231.554 222.114C231.825 221.863 232.18 221.721 232.549 221.716H247.444C247.619 221.712 247.792 221.745 247.952 221.814C248.113 221.882 248.257 221.984 248.374 222.113C248.492 222.242 248.58 222.395 248.634 222.561C248.688 222.727 248.705 222.903 248.685 223.076C248.658 223.444 248.496 223.79 248.23 224.047C247.965 224.303 247.613 224.453 247.244 224.466Z" fill="#074687"/>
<path opacity="0.3" d="M252.706 219.125H232.81C232.636 219.129 232.464 219.095 232.304 219.027C232.144 218.959 232.001 218.858 231.884 218.73C231.766 218.602 231.678 218.451 231.623 218.286C231.569 218.121 231.551 217.947 231.569 217.774C231.608 217.406 231.78 217.065 232.052 216.814C232.325 216.564 232.68 216.421 233.05 216.414H252.946C253.12 216.411 253.293 216.446 253.453 216.515C253.612 216.584 253.755 216.687 253.873 216.815C253.99 216.944 254.078 217.096 254.133 217.261C254.187 217.426 254.205 217.601 254.187 217.774C254.148 218.141 253.976 218.481 253.703 218.73C253.43 218.979 253.075 219.119 252.706 219.125Z" fill="white"/>
<path opacity="0.3" d="M247.244 224.466H232.349C232.169 224.476 231.99 224.445 231.823 224.377C231.657 224.308 231.508 224.204 231.386 224.071C231.265 223.938 231.174 223.78 231.121 223.608C231.068 223.436 231.053 223.254 231.079 223.076C231.113 222.708 231.282 222.365 231.554 222.114C231.825 221.863 232.18 221.721 232.549 221.716H247.444C247.619 221.712 247.792 221.745 247.952 221.814C248.113 221.882 248.257 221.984 248.374 222.113C248.492 222.242 248.58 222.395 248.634 222.561C248.688 222.727 248.705 222.903 248.685 223.076C248.658 223.444 248.496 223.79 248.23 224.047C247.965 224.303 247.613 224.453 247.244 224.466Z" fill="white"/>
<path d="M264.76 220.435C264.419 220.441 264.081 220.375 263.768 220.24C263.455 220.106 263.174 219.906 262.944 219.654C262.714 219.402 262.54 219.104 262.434 218.78C262.328 218.456 262.292 218.113 262.329 217.774C262.409 217.054 262.746 216.386 263.28 215.895C263.813 215.404 264.506 215.123 265.23 215.103C265.572 215.097 265.912 215.163 266.226 215.299C266.54 215.434 266.821 215.635 267.051 215.888C267.281 216.141 267.455 216.44 267.56 216.765C267.665 217.09 267.7 217.434 267.661 217.774C267.58 218.493 267.241 219.158 266.708 219.647C266.175 220.136 265.483 220.416 264.76 220.435Z" fill="#04D1FF"/>
<path d="M292.1 219.125H272.153C271.98 219.129 271.808 219.096 271.649 219.027C271.489 218.959 271.347 218.858 271.23 218.73C271.113 218.602 271.026 218.45 270.973 218.285C270.919 218.121 270.902 217.946 270.922 217.774C270.957 217.406 271.126 217.064 271.397 216.813C271.669 216.562 272.023 216.42 272.393 216.414H292.29C292.464 216.411 292.636 216.446 292.796 216.515C292.956 216.584 293.099 216.687 293.216 216.815C293.333 216.944 293.422 217.096 293.476 217.261C293.53 217.426 293.549 217.601 293.53 217.774C293.492 218.133 293.327 218.467 293.065 218.714C292.803 218.962 292.46 219.108 292.1 219.125Z" fill="#074687"/>
<path d="M286.588 224.466H271.693C271.518 224.471 271.345 224.437 271.184 224.368C271.024 224.3 270.88 224.198 270.763 224.069C270.645 223.94 270.557 223.787 270.503 223.621C270.449 223.455 270.432 223.279 270.452 223.106C270.487 222.738 270.656 222.396 270.927 222.144C271.199 221.893 271.553 221.751 271.923 221.746H286.828C287.002 221.738 287.176 221.767 287.337 221.832C287.499 221.897 287.645 221.996 287.766 222.122C287.886 222.248 287.978 222.398 288.035 222.563C288.093 222.727 288.114 222.902 288.098 223.076C288.07 223.456 287.899 223.812 287.618 224.07C287.337 224.328 286.969 224.47 286.588 224.466Z" fill="#074687"/>
<path opacity="0.3" d="M292.1 219.125H272.153C271.98 219.129 271.808 219.096 271.649 219.027C271.489 218.959 271.347 218.858 271.23 218.73C271.113 218.602 271.026 218.45 270.973 218.285C270.919 218.121 270.902 217.946 270.922 217.774C270.957 217.406 271.126 217.064 271.397 216.813C271.669 216.562 272.023 216.42 272.393 216.414H292.29C292.464 216.411 292.636 216.446 292.796 216.515C292.956 216.584 293.099 216.687 293.216 216.815C293.333 216.944 293.422 217.096 293.476 217.261C293.53 217.426 293.549 217.601 293.53 217.774C293.492 218.133 293.327 218.467 293.065 218.714C292.803 218.962 292.46 219.108 292.1 219.125Z" fill="white"/>
<path opacity="0.3" d="M286.588 224.466H271.693C271.518 224.471 271.345 224.437 271.184 224.368C271.024 224.3 270.88 224.198 270.763 224.069C270.645 223.94 270.557 223.787 270.503 223.621C270.449 223.455 270.432 223.279 270.452 223.106C270.487 222.738 270.656 222.396 270.927 222.144C271.199 221.893 271.553 221.751 271.923 221.746H286.828C287.002 221.738 287.176 221.767 287.337 221.832C287.499 221.897 287.645 221.996 287.766 222.122C287.886 222.248 287.978 222.398 288.035 222.563C288.093 222.727 288.114 222.902 288.098 223.076C288.07 223.456 287.899 223.812 287.618 224.07C287.337 224.328 286.969 224.47 286.588 224.466Z" fill="white"/>
<path d="M397.896 142.379H335.755C334.938 142.393 334.128 142.234 333.378 141.911C332.628 141.589 331.955 141.11 331.404 140.507C330.854 139.905 330.438 139.191 330.184 138.415C329.93 137.639 329.844 136.818 329.933 136.006L333.234 98.2635C333.41 96.5372 334.212 94.9353 335.49 93.761C336.767 92.5867 338.431 91.9215 340.166 91.8913H402.307C403.124 91.8766 403.934 92.0359 404.684 92.3585C405.434 92.6811 406.107 93.1598 406.657 93.7625C407.208 94.3653 407.624 95.0785 407.878 95.8545C408.132 96.6306 408.217 97.4518 408.129 98.2635L404.828 136.046C404.643 137.765 403.836 139.358 402.56 140.524C401.283 141.69 399.625 142.349 397.896 142.379Z" fill="#04D1FF"/>
<path d="M362.614 114.709C362.294 117.821 360.848 120.709 358.546 122.828C356.244 124.947 353.247 126.151 350.119 126.213C348.646 126.239 347.185 125.951 345.832 125.368C344.479 124.785 343.266 123.92 342.273 122.832C341.281 121.744 340.531 120.456 340.075 119.056C339.618 117.655 339.465 116.173 339.626 114.709C339.941 111.595 341.386 108.705 343.689 106.585C345.991 104.465 348.991 103.263 352.12 103.205C353.593 103.179 355.054 103.467 356.407 104.05C357.76 104.633 358.973 105.498 359.966 106.586C360.959 107.674 361.708 108.962 362.165 110.362C362.621 111.763 362.774 113.245 362.614 114.709Z" fill="#04D1FF"/>
<path opacity="0.7" d="M362.614 114.709C362.294 117.821 360.848 120.709 358.546 122.828C356.244 124.947 353.247 126.151 350.119 126.213C348.646 126.239 347.185 125.951 345.832 125.368C344.479 124.785 343.266 123.92 342.273 122.832C341.281 121.744 340.531 120.456 340.075 119.056C339.618 117.655 339.465 116.173 339.626 114.709C339.941 111.595 341.386 108.705 343.689 106.585C345.991 104.465 348.991 103.263 352.12 103.205C353.593 103.179 355.054 103.467 356.407 104.05C357.76 104.633 358.973 105.498 359.966 106.586C360.959 107.674 361.708 108.962 362.165 110.362C362.621 111.763 362.774 113.245 362.614 114.709Z" fill="white"/>
<path d="M354.591 112.668C354.371 115.189 353.411 117.23 350.89 117.23C348.369 117.23 347.759 115.229 347.979 112.668C348.199 110.107 349.169 108.107 351.69 108.107C354.211 108.107 354.811 110.148 354.591 112.668Z" fill="#074687"/>
<path d="M350.76 118.65C345.488 118.65 342.627 119.821 341.276 121.541C342.236 122.999 343.548 124.191 345.09 125.007C346.632 125.824 348.355 126.238 350.099 126.213C351.951 126.189 353.774 125.757 355.441 124.95C357.107 124.143 358.576 122.979 359.743 121.541C358.692 119.821 356.041 118.65 350.76 118.65Z" fill="#074687"/>
<path d="M389.713 101.865H371.036C370.834 101.869 370.633 101.83 370.447 101.75C370.261 101.67 370.094 101.551 369.958 101.401C369.821 101.252 369.718 101.075 369.656 100.882C369.594 100.689 369.573 100.485 369.596 100.284C369.64 99.856 369.839 99.4587 370.156 99.1674C370.473 98.8762 370.886 98.7112 371.317 98.7037H389.993C390.195 98.6995 390.396 98.7387 390.583 98.8186C390.769 98.8985 390.935 99.0173 391.072 99.167C391.208 99.3167 391.311 99.4938 391.374 99.6865C391.436 99.8792 391.456 100.083 391.433 100.284C391.392 100.713 391.193 101.112 390.875 101.404C390.558 101.695 390.144 101.859 389.713 101.865Z" fill="white"/>
<path d="M394.695 113.539H370.016C369.814 113.543 369.613 113.504 369.427 113.424C369.241 113.344 369.074 113.225 368.937 113.075C368.801 112.926 368.698 112.749 368.636 112.556C368.573 112.363 368.553 112.159 368.576 111.958C368.619 111.529 368.818 111.131 369.135 110.838C369.452 110.545 369.865 110.378 370.296 110.368H394.975C395.178 110.365 395.379 110.406 395.565 110.487C395.751 110.568 395.918 110.687 396.054 110.838C396.19 110.988 396.293 111.166 396.355 111.359C396.417 111.552 396.438 111.757 396.415 111.958C396.373 112.387 396.175 112.786 395.857 113.078C395.54 113.369 395.126 113.533 394.695 113.539Z" fill="white"/>
<path d="M399.186 119.371H369.506C369.303 119.375 369.102 119.336 368.916 119.256C368.73 119.176 368.563 119.057 368.427 118.907C368.291 118.758 368.188 118.581 368.125 118.388C368.063 118.195 368.043 117.991 368.065 117.79C368.109 117.362 368.309 116.965 368.626 116.673C368.943 116.382 369.356 116.217 369.786 116.21H399.466C399.669 116.206 399.87 116.245 400.056 116.325C400.242 116.405 400.409 116.523 400.545 116.673C400.682 116.823 400.784 117 400.847 117.192C400.909 117.385 400.93 117.589 400.907 117.79C400.865 118.219 400.666 118.618 400.349 118.909C400.031 119.201 399.617 119.365 399.186 119.371Z" fill="white"/>
<path d="M396.675 125.213H368.996C368.793 125.215 368.592 125.175 368.406 125.094C368.219 125.013 368.053 124.893 367.916 124.743C367.78 124.592 367.678 124.414 367.615 124.221C367.553 124.028 367.533 123.824 367.555 123.622C367.601 123.195 367.801 122.799 368.118 122.508C368.434 122.217 368.846 122.051 369.276 122.042H396.955C397.158 122.037 397.359 122.077 397.545 122.157C397.731 122.236 397.898 122.355 398.034 122.505C398.171 122.655 398.274 122.832 398.336 123.024C398.398 123.217 398.419 123.421 398.396 123.622C398.354 124.052 398.156 124.452 397.839 124.745C397.521 125.038 397.107 125.205 396.675 125.213Z" fill="white"/>
<path d="M393.134 131.045H368.486C368.283 131.049 368.082 131.01 367.896 130.93C367.71 130.85 367.543 130.731 367.407 130.581C367.27 130.432 367.167 130.255 367.105 130.062C367.043 129.869 367.022 129.665 367.045 129.464C367.087 129.034 367.285 128.634 367.602 128.341C367.92 128.048 368.334 127.881 368.766 127.874H393.444C393.647 127.871 393.848 127.911 394.034 127.992C394.221 128.074 394.387 128.193 394.523 128.344C394.66 128.494 394.762 128.672 394.825 128.865C394.887 129.058 394.907 129.262 394.885 129.464C394.84 129.897 394.637 130.299 394.313 130.591C393.99 130.883 393.57 131.044 393.134 131.045Z" fill="white"/>
<path d="M395.655 136.877H367.975C367.773 136.881 367.572 136.842 367.386 136.762C367.2 136.682 367.033 136.563 366.897 136.413C366.76 136.264 366.657 136.087 366.595 135.894C366.533 135.701 366.512 135.497 366.535 135.296C366.577 134.867 366.776 134.469 367.093 134.177C367.411 133.885 367.824 133.721 368.256 133.716H395.935C396.137 133.711 396.339 133.751 396.525 133.831C396.711 133.911 396.878 134.029 397.014 134.179C397.15 134.329 397.253 134.506 397.316 134.698C397.378 134.891 397.398 135.095 397.375 135.296C397.329 135.724 397.129 136.12 396.813 136.411C396.496 136.701 396.085 136.867 395.655 136.877Z" fill="white"/>
<path d="M317.108 142.379H210.222C209.405 142.393 208.595 142.234 207.845 141.911C207.095 141.589 206.422 141.11 205.872 140.507C205.321 139.904 204.905 139.191 204.651 138.415C204.397 137.639 204.312 136.818 204.4 136.006L210.342 68.1032C210.518 66.3769 211.32 64.775 212.598 63.6007C213.875 62.4264 215.539 61.7612 217.274 61.731H324.111C324.927 61.7161 325.736 61.8753 326.486 62.1981C327.236 62.5208 327.908 62.9996 328.458 63.6026C329.008 64.2056 329.423 64.9189 329.675 65.6949C329.928 66.471 330.012 67.292 329.923 68.1032L324.031 136.046C323.844 137.763 323.038 139.353 321.764 140.518C320.49 141.683 318.835 142.345 317.108 142.379Z" fill="#04D1FF"/>
<path opacity="0.7" d="M317.108 142.379H210.222C209.405 142.393 208.595 142.234 207.845 141.911C207.095 141.589 206.422 141.11 205.872 140.507C205.321 139.904 204.905 139.191 204.651 138.415C204.397 137.639 204.312 136.818 204.4 136.006L210.342 68.1032C210.518 66.3769 211.32 64.775 212.598 63.6007C213.875 62.4264 215.539 61.7612 217.274 61.731H324.111C324.927 61.7161 325.736 61.8753 326.486 62.1981C327.236 62.5208 327.908 62.9996 328.458 63.6026C329.008 64.2056 329.423 64.9189 329.675 65.6949C329.928 66.471 330.012 67.292 329.923 68.1032L324.031 136.046C323.844 137.763 323.038 139.353 321.764 140.518C320.49 141.683 318.835 142.345 317.108 142.379Z" fill="white"/>
<path d="M327.722 93.7519C325.651 86.2793 322.38 78.7968 317.618 78.7968C308.615 78.7968 304.244 92.8816 299.612 107.807C295.531 120.911 291.309 134.456 284.727 134.456C276.374 134.456 274.084 117.7 271.873 101.495C269.392 83.3384 267.051 66.1825 256.288 66.1825C245.524 66.1825 240.192 83.3384 234.53 101.495C229.478 117.7 224.267 134.456 215.904 134.456C212.002 134.456 208.371 122.912 206.461 112.648L205.59 122.652C207.671 130.064 210.922 137.437 215.644 137.437C226.407 137.437 231.749 120.281 237.401 102.125C242.403 85.9292 247.675 69.1635 256.027 69.1635C264.38 69.1635 266.671 85.9292 268.882 102.175C271.363 120.331 273.703 137.487 284.467 137.487C293.47 137.487 297.842 123.402 302.473 108.477C306.555 95.3724 310.776 81.8278 317.368 81.8278C321.3 81.8278 324.961 93.5318 326.852 103.835L327.722 93.7519Z" fill="#04D1FF"/>
<path d="M259.544 70.1587C261.348 68.4319 261.528 65.6926 259.946 64.0404C258.365 62.3882 255.62 62.4487 253.816 64.1755C252.012 65.9023 251.832 68.6416 253.414 70.2938C254.996 71.946 257.74 71.8855 259.544 70.1587Z" fill="#074687"/>
<path d="M258.09 68.6283C258.984 67.7724 259.07 66.4122 258.283 65.5902C257.496 64.7682 256.133 64.7958 255.239 65.6517C254.346 66.5076 254.259 67.8678 255.046 68.6898C255.834 69.5118 257.196 69.4843 258.09 68.6283Z" fill="#04D1FF"/>
<path d="M265.771 48.8666H250.766C249.981 48.8818 249.229 49.1828 248.65 49.7133C248.072 50.2438 247.707 50.9672 247.625 51.7476L247.384 54.4886C247.345 54.8554 247.383 55.2266 247.498 55.5773C247.613 55.9281 247.801 56.2504 248.05 56.5229C248.298 56.7954 248.602 57.0118 248.941 57.1578C249.28 57.3038 249.646 57.3759 250.015 57.3695H255.017L256.508 59.6203C256.606 59.7528 256.735 59.8603 256.882 59.9344C257.03 60.0085 257.193 60.0471 257.358 60.0471C257.523 60.0471 257.686 60.0085 257.834 59.9344C257.981 59.8603 258.109 59.7528 258.208 59.6203L260.089 57.3695H265.09C265.874 57.3541 266.625 57.0527 267.202 56.5221C267.778 55.9914 268.141 55.2681 268.222 54.4886L268.462 51.7476C268.502 51.3756 268.462 50.9992 268.344 50.6441C268.226 50.289 268.032 49.9636 267.777 49.6901C267.521 49.4166 267.21 49.2014 266.864 49.0593C266.517 48.9172 266.145 48.8515 265.771 48.8666Z" fill="#04D1FF"/>
<path d="M264.6 52.4879H250.966C250.87 52.49 250.774 52.4715 250.686 52.4336C250.598 52.3956 250.519 52.3392 250.454 52.268C250.39 52.1969 250.341 52.1127 250.312 52.0212C250.283 51.9297 250.274 51.833 250.285 51.7377C250.313 51.5429 250.409 51.3641 250.555 51.2325C250.701 51.1009 250.889 51.0248 251.086 51.0174H264.71C264.806 51.0169 264.9 51.0365 264.988 51.075C265.075 51.1135 265.154 51.1699 265.218 51.2407C265.282 51.3115 265.331 51.395 265.36 51.4858C265.39 51.5766 265.4 51.6726 265.39 51.7677C265.367 51.9624 265.274 52.1421 265.129 52.2742C264.984 52.4064 264.796 52.4822 264.6 52.4879Z" fill="#074687"/>
<path d="M256.968 55.2087H250.736C250.639 55.2107 250.544 55.1921 250.455 55.1543C250.366 55.1164 250.287 55.0601 250.221 54.9892C250.156 54.9183 250.107 54.8343 250.076 54.7428C250.046 54.6513 250.035 54.5544 250.045 54.4585C250.065 54.2541 250.16 54.0644 250.311 53.9258C250.463 53.7873 250.66 53.7098 250.866 53.7082H257.088C257.184 53.7061 257.279 53.7246 257.367 53.7626C257.456 53.8005 257.535 53.857 257.599 53.9281C257.664 53.9993 257.712 54.0834 257.741 54.1749C257.77 54.2664 257.779 54.3631 257.768 54.4585C257.747 54.6587 257.654 54.8445 257.507 54.9822C257.36 55.1199 257.169 55.2003 256.968 55.2087Z" fill="#074687"/>
<path d="M286.925 137.028C288.729 135.301 288.909 132.562 287.328 130.909C285.746 129.257 283.001 129.318 281.198 131.044C279.394 132.771 279.214 135.511 280.795 137.163C282.377 138.815 285.121 138.754 286.925 137.028Z" fill="#074687"/>
<path d="M286.208 134.046C286.149 134.627 285.88 135.167 285.45 135.563C285.021 135.959 284.461 136.185 283.877 136.196C283.598 136.208 283.32 136.16 283.061 136.054C282.803 135.948 282.571 135.787 282.38 135.583C282.19 135.378 282.047 135.135 281.96 134.869C281.872 134.604 281.844 134.323 281.876 134.046C281.935 133.464 282.204 132.924 282.634 132.528C283.063 132.132 283.623 131.907 284.207 131.895C284.486 131.883 284.764 131.932 285.022 132.038C285.281 132.144 285.513 132.304 285.703 132.509C285.893 132.713 286.037 132.957 286.124 133.222C286.211 133.487 286.24 133.768 286.208 134.046Z" fill="#04D1FF"/>
<path d="M293.16 115.729H278.155C277.371 115.745 276.62 116.046 276.044 116.577C275.467 117.108 275.104 117.831 275.024 118.61L274.784 121.341C274.742 121.709 274.78 122.081 274.894 122.433C275.008 122.785 275.196 123.109 275.445 123.382C275.694 123.656 275.998 123.873 276.338 124.02C276.678 124.167 277.045 124.239 277.415 124.232H282.366L283.857 126.483C283.958 126.614 284.087 126.72 284.236 126.793C284.384 126.866 284.547 126.903 284.712 126.903C284.877 126.903 285.04 126.866 285.189 126.793C285.337 126.72 285.466 126.614 285.567 126.483L287.448 124.232H292.4C293.187 124.219 293.941 123.917 294.52 123.384C295.099 122.851 295.462 122.124 295.541 121.341L295.781 118.61C295.821 118.244 295.782 117.874 295.668 117.524C295.554 117.174 295.367 116.852 295.119 116.58C294.871 116.308 294.569 116.091 294.231 115.944C293.893 115.798 293.528 115.725 293.16 115.729Z" fill="#074687"/>
<path d="M291.99 119.351H278.355C278.259 119.353 278.164 119.334 278.075 119.296C277.987 119.258 277.908 119.202 277.844 119.131C277.779 119.06 277.731 118.976 277.702 118.884C277.672 118.793 277.663 118.696 277.675 118.6C277.694 118.398 277.788 118.209 277.937 118.071C278.086 117.933 278.281 117.854 278.485 117.85H292.1C292.195 117.85 292.29 117.869 292.377 117.908C292.465 117.946 292.543 118.003 292.607 118.074C292.671 118.144 292.72 118.228 292.75 118.319C292.779 118.409 292.79 118.505 292.78 118.6C292.763 118.801 292.673 118.988 292.527 119.126C292.382 119.264 292.19 119.344 291.99 119.351Z" fill="white"/>
<path d="M284.357 122.042H278.095C277.999 122.044 277.903 122.025 277.815 121.987C277.727 121.949 277.648 121.893 277.583 121.822C277.519 121.751 277.471 121.666 277.441 121.575C277.412 121.483 277.403 121.387 277.415 121.291C277.436 121.089 277.53 120.902 277.679 120.764C277.828 120.626 278.022 120.547 278.225 120.541H284.467C284.563 120.539 284.659 120.558 284.748 120.596C284.836 120.633 284.916 120.69 284.981 120.761C285.047 120.832 285.096 120.916 285.126 121.007C285.157 121.099 285.167 121.195 285.157 121.291C285.138 121.492 285.046 121.679 284.899 121.817C284.751 121.955 284.559 122.035 284.357 122.042Z" fill="white"/>
<path d="M321.87 80.0273C321.752 81.1997 321.209 82.2883 320.342 83.0867C319.476 83.8851 318.346 84.3377 317.168 84.3588C316.613 84.3693 316.063 84.2613 315.553 84.0421C315.043 83.8228 314.586 83.4974 314.212 83.0874C313.838 82.6775 313.556 82.1925 313.384 81.6648C313.213 81.1371 313.156 80.5788 313.217 80.0273C313.339 78.8575 313.884 77.7726 314.75 76.9767C315.616 76.1808 316.743 75.7288 317.918 75.7058C318.472 75.6955 319.022 75.8032 319.531 76.0219C320.04 76.2405 320.497 76.565 320.87 76.9739C321.244 77.3827 321.527 77.8665 321.699 78.3929C321.871 78.9194 321.93 79.4766 321.87 80.0273Z" fill="#074687"/>
<path d="M319.689 80.0273C319.63 80.6087 319.361 81.1485 318.932 81.5448C318.502 81.941 317.942 82.1663 317.358 82.178C317.079 82.19 316.801 82.1413 316.543 82.0353C316.284 81.9293 316.052 81.7686 315.862 81.5641C315.672 81.3597 315.528 81.1164 315.441 80.8511C315.354 80.5857 315.325 80.3047 315.358 80.0273C315.418 79.4477 315.689 78.9103 316.118 78.5161C316.547 78.1219 317.106 77.898 317.688 77.8866C317.966 77.8748 318.244 77.9233 318.501 78.0287C318.759 78.1341 318.991 78.2939 319.181 78.4972C319.371 78.7005 319.514 78.9425 319.602 79.2066C319.69 79.4707 319.72 79.7507 319.689 80.0273Z" fill="#04D1FF"/>
<path d="M326.641 61.731H311.636C310.851 61.744 310.098 62.0443 309.519 62.5752C308.94 63.1061 308.576 63.8307 308.495 64.612L308.255 67.3529C308.215 67.7198 308.254 68.0909 308.369 68.4417C308.483 68.7924 308.671 69.1147 308.92 69.3872C309.169 69.6597 309.473 69.8762 309.812 70.0221C310.151 70.1681 310.517 70.2403 310.886 70.2339H315.888L317.378 72.4846C317.477 72.6171 317.605 72.7247 317.753 72.7988C317.9 72.8729 318.063 72.9115 318.229 72.9115C318.394 72.9115 318.557 72.8729 318.704 72.7988C318.852 72.7247 318.98 72.6171 319.079 72.4846L320.96 70.2339H325.911C326.696 70.2209 327.45 69.9206 328.029 69.3897C328.607 68.8588 328.972 68.1342 329.052 67.3529L329.292 64.612C329.332 64.2434 329.293 63.8705 329.177 63.5183C329.061 63.1661 328.872 62.8428 328.621 62.57C328.37 62.2971 328.063 62.0811 327.722 61.9364C327.38 61.7917 327.012 61.7217 326.641 61.731Z" fill="#04D1FF"/>
<path d="M325.471 65.3523H311.836C311.74 65.3544 311.645 65.3359 311.557 65.2979C311.469 65.26 311.389 65.2035 311.325 65.1324C311.26 65.0612 311.212 64.9771 311.183 64.8856C311.154 64.794 311.145 64.6974 311.156 64.602C311.176 64.3994 311.269 64.211 311.418 64.0726C311.568 63.9343 311.763 63.8557 311.966 63.8518H325.601C325.697 63.8512 325.791 63.8709 325.879 63.9093C325.966 63.9478 326.044 64.0043 326.109 64.0751C326.173 64.1459 326.221 64.2294 326.251 64.3201C326.281 64.4109 326.291 64.507 326.281 64.602C326.264 64.8055 326.171 64.9952 326.021 65.1339C325.871 65.2727 325.675 65.3505 325.471 65.3523Z" fill="#074687"/>
<path d="M317.838 68.0732H311.596C311.501 68.0737 311.406 68.0541 311.319 68.0156C311.231 67.9771 311.153 67.9207 311.089 67.8499C311.025 67.7791 310.976 67.6956 310.946 67.6048C310.917 67.514 310.906 67.418 310.916 67.323C310.936 67.1186 311.031 66.9289 311.182 66.7903C311.334 66.6517 311.531 66.5742 311.736 66.5727H317.968C318.065 66.5708 318.161 66.5893 318.249 66.6272C318.338 66.665 318.417 66.7213 318.483 66.7922C318.548 66.8632 318.597 66.9472 318.628 67.0387C318.658 67.1302 318.669 67.2271 318.659 67.323C318.637 67.5265 318.541 67.715 318.39 67.8531C318.239 67.9913 318.043 68.0695 317.838 68.0732Z" fill="#074687"/>
<path d="M221.315 134.526C221.196 135.696 220.651 136.783 219.785 137.579C218.918 138.375 217.79 138.826 216.614 138.847C216.061 138.856 215.512 138.747 215.004 138.528C214.497 138.309 214.041 137.984 213.668 137.575C213.296 137.167 213.014 136.683 212.842 136.158C212.671 135.632 212.613 135.076 212.672 134.526C212.79 133.353 213.333 132.265 214.2 131.466C215.066 130.668 216.196 130.215 217.374 130.194C217.928 130.185 218.478 130.294 218.986 130.514C219.495 130.734 219.951 131.06 220.323 131.469C220.696 131.879 220.978 132.364 221.149 132.891C221.32 133.418 221.377 133.975 221.315 134.526Z" fill="#074687"/>
<path d="M219.145 134.526C219.084 135.107 218.812 135.646 218.381 136.04C217.949 136.435 217.388 136.658 216.804 136.667C216.526 136.677 216.25 136.627 215.993 136.521C215.736 136.415 215.505 136.255 215.316 136.052C215.126 135.849 214.982 135.608 214.894 135.345C214.805 135.081 214.775 134.802 214.803 134.526C214.864 133.944 215.136 133.404 215.567 133.008C215.998 132.611 216.559 132.387 217.144 132.375C217.423 132.365 217.7 132.415 217.958 132.521C218.215 132.628 218.447 132.789 218.637 132.993C218.826 133.197 218.97 133.439 219.058 133.704C219.145 133.968 219.175 134.249 219.145 134.526Z" fill="#04D1FF"/>
<path d="M226.077 116.22H211.072C210.287 116.235 209.535 116.536 208.957 117.066C208.378 117.597 208.014 118.32 207.931 119.101L207.701 121.842C207.659 122.209 207.697 122.581 207.811 122.932C207.925 123.284 208.113 123.607 208.362 123.879C208.611 124.152 208.916 124.369 209.256 124.514C209.595 124.66 209.962 124.731 210.332 124.723H215.333L216.824 126.973C216.923 127.106 217.051 127.213 217.199 127.287C217.346 127.362 217.509 127.4 217.674 127.4C217.839 127.4 218.002 127.362 218.15 127.287C218.298 127.213 218.426 127.106 218.524 126.973L220.415 124.723H225.417C226.202 124.707 226.954 124.406 227.532 123.876C228.11 123.345 228.475 122.622 228.558 121.842L228.788 119.101C228.831 118.727 228.791 118.348 228.673 117.99C228.554 117.633 228.359 117.306 228.101 117.031C227.843 116.757 227.528 116.543 227.178 116.402C226.829 116.262 226.453 116.2 226.077 116.22Z" fill="#074687"/>
<path d="M224.917 119.851H211.292C211.196 119.853 211.1 119.834 211.011 119.796C210.923 119.758 210.843 119.702 210.778 119.631C210.713 119.56 210.663 119.476 210.633 119.385C210.602 119.293 210.592 119.196 210.602 119.101C210.622 118.896 210.716 118.706 210.868 118.568C211.019 118.429 211.217 118.352 211.422 118.35H225.077C225.173 118.348 225.269 118.367 225.357 118.405C225.446 118.443 225.526 118.499 225.591 118.57C225.656 118.641 225.706 118.725 225.736 118.816C225.766 118.908 225.777 119.005 225.767 119.101C225.744 119.309 225.645 119.502 225.487 119.641C225.33 119.78 225.126 119.855 224.917 119.851Z" fill="white"/>
<path d="M217.294 122.562H211.072C210.976 122.562 210.882 122.543 210.794 122.504C210.707 122.466 210.629 122.409 210.564 122.338C210.5 122.268 210.452 122.184 210.422 122.093C210.392 122.003 210.382 121.907 210.392 121.812C210.409 121.608 210.502 121.418 210.652 121.28C210.802 121.141 210.998 121.063 211.202 121.061H217.444C217.54 121.059 217.636 121.078 217.724 121.116C217.812 121.154 217.891 121.21 217.956 121.281C218.02 121.352 218.069 121.436 218.098 121.528C218.127 121.619 218.136 121.716 218.124 121.812C218.104 122.018 218.008 122.209 217.855 122.348C217.701 122.486 217.501 122.563 217.294 122.562Z" fill="white"/>
</svg>
