<svg width="452" height="624" viewBox="0 0 452 624" fill="none" xmlns="http://www.w3.org/2000/svg">
<path d="M199.307 104.129C198.148 102.742 131.022 71.6102 70.2266 117.998C14.3423 160.65 -5.05809 240.813 2.36595 242.738C11.4543 245.088 36.3534 206.842 84.1446 185.81C101.098 178.353 128.069 185.81 128.069 185.81L199.307 104.129Z" fill="#0171E5"/>
<path opacity="0.1" d="M128.102 185.795C120.098 183.759 111.884 182.664 103.627 182.532C114.167 160.472 133.845 119.321 146.621 92.6602C176.693 92.9375 198.72 103.364 199.389 104.082L128.102 185.795Z" fill="black"/>
<path d="M309.885 234.547C311.06 235.917 330.803 307.237 275.082 359.613C223.864 407.78 141.613 413.801 140.927 406.165C140.095 396.815 181.914 378.508 210.468 334.796C220.585 319.295 217.664 291.459 217.664 291.459L309.885 234.547Z" fill="#0171E5"/>
<path opacity="0.1" d="M312.481 288.848L216.768 316.701C218.047 308.35 218.326 299.876 217.6 291.459L309.821 234.547C310.555 235.33 317.376 258.973 312.481 288.848Z" fill="black"/>
<path d="M153.606 321.728L88.0459 244.404C88.0459 244.404 122.311 152.721 203.502 91.1423C244.081 60.4182 291.611 37.4282 334.312 22.2211C393.133 1.14013 442.344 -4.92964 449.964 4.01184C457.584 12.9533 443.437 60.5651 413.121 115.177C391.11 154.679 360.631 197.885 323.69 232.901C249.645 302.997 153.606 321.728 153.606 321.728Z" fill="#0171E5"/>
<path d="M312.871 199.791C304.053 207.275 293.214 211.975 281.724 213.297C270.234 214.619 258.61 212.504 248.323 207.218C238.036 201.932 229.548 193.714 223.932 183.603C218.317 173.492 215.827 161.942 216.777 150.416C217.727 138.889 222.074 127.903 229.27 118.848C236.465 109.793 246.184 103.075 257.198 99.5455C268.212 96.0154 280.025 95.8316 291.144 99.0171C302.262 102.203 312.186 108.614 319.659 117.441C329.666 129.267 334.572 144.581 333.299 160.02C332.027 175.46 324.68 189.763 312.871 199.791Z" fill="#A6A6A6"/>
<path d="M316.07 194.358C307.25 201.836 296.411 206.53 284.924 207.847C273.436 209.164 261.816 207.045 251.533 201.758C241.25 196.471 232.765 188.254 227.152 178.145C221.539 168.036 219.05 156.489 219.999 144.965C220.948 133.442 225.294 122.458 232.485 113.404C239.677 104.35 249.392 97.6314 260.401 94.0985C271.411 90.5656 283.221 90.3768 294.339 93.5561C305.456 96.7353 315.38 103.14 322.858 111.96C332.88 123.788 337.795 139.113 336.522 154.564C335.249 170.016 327.893 184.329 316.07 194.358Z" fill="#0171E5"/>
<path d="M304.502 180.67C298.39 185.866 290.875 189.133 282.906 190.056C274.937 190.98 266.874 189.519 259.736 185.858C252.598 182.198 246.706 176.502 242.806 169.492C238.906 162.482 237.173 154.472 237.826 146.477C238.479 138.482 241.49 130.86 246.476 124.576C251.463 118.292 258.201 113.628 265.839 111.175C273.476 108.722 281.67 108.589 289.383 110.794C297.096 112.999 303.982 117.442 309.169 123.562C316.115 131.757 319.525 142.374 318.65 153.081C317.775 163.789 312.687 173.711 304.502 180.67Z" fill="white"/>
<path d="M304.516 180.67C300.69 183.928 296.292 186.446 291.545 188.094L258.912 185.435C254.496 183.041 250.566 179.843 247.327 176.004C244.948 173.217 242.966 170.115 241.437 166.785L311.761 172.512C309.73 175.55 307.293 178.295 304.516 180.67Z" fill="#EBEBEB"/>
<path d="M312.675 128.343L247.768 123.057C249.074 121.554 250.492 120.152 252.01 118.863C260.203 111.913 270.821 108.5 281.53 109.375C292.239 110.25 302.162 115.341 309.118 123.53C310.424 125.042 311.613 126.651 312.675 128.343Z" fill="#EBEBEB"/>
<path d="M316.2 164.111L238.533 157.764C238.276 156.574 238.085 155.37 237.962 154.158L317.326 160.685C317.016 161.794 316.624 162.953 316.2 164.111Z" fill="#EBEBEB"/>
<path d="M413.12 115.178L334.311 22.1735C393.133 1.14142 442.343 -4.92834 449.963 4.01314C457.583 12.9546 443.502 60.5664 413.12 115.178Z" fill="#0171E5"/>
<path d="M357.481 30.0677C356.967 30.5056 356.335 30.7812 355.665 30.8596C354.994 30.938 354.316 30.8157 353.715 30.508C353.114 30.2004 352.618 29.7214 352.289 29.1316C351.961 28.5419 351.815 27.8679 351.87 27.1951C351.925 26.5223 352.178 25.8809 352.598 25.3522C353.018 24.8235 353.585 24.4313 354.228 24.2252C354.87 24.0191 355.56 24.0084 356.209 24.1945C356.858 24.3806 357.437 24.7551 357.873 25.2706C358.455 25.9594 358.741 26.8509 358.668 27.75C358.594 28.6491 358.168 29.4824 357.481 30.0677Z" fill="white"/>
<path d="M371.496 46.6134C371.156 46.9128 370.759 47.1413 370.33 47.2855C369.9 47.4298 369.446 47.487 368.994 47.4537C368.542 47.4204 368.101 47.2973 367.697 47.0917C367.293 46.886 366.934 46.6019 366.641 46.2559C366.348 45.9099 366.127 45.509 365.991 45.0766C365.855 44.6443 365.807 44.1891 365.849 43.7378C365.89 43.2864 366.022 42.848 366.235 42.448C366.448 42.0481 366.739 41.6946 367.091 41.4084C367.783 40.8444 368.67 40.5747 369.559 40.6572C370.449 40.7397 371.27 41.1678 371.847 41.8496C372.424 42.5314 372.711 43.4124 372.645 44.3032C372.579 45.194 372.167 46.0235 371.496 46.6134Z" fill="white"/>
<path d="M385.512 63.144C384.993 63.5665 384.362 63.8272 383.696 63.8934C383.03 63.9597 382.36 63.8286 381.768 63.5166C381.176 63.2046 380.689 62.7254 380.368 62.1386C380.046 61.5519 379.904 60.8835 379.96 60.2168C380.016 59.5501 380.266 58.9144 380.68 58.389C381.094 57.8635 381.654 57.4715 382.289 57.2618C382.925 57.052 383.608 57.0338 384.253 57.2093C384.899 57.3849 385.478 57.7464 385.92 58.249C386.225 58.5924 386.457 58.9942 386.602 59.4299C386.747 59.8656 386.802 60.3262 386.764 60.7838C386.726 61.2414 386.595 61.6866 386.38 62.0923C386.165 62.4979 385.87 62.8557 385.512 63.144Z" fill="white"/>
<path d="M399.544 79.685C399.027 80.1095 398.396 80.3724 397.731 80.441C397.065 80.5096 396.394 80.3809 395.801 80.0709C395.208 79.7609 394.719 79.2833 394.396 78.6976C394.072 78.1118 393.928 77.4439 393.982 76.7769C394.035 76.1099 394.283 75.4733 394.696 74.9465C395.108 74.4197 395.667 74.0258 396.301 73.814C396.936 73.6022 397.619 73.5818 398.265 73.7554C398.912 73.9289 399.493 74.2888 399.936 74.7901C400.239 75.1335 400.471 75.5346 400.616 75.9694C400.761 76.4042 400.817 76.8638 400.78 77.3208C400.744 77.7777 400.615 78.2226 400.403 78.6288C400.191 79.035 399.898 79.3943 399.544 79.685Z" fill="white"/>
<path d="M413.643 96.2328C413.128 96.6685 412.497 96.9421 411.827 97.0188C411.157 97.0956 410.48 96.9722 409.88 96.6642C409.281 96.3562 408.786 95.8774 408.458 95.2883C408.131 94.6992 407.985 94.0262 408.04 93.3543C408.094 92.6825 408.347 92.0419 408.765 91.5135C409.184 90.9851 409.75 90.5926 410.391 90.3856C411.033 90.1785 411.721 90.1662 412.369 90.3502C413.018 90.5343 413.597 90.9063 414.034 91.4194C414.325 91.7609 414.546 92.1565 414.684 92.5834C414.822 93.0103 414.874 93.4602 414.837 93.9074C414.801 94.3545 414.677 94.7901 414.472 95.1891C414.267 95.5882 413.985 95.9428 413.643 96.2328Z" fill="white"/>
<path d="M106.892 242.59C106.199 243.154 105.313 243.423 104.423 243.341C103.534 243.258 102.712 242.83 102.135 242.148C101.558 241.467 101.272 240.586 101.337 239.695C101.403 238.804 101.815 237.975 102.486 237.385C102.827 237.085 103.223 236.857 103.653 236.713C104.083 236.568 104.537 236.511 104.989 236.544C105.441 236.578 105.882 236.701 106.286 236.906C106.69 237.112 107.048 237.396 107.341 237.742C107.634 238.088 107.855 238.489 107.991 238.921C108.127 239.354 108.176 239.809 108.134 240.26C108.092 240.712 107.961 241.15 107.747 241.55C107.534 241.95 107.243 242.303 106.892 242.59Z" fill="#A6A6A6"/>
<path d="M120.989 259.136C120.472 259.561 119.841 259.824 119.176 259.892C118.51 259.961 117.839 259.832 117.246 259.522C116.653 259.212 116.165 258.734 115.841 258.149C115.518 257.563 115.374 256.895 115.427 256.228C115.48 255.561 115.729 254.924 116.141 254.398C116.554 253.871 117.112 253.477 117.747 253.265C118.381 253.053 119.064 253.033 119.711 253.207C120.357 253.38 120.938 253.74 121.381 254.241C121.685 254.585 121.916 254.986 122.061 255.421C122.206 255.855 122.262 256.315 122.225 256.772C122.189 257.229 122.061 257.674 121.848 258.08C121.636 258.486 121.344 258.845 120.989 259.136Z" fill="#A6A6A6"/>
<path d="M135.003 275.713C134.489 276.149 133.857 276.423 133.187 276.499C132.518 276.576 131.84 276.453 131.241 276.145C130.641 275.837 130.146 275.358 129.819 274.769C129.491 274.18 129.345 273.507 129.4 272.835C129.455 272.163 129.707 271.522 130.126 270.994C130.544 270.466 131.11 270.073 131.751 269.866C132.393 269.659 133.081 269.647 133.73 269.831C134.378 270.015 134.958 270.387 135.395 270.9C135.686 271.241 135.906 271.637 136.044 272.064C136.182 272.491 136.234 272.941 136.198 273.388C136.161 273.835 136.037 274.271 135.832 274.67C135.627 275.069 135.345 275.423 135.003 275.713Z" fill="#A6A6A6"/>
<path d="M149.02 292.21C148.502 292.635 147.872 292.898 147.206 292.966C146.541 293.035 145.869 292.906 145.276 292.596C144.684 292.286 144.195 291.809 143.871 291.223C143.548 290.637 143.404 289.969 143.457 289.302C143.511 288.635 143.759 287.999 144.171 287.472C144.584 286.945 145.142 286.551 145.777 286.339C146.412 286.128 147.095 286.107 147.741 286.281C148.387 286.454 148.968 286.814 149.411 287.315C149.715 287.659 149.946 288.06 150.091 288.495C150.236 288.93 150.292 289.389 150.256 289.846C150.219 290.303 150.091 290.748 149.879 291.154C149.666 291.56 149.374 291.92 149.02 292.21Z" fill="#A6A6A6"/>
<path d="M163.036 308.74C162.517 309.162 161.885 309.423 161.22 309.489C160.554 309.555 159.883 309.424 159.291 309.112C158.7 308.8 158.213 308.321 157.891 307.734C157.57 307.148 157.428 306.479 157.483 305.813C157.539 305.146 157.789 304.51 158.204 303.985C158.618 303.459 159.177 303.067 159.813 302.857C160.448 302.648 161.131 302.629 161.777 302.805C162.422 302.981 163.002 303.342 163.444 303.845C163.748 304.188 163.98 304.59 164.125 305.026C164.27 305.461 164.326 305.922 164.287 306.38C164.249 306.837 164.119 307.282 163.904 307.688C163.688 308.094 163.393 308.451 163.036 308.74Z" fill="#A6A6A6"/>
<path opacity="0.2" d="M446.276 1.71051C400.884 4.97382 322.27 32.4509 239.562 97.3256C178.44 145.247 133.847 229.115 113.059 273.904L88.0459 244.403C88.0459 244.403 122.311 152.72 203.502 91.1416C244.081 60.4175 291.611 37.4275 334.312 22.2204C387.031 3.30953 432.016 -3.54343 446.276 1.71051Z" fill="white"/>
<path d="M124.316 334.325L71.0098 271.441L91.7481 248.777L150.064 317.568L124.316 334.325Z" fill="#0171E5"/>
<path opacity="0.1" d="M150.065 317.565L137.517 325.724L83.8193 257.439L91.7492 248.791L150.065 317.565Z" fill="black"/>
<path d="M412.287 123.577L387.926 121.945L376.472 145.147L377.516 119.302L355.358 109.055L379.964 109.3L391.157 87.4844L390.57 111.992L412.287 123.577Z" fill="#FCFCFC"/>
<path d="M406.299 33.5931L392.674 32.6957L386.278 45.6673L386.866 31.2108L374.481 25.4837L388.236 25.6143L394.486 13.4258L394.159 27.1317L406.299 33.5931Z" fill="#FCFCFC"/>
<path d="M296.131 310.191L282.523 309.277L276.127 322.249L276.698 307.808L264.313 302.081L278.068 302.212L284.334 290.023L283.991 303.729L296.131 310.191Z" fill="#FCFCFC"/>
<path d="M53.7968 189.857L40.1725 188.943L33.7764 201.915L34.3638 187.474L21.9795 181.747L35.7344 181.878L41.9836 169.689L41.6573 183.379L53.7968 189.857Z" fill="#FCFCFC"/>
<path opacity="0.6" d="M112.602 320.291C87.8821 336.95 66.0668 358.211 50.1418 383.616C33.802 409.148 24.5703 438.579 23.399 468.87C23.0074 484.224 24.8822 499.553 28.9629 514.36C33.1618 529.443 39.5146 543.841 47.8249 557.11C56.3345 570.615 66.5393 582.975 78.19 593.887C90.0481 604.98 103.018 614.822 116.893 623.257C101.927 616.418 87.7102 608.046 74.4698 598.276C61.0706 588.345 49.0059 576.73 38.5734 563.718C16.9477 536.79 3.76616 504.069 0.6863 469.669C-2.38122 434.898 4.96123 399.214 20.1683 367.381C35.3753 335.547 58.1043 307.27 84.9614 284.166L112.602 320.291Z" fill="#0171E5"/>
<path d="M70.3256 358.195L60.6009 359.989L58.4308 370.236L56.2607 359.989L46.536 358.178L56.2281 355.812L58.4308 346.137L60.6499 355.812L70.3256 358.195Z" fill="white"/>
<path d="M34.5431 550.127L29.1097 551.138L27.9023 556.865L26.6785 551.138L21.2451 550.127L26.6622 548.805L27.9023 543.404L29.1423 548.805L34.5431 550.127Z" fill="white"/>
<path d="M31.6232 500.411L26.1898 501.406L24.9824 507.149L23.7749 501.406L18.3252 500.411L23.7423 499.089L24.9824 493.672L26.2224 499.089L31.6232 500.411Z" fill="white"/>
<path d="M63.1457 326.23L57.7123 327.242L56.4885 332.969L55.2811 327.242L49.8477 326.23L55.2648 324.909L56.4885 319.508L57.7286 324.909L63.1457 326.23Z" fill="white"/>
<path d="M47.402 562.529C47.0563 562.623 46.7512 562.828 46.5337 563.113C46.3161 563.397 46.1982 563.746 46.1982 564.104C46.1982 564.462 46.3161 564.81 46.5337 565.095C46.7512 565.379 47.0563 565.584 47.402 565.678C47.7476 565.584 48.0528 565.379 48.2704 565.095C48.4879 564.81 48.6058 564.462 48.6058 564.104C48.6058 563.746 48.4879 563.397 48.2704 563.113C48.0528 562.828 47.7476 562.623 47.402 562.529Z" fill="white"/>
<path d="M92.3688 318.562C92.0232 318.656 91.718 318.862 91.5005 319.146C91.2829 319.431 91.165 319.779 91.165 320.137C91.165 320.495 91.2829 320.843 91.5005 321.128C91.718 321.413 92.0232 321.618 92.3688 321.712C92.7145 321.618 93.0196 321.413 93.2372 321.128C93.4547 320.843 93.5726 320.495 93.5726 320.137C93.5726 319.779 93.4547 319.431 93.2372 319.146C93.0196 318.862 92.7145 318.656 92.3688 318.562Z" fill="white"/>
<path d="M7.55642 459.066C7.21077 459.16 6.90562 459.365 6.68808 459.65C6.47053 459.935 6.35266 460.283 6.35266 460.641C6.35266 460.999 6.47053 461.347 6.68808 461.632C6.90562 461.917 7.21077 462.122 7.55642 462.215C7.90208 462.122 8.20721 461.917 8.42476 461.632C8.64231 461.347 8.76017 460.999 8.76017 460.641C8.76017 460.283 8.64231 459.935 8.42476 459.65C8.20721 459.365 7.90208 459.16 7.55642 459.066Z" fill="white"/>
<path d="M44.5941 554.318C44.3209 554.351 44.0693 554.483 43.8868 554.689C43.7043 554.895 43.6035 555.161 43.6035 555.436C43.6035 555.711 43.7043 555.977 43.8868 556.183C44.0693 556.389 44.3209 556.521 44.5941 556.554C44.8672 556.521 45.1188 556.389 45.3013 556.183C45.4839 555.977 45.5846 555.711 45.5846 555.436C45.5846 555.161 45.4839 554.895 45.3013 554.689C45.1188 554.483 44.8672 554.351 44.5941 554.318Z" fill="white"/>
<path d="M6.9855 404.01C6.69124 404.01 6.40904 404.127 6.20096 404.335C5.99288 404.543 5.87598 404.825 5.87598 405.119C5.87598 405.414 5.99288 405.696 6.20096 405.904C6.40904 406.112 6.69124 406.229 6.9855 406.229C7.27977 406.229 7.56199 406.112 7.77006 405.904C7.97814 405.696 8.09503 405.414 8.09503 405.119C8.09503 404.825 7.97814 404.543 7.77006 404.335C7.56199 404.127 7.27977 404.01 6.9855 404.01Z" fill="white"/>
<path d="M18.3242 517.998C17.5599 518.054 16.8451 518.397 16.3234 518.959C15.8017 519.52 15.5117 520.258 15.5117 521.025C15.5117 521.791 15.8017 522.529 16.3234 523.091C16.8451 523.652 17.5599 523.995 18.3242 524.052C19.0886 523.995 19.8034 523.652 20.3251 523.091C20.8468 522.529 21.1367 521.791 21.1367 521.025C21.1367 520.258 20.8468 519.52 20.3251 518.959C19.8034 518.397 19.0886 518.054 18.3242 517.998Z" fill="white"/>
<path d="M21.2441 393.768C20.4436 393.768 19.6758 394.086 19.1097 394.652C18.5436 395.218 18.2256 395.986 18.2256 396.786C18.2256 397.587 18.5436 398.354 19.1097 398.921C19.6758 399.487 20.4436 399.805 21.2441 399.805C22.0447 399.805 22.8125 399.487 23.3786 398.921C23.9447 398.354 24.2627 397.587 24.2627 396.786C24.2627 395.986 23.9447 395.218 23.3786 394.652C22.8125 394.086 22.0447 393.768 21.2441 393.768Z" fill="white"/>
</svg>
