<svg width="52" height="50" viewBox="0 0 52 50" fill="none" xmlns="http://www.w3.org/2000/svg">
<g id="Group 82">
<g id="Group 81">
<ellipse id="Ellipse 25" cx="24.5931" cy="25" rx="24.5931" ry="25" fill="#014959"/>
<ellipse id="Ellipse 26" cx="27.4066" cy="25" rx="24.5931" ry="25" fill="#04D1FF"/>
</g>
<path id="Vector" d="M17.625 13.3343H37.2995M17.625 38.751H37.2995M20.3576 38.751V32.1205L23.4792 30.2264C24.1939 29.793 24.7854 29.1798 25.196 28.4466C25.6066 27.7134 25.8225 26.8852 25.8225 26.0426C25.8225 25.2 25.6066 24.3718 25.196 23.6386C24.7854 22.9054 24.1939 22.2923 23.4792 21.8588L20.3576 19.9647V13.3343M34.5669 13.3343V19.9647L31.4452 21.8588C30.7308 22.2925 30.1396 22.9057 29.7292 23.6389C29.3188 24.3721 29.103 25.2002 29.103 26.0426C29.103 26.8851 29.3188 27.7132 29.7292 28.4463C30.1396 29.1795 30.7308 29.7928 31.4452 30.2264L34.5669 32.1205V38.751" stroke="#014959" stroke-width="2"/>
</g>
</svg>
