<svg width="52" height="50" viewBox="0 0 52 50" fill="none" xmlns="http://www.w3.org/2000/svg">
<ellipse cx="24.5668" cy="25" rx="24.5668" ry="25" fill="#014959"/>
<ellipse cx="27.433" cy="25" rx="24.5668" ry="25" fill="#04D1FF"/>
<path d="M19.4176 14.5862C19.3003 14.4646 19.1606 14.3677 19.0065 14.3009C18.8523 14.2342 18.6867 14.199 18.5192 14.1973C18.3516 14.1957 18.1854 14.2276 18.03 14.2913C17.8746 14.3549 17.733 14.4491 17.6134 14.5684C16.2607 15.9355 15.1876 17.5614 14.4561 19.3522C13.7246 21.143 13.3492 23.0633 13.3516 25.0023C13.3494 27.0157 13.7543 29.0082 14.5412 30.8559C15.3282 32.7036 16.4803 34.3672 17.9261 35.7434C18.1695 35.972 18.4909 36.0953 18.8222 36.087C19.1535 36.0786 19.4685 35.9394 19.7005 35.6987C20.2556 35.1345 20.1871 34.2363 19.653 33.7166C18.4927 32.5926 17.5693 31.2404 16.9391 29.7424C16.3088 28.2443 15.9848 26.6316 15.9867 25.0023C15.9867 21.7059 17.2884 18.7166 19.4001 16.5416C19.9095 16.0148 19.9622 15.1398 19.4176 14.5862ZM22.5113 17.7345C22.2799 17.4925 21.9636 17.3536 21.6317 17.3482C21.2997 17.3429 20.9793 17.4715 20.7405 17.7059C19.79 18.6594 19.0355 19.7955 18.521 21.0481C18.0065 22.3008 17.7422 23.6449 17.7434 25.0023C17.7414 26.4376 18.0364 27.8573 18.6093 29.1691C19.1823 30.4809 20.0203 31.6555 21.069 32.6166C21.3101 32.8331 21.6239 32.9471 21.9454 32.9348C22.2669 32.9225 22.5714 32.7849 22.7959 32.5505C23.3721 31.9648 23.2649 31.0434 22.7238 30.5255C21.9821 29.8168 21.3913 28.961 20.988 28.011C20.5846 27.061 20.3772 26.037 20.3786 25.0023C20.3786 22.9487 21.1814 21.0845 22.4867 19.7166C22.9891 19.1916 23.0717 18.3023 22.5113 17.7345ZM32.2999 17.7345C32.5312 17.4925 32.8475 17.3536 33.1795 17.3482C33.5114 17.3429 33.8319 17.4715 34.0707 17.7059C35.0212 18.6594 35.7756 19.7955 36.2901 21.0481C36.8046 22.3008 37.069 23.6449 37.0677 25.0023C37.0697 26.4376 36.7747 27.8573 36.2018 29.1691C35.6289 30.4809 34.7908 31.6555 33.7422 32.6166C33.501 32.8331 33.1872 32.9471 32.8657 32.9348C32.5442 32.9225 32.2397 32.7849 32.0153 32.5505C31.4391 31.9648 31.5462 31.0434 32.0873 30.5255C32.829 29.8168 33.4198 28.961 33.8232 28.011C34.2266 27.061 34.434 26.037 34.4326 25.0023C34.4326 22.9487 33.6297 21.0845 32.3245 19.7166C31.822 19.1916 31.7395 18.3023 32.2999 17.7345ZM35.3935 14.588C35.5108 14.4664 35.6505 14.3694 35.8047 14.3027C35.9588 14.236 36.1244 14.2008 36.2919 14.1991C36.4595 14.1975 36.6257 14.2294 36.7811 14.293C36.9365 14.3567 37.0781 14.4509 37.1977 14.5702C38.5503 15.9371 39.6232 17.5626 40.3547 19.3531C41.0862 21.1436 41.4617 23.0636 41.4595 25.0023C41.4617 27.0157 41.0568 29.0082 40.2699 30.8559C39.4829 32.7036 38.3308 34.3672 36.885 35.7434C36.6416 35.972 36.3202 36.0953 35.9889 36.087C35.6576 36.0786 35.3426 35.9394 35.1107 35.6987C34.5555 35.1345 34.624 34.2363 35.1598 33.7166C36.3199 32.5924 37.2429 31.2402 37.8729 29.7421C38.5028 28.2441 38.8266 26.6315 38.8244 25.0023C38.8244 21.7059 37.5227 18.7166 35.4111 16.5416C34.9016 16.0148 34.8489 15.1398 35.3935 14.5862V14.588ZM27.4056 22.3237C26.7067 22.3237 26.0364 22.606 25.5422 23.1083C25.0481 23.6106 24.7704 24.2919 24.7704 25.0023C24.7704 25.7127 25.0481 26.394 25.5422 26.8964C26.0364 27.3987 26.7067 27.6809 27.4056 27.6809C28.1044 27.6809 28.7747 27.3987 29.2689 26.8964C29.7631 26.394 30.0407 25.7127 30.0407 25.0023C30.0407 24.2919 29.7631 23.6106 29.2689 23.1083C28.7747 22.606 28.1044 22.3237 27.4056 22.3237Z" fill="#014959"/>
</svg>
