<svg width="52" height="50" viewBox="0 0 52 50" fill="none" xmlns="http://www.w3.org/2000/svg">
<g id="Group 85">
<g id="Group 84">
<g id="Group 80">
<ellipse id="Ellipse 25" cx="24.5668" cy="25" rx="24.5668" ry="25" fill="#014959"/>
<ellipse id="Ellipse 26" cx="27.4329" cy="25" rx="24.5668" ry="25" fill="#04D1FF"/>
</g>
</g>
<path id="Vector" d="M21.5203 29.6432C22.0095 29.6432 22.4787 29.4456 22.8246 29.094C23.1706 28.7424 23.3649 28.2655 23.3649 27.7682C23.3709 27.7058 23.3709 27.643 23.3649 27.5807L26.7958 24.0932H27.3615L29.3414 26.1057V26.2057C29.3414 26.703 29.5357 27.1799 29.8816 27.5315C30.2276 27.8831 30.6967 28.0807 31.1859 28.0807C31.6752 28.0807 32.1443 27.8831 32.4903 27.5315C32.8362 27.1799 33.0305 26.703 33.0305 26.2057V26.1057L37.5067 21.5182C37.8715 21.5182 38.2282 21.4082 38.5315 21.2022C38.8349 20.9962 39.0713 20.7033 39.2109 20.3607C39.3505 20.0181 39.387 19.6411 39.3159 19.2774C39.2447 18.9137 39.069 18.5796 38.811 18.3174C38.5531 18.0551 38.2244 17.8766 37.8666 17.8042C37.5088 17.7319 37.1379 17.769 36.8008 17.9109C36.4638 18.0528 36.1757 18.2932 35.973 18.6015C35.7703 18.9098 35.6621 19.2723 35.6621 19.6432C35.6561 19.7055 35.6561 19.7683 35.6621 19.8307L31.2228 24.3432H31.0261L28.8987 22.1432C28.8987 21.6459 28.7043 21.169 28.3584 20.8174C28.0125 20.4657 27.5433 20.2682 27.0541 20.2682C26.5649 20.2682 26.0957 20.4657 25.7498 20.8174C25.4038 21.169 25.2095 21.6459 25.2095 22.1432L21.5203 25.8932C21.0311 25.8932 20.5619 26.0907 20.216 26.4424C19.8701 26.794 19.6757 27.2709 19.6757 27.7682C19.6757 28.2655 19.8701 28.7424 20.216 29.094C20.5619 29.4456 21.0311 29.6432 21.5203 29.6432ZM38.1216 34.6432H17.2163V13.3932C17.2163 13.0617 17.0867 12.7437 16.8561 12.5093C16.6255 12.2749 16.3127 12.1432 15.9866 12.1432C15.6604 12.1432 15.3476 12.2749 15.117 12.5093C14.8864 12.7437 14.7568 13.0617 14.7568 13.3932V35.8932C14.7568 36.2247 14.8864 36.5427 15.117 36.7771C15.3476 37.0115 15.6604 37.1432 15.9866 37.1432H38.1216C38.4477 37.1432 38.7605 37.0115 38.9911 36.7771C39.2218 36.5427 39.3513 36.2247 39.3513 35.8932C39.3513 35.5617 39.2218 35.2437 38.9911 35.0093C38.7605 34.7749 38.4477 34.6432 38.1216 34.6432Z" fill="#014959"/>
</g>
</svg>
