<svg width="52" height="50" viewBox="0 0 52 50" fill="none" xmlns="http://www.w3.org/2000/svg">
<g id="Group 83">
<g id="Group 80">
<path id="Ellipse 25" d="M49.1332 25C49.1332 38.8071 38.1344 50 24.5666 50C10.9988 50 0 38.8071 0 25C0 11.1929 10.9988 0 24.5666 0C38.1344 0 49.1332 11.1929 49.1332 25Z" fill="#014959"/>
<ellipse id="Ellipse 26" cx="27.4337" cy="25" rx="24.5666" ry="25" fill="#04D1FF"/>
</g>
<g id="Group">
<path id="Vector" d="M37.5224 23.9286V20.2143C37.5224 19.7218 37.3299 19.2494 36.9873 18.9011C36.6446 18.5528 36.1799 18.3572 35.6954 18.3572H18.3388C17.8543 18.3572 17.3896 18.5528 17.047 18.9011C16.7043 19.2494 16.5118 19.7218 16.5118 20.2143V33.2143C16.5118 33.7069 16.7043 34.1792 17.047 34.5275C17.3896 34.8758 17.8543 35.0715 18.3388 35.0715H35.6954C36.1799 35.0715 36.6446 34.8758 36.9873 34.5275C37.3299 34.1792 37.5224 33.7069 37.5224 33.2143V28.5715M22.614 13.7143L32.9731 10.9657C33.0895 10.9324 33.2114 10.9234 33.3313 10.9392C33.4513 10.9551 33.5668 10.9955 33.6709 11.0579C33.7751 11.1204 33.8657 11.2037 33.9373 11.3028C34.0089 11.4018 34.0601 11.5146 34.0876 11.6343L34.5992 13.7143" stroke="#014959" stroke-width="2" stroke-linecap="round" stroke-linejoin="round"/>
<path id="Vector_2" d="M39.3489 23.9277H34.7814C34.2769 23.9277 33.8679 24.3435 33.8679 24.8563V27.642C33.8679 28.1549 34.2769 28.5706 34.7814 28.5706H39.3489C39.8534 28.5706 40.2624 28.1549 40.2624 27.642V24.8563C40.2624 24.3435 39.8534 23.9277 39.3489 23.9277Z" stroke="#014959" stroke-width="2" stroke-linecap="round" stroke-linejoin="round"/>
</g>
</g>
</svg>
