<svg width="532" height="382" viewBox="0 0 532 382" fill="none" xmlns="http://www.w3.org/2000/svg">
<path d="M531.458 347.998H0V348.264H531.458V347.998Z" fill="#F0F0F0"/>
<path d="M377.335 361.393H366.195V361.658H377.335V361.393Z" fill="#F0F0F0"/>
<path d="M79.783 354.42H69.0156V354.686H79.783V354.42Z" fill="#F0F0F0"/>
<path d="M195.694 361.264H163.105V361.529H195.694V361.264Z" fill="#F0F0F0"/>
<path d="M248.721 355.195H227.803V355.461H248.721V355.195Z" fill="#F0F0F0"/>
<path d="M456.649 356.885H400.91V357.15H456.649V356.885Z" fill="#F0F0F0"/>
<path d="M130.698 354.42H84.918V354.686H130.698V354.42Z" fill="#F0F0F0"/>
<path d="M480.354 357.014H462.848V357.279H480.354V357.014Z" fill="#F0F0F0"/>
<path d="M251.912 300.593H46.6739C45.066 300.59 43.525 299.949 42.3891 298.811C41.2532 297.673 40.6152 296.131 40.6152 294.523V6.0161C40.6292 4.41751 41.2734 2.88898 42.4078 1.76255C43.5422 0.636111 45.0752 0.00273848 46.6739 0H251.912C253.522 0 255.066 0.639437 256.204 1.77764C257.342 2.91585 257.982 4.45958 257.982 6.06925V294.523C257.982 296.133 257.342 297.677 256.204 298.815C255.066 299.953 253.522 300.593 251.912 300.593ZM46.6739 0.212584C45.1365 0.2154 43.6631 0.828081 42.577 1.91615C41.4909 3.00421 40.881 4.47875 40.881 6.0161V294.523C40.881 296.061 41.4909 297.535 42.577 298.623C43.6631 299.711 45.1365 300.324 46.6739 300.327H251.912C253.451 300.324 254.925 299.712 256.013 298.624C257.101 297.536 257.713 296.062 257.716 294.523V6.0161C257.713 4.47778 257.101 3.00326 256.013 1.9155C254.925 0.827736 253.451 0.215394 251.912 0.212584H46.6739Z" fill="#F0F0F0"/>
<path d="M481.832 300.593H276.583C274.974 300.59 273.432 299.95 272.294 298.812C271.157 297.674 270.516 296.132 270.514 294.523V6.0161C270.53 4.41654 271.177 2.88802 272.313 1.76188C273.449 0.635739 274.983 0.00270862 276.583 0H481.832C483.429 0.00553194 484.959 0.64014 486.091 1.76628C487.223 2.89241 487.866 4.41934 487.88 6.0161V294.523C487.88 296.129 487.243 297.67 486.11 298.807C484.976 299.945 483.438 300.587 481.832 300.593ZM276.583 0.212584C275.045 0.215394 273.57 0.827736 272.482 1.9155C271.395 3.00326 270.782 4.47778 270.779 6.0161V294.523C270.782 296.062 271.395 297.536 272.482 298.624C273.57 299.712 275.045 300.324 276.583 300.327H481.832C483.37 300.324 484.845 299.712 485.933 298.624C487.02 297.536 487.633 296.062 487.636 294.523V6.0161C487.633 4.47778 487.02 3.00326 485.933 1.9155C484.845 0.827736 483.37 0.215394 481.832 0.212584H276.583Z" fill="#F0F0F0"/>
<path d="M463.281 284.191H434.051V347.998H463.281V284.191Z" fill="#E6E6E6"/>
<path d="M457.735 348H463.283V332.205H451.91L457.735 348Z" fill="#F5F5F5"/>
<path d="M296.488 284.191H267.258V347.998H296.488V284.191Z" fill="#EBEBEB"/>
<path d="M463.282 284.191H291.643V338.304H463.282V284.191Z" fill="#F5F5F5"/>
<path d="M297.35 289.356V318.555H348.231V289.356H297.35Z" fill="#E6E6E6"/>
<path d="M327.825 293.779H317.813C315.648 293.778 313.507 293.337 311.519 292.482C309.53 291.626 307.737 290.375 306.248 288.805H339.39C337.901 290.375 336.107 291.626 334.119 292.482C332.131 293.337 329.99 293.778 327.825 293.779Z" fill="#F0F0F0"/>
<path d="M352.016 289.356V318.555H402.897V289.356H352.016Z" fill="#E6E6E6"/>
<path d="M383.01 293.779H372.945C370.782 293.777 368.643 293.335 366.656 292.48C364.67 291.624 362.879 290.374 361.391 288.805H394.575C393.086 290.375 391.293 291.626 389.304 292.482C387.316 293.337 385.175 293.778 383.01 293.779Z" fill="#F0F0F0"/>
<path d="M406.691 289.368V318.566H457.573V289.368H406.691Z" fill="#E6E6E6"/>
<path d="M437.687 293.779H427.621C425.457 293.778 423.315 293.337 421.327 292.482C419.339 291.626 417.545 290.375 416.056 288.805H449.241C447.753 290.374 445.961 291.624 443.975 292.48C441.989 293.335 439.849 293.777 437.687 293.779Z" fill="#F0F0F0"/>
<path d="M297.191 348H291.643V332.205H303.016L297.191 348Z" fill="#F5F5F5"/>
<path d="M327.815 20.1836H66.8262V160.977H327.815V20.1836Z" fill="#E6E6E6"/>
<path d="M333.202 20.1836H69.3438V160.977H333.202V20.1836Z" fill="#EBEBEB"/>
<path d="M327.815 160.979H66.8262V171.013H327.815V160.979Z" fill="#E6E6E6"/>
<path d="M342.196 160.979H78.3376V171.013H342.196V160.979Z" fill="#E6E6E6"/>
<path d="M325.645 153.421V27.7422L76.9009 27.7422V153.421H325.645Z" fill="#FAFAFA"/>
<path d="M91.3594 153.421L135.725 27.7422H156.665L112.299 153.421H91.3594Z" fill="white"/>
<path d="M80.3982 110.82C80.246 110.82 80.1 110.759 79.9923 110.652C79.8847 110.544 79.8242 110.398 79.8242 110.246V32.653C79.8242 32.4997 79.8843 32.3526 79.9917 32.2433C80.099 32.134 80.245 32.0711 80.3982 32.0684C80.5532 32.0684 80.7019 32.13 80.8116 32.2396C80.9212 32.3492 80.9828 32.4979 80.9828 32.653V110.246C80.98 110.399 80.9172 110.545 80.8079 110.652C80.6985 110.76 80.5514 110.82 80.3982 110.82Z" fill="#E6E6E6"/>
<path d="M116.805 153.421L161.16 27.7422H169.323L124.968 153.421H116.805Z" fill="white"/>
<path d="M325.645 153.421V27.7422H324.688V153.421H325.645Z" fill="#E6E6E6"/>
<path d="M334.988 37.4147H74.0101L73.3086 30.6758H334.297L334.988 37.4147Z" fill="#EBEBEB"/>
<path d="M334.988 42.3357H74.0101L73.3086 35.6074H334.297L334.988 42.3357Z" fill="#EBEBEB"/>
<path d="M334.988 48.2565H74.0101L73.3085 41.5176H334.297L334.988 48.2565Z" fill="#EBEBEB"/>
<path d="M334.988 54.8365H74.0101L73.3086 48.0977H334.297L334.988 54.8365Z" fill="#EBEBEB"/>
<path d="M334.988 62.7107H74.0101L73.3086 55.9824H334.297L334.988 62.7107Z" fill="#E6E6E6"/>
<path d="M334.988 71.5876H74.0101L73.3086 64.8594H334.297L334.988 71.5876Z" fill="#E6E6E6"/>
<path d="M400.178 79.7188H363.773V121.661H400.178V79.7188Z" fill="#EBEBEB"/>
<path d="M407.543 79.7188H368.088V121.661H407.543V79.7188Z" fill="#F5F5F5"/>
<path d="M404.236 118.355V83.0234H371.392V118.355H404.236Z" fill="white"/>
<path d="M396.275 106.898V94.4936C396.275 92.891 394.976 91.5918 393.374 91.5918H382.256C380.653 91.5918 379.354 92.891 379.354 94.4936V106.898C379.354 108.5 380.653 109.8 382.256 109.8H393.374C394.976 109.8 396.275 108.5 396.275 106.898Z" fill="#FAFAFA"/>
<path d="M455.118 61.2771H418.713V103.22H455.118V61.2771Z" fill="#EBEBEB"/>
<path d="M462.484 61.2771H423.029V103.22H462.484V61.2771Z" fill="#F5F5F5"/>
<path d="M459.168 99.9134V64.582H426.324V99.9134H459.168Z" fill="white"/>
<path d="M451.207 88.4438V76.0502C451.207 74.4476 449.908 73.1484 448.305 73.1484H437.187C435.585 73.1484 434.285 74.4476 434.285 76.0502V88.4438C434.285 90.0464 435.585 91.3456 437.187 91.3456H448.305C449.908 91.3456 451.207 90.0464 451.207 88.4438Z" fill="#FAFAFA"/>
<path d="M276.708 223.924H217.652V347.998H276.708V223.924Z" fill="#E6E6E6"/>
<path d="M270.776 347.998H276.707V331.098H264.537L270.776 347.998Z" fill="#E6E6E6"/>
<path d="M131.44 223.924H72.3848V347.998H131.44V223.924Z" fill="#E6E6E6"/>
<path d="M276.708 223.924H126.252V337.635H276.708V223.924Z" fill="#F5F5F5"/>
<path d="M270.854 228.963H129.613V260.149H270.854V228.963Z" fill="#E6E6E6"/>
<path d="M208.152 238.656H194.813C189.02 238.656 183.482 234.809 179.496 228.027H223.48C219.494 234.809 213.956 238.656 208.152 238.656Z" fill="#F5F5F5"/>
<path d="M132.194 347.998H126.252V331.098H138.422L132.194 347.998Z" fill="#E6E6E6"/>
<path d="M270.854 265.188H129.613V296.373H270.854V265.188Z" fill="#E6E6E6"/>
<path d="M208.152 274.869H194.813C189.02 274.869 183.482 271.022 179.496 264.24H223.48C219.494 271.043 213.956 274.869 208.152 274.869Z" fill="#F5F5F5"/>
<path d="M270.854 301.412H129.613V332.598H270.854V301.412Z" fill="#E6E6E6"/>
<path d="M208.152 311.094H194.813C189.02 311.094 183.482 307.246 179.496 300.465H223.48C219.494 307.246 213.956 311.094 208.152 311.094Z" fill="#F5F5F5"/>
<path d="M406.597 272.743H408.361C408.361 269.119 408.361 259.903 408.553 238.794C408.861 200.529 409.477 198.201 409.477 198.201L405.279 215.867C402.611 235.424 406.033 255.099 406.597 272.743Z" fill="#E6E6E6"/>
<path d="M398.785 209.32C389.548 200.19 371.51 198.967 353.079 198.202C345.851 197.904 373.275 211.797 387.018 222.203C397.647 230.281 404.206 232.183 407.745 240.899C408.16 229.59 406.746 217.186 398.785 209.32Z" fill="#E6E6E6"/>
<path d="M408.936 189.465C415.197 177.571 430.949 166.368 448.626 162.127C455.556 160.458 432.544 184.087 423.796 199.329C417.004 211.17 407.99 225.073 406.598 235.064C404.483 215.262 402.676 201.359 408.936 189.465Z" fill="#E6E6E6"/>
<path d="M408.16 284.193C405.197 284.19 402.347 283.054 400.194 281.019C398.04 278.984 396.745 276.203 396.575 273.245L395.512 262.754H420.735L419.672 273.245C419.499 276.189 418.214 278.958 416.077 280.991C413.94 283.024 411.11 284.168 408.16 284.193Z" fill="#F0F0F0"/>
<path d="M422.38 266.792H393.883L393.064 255.1H423.198L422.38 266.792Z" fill="#F5F5F5"/>
<path d="M260.907 93.3344C262.352 111.404 283.228 134.873 289.903 141.973C290.166 142.255 290.483 142.479 290.836 142.632C291.189 142.786 291.57 142.865 291.954 142.865C292.339 142.865 292.72 142.786 293.073 142.632C293.426 142.479 293.743 142.255 294.006 141.973C300.702 134.873 321.557 111.393 323.002 93.3344C323.052 92.78 322.938 92.2231 322.676 91.7322C322.413 91.2413 322.013 90.8377 321.525 90.5709L293.294 75.3393C292.883 75.1141 292.423 74.9961 291.954 74.9961C291.486 74.9961 291.026 75.1141 290.615 75.3393L262.384 90.5709C261.897 90.8398 261.499 91.2438 261.237 91.7342C260.975 92.2246 260.86 92.7803 260.907 93.3344Z" fill="#0171E5"/>
<path opacity="0.3" d="M289.861 135.128C281.357 125.562 269.028 109.48 266.083 96.6823C265.95 96.0875 266.009 95.4655 266.254 94.9071C266.499 94.3487 266.916 93.8832 267.444 93.5785L290.552 80.2921C290.981 80.0469 291.466 79.918 291.96 79.918C292.454 79.918 292.939 80.0469 293.368 80.2921L316.476 93.536C317.018 93.847 317.443 94.3276 317.685 94.9039C317.927 95.4801 317.973 96.1199 317.815 96.7248C314.882 109.544 302.594 125.562 294.049 135.17C293.783 135.464 293.459 135.699 293.096 135.858C292.733 136.017 292.341 136.097 291.945 136.093C291.549 136.089 291.159 136.001 290.799 135.834C290.44 135.668 290.12 135.427 289.861 135.128Z" fill="#0171E5"/>
<path opacity="0.3" d="M289.861 135.128C281.357 125.562 269.028 109.48 266.083 96.6823C265.95 96.0875 266.009 95.4655 266.254 94.9071C266.499 94.3487 266.916 93.8832 267.444 93.5785L290.552 80.2921C290.981 80.0469 291.466 79.918 291.96 79.918C292.454 79.918 292.939 80.0469 293.368 80.2921L316.476 93.536C317.018 93.847 317.443 94.3276 317.685 94.9039C317.927 95.4801 317.973 96.1199 317.815 96.7248C314.882 109.544 302.594 125.562 294.049 135.17C293.783 135.464 293.459 135.699 293.096 135.858C292.733 136.017 292.341 136.097 291.945 136.093C291.549 136.089 291.159 136.001 290.799 135.834C290.44 135.668 290.12 135.427 289.861 135.128Z" fill="white"/>
<path d="M288.808 115.729C288.598 115.73 288.391 115.688 288.198 115.608C288.004 115.528 287.829 115.41 287.681 115.261L279.805 107.353C279.523 107.051 279.37 106.651 279.377 106.238C279.384 105.825 279.552 105.431 279.844 105.139C280.136 104.847 280.53 104.68 280.943 104.672C281.356 104.665 281.756 104.818 282.058 105.1L288.808 111.839L304.752 95.9483C305.052 95.6523 305.457 95.4863 305.878 95.4863C306.3 95.4863 306.705 95.6523 307.005 95.9483C307.154 96.0956 307.272 96.271 307.353 96.4644C307.434 96.6578 307.476 96.8654 307.476 97.075C307.476 97.2846 307.434 97.4921 307.353 97.6855C307.272 97.8789 307.154 98.0543 307.005 98.2016L289.998 115.208C289.846 115.372 289.662 115.503 289.457 115.593C289.252 115.682 289.031 115.729 288.808 115.729Z" fill="white"/>
<path d="M355.728 158.725H208.333C201.289 158.725 195.578 164.435 195.578 171.48V364.824C195.578 371.868 201.289 377.579 208.333 377.579H355.728C362.772 377.579 368.483 371.868 368.483 364.824V171.48C368.483 164.435 362.772 158.725 355.728 158.725Z" fill="#263238"/>
<path d="M365.655 158.725H218.261C211.216 158.725 205.506 164.435 205.506 171.48V364.824C205.506 371.868 211.216 377.579 218.261 377.579H365.655C372.7 377.579 378.41 371.868 378.41 364.824V171.48C378.41 164.435 372.7 158.725 365.655 158.725Z" fill="#0171E5"/>
<path d="M235.715 377.59H221.366C220.925 377.59 220.568 377.947 220.568 378.387V380.694C220.568 381.134 220.925 381.491 221.366 381.491H235.715C236.155 381.491 236.512 381.134 236.512 380.694V378.387C236.512 377.947 236.155 377.59 235.715 377.59Z" fill="#263238"/>
<path d="M362.539 377.59H348.19C347.749 377.59 347.393 377.947 347.393 378.387V380.694C347.393 381.134 347.749 381.491 348.19 381.491H362.539C362.979 381.491 363.336 381.134 363.336 380.694V378.387C363.336 377.947 362.979 377.59 362.539 377.59Z" fill="#263238"/>
<path opacity="0.2" d="M365.655 158.725H218.261C211.216 158.725 205.506 164.435 205.506 171.48V364.824C205.506 371.868 211.216 377.579 218.261 377.579H365.655C372.7 377.579 378.41 371.868 378.41 364.824V171.48C378.41 164.435 372.7 158.725 365.655 158.725Z" fill="black"/>
<g style="mix-blend-mode:color-dodge" opacity="0.4">
<path d="M348.285 352.346H235.616C234.326 352.343 233.089 351.829 232.177 350.917C231.265 350.004 230.751 348.768 230.748 347.477V188.848C230.748 187.556 231.261 186.316 232.173 185.402C233.086 184.487 234.324 183.972 235.616 183.969H348.285C349.577 183.972 350.816 184.487 351.728 185.402C352.641 186.316 353.153 187.556 353.153 188.848V347.477C353.151 348.768 352.637 350.004 351.725 350.917C350.812 351.829 349.576 352.343 348.285 352.346ZM235.616 184.5C234.465 184.503 233.362 184.963 232.549 185.778C231.736 186.592 231.28 187.697 231.28 188.848V347.477C231.28 348.047 231.392 348.611 231.61 349.137C231.828 349.663 232.147 350.141 232.55 350.544C232.952 350.947 233.43 351.266 233.957 351.484C234.483 351.702 235.047 351.814 235.616 351.814H348.285C349.435 351.814 350.539 351.357 351.352 350.544C352.165 349.731 352.622 348.628 352.622 347.477V188.848C352.622 187.697 352.165 186.592 351.352 185.778C350.539 184.963 349.436 184.503 348.285 184.5H235.616Z" fill="#E6E6E6"/>
</g>
<path d="M350.775 347.478V188.838C350.775 187.47 349.667 186.361 348.299 186.361H235.619C234.251 186.361 233.142 187.47 233.142 188.838V347.478C233.142 348.846 234.251 349.955 235.619 349.955H348.299C349.667 349.955 350.775 348.846 350.775 347.478Z" fill="#0171E5"/>
<path opacity="0.1" d="M350.775 347.478V188.838C350.775 187.47 349.667 186.361 348.299 186.361H235.619C234.251 186.361 233.142 187.47 233.142 188.838V347.478C233.142 348.846 234.251 349.955 235.619 349.955H348.299C349.667 349.955 350.775 348.846 350.775 347.478Z" fill="white"/>
<path d="M382.122 203.846H381.059V212.817H382.122V203.846Z" fill="#0171E5"/>
<path d="M382.122 171.48H381.059V194.397H382.122V171.48Z" fill="#0171E5"/>
<path opacity="0.1" d="M291.952 307.501C311.97 307.501 328.198 291.273 328.198 271.255C328.198 251.238 311.97 235.01 291.952 235.01C271.935 235.01 255.707 251.238 255.707 271.255C255.707 291.273 271.935 307.501 291.952 307.501Z" fill="black"/>
<path d="M291.952 217.431C296.842 217.431 300.806 213.467 300.806 208.577C300.806 203.687 296.842 199.723 291.952 199.723C287.062 199.723 283.098 203.687 283.098 208.577C283.098 213.467 287.062 217.431 291.952 217.431Z" fill="#0171E5"/>
<path opacity="0.6" d="M291.899 217.407C296.789 217.407 300.753 213.443 300.753 208.553C300.753 203.663 296.789 199.699 291.899 199.699C287.009 199.699 283.045 203.663 283.045 208.553C283.045 213.443 287.009 217.407 291.899 217.407Z" fill="white"/>
<path d="M291.951 215.57C290.568 215.57 289.216 215.16 288.065 214.391C286.915 213.623 286.019 212.53 285.489 211.252C284.96 209.974 284.822 208.568 285.091 207.211C285.361 205.855 286.027 204.608 287.006 203.63C287.984 202.652 289.23 201.986 290.587 201.716C291.943 201.446 293.35 201.585 294.627 202.114C295.905 202.644 296.998 203.54 297.766 204.69C298.535 205.84 298.945 207.192 298.945 208.576C298.942 210.43 298.204 212.207 296.893 213.518C295.582 214.829 293.805 215.567 291.951 215.57ZM291.951 202.113C290.673 202.113 289.423 202.492 288.361 203.202C287.298 203.912 286.47 204.922 285.98 206.103C285.491 207.284 285.363 208.583 285.613 209.837C285.862 211.09 286.478 212.242 287.381 213.145C288.285 214.049 289.437 214.665 290.69 214.914C291.944 215.163 293.243 215.036 294.424 214.546C295.605 214.057 296.614 213.229 297.324 212.166C298.035 211.103 298.414 209.854 298.414 208.576C298.411 206.863 297.729 205.221 296.518 204.009C295.306 202.798 293.664 202.116 291.951 202.113Z" fill="#0171E5"/>
<path d="M232.993 207.193H229.05C228.181 207.193 227.477 207.898 227.477 208.766V230.344C227.477 231.212 228.181 231.917 229.05 231.917H232.993C233.862 231.917 234.566 231.212 234.566 230.344V208.766C234.566 207.898 233.862 207.193 232.993 207.193Z" fill="#0171E5"/>
<path opacity="0.6" d="M232.993 207.193H229.05C228.181 207.193 227.477 207.898 227.477 208.766V230.344C227.477 231.212 228.181 231.917 229.05 231.917H232.993C233.862 231.917 234.566 231.212 234.566 230.344V208.766C234.566 207.898 233.862 207.193 232.993 207.193Z" fill="white"/>
<path d="M232.993 304.396H229.05C228.181 304.396 227.477 305.101 227.477 305.97V327.547C227.477 328.416 228.181 329.12 229.05 329.12H232.993C233.862 329.12 234.566 328.416 234.566 327.547V305.97C234.566 305.101 233.862 304.396 232.993 304.396Z" fill="#0171E5"/>
<path opacity="0.6" d="M232.993 304.396H229.05C228.181 304.396 227.477 305.101 227.477 305.97V327.547C227.477 328.416 228.181 329.12 229.05 329.12H232.993C233.862 329.12 234.566 328.416 234.566 327.547V305.97C234.566 305.101 233.862 304.396 232.993 304.396Z" fill="white"/>
<path d="M291.952 304.407C311.97 304.407 328.198 288.179 328.198 268.161C328.198 248.144 311.97 231.916 291.952 231.916C271.935 231.916 255.707 248.144 255.707 268.161C255.707 288.179 271.935 304.407 291.952 304.407Z" fill="#0171E5"/>
<path opacity="0.6" d="M291.952 304.407C311.97 304.407 328.198 288.179 328.198 268.161C328.198 248.144 311.97 231.916 291.952 231.916C271.935 231.916 255.707 248.144 255.707 268.161C255.707 288.179 271.935 304.407 291.952 304.407Z" fill="white"/>
<path d="M274.021 248.714L272.518 250.217L309.902 287.601L311.405 286.098L274.021 248.714Z" fill="#0171E5"/>
<path d="M309.902 248.713L272.518 286.098L274.021 287.601L311.405 250.217L309.902 248.713Z" fill="#0171E5"/>
<path opacity="0.2" d="M309.779 248.592L272.395 285.977L273.898 287.48L311.282 250.095L309.779 248.592Z" fill="black"/>
<path opacity="0.2" d="M273.906 248.6L272.402 250.104L309.787 287.488L311.29 285.985L273.906 248.6Z" fill="black"/>
<path d="M291.846 295.553C286.403 295.556 281.081 293.943 276.554 290.921C272.028 287.898 268.499 283.601 266.414 278.573C264.33 273.545 263.783 268.011 264.844 262.672C265.905 257.334 268.525 252.429 272.373 248.58C276.221 244.73 281.124 242.108 286.463 241.045C291.801 239.983 297.335 240.527 302.364 242.609C307.393 244.692 311.692 248.219 314.716 252.745C317.74 257.27 319.354 262.591 319.354 268.035C319.349 275.33 316.449 282.324 311.292 287.483C306.135 292.643 299.141 295.545 291.846 295.553ZM291.846 242.642C286.823 242.639 281.913 244.127 277.736 246.916C273.558 249.705 270.302 253.67 268.378 258.31C266.455 262.95 265.95 268.056 266.929 272.982C267.908 277.909 270.325 282.434 273.876 285.986C277.427 289.539 281.952 291.958 286.878 292.939C291.804 293.92 296.91 293.417 301.55 291.496C306.191 289.574 310.158 286.319 312.948 282.143C315.739 277.967 317.229 273.057 317.229 268.035C317.223 261.304 314.547 254.85 309.789 250.089C305.03 245.328 298.577 242.65 291.846 242.642Z" fill="#0171E5"/>
<path d="M299.978 276.177C304.473 271.681 304.473 264.393 299.978 259.897C295.482 255.402 288.194 255.402 283.698 259.897C279.203 264.393 279.203 271.681 283.698 276.177C288.194 280.672 295.482 280.672 299.978 276.177Z" fill="#0171E5"/>
<path opacity="0.2" d="M291.846 295.553C286.403 295.556 281.081 293.943 276.554 290.921C272.028 287.898 268.499 283.601 266.414 278.573C264.33 273.545 263.783 268.011 264.844 262.672C265.905 257.334 268.525 252.429 272.373 248.58C276.221 244.73 281.124 242.108 286.463 241.045C291.801 239.983 297.335 240.527 302.364 242.609C307.393 244.692 311.692 248.219 314.716 252.745C317.74 257.27 319.354 262.591 319.354 268.035C319.349 275.33 316.449 282.324 311.292 287.483C306.135 292.643 299.141 295.545 291.846 295.553ZM291.846 242.642C286.823 242.639 281.913 244.127 277.736 246.916C273.558 249.705 270.302 253.67 268.378 258.31C266.455 262.95 265.95 268.056 266.929 272.982C267.908 277.909 270.325 282.434 273.876 285.986C277.427 289.539 281.952 291.958 286.878 292.939C291.804 293.92 296.91 293.417 301.55 291.496C306.191 289.574 310.158 286.319 312.948 282.143C315.739 277.967 317.229 273.057 317.229 268.035C317.223 261.304 314.547 254.85 309.789 250.089C305.03 245.328 298.577 242.65 291.846 242.642Z" fill="black"/>
<path opacity="0.2" d="M299.978 276.177C304.473 271.681 304.473 264.393 299.978 259.897C295.482 255.402 288.194 255.402 283.698 259.897C279.203 264.393 279.203 271.681 283.698 276.177C288.194 280.672 295.482 280.672 299.978 276.177Z" fill="black"/>
</svg>
