<svg width="201" height="166" viewBox="0 0 201 166" fill="none" xmlns="http://www.w3.org/2000/svg">
<path d="M193.224 55.6113C199.937 66.3399 199.572 81.5084 190.473 98.575C172.316 132.693 126.26 161.419 87.6887 162.753C68.3045 163.423 54.4961 157.05 47.8229 146.25C46.0888 143.485 42.0937 137.422 40.3572 134.587C33.6442 123.858 34.0236 108.689 43.1093 91.637C61.2667 57.5334 107.322 28.7929 145.893 27.4591C165.193 26.7916 178.985 33.1086 185.684 43.8378" fill="#0171E5"/>
<path opacity="0.65" d="M87.7012 162.752C68.317 163.422 54.5086 157.049 47.8354 146.249C46.1013 143.484 42.1062 137.421 40.3697 134.586C33.6567 123.857 34.0361 108.688 43.1218 91.636L87.7012 162.752Z" fill="black"/>
<path opacity="0.55" d="M128.874 152.485C115.244 158.606 100.964 162.292 87.7026 162.751L43.0809 91.6363C49.3548 79.8653 58.9281 68.7429 70.3764 59.1518L128.874 152.485Z" fill="black"/>
<path opacity="0.4" d="M70.3763 59.1531C92.1211 40.9711 120.583 28.3339 145.865 27.4596C165.164 26.7922 178.957 33.1092 185.655 43.8384L193.224 55.6109C199.937 66.3395 199.572 81.508 190.472 98.5747C178.533 120.923 154.747 140.941 128.86 152.487L70.3763 59.1531Z" fill="black"/>
<path d="M182.918 86.801C164.761 120.905 118.705 149.645 80.1341 150.979C41.5632 152.313 24.9385 125.768 43.0808 91.637C61.2231 57.5057 107.293 28.7647 145.865 27.459C184.437 26.1534 201.062 52.7262 182.918 86.801Z" fill="#0171E5"/>
<path opacity="0.2" d="M182.918 86.801C164.761 120.905 118.705 149.645 80.1341 150.979C41.5632 152.313 24.9385 125.768 43.0808 91.637C61.2231 57.5057 107.293 28.7647 145.865 27.459C184.437 26.1534 201.062 52.7262 182.918 86.801Z" fill="black"/>
<path d="M165.451 87.4068C151.83 112.992 117.306 134.553 88.342 135.541C59.3781 136.529 46.9378 116.619 60.545 91.0348C74.1522 65.4504 108.691 43.9022 137.654 42.9005C166.617 41.8989 179.072 61.822 165.451 87.4068Z" fill="#FAFAFA"/>
<path d="M149.553 87.9547C140.071 105.783 116.013 120.796 95.8246 121.495C75.6362 122.193 66.9658 108.368 76.4606 90.4825C85.9553 72.5971 110.001 57.6408 130.189 56.9426C150.378 56.2444 159.036 70.1262 149.553 87.9547Z" fill="#0171E5"/>
<path opacity="0.2" d="M149.553 87.9547C140.071 105.783 116.013 120.796 95.8246 121.495C75.6362 122.193 66.9658 108.368 76.4606 90.4825C85.9553 72.5971 110.001 57.6408 130.189 56.9426C150.378 56.2444 159.036 70.1262 149.553 87.9547Z" fill="black"/>
<path d="M133.231 88.5215C127.922 98.3946 114.664 106.706 103.491 107.093C92.3172 107.479 87.5173 99.7919 92.7693 89.9207C98.0214 80.0495 111.336 71.7357 122.509 71.3493C133.683 70.9629 138.483 78.6503 133.231 88.5215Z" fill="#FAFAFA"/>
<path d="M121.535 88.9245C120.207 91.124 118.38 92.9797 116.201 94.341C114.022 95.7023 111.553 96.5309 108.994 96.7596C104.282 96.9225 102.249 93.6735 104.506 89.5134C105.826 87.3089 107.646 85.446 109.82 84.0752C111.993 82.7045 114.458 81.8644 117.016 81.6229C121.728 81.46 123.806 84.7639 121.535 88.9245Z" fill="#455A64"/>
<path d="M34.9961 27.1729C34.9961 27.1729 35.8549 14.0595 30.4102 9.72665C24.9654 5.3938 20.1575 15.3628 23.7063 18.2205L34.9961 27.1729Z" fill="#0171E5"/>
<path d="M34.9954 27.1736C34.9954 27.1736 22.4324 31.0458 16.9437 26.7208C11.4551 22.3958 20.1067 15.4132 23.6636 18.215L34.9954 27.1736Z" fill="#0171E5"/>
<path opacity="0.5" d="M34.9954 27.1736C34.9954 27.1736 22.4324 31.0458 16.9437 26.7208C11.4551 22.3958 20.1067 15.4132 23.6636 18.215L34.9954 27.1736Z" fill="white"/>
<path d="M100.255 77.0606L15.8004 10.3206L14.1649 12.4357L100.002 80.262L100.255 77.0606Z" fill="#37474F"/>
<path d="M16.6905 15.4429C17.4076 15.1539 18.023 14.6588 18.4588 14.0202C18.8946 13.3816 19.1313 12.6281 19.139 11.8549C19.1467 11.0818 18.925 10.3237 18.502 9.67657C18.079 9.0294 17.4736 8.52217 16.7623 8.21899C16.0511 7.91581 15.2659 7.8303 14.5061 7.97325C13.7462 8.1162 13.0458 8.48119 12.4934 9.02211C11.9409 9.56303 11.5612 10.2556 11.4023 11.0123C11.2434 11.7689 11.3123 12.5557 11.6004 13.2732C11.7904 13.7512 12.0731 14.1869 12.4324 14.5552C12.7916 14.9234 13.2202 15.2168 13.6934 15.4185C14.1666 15.6202 14.6751 15.7262 15.1895 15.7304C15.7039 15.7346 16.214 15.6369 16.6905 15.4429Z" fill="#263238"/>
<path d="M97.9205 76.9177C95.3615 72.2644 102.161 65.853 102.161 65.853L113.986 89.606L97.9205 76.9177Z" fill="#0171E5"/>
<path d="M97.9205 76.9177C95.3615 72.2644 102.161 65.853 102.161 65.853L113.986 89.606L97.9205 76.9177Z" fill="#0171E5"/>
<path d="M88.1436 83.5958C88.1436 83.5958 92.8081 75.4889 97.9224 76.9061L113.988 89.5944L88.1436 83.5958Z" fill="#0171E5"/>
<path opacity="0.5" d="M88.1436 83.5958C88.1436 83.5958 92.8081 75.4889 97.9224 76.9061L113.988 89.5944L88.1436 83.5958Z" fill="white"/>
</svg>
